<?xml version="1.0" standalone="no"?>
<!DOCTYPE svg PUBLIC "-//W3C//DTD SVG 20010904//EN"
 "http://www.w3.org/TR/2001/REC-SVG-20010904/DTD/svg10.dtd">
<svg version="1.0" xmlns="http://www.w3.org/2000/svg"
 width="229.000000pt" height="226.000000pt" viewBox="0 0 229.000000 226.000000"
 preserveAspectRatio="xMidYMid meet">
<metadata>
Created by potrace 1.16, written by Peter Selinger 2001-2019
</metadata>
<g transform="translate(0.000000,226.000000) scale(0.100000,-0.100000)"
fill="#000000" stroke="none">
<path d="M0 1130 l0 -1130 1145 0 1145 0 0 1130 0 1130 -1145 0 -1145 0 0
-1130z m802 533 c0 -10 2 -23 2 -28 1 -6 12 -26 25 -44 22 -30 24 -43 22 -118
-2 -69 1 -83 14 -83 12 0 15 10 13 45 -1 36 4 51 23 71 13 14 23 27 22 30 -2
2 -3 10 -3 17 0 6 12 -10 27 -38 15 -30 25 -64 24 -85 0 -19 3 -42 9 -50 5 -8
10 -10 10 -4 0 8 40 11 133 10 72 -2 138 -1 145 2 7 2 12 23 12 52 0 34 5 52
20 65 11 10 18 21 15 24 -2 4 0 13 5 20 6 10 10 8 15 -10 4 -13 14 -32 23 -42
9 -11 15 -34 14 -61 -2 -36 1 -45 17 -49 24 -6 31 0 31 25 0 11 5 16 10 13 6
-4 10 6 10 24 0 16 -5 31 -11 33 -6 2 -11 20 -12 41 -1 27 6 44 27 65 15 16
26 33 25 38 -1 5 3 20 8 34 11 25 11 24 18 -12 4 -20 16 -44 26 -54 10 -9 19
-25 19 -35 0 -9 6 -20 13 -23 7 -4 8 -8 2 -11 -6 -3 -9 -40 -7 -89 3 -75 1
-85 -15 -89 -12 -3 -9 -5 10 -6 28 -1 39 -21 12 -21 -13 0 -15 -12 -13 -71 l3
-71 214 1 c118 1 218 4 222 7 16 10 22 -23 22 -115 -1 -92 0 -97 26 -118 l26
-23 -243 3 -242 2 0 -242 0 -243 -119 0 -120 0 -4 113 c-7 195 -47 303 -130
347 -33 18 -52 21 -80 16 -109 -20 -167 -148 -167 -367 l0 -109 -120 0 c-100
0 -120 3 -120 15 0 12 -15 15 -75 15 l-75 0 -1 48 c-2 67 -11 103 -31 116 -28
17 -42 -7 -49 -84 -3 -39 -8 -72 -10 -75 -3 -2 -47 -5 -99 -6 l-95 -2 -3 212
c-2 158 -5 211 -15 212 -6 1 -1 4 13 8 14 4 116 7 228 7 111 -1 202 2 202 7 0
4 -107 7 -237 7 -227 0 -237 1 -217 18 19 14 22 28 23 91 1 41 4 78 7 82 2 4
-4 13 -13 19 -13 8 -14 13 -5 16 6 3 12 12 12 20 0 12 38 14 230 14 l230 0 0
59 c0 54 2 60 23 64 16 3 13 5 -10 6 -22 1 -33 6 -33 16 0 8 5 15 10 15 6 0
10 16 10 35 0 19 5 35 10 35 6 0 10 14 10 30 0 17 -4 30 -9 30 -14 0 -20 51
-9 79 5 14 17 34 26 44 9 11 17 24 18 30 0 7 2 20 2 30 1 9 7 17 12 17 6 0 11
-8 12 -17z m1198 -958 c0 -115 -2 -210 -3 -211 -3 -3 -124 -7 -173 -5 l-41 1
-6 68 c-5 47 -12 71 -24 80 -29 21 -53 -18 -53 -86 0 -30 -2 -53 -5 -50 -3 2
-5 71 -6 152 0 129 -2 146 -14 130 -8 -11 -15 -36 -15 -56 0 -20 -4 -40 -10
-43 -6 -3 -10 -48 -10 -101 l0 -94 -30 0 -30 0 0 190 c0 120 4 190 10 190 6 0
10 -6 11 -12 0 -10 2 -10 6 0 2 6 9 10 14 6 5 -3 9 -1 9 4 0 16 39 1 43 -17 3
-9 5 0 6 20 0 20 3 38 6 41 3 2 75 4 161 4 l156 -1 -2 -210z"/>
</g>
</svg>
