<?xml version="1.0" standalone="no"?>
<!DOCTYPE svg PUBLIC "-//W3C//DTD SVG 20010904//EN"
 "http://www.w3.org/TR/2001/REC-SVG-20010904/DTD/svg10.dtd">
<svg version="1.0" xmlns="http://www.w3.org/2000/svg"
 width="380.000000pt" height="440.000000pt" viewBox="0 0 1280.000000 640.000000"
 preserveAspectRatio="xMidYMid meet">
<metadata>
Created by potrace 1.15, written by Peter Selinger 2001-2017
</metadata>
<g transform="translate(0.000000,640.000000) scale(0.100000,-0.100000)"
fill=" #FDB813" stroke="none">
<path d="M11236 4625 c-16 -16 -32 -87 -40 -180 -3 -33 -11 -110 -17 -172 -13
-126 -8 -166 24 -206 51 -62 139 -47 164 27 11 31 28 315 25 412 -1 51 -29 94
-75 115 -51 23 -61 23 -81 4z"/>
<path d="M10380 4442 c-45 -22 -66 -64 -54 -108 6 -21 64 -95 164 -206 230
-256 232 -258 281 -258 57 0 99 42 99 99 0 39 -9 51 -162 222 -90 100 -174
195 -187 211 -21 27 -75 58 -98 58 -4 0 -24 -8 -43 -18z"/>
<path d="M12108 4394 c-56 -40 -252 -285 -297 -373 -26 -48 9 -117 70 -136 11
-4 35 -1 54 5 29 9 56 41 161 188 69 96 135 193 146 213 19 36 19 40 2 67 -17
30 -62 62 -86 62 -7 0 -30 -12 -50 -26z"/>
<path d="M5543 4345 c-58 -35 -87 -84 -81 -140 l5 -43 -31 9 c-94 27 -214 -5
-270 -72 -81 -96 -72 -177 30 -254 l40 -31 -49 -30 c-56 -33 -127 -107 -151
-158 -67 -141 70 -238 276 -195 66 14 175 63 205 91 l23 22 16 -22 c56 -80
241 -78 313 3 l31 35 21 -21 c32 -32 142 -80 213 -92 129 -22 239 30 266 127
6 24 9 53 5 65 -6 21 -5 21 88 15 160 -11 260 26 298 112 63 142 11 291 -113
325 -41 11 -127 4 -168 -14 -12 -6 -15 4 -16 60 0 113 -45 171 -157 205 -58
17 -86 20 -171 15 -139 -7 -227 -48 -276 -129 l-17 -29 -18 27 c-28 43 -85 93
-137 120 -62 32 -120 31 -175 -1z"/>
<path d="M538 4310 c-58 -31 -92 -83 -92 -140 l0 -48 -30 9 c-83 24 -177 4
-240 -52 -112 -99 -99 -227 28 -291 l30 -15 -40 -19 c-58 -27 -157 -130 -178
-186 -44 -113 30 -188 184 -188 102 0 232 43 300 98 l24 20 26 -28 c68 -73
243 -63 308 16 l29 34 19 -21 c43 -48 185 -99 275 -99 123 0 209 73 209 179
l0 39 103 -5 c134 -7 199 10 250 66 41 46 57 93 57 172 0 163 -137 247 -303
183 -8 -3 -12 14 -13 54 -1 74 -35 146 -84 178 -88 58 -271 69 -392 24 -58
-22 -138 -88 -138 -115 0 -25 -13 -16 -55 37 -50 64 -142 118 -200 117 -22 0
-57 -9 -77 -19z"/>
<path d="M9943 3950 c-29 -18 -33 -25 -33 -65 0 -42 3 -47 43 -72 80 -50 355
-166 494 -207 49 -15 123 45 123 99 0 37 -31 74 -82 98 -99 46 -447 167 -480
167 -18 0 -48 -9 -65 -20z"/>
<path d="M11100 3835 c-143 -32 -281 -113 -375 -218 -68 -76 -141 -218 -160
-312 -32 -155 -12 -305 59 -450 90 -183 254 -314 454 -366 97 -25 250 -27 347
-4 148 34 311 139 400 257 96 128 139 257 139 418 0 167 -46 298 -147 424
-141 175 -336 267 -561 265 -56 -1 -126 -7 -156 -14z"/>
<path d="M12470 3811 c-159 -34 -325 -81 -349 -99 -76 -56 -34 -172 61 -172
48 0 381 79 441 105 50 21 87 61 87 93 0 14 -10 41 -22 59 -22 31 -27 33 -78
32 -30 0 -93 -9 -140 -18z"/>
<path d="M7915 3721 c-22 -10 -55 -35 -73 -56 -30 -34 -33 -43 -30 -87 3 -45
1 -49 -17 -43 -56 16 -115 16 -167 1 -45 -13 -66 -27 -107 -71 -57 -63 -70
-105 -52 -165 12 -39 81 -110 108 -110 24 0 13 -15 -25 -32 -20 -10 -61 -41
-91 -70 -121 -120 -126 -230 -13 -280 70 -31 211 -22 312 20 41 18 87 43 102
57 26 24 28 24 37 6 28 -52 175 -79 252 -47 39 16 89 59 89 76 0 6 18 -4 40
-23 61 -52 139 -78 245 -84 80 -3 95 -1 135 20 62 32 90 77 90 141 l0 51 111
-3 c134 -5 187 8 239 57 102 97 83 304 -34 360 -50 25 -140 28 -190 7 l-32
-13 4 53 c4 44 -1 64 -23 109 -33 69 -75 98 -170 121 -169 39 -365 -21 -419
-129 l-14 -28 -21 35 c-30 48 -85 94 -145 122 -61 28 -88 29 -141 5z"/>
<path d="M2979 3550 c-20 -10 -51 -36 -68 -56 -29 -32 -32 -42 -29 -85 1 -27
2 -49 0 -49 -2 0 -23 5 -47 11 -102 26 -213 -17 -270 -103 -62 -93 -35 -188
69 -241 l28 -15 -23 -12 c-53 -27 -130 -95 -159 -138 -64 -96 -58 -167 16
-213 35 -22 50 -24 149 -24 97 1 118 4 175 28 36 15 82 41 102 57 35 29 38 29
47 11 18 -33 91 -61 157 -61 71 0 153 35 174 75 l14 25 25 -24 c14 -14 58 -40
96 -57 63 -30 80 -33 165 -33 74 -1 103 3 133 18 55 27 87 79 87 141 l0 50
122 -3 c118 -3 125 -2 178 25 31 16 64 42 77 61 33 50 47 131 33 194 -24 114
-89 163 -207 155 -38 -2 -77 -7 -88 -11 -19 -6 -20 -2 -21 56 -1 139 -83 210
-259 224 -137 12 -271 -34 -331 -113 l-32 -41 -46 53 c-51 59 -149 115 -200
115 -17 -1 -47 -9 -67 -20z"/>
<path d="M12415 3291 c-192 -4 -276 -10 -292 -19 -24 -14 -53 -61 -53 -87 0
-26 29 -74 53 -86 33 -18 569 -13 613 6 35 15 64 59 64 99 0 35 -48 85 -85 89
-16 2 -151 1 -300 -2z"/>
<path d="M9838 3221 c-55 -11 -68 -27 -68 -80 0 -92 22 -100 322 -108 l217 -6
30 31 c54 54 36 135 -36 163 -28 10 -409 10 -465 0z"/>
<path d="M10174 2739 c-126 -60 -237 -119 -246 -131 -29 -33 -24 -94 11 -129
51 -51 79 -44 330 81 205 102 223 114 237 146 26 63 -6 121 -77 138 -19 4 -80
-21 -255 -105z"/>
<path d="M12114 2780 c-55 -22 -81 -101 -49 -147 18 -26 245 -157 310 -180 61
-20 133 -13 157 17 22 27 24 97 3 127 -18 25 -107 76 -255 143 -112 51 -129
55 -166 40z"/>
<path d="M10607 2403 c-34 -31 -128 -121 -209 -199 -118 -113 -148 -147 -148
-169 0 -60 45 -104 106 -105 35 0 49 7 100 51 72 63 321 306 340 334 42 59 -9
145 -85 145 -36 0 -49 -7 -104 -57z"/>
<path d="M11793 2403 c-33 -6 -73 -59 -73 -97 0 -35 85 -170 191 -306 64 -80
90 -101 140 -107 34 -5 42 -2 75 31 33 33 36 40 31 77 -4 31 -16 52 -45 81
-22 22 -79 94 -125 161 -47 67 -93 129 -104 138 -21 19 -58 28 -90 22z"/>
<path d="M11261 2327 c-56 -28 -60 -46 -67 -267 -8 -245 -2 -271 65 -291 31
-9 50 -9 79 -1 71 22 67 8 67 260 0 253 -3 269 -60 297 -40 18 -53 19 -84 2z"/>
</g>
</svg>
