<?xml version="1.0" standalone="no"?>
<!DOCTYPE svg PUBLIC "-//W3C//DTD SVG 20010904//EN"
 "http://www.w3.org/TR/2001/REC-SVG-20010904/DTD/svg10.dtd">
<svg version="1.0" xmlns="http://www.w3.org/2000/svg"
 width="250.000000pt" height="350.000000pt" viewBox="0 0 1017.000000 1280.000000"
 preserveAspectRatio="xMidYMid meet">
<metadata>
Created by potrace 1.15, written by Peter Selinger 2001-2017
</metadata>
<g transform="translate(0.000000,1280.000000) scale(0.100000,-0.100000)"
fill="#EDC9AF" stroke="none">
<path d="M5405 12781 c-152 -45 -412 -175 -474 -236 -22 -22 -23 -27 -12 -51
8 -19 12 -83 12 -201 -1 -167 0 -176 25 -228 24 -51 25 -63 22 -181 -4 -169 0
-171 171 -99 79 33 97 27 94 -33 -3 -65 -43 -133 -203 -342 -44 -58 -99 -142
-122 -187 -23 -46 -52 -92 -64 -104 -12 -11 -51 -26 -89 -34 -37 -8 -86 -26
-109 -39 -54 -32 -114 -97 -121 -133 -12 -57 -28 -76 -77 -88 -73 -18 -203
-110 -239 -169 -24 -40 -24 -84 2 -220 30 -153 25 -181 -61 -354 -103 -207
-104 -225 -4 -578 46 -163 55 -205 49 -243 -24 -166 -140 -449 -171 -418 -4 4
-2 30 5 58 7 27 11 52 8 55 -3 3 -19 -2 -36 -10 -39 -21 -44 -20 -31 4 17 32
47 43 81 31 l30 -10 -6 54 c-7 52 -6 56 23 83 37 35 55 94 56 189 2 142 -35
120 -144 -85 -82 -156 -110 -198 -192 -298 -114 -139 -249 -233 -433 -303
-138 -51 -174 -87 -145 -141 16 -30 80 -41 215 -38 68 1 127 -1 131 -5 4 -4
-13 -33 -38 -65 -25 -31 -56 -78 -67 -104 -12 -25 -61 -95 -109 -154 -99 -125
-345 -380 -374 -390 -26 -8 -59 24 -113 111 -72 114 -125 238 -140 324 -17 96
-33 129 -79 165 -20 15 -36 35 -36 44 0 10 17 47 39 83 48 84 63 123 49 137
-7 7 -3 22 13 49 23 36 24 47 23 193 -1 164 -16 259 -54 333 -27 51 -25 127 5
257 36 153 34 175 -17 219 -78 67 -106 101 -113 133 -11 47 -41 85 -85 108
-47 24 -93 26 -111 4 -11 -14 -10 -18 6 -30 10 -8 28 -14 39 -14 39 0 50 -16
47 -64 -1 -34 3 -49 17 -62 76 -65 74 -61 67 -118 -6 -48 -4 -56 19 -81 23
-24 26 -37 26 -94 0 -85 -30 -150 -75 -164 -42 -13 -55 -26 -55 -53 0 -21 -5
-24 -39 -24 -44 0 -103 18 -99 31 2 5 43 32 93 62 49 29 91 60 93 70 3 15 -5
17 -56 17 -36 0 -64 5 -70 13 -5 6 -13 40 -17 74 -9 82 -54 157 -118 200 -61
41 -104 53 -188 53 -84 0 -127 -15 -135 -46 -15 -58 50 -94 170 -94 112 0 156
-31 156 -111 0 -67 -45 -109 -118 -109 -63 0 -103 29 -138 100 -17 34 -38 67
-47 72 -22 12 -61 1 -83 -23 -17 -19 -16 -23 4 -87 14 -42 22 -92 22 -134 0
-82 5 -83 104 -37 140 65 109 -6 -35 -81 -42 -22 -87 -40 -98 -40 -21 0 -22 3
-15 74 4 45 3 76 -3 79 -6 4 -36 -3 -68 -14 -54 -19 -314 -68 -373 -70 -15 -1
9 -10 53 -20 158 -37 158 -37 -1 -36 -116 2 -155 -1 -168 -12 -15 -13 -15 -15
1 -33 37 -41 221 -68 478 -68 132 -1 218 -9 232 -24 10 -10 -31 -49 -167 -161
-69 -57 -143 -120 -165 -139 -22 -19 -47 -35 -56 -36 -9 0 -54 34 -100 76
-185 169 -290 228 -435 245 -218 25 -292 47 -343 103 l-24 26 45 0 c38 0 52
-5 76 -30 34 -34 42 -26 42 41 0 79 41 135 88 122 22 -5 26 -13 23 -46 -3 -24
38 -37 117 -37 139 0 148 25 29 79 -45 21 -89 46 -97 56 -19 23 -16 79 13 220
l22 109 50 39 c28 21 88 57 135 79 117 57 172 61 307 19 100 -31 163 -39 163
-22 0 6 -22 29 -50 53 -27 24 -50 46 -50 51 0 4 12 7 28 7 42 0 118 23 224 69
112 47 139 50 178 17 37 -31 98 -39 190 -26 40 6 75 12 76 13 2 1 -41 20 -94
42 -135 55 -178 53 -387 -13 -210 -67 -303 -90 -402 -101 -57 -6 -101 -18
-145 -39 -79 -38 -181 -57 -423 -77 -268 -22 -351 -37 -401 -70 -26 -17 -32
-43 -11 -51 8 -3 49 10 93 28 180 73 379 18 277 -77 -55 -51 -194 -86 -256
-66 -26 9 -36 19 -40 40 -16 80 -153 14 -255 -123 -95 -129 -111 -218 -50
-283 19 -20 20 -30 15 -92 -6 -54 -4 -71 8 -81 8 -7 70 -16 147 -21 142 -9
245 -32 331 -75 58 -29 107 -71 107 -91 0 -19 43 -26 94 -15 24 5 49 6 54 3 5
-3 9 -26 9 -51 0 -67 30 -147 72 -189 41 -41 75 -53 224 -80 117 -21 197 -52
197 -75 0 -9 -18 -25 -39 -36 -22 -11 -42 -24 -45 -28 -3 -5 6 -24 20 -43 39
-51 56 -97 65 -178 6 -55 16 -85 39 -121 70 -109 111 -291 108 -485 -1 -108 2
-144 21 -210 40 -144 92 -225 143 -225 40 0 37 29 -12 109 -21 36 -46 93 -55
126 -22 85 -35 340 -35 696 0 168 -3 353 -6 411 l-7 105 -156 12 c-158 12
-333 41 -370 61 -19 10 -81 104 -81 123 0 16 50 5 179 -43 222 -81 314 -97
371 -66 14 8 46 40 71 72 47 61 90 87 110 67 7 -7 10 -33 9 -60 -8 -123 -6
-132 25 -157 l30 -24 -24 -53 c-33 -76 -62 -171 -55 -178 8 -8 29 21 81 119
98 184 160 264 294 381 198 175 359 287 359 251 0 -20 -136 -146 -313 -290
-100 -82 -188 -156 -196 -165 -12 -15 -11 -17 3 -17 33 0 151 86 341 250 169
146 245 196 245 162 0 -28 -87 -130 -249 -292 -177 -176 -237 -240 -201 -214
42 29 122 95 185 150 103 91 172 134 216 134 43 0 63 -20 54 -52 -4 -13 -99
-114 -210 -225 -112 -112 -202 -203 -199 -203 3 0 54 38 113 85 101 79 215
155 233 155 17 0 6 -34 -27 -83 -19 -29 -88 -113 -154 -187 -65 -74 -118 -137
-115 -139 2 -2 56 35 121 81 152 110 213 148 235 148 27 0 78 -86 78 -131 0
-41 -15 -63 -155 -224 -78 -91 -135 -170 -135 -189 0 -6 35 27 78 72 107 113
144 106 87 -16 -46 -100 -29 -118 77 -82 87 29 107 50 50 50 -49 0 -67 19 -58
63 33 174 46 189 95 112 27 -42 71 -178 71 -218 0 -9 -16 -34 -35 -56 -19 -21
-35 -41 -35 -45 0 -3 77 -6 170 -6 155 0 170 -2 170 -17 0 -30 -40 -254 -56
-317 -56 -218 -220 -582 -348 -774 -50 -76 -141 -167 -181 -182 -80 -31 -110
3 -100 114 7 68 6 75 -13 85 -65 35 -172 -12 -172 -74 0 -14 7 -16 40 -10 54
9 70 -5 70 -62 0 -30 -5 -45 -16 -50 -20 -7 -136 42 -169 72 -33 32 -32 48 9
89 23 22 37 47 41 73 12 79 20 106 37 117 22 13 58 -18 58 -51 0 -35 17 -28
40 17 26 52 25 63 -10 103 -60 69 -120 227 -120 318 0 32 -9 64 -31 104 -29
55 -31 63 -24 129 l7 71 -37 -35 -36 -34 3 112 c2 77 -1 115 -10 124 -26 26
-34 -7 -30 -114 6 -130 31 -233 70 -293 27 -41 30 -52 25 -98 -3 -29 -20 -97
-37 -152 -33 -105 -43 -185 -24 -192 7 -2 33 14 58 37 81 70 87 46 21 -86 -47
-95 -66 -124 -82 -124 -14 0 -54 91 -103 234 -44 129 -95 236 -110 236 -14 0
-12 -55 5 -128 23 -97 104 -332 132 -384 37 -68 110 -146 215 -230 71 -56 88
-74 72 -77 -10 -2 -86 -1 -169 2 -215 7 -346 48 -523 163 -154 100 -295 260
-380 429 -49 97 -143 375 -211 625 -65 241 -77 296 -106 486 l-23 159 -1 -140
c-1 -159 12 -247 69 -472 106 -414 254 -794 369 -946 92 -120 231 -218 427
-302 128 -55 233 -85 294 -85 25 0 97 13 160 30 165 42 192 41 276 -17 78 -53
225 -124 368 -177 184 -69 253 -112 290 -185 9 -16 38 -107 66 -202 28 -96
114 -361 190 -589 134 -399 170 -517 191 -632 5 -29 14 -217 19 -418 9 -387
20 -492 64 -638 44 -144 67 -349 86 -752 15 -324 13 -634 -6 -759 -33 -226
-186 -762 -246 -859 -29 -47 -12 -61 39 -35 55 28 91 92 102 179 9 75 21 105
54 141 15 17 20 38 22 100 2 43 12 119 24 168 48 207 61 339 81 805 10 249 23
329 61 384 31 45 78 74 90 55 13 -21 11 -30 -15 -79 -13 -25 -29 -69 -35 -98
-13 -63 -15 -208 -2 -216 4 -3 16 3 26 14 10 11 22 17 26 14 5 -3 6 -97 2
-209 -6 -184 -5 -205 10 -211 28 -10 46 -96 78 -373 36 -318 44 -411 36 -443
-6 -21 -17 -27 -85 -42 -88 -20 -103 -16 -180 41 -50 38 -67 41 -82 14 -15
-28 -13 -31 20 -43 20 -7 32 -19 36 -36 13 -57 17 -64 50 -78 70 -29 182 -4
245 56 29 28 39 46 44 85 10 64 2 278 -30 750 -30 460 -45 768 -45 933 0 99 4
133 21 180 92 254 103 480 38 777 -32 142 -33 161 -34 355 0 205 0 205 -32
295 -48 134 -64 245 -70 460 -4 156 -1 218 16 345 11 85 23 195 27 244 6 77
11 94 31 114 24 24 29 24 121 20 112 -6 181 -29 271 -89 104 -69 102 -62 102
-396 0 -159 -5 -459 -12 -668 -6 -209 -9 -515 -6 -680 6 -357 16 -417 100
-606 63 -142 77 -183 112 -329 57 -243 93 -540 102 -855 7 -261 -6 -415 -47
-581 -16 -63 -34 -161 -40 -216 -6 -56 -17 -113 -25 -127 -7 -14 -38 -47 -68
-74 -31 -26 -68 -70 -84 -99 -47 -86 -58 -91 -224 -89 -229 2 -399 30 -446 74
-22 20 -23 20 -44 1 -28 -25 -59 -87 -59 -117 0 -13 20 -50 45 -81 42 -54 50
-72 46 -103 -3 -24 50 -25 246 -4 282 30 269 29 598 52 165 11 444 23 620 26
356 7 384 3 461 -58 20 -16 40 -29 44 -29 4 0 25 30 46 67 22 36 72 103 111
147 208 232 269 315 368 496 64 117 102 176 134 205 16 13 22 30 21 55 -3 63
0 70 48 122 27 29 38 46 25 40 -29 -16 -43 -15 -43 3 0 8 23 86 51 173 71 219
145 466 164 548 24 99 22 220 -5 339 -33 149 -32 233 4 320 35 84 44 190 26
301 -15 96 -44 180 -113 324 -146 308 -200 531 -217 900 -13 266 -24 374 -57
515 -30 135 -27 176 28 358 45 152 47 168 21 143 -29 -26 -72 -122 -82 -183
-10 -60 -34 -107 -53 -100 -17 5 -25 43 -26 127 -1 88 -16 213 -37 320 -21
102 -63 240 -74 240 -4 0 -19 -30 -31 -67 l-24 -68 -10 87 c-5 47 -14 90 -18
94 -4 5 -19 -5 -32 -21 -13 -17 -26 -27 -30 -23 -16 16 9 62 71 130 126 138
192 323 214 607 18 219 45 341 106 466 34 68 34 69 7 36 -16 -19 -55 -66 -87
-105 -79 -95 -107 -157 -113 -257 -3 -44 -9 -82 -14 -84 -9 -6 -49 45 -74 94
-25 49 -15 79 70 207 68 105 105 166 105 178 0 2 -9 2 -20 -1 -33 -9 -68 24
-105 96 -19 38 -39 72 -45 76 -6 4 -21 -18 -37 -54 -14 -34 -30 -61 -34 -61
-4 0 -18 19 -32 43 -32 54 -62 81 -82 74 -24 -10 -18 -41 19 -93 98 -139 165
-299 137 -327 -10 -9 -21 -3 -50 31 -53 61 -75 55 -119 -33 -22 -44 -54 -156
-47 -163 3 -3 25 18 51 47 51 57 64 62 64 27 0 -14 -16 -40 -40 -65 -47 -48
-56 -97 -17 -88 12 2 30 8 40 12 50 21 -3 -72 -149 -260 -116 -150 -161 -202
-168 -195 -3 3 1 28 9 55 8 26 15 53 15 58 0 22 -39 -26 -117 -146 -46 -70
-93 -137 -104 -148 l-21 -21 -12 23 c-9 19 -20 24 -48 24 -20 1 -41 4 -45 9
-4 4 -10 62 -13 128 -7 155 -8 157 -182 188 -67 12 -224 42 -348 65 -339 65
-450 74 -450 35 0 -5 -17 -12 -37 -16 -54 -9 -83 -30 -83 -59 0 -29 -20 -33
-43 -7 -39 43 -29 231 29 542 20 102 38 218 41 257 l6 73 -37 15 c-28 12 -36
21 -36 40 0 36 19 39 92 17 85 -26 183 -41 356 -51 160 -10 175 -16 192 -80 5
-20 13 -94 19 -165 5 -70 12 -130 14 -132 2 -3 7 77 10 177 3 99 7 183 10 185
2 2 64 -8 138 -24 l134 -28 -3 -110 c-5 -203 -31 -334 -70 -349 -44 -17 -75
84 -91 295 -4 63 -9 95 -10 70 -1 -25 -6 -105 -10 -178 -11 -169 -16 -177
-113 -169 -77 7 -104 18 -114 49 -5 13 -7 98 -5 189 2 113 -1 169 -8 174 -24
14 -46 -79 -71 -299 -11 -97 -32 -145 -55 -126 -8 6 -17 31 -21 55 -6 41 9
277 23 355 3 19 3 33 0 30 -3 -3 -20 -71 -37 -150 -32 -154 -63 -233 -93 -238
-36 -7 -72 10 -108 50 l-37 40 -7 -56 c-4 -31 -4 -80 -1 -110 l7 -54 32 17
c27 14 70 16 297 16 146 -1 322 -4 391 -8 l127 -8 4 183 c4 138 9 192 21 221
30 69 50 42 77 -102 16 -86 18 -91 19 -46 1 63 17 162 32 198 13 30 43 36 53
11 14 -36 3 -327 -18 -504 -14 -113 68 203 88 343 8 51 12 106 9 124 -4 25 1
38 29 67 18 20 51 43 73 50 35 12 41 12 51 -3 11 -14 15 -13 42 13 43 40 85
125 121 244 18 57 47 131 65 165 19 34 43 94 55 132 22 78 94 189 155 243 35
31 47 36 73 33 19 -3 81 40 177 123 49 42 92 74 94 71 3 -2 -1 -11 -8 -20 -7
-9 -10 -18 -7 -22 4 -3 55 31 114 76 115 87 155 103 129 53 -22 -42 -140 -191
-268 -338 -123 -142 -193 -232 -186 -240 15 -15 154 120 236 230 50 66 110
100 161 90 17 -4 31 -10 31 -15 0 -4 -24 -34 -53 -66 -73 -80 -107 -123 -107
-134 0 -17 34 8 129 94 127 115 211 155 211 99 0 -11 -34 -72 -75 -137 -42
-65 -73 -120 -71 -122 3 -3 26 11 52 31 26 20 49 34 52 32 2 -3 -1 -35 -8 -71
-7 -36 -10 -69 -6 -72 3 -3 23 6 44 21 26 18 55 28 90 30 61 4 100 26 199 109
161 136 194 121 92 -44 -47 -77 -50 -94 -11 -85 15 3 53 9 85 13 l58 6 -6 -71
c-7 -64 -6 -71 13 -81 11 -6 42 -11 69 -11 29 0 58 -7 72 -16 21 -15 23 -21
16 -80 -8 -74 6 -129 37 -145 29 -15 33 -5 20 52 -7 28 -12 62 -12 75 0 32 30
90 74 143 20 24 36 47 36 51 0 4 -21 2 -47 -6 -91 -28 -162 -10 -181 45 -6 16
-9 31 -8 33 2 1 6 19 10 40 8 43 -11 68 -53 68 -46 0 -55 20 -40 85 11 49 10
58 -3 72 -25 24 -70 10 -198 -62 -159 -90 -249 -115 -284 -79 -9 8 -16 19 -16
23 0 20 41 41 93 47 31 4 57 10 57 15 0 5 -29 41 -65 81 -38 41 -70 88 -77
110 -14 46 -31 52 -105 39 -31 -6 -58 -11 -60 -11 -2 0 -3 8 -3 18 0 9 25 45
55 78 72 81 114 98 215 89 179 -16 321 -64 460 -156 50 -32 122 -75 161 -94
87 -44 94 -59 73 -161 -9 -41 -13 -78 -11 -81 3 -3 26 9 51 27 50 36 66 33 66
-13 0 -54 19 -104 57 -149 20 -24 58 -89 86 -145 28 -57 53 -103 57 -103 14 0
31 29 37 63 5 31 2 36 -23 48 -20 10 -32 26 -40 56 -7 23 -35 75 -63 115 -50
72 -72 130 -54 141 17 11 51 -22 109 -106 57 -82 131 -167 146 -167 4 0 8 12
8 28 0 72 -144 296 -309 481 -140 155 -163 202 -197 384 -31 171 -76 311 -146
453 -64 127 -97 212 -132 341 -53 191 -115 242 -389 314 -143 37 -197 59 -197
78 0 5 11 39 25 75 32 86 31 125 -4 238 -78 243 -128 534 -151 878 -17 245
-45 356 -130 517 -75 141 -147 239 -335 453 -152 173 -196 230 -222 287 -21
46 -23 61 -17 122 3 38 4 85 0 104 -11 61 -182 236 -271 278 -49 23 -92 23
-170 0z m125 -71 c60 -17 142 -73 176 -121 60 -82 69 -178 22 -229 -20 -21
-27 -22 -100 -17 -140 9 -281 95 -334 202 -40 83 -22 143 52 165 40 12 142 12
184 0z m-365 -180 c18 -11 58 -49 88 -83 49 -56 80 -78 167 -117 8 -4 26 -23
39 -43 33 -50 71 -61 195 -55 125 6 158 -2 180 -45 9 -17 37 -108 62 -202 57
-213 69 -240 109 -240 26 0 30 4 33 29 3 21 -4 37 -26 60 -16 17 -35 41 -41
53 -13 26 -15 70 -2 77 37 23 259 -234 386 -448 132 -222 167 -350 126 -460
-26 -71 -27 -125 0 -222 24 -87 17 -119 -26 -130 -34 -8 -53 1 -65 30 -25 66
-246 184 -540 288 -236 83 -270 112 -270 231 0 69 8 85 56 113 29 17 20 82
-28 197 -22 51 -38 61 -38 23 0 -61 -49 -67 -150 -18 -94 46 -95 52 -93 352 1
163 -1 247 -7 233 -5 -13 -16 -23 -24 -23 -39 0 -205 165 -256 253 -38 67 -38
100 -1 138 35 35 79 38 126 9z m220 -1051 c63 -58 97 -132 93 -200 -2 -30 -7
-54 -13 -53 -5 0 -29 25 -53 55 -94 118 -104 129 -121 129 -10 0 -37 -14 -59
-30 -23 -17 -42 -26 -42 -22 0 13 60 105 88 135 35 37 55 34 107 -14z m-307
-142 c8 -9 -16 -67 -93 -222 -56 -116 -112 -219 -124 -229 -21 -19 -21 -19
-21 7 0 35 71 231 120 333 35 72 77 124 100 124 4 0 12 -6 18 -13z m254 -4
c27 -31 48 -81 55 -129 9 -66 -13 -56 -54 25 -44 86 -44 153 -1 104z m-101
-64 c60 -48 65 -63 29 -95 -35 -32 -31 -44 15 -44 54 0 72 -32 80 -146 4 -52
11 -92 15 -87 4 4 18 51 30 103 26 108 44 150 65 150 37 0 73 -141 82 -322 3
-65 3 -118 0 -118 -3 0 -14 25 -23 55 -10 30 -20 55 -23 55 -3 0 -3 -65 2
-145 7 -140 1 -210 -19 -210 -23 0 -54 127 -54 222 0 67 -15 58 -34 -21 -19
-82 -36 -112 -58 -104 -8 3 -42 62 -76 132 -34 69 -70 134 -82 146 -25 25 -60
26 -110 0 -71 -36 -66 -46 37 -81 106 -35 132 -82 194 -349 37 -159 43 -260
17 -287 -28 -28 -40 -4 -55 109 -10 80 -18 110 -39 140 -25 35 -26 43 -17 81
13 57 8 67 -33 67 -19 0 -49 6 -67 13 -71 30 -207 181 -207 231 0 35 39 101
71 120 20 12 41 16 60 12 37 -7 45 10 29 59 -7 20 -10 38 -8 40 2 2 26 -14 53
-35 48 -38 95 -52 95 -28 0 6 -19 36 -41 66 -60 79 -56 112 8 73 44 -27 77
-90 108 -201 44 -158 70 -201 67 -106 -4 106 -89 305 -154 360 -23 20 -40 38
-37 40 2 2 15 9 28 16 24 12 24 19 5 94 -8 34 0 33 47 -5z m-518 -419 c13 -26
17 -48 13 -85 -9 -83 -65 -135 -86 -80 -13 34 -13 146 0 180 14 38 50 30 73
-15z m-169 -100 c17 -17 25 -100 26 -281 0 -194 -5 -252 -23 -246 -6 2 -17 21
-25 43 -11 30 -13 79 -9 218 l5 180 -32 -58 c-42 -79 -90 -149 -104 -154 -23
-7 -12 49 23 130 43 97 43 134 1 68 -16 -25 -44 -69 -63 -97 -38 -60 -69 -72
-59 -23 13 66 50 132 98 175 66 59 128 76 162 45z m1526 -75 c-6 -42 -9 -79
-6 -82 2 -3 17 19 31 47 48 95 97 124 129 78 20 -28 20 -103 1 -158 -18 -51
-75 -153 -82 -146 -3 2 2 36 11 75 9 38 16 74 16 78 0 4 -23 -29 -51 -75 -28
-45 -54 -82 -58 -82 -4 0 -12 26 -17 58 l-9 57 -44 -57 c-24 -32 -50 -58 -58
-58 -14 0 -43 57 -43 85 0 12 6 15 20 10 27 -9 65 34 79 90 24 97 6 114 -35
33 -15 -29 -28 -48 -30 -43 -1 6 -5 22 -8 38 -8 35 -16 34 -45 -8 -31 -46 -45
-45 -36 3 13 72 38 90 147 107 20 3 47 14 60 25 13 10 27 15 31 10 5 -4 3 -42
-3 -85z m-1247 -49 c3 -7 1 -31 -4 -52 -14 -63 -11 -131 7 -149 24 -24 38 -14
51 40 14 57 56 106 74 88 9 -9 9 -29 1 -82 -16 -94 -16 -94 19 -59 28 28 32
30 46 15 14 -13 14 -20 3 -47 -15 -36 -55 -60 -100 -60 -46 0 -109 64 -159
161 -22 44 -41 89 -41 99 0 21 19 39 57 50 39 12 40 12 46 -4z m1507 -88 c0
-23 -42 -99 -54 -95 -20 6 -18 52 4 80 22 28 50 36 50 15z m-854 -172 c7 -29
-9 -61 -36 -76 -29 -15 -40 -4 -40 39 0 42 14 61 47 61 16 0 24 -7 29 -24z
m-806 -6 c11 -11 22 -32 25 -47 11 -54 30 -78 71 -91 27 -8 45 -22 53 -38 13
-28 15 -124 3 -124 -4 0 -17 19 -29 43 l-21 42 -11 -30 c-7 -16 -17 -92 -22
-170 -6 -77 -14 -147 -17 -155 -3 -8 -9 26 -12 75 -4 50 -12 107 -19 128 -11
32 -17 37 -39 35 -25 -3 -27 0 -30 38 -2 32 2 48 22 72 34 40 33 61 -8 113
-44 55 -52 85 -30 110 22 24 39 24 64 -1z m-210 -51 c30 -54 -8 -149 -59 -149
-38 0 -62 -33 -146 -200 -69 -139 -91 -173 -106 -164 -30 18 17 155 112 326
111 200 165 251 199 187z m1255 -45 c0 -21 -4 -50 -9 -64 -7 -20 1 -16 42 24
39 37 59 49 81 49 60 0 92 -60 53 -96 -10 -10 -44 -22 -75 -28 -31 -7 -57 -15
-57 -18 0 -4 14 -28 30 -54 35 -56 37 -88 9 -151 -26 -59 -23 -110 7 -114 49
-7 126 96 104 138 -14 27 -13 32 19 81 33 48 32 59 -4 59 -35 0 -37 12 -9 53
29 44 52 57 96 57 21 0 48 10 68 25 18 13 37 22 41 19 17 -10 10 -91 -11 -115
-10 -13 -19 -21 -20 -16 0 17 -59 -25 -110 -80 l-55 -58 37 -3 c69 -6 178 70
257 178 38 53 39 61 2 54 -20 -4 -30 -1 -34 10 -11 28 18 44 71 38 32 -3 75 3
127 17 50 14 82 18 88 12 15 -15 -4 -58 -71 -162 -95 -151 -110 -190 -77 -203
21 -8 19 -30 -6 -57 -14 -16 -22 -20 -25 -12 -3 7 -13 22 -23 34 l-18 22 -45
-27 c-54 -31 -81 -32 -143 -6 -77 33 -97 28 -139 -35 -41 -62 -72 -79 -127
-70 -29 5 -41 2 -66 -19 -19 -16 -43 -26 -62 -26 -33 0 -54 -23 -66 -72 -11
-42 -48 -70 -94 -70 -46 1 -116 34 -131 62 -16 30 -3 61 85 206 10 16 -22 -13
-72 -63 -49 -51 -94 -93 -99 -93 -5 0 -9 18 -9 39 0 43 -28 81 -77 107 -44 23
-56 18 -63 -26 -9 -51 -25 -51 -89 -2 -84 63 -107 100 -117 184 -9 79 -1 219
12 196 4 -7 17 -55 29 -105 26 -113 47 -143 98 -143 31 0 109 18 200 45 28 9
28 0 -2 -66 -28 -58 -26 -69 9 -69 36 0 77 18 110 50 47 45 159 63 180 30 8
-12 -15 -54 -80 -150 -30 -45 -55 -92 -55 -105 0 -21 5 -25 32 -25 62 0 172
152 168 233 -3 55 -1 62 40 117 32 43 40 62 40 96 0 46 -19 69 -50 61 -17 -4
-20 0 -20 28 0 40 15 83 37 108 24 26 38 15 38 -29z m-1112 -73 c19 -19 -3
-56 -46 -82 -84 -51 -169 -213 -170 -324 -1 -74 26 -132 97 -213 62 -71 78
-109 70 -164 -7 -38 -5 -41 12 -34 33 13 38 12 42 -10 3 -24 -126 -285 -144
-291 -7 -2 -13 34 -18 109 -9 162 -37 422 -46 431 -4 5 -17 -5 -29 -22 -13
-17 -27 -31 -32 -31 -24 0 -43 76 -43 175 0 81 4 110 22 153 14 33 22 74 22
110 0 40 6 67 21 91 26 44 35 33 19 -24 -7 -25 -10 -48 -7 -51 7 -7 93 114
106 149 6 15 21 32 33 37 25 10 77 5 91 -9z m1917 -51 c0 -11 -16 -37 -35 -58
-74 -82 -67 -141 9 -79 69 57 89 47 101 -49 7 -51 -13 -124 -33 -124 -30 0
-37 43 -17 105 4 11 -16 -5 -44 -35 -42 -45 -52 -52 -61 -40 -5 8 -10 28 -10
43 0 19 -11 38 -31 56 -30 28 -30 29 -16 64 17 38 106 137 125 137 7 0 12 -9
12 -20z m-1661 -162 c22 -58 56 -471 50 -605 -4 -89 -17 -116 -47 -96 -14 9
-16 23 -14 79 2 45 -2 78 -12 99 -32 66 -47 462 -21 528 10 24 34 21 44 -5z
m1677 -274 c300 -60 544 -144 580 -199 46 -70 41 -435 -6 -435 -14 0 -22 37
-29 128 -10 127 -35 136 -181 64 -96 -47 -110 -71 -121 -199 -9 -102 -32 -166
-63 -172 -20 -3 -20 8 0 177 7 55 2 61 -30 37 -34 -26 -61 -17 -128 43 -110
97 -334 215 -543 288 -44 15 -88 34 -97 42 -51 43 12 132 137 194 145 73 246
79 481 32z m-5520 -15 c10 -16 -41 -63 -60 -56 -19 7 -21 38 -4 55 15 15 55
16 64 1z m4011 -81 c17 -18 35 -48 42 -67 12 -37 13 -199 2 -296 l-7 -60 -8
100 c-4 55 -11 125 -15 155 l-6 55 -24 -112 c-13 -62 -27 -110 -32 -107 -10 6
-12 347 -2 357 11 12 18 8 50 -25z m663 -88 c12 -7 11 -13 -10 -35 -26 -28
-63 -30 -68 -4 -7 35 44 61 78 39z m-4789 -125 c-12 -66 -38 -125 -55 -125
-58 0 -41 112 31 207 l28 37 3 -32 c2 -17 -1 -56 -7 -87z m-157 13 c18 -28 39
-154 31 -186 -13 -53 -98 -50 -170 8 -21 17 -46 30 -55 30 -10 0 -41 -15 -68
-34 -122 -82 -266 -35 -204 67 30 47 85 74 188 92 49 9 116 22 149 29 90 21
112 19 129 -6z m3980 -14 c23 -9 20 -30 -6 -48 -47 -33 -82 -1 -42 38 17 18
24 19 48 10z m479 -35 c12 -45 2 -198 -19 -291 -18 -81 -69 -192 -84 -183 -6
3 -10 23 -10 43 0 50 -14 71 -37 56 -13 -9 -18 -24 -17 -57 0 -34 -3 -44 -11
-37 -18 15 -72 -5 -121 -45 -24 -20 -44 -32 -44 -27 0 6 27 47 60 91 56 76
128 141 155 141 33 0 47 39 60 167 13 135 27 187 47 181 7 -3 16 -20 21 -39z
m748 25 c12 -15 -17 -46 -243 -268 -140 -138 -268 -271 -283 -296 -25 -40 -29
-58 -36 -165 -8 -145 -15 -175 -39 -175 -25 0 -55 65 -85 182 -53 212 -53 333
1 398 14 16 53 46 87 66 59 36 172 111 282 189 96 68 283 108 316 69z m-1281
-194 c34 -82 56 -120 69 -120 4 0 25 25 45 55 20 30 41 55 46 55 6 0 27 -16
48 -35 34 -32 35 -34 14 -35 -38 0 -59 -17 -92 -74 -36 -64 -92 -116 -123
-116 -66 0 -74 -63 -12 -93 19 -9 35 -23 35 -31 0 -16 -57 -86 -70 -86 -4 0
-10 19 -14 41 -9 58 -21 76 -66 99 -86 44 -81 75 55 394 9 21 20 35 25 30 4
-5 22 -43 40 -84z m-2402 48 c-17 -26 -94 -88 -110 -88 -18 0 16 43 61 78 50
37 70 42 49 10z m3933 6 c102 -30 221 -109 251 -167 20 -37 22 -56 22 -157 -1
-115 -18 -190 -44 -190 -21 0 -41 71 -53 188 l-13 117 -7 -121 c-7 -133 -21
-212 -42 -240 -11 -16 -15 -16 -30 -4 -15 12 -16 28 -11 124 6 112 -5 175 -30
183 -20 7 -26 -28 -31 -195 -3 -89 -8 -161 -10 -159 -2 2 -15 69 -29 148 -14
79 -27 145 -29 147 -1 2 -6 -43 -9 -100 -8 -115 -16 -181 -22 -175 -3 2 -14
37 -25 77 -25 93 -28 96 -46 70 -12 -16 -23 -21 -44 -18 -48 7 -54 -10 -53
-158 0 -74 -2 -132 -4 -129 -2 2 -16 55 -31 117 l-28 113 -8 -163 c-4 -89 -10
-161 -12 -158 -2 2 -29 55 -60 117 -43 89 -54 105 -49 74 11 -68 19 -193 13
-208 -4 -12 -15 -13 -54 -6 -121 22 -199 62 -228 118 -43 84 -36 240 15 342
73 144 367 385 513 419 55 13 131 11 188 -6z m-5593 -106 c32 -32 -10 -58 -63
-38 -28 11 -32 9 -63 -27 -18 -21 -45 -53 -61 -70 -32 -38 -69 -43 -95 -14
-25 28 -17 51 29 83 89 62 222 97 253 66z m6661 -43 c35 -41 37 -48 16 -65
-13 -11 -20 -9 -39 9 -35 33 -45 91 -16 91 4 0 22 -16 39 -35z m-274 -29 c23
-35 29 -88 12 -110 -32 -43 -61 10 -50 92 6 48 16 52 38 18z m-4610 -86 c0
-28 -53 -64 -79 -54 -23 9 -20 22 14 56 35 35 65 34 65 -2z m4252 0 c13 -25 9
-100 -8 -130 -6 -11 -13 -4 -28 30 -20 44 -28 110 -14 124 13 13 37 1 50 -24z
m-1737 9 c0 -31 -81 -106 -102 -93 -32 20 30 104 76 104 14 0 26 -5 26 -11z
m2447 -69 c41 -32 73 -81 73 -112 0 -49 -48 -28 -101 45 -50 69 -31 114 28 67z
m-6253 -56 c9 -8 16 -22 16 -29 0 -18 -28 -45 -45 -45 -8 0 -22 11 -31 25 -16
24 -16 27 1 45 22 24 38 25 59 4z m5933 -55 c7 -19 12 -52 12 -75 1 -59 20
-104 47 -114 29 -12 31 -31 3 -56 -15 -13 -40 -19 -92 -22 -73 -4 -82 4 -24
24 39 13 45 40 22 99 -21 57 -58 95 -90 95 -14 0 -25 2 -25 5 0 15 38 60 63
76 39 23 69 12 84 -32z m-3177 6 c0 -30 -39 -127 -71 -177 -39 -60 -80 -88
-131 -88 -27 0 -47 -8 -73 -31 -34 -30 -41 -28 -35 11 3 22 58 77 96 95 17 8
45 15 62 15 37 0 44 9 70 89 23 67 46 101 69 101 7 0 13 -7 13 -15z m1113 -84
c-47 -69 -176 -201 -198 -201 -58 0 65 172 186 260 37 27 45 29 47 15 2 -10
-13 -43 -35 -74z m-183 25 c0 -26 -93 -136 -105 -124 -14 14 72 148 96 148 5
0 9 -11 9 -24z m-3492 -11 c52 -22 39 -35 -36 -35 -55 0 -72 4 -86 19 -17 18
-17 20 1 30 20 12 71 6 121 -14z m2704 -72 c22 -20 23 -61 2 -91 -30 -43 -70
-22 -81 42 -9 59 36 88 79 49z m404 -25 c8 -13 -39 -58 -60 -58 -19 0 -28 28
-16 51 12 21 64 27 76 7z m2488 -8 c5 -5 -2 -12 -18 -16 -48 -12 -106 16 -58
29 21 6 64 -1 76 -13z m-188 -31 c3 -6 -22 -38 -57 -73 -71 -69 -134 -105
-152 -87 -18 18 -52 13 -92 -14 -20 -15 -39 -24 -42 -22 -2 3 17 25 41 51 38
38 51 46 82 46 29 0 46 8 81 41 61 56 123 82 139 58z m-2016 -104 c0 -58 -55
-120 -80 -90 -24 28 23 115 62 115 13 0 18 -7 18 -25z m-160 -7 c0 -15 -33
-54 -100 -120 -95 -92 -119 -128 -85 -128 8 0 37 20 64 45 58 51 118 73 159
59 24 -9 27 -15 27 -57 0 -54 12 -67 64 -67 46 0 92 31 120 80 19 35 51 55 51
33 0 -27 -30 -106 -85 -223 -34 -74 -66 -146 -70 -160 -14 -48 21 0 91 125 74
132 142 235 155 235 12 0 11 -5 -8 -66 -30 -96 -3 -82 62 32 46 80 93 144 105
144 47 0 -84 -250 -189 -360 -28 -29 -43 -39 -56 -34 -16 7 -17 3 -11 -27 3
-18 13 -41 22 -49 14 -13 21 -9 66 40 l50 54 -7 -54 -7 -55 26 24 c14 13 64
81 112 150 148 214 197 281 205 281 13 0 38 -43 45 -78 6 -28 4 -32 -22 -38
-43 -10 -54 -23 -54 -63 0 -45 -8 -58 -43 -66 -29 -8 -67 -48 -67 -71 0 -17
14 -18 42 -3 11 6 22 8 25 6 7 -8 -56 -123 -78 -143 -18 -16 -19 -16 -19 8 0
14 5 39 11 57 16 46 5 48 -21 4 -13 -21 -26 -63 -29 -93 l-6 -55 -109 -3
c-126 -3 -245 8 -402 39 -61 13 -118 20 -127 16 -9 -3 -23 -18 -33 -32 -16
-24 -16 -30 6 -109 22 -83 21 -106 -4 -106 -21 0 -49 37 -92 123 -55 111 -77
111 -59 2 l6 -40 -31 35 c-96 109 -140 324 -86 429 15 28 22 32 49 29 l32 -3
6 61 c7 71 41 148 76 171 38 25 51 3 24 -43 -12 -20 -20 -38 -18 -40 1 -2 28
17 57 42 53 44 122 83 148 84 6 0 12 -10 12 -22z m675 -85 c-20 -82 -201 -360
-221 -340 -9 9 85 197 145 290 52 79 90 104 76 50z m-1244 -131 c-6 -11 -28
-33 -48 -50 -41 -32 -142 -86 -149 -79 -9 8 126 138 157 151 39 17 56 7 40
-22z m145 -7 c-3 -8 -23 -39 -45 -68 -51 -68 -72 -132 -78 -239 -6 -90 4 -123
31 -112 30 11 114 -127 141 -233 19 -74 19 -257 0 -518 -8 -110 -15 -275 -15
-367 0 -159 1 -171 27 -233 14 -36 23 -68 20 -72 -12 -11 -51 16 -136 94 -44
41 -81 71 -81 66 0 -4 11 -48 25 -97 14 -49 23 -91 21 -93 -1 -2 -28 27 -58
63 -66 78 -96 149 -109 259 -13 111 -18 133 -36 150 -12 12 -18 13 -29 4 -18
-15 -18 -80 1 -216 16 -120 35 -363 35 -463 0 -76 16 -143 33 -137 7 2 19 24
28 50 8 26 18 49 21 52 22 22 85 -616 76 -774 -6 -94 -9 -103 -91 -234 -66
-105 -74 -131 -50 -177 14 -29 18 -78 24 -275 5 -163 13 -264 24 -315 30 -133
30 -166 5 -221 -13 -27 -26 -49 -30 -49 -4 0 -7 60 -7 133 0 74 -3 139 -7 146
-12 19 -44 -15 -52 -56 -5 -28 -2 -39 20 -62 33 -34 33 -45 -3 -90 -41 -52
-57 -89 -44 -102 8 -8 17 -8 31 0 60 32 55 -11 -13 -129 -53 -93 -68 -136 -42
-128 16 5 67 84 113 173 20 39 48 85 61 103 31 41 46 32 68 -41 20 -67 19
-113 -5 -164 -15 -34 -24 -43 -45 -43 -32 0 -31 7 5 90 17 38 30 72 30 75 0
30 -108 -122 -155 -220 -29 -58 -27 -76 7 -68 39 11 48 -19 48 -153 0 -131 12
-210 36 -240 13 -17 14 -2 8 127 -5 102 -3 162 6 198 12 51 74 146 89 136 5
-2 11 -37 13 -77 3 -43 19 -113 38 -171 27 -83 32 -109 28 -162 -6 -74 -41
-153 -72 -165 -11 -4 -31 -4 -43 1 -13 5 -25 4 -28 -1 -3 -6 -3 -70 0 -142 6
-111 4 -136 -8 -153 -23 -30 -31 -12 -18 41 7 25 10 49 7 51 -10 11 -41 -53
-53 -111 -25 -121 -15 -137 53 -91 77 52 60 4 -52 -147 -70 -94 -61 -107 -94
138 -11 88 -40 239 -62 335 l-42 174 -1 310 c0 171 4 455 9 633 l9 322 -21 0
c-59 0 -189 280 -334 714 -98 297 -129 425 -135 571 -3 77 -1 130 6 149 11 27
13 28 59 20 66 -11 92 -8 110 10 24 24 1 61 -56 90 -70 35 -119 90 -178 197
-33 63 -60 98 -77 107 -32 15 -35 51 -13 125 8 26 12 47 9 47 -3 0 -25 -22
-50 -50 -57 -63 -78 -66 -70 -8 8 60 97 232 112 216 3 -3 10 -33 15 -66 20
-120 94 -243 168 -276 36 -16 45 -17 84 -5 54 17 59 40 19 77 -48 44 -134 268
-160 418 -5 27 -15 64 -22 82 -12 29 -11 40 10 100 63 175 301 650 417 829 70
109 121 130 183 77 38 -32 40 -48 4 -28 -26 13 -28 12 -31 -7 -6 -34 25 -71
56 -67 26 3 27 6 32 74 6 81 28 122 111 199 82 77 181 131 165 90z m-384 -62
c-42 -66 -79 -99 -127 -115 -36 -12 -42 -18 -62 -75 -49 -137 -326 -714 -441
-918 -51 -92 -50 -90 -58 -82 -3 3 10 66 30 139 19 73 56 231 80 350 25 119
54 234 65 255 22 43 59 79 113 112 43 26 89 80 139 164 41 71 61 89 119 110
25 9 72 39 105 66 33 27 62 47 64 45 2 -2 -10 -25 -27 -51z m1885 17 c70 -31
80 -80 37 -175 -29 -63 -23 -86 16 -65 30 16 42 -2 34 -55 -11 -82 -34 -142
-69 -182 -19 -23 -42 -58 -50 -77 -21 -50 -18 -132 5 -185 29 -62 26 -81 -9
-81 -40 0 -80 49 -120 146 -38 92 -57 124 -73 124 -17 0 -3 -112 28 -213 38
-128 15 -132 -46 -9 -65 133 -86 291 -56 433 8 37 38 120 66 185 28 65 52 131
52 146 1 16 8 29 17 32 29 8 125 -5 168 -24z m533 22 c0 -11 -47 -54 -83 -77
-35 -22 -55 -9 -37 25 17 31 120 76 120 52z m-4516 -44 c31 -84 52 -338 26
-312 -12 12 -80 269 -80 305 0 24 16 49 31 49 4 0 14 -19 23 -42z m3074 -510
c15 -15 16 -64 2 -73 -11 -7 -60 42 -60 60 0 26 36 35 58 13z m526 -22 c7 -29
-10 -80 -24 -71 -18 11 -9 95 10 95 4 0 11 -11 14 -24z m-137 -79 c-5 -17 -35
-21 -52 -7 -16 13 -20 61 -8 74 10 10 65 -52 60 -67z m1167 -412 c21 -33 20
-62 -3 -75 -27 -14 -48 -3 -60 31 -23 67 26 101 63 44z m-3311 -478 c-31 -87
-150 -347 -197 -431 -62 -111 -99 -127 -163 -72 -27 24 -27 24 -11 57 20 43
76 119 86 119 4 0 6 -18 4 -41 -3 -23 1 -46 7 -52 18 -18 45 24 71 105 40 126
198 407 221 392 5 -2 -3 -37 -18 -77z m3215 -154 c16 -32 33 -73 37 -90 6 -31
5 -33 -20 -33 -26 0 -53 -22 -91 -75 l-21 -30 -7 58 c-4 31 -12 57 -17 57 -6
0 -26 -12 -45 -26 -19 -15 -34 -22 -34 -16 0 24 141 212 159 212 5 0 22 -26
39 -57z m-1722 -105 c-4 -24 -9 -69 -13 -100 l-6 -57 35 5 c30 5 36 3 41 -16
8 -30 -11 -78 -34 -85 -26 -9 -46 -50 -60 -128 -7 -37 -16 -67 -19 -67 -11 0
-40 160 -40 222 0 31 5 81 11 110 25 115 101 219 85 116z m-1510 -23 c19 -30
11 -81 -17 -95 -14 -8 -23 -6 -39 10 -22 22 -25 46 -10 84 12 33 44 34 66 1z
m1683 6 c18 -18 19 -61 3 -61 -12 0 -112 64 -112 72 0 4 20 8 45 8 31 0 51 -6
64 -19z m141 -50 c0 -71 -26 -114 -57 -95 -11 7 -17 22 -16 39 2 30 49 115 63
115 6 0 10 -27 10 -59z m120 14 c25 -31 9 -115 -23 -115 -41 0 -62 77 -30 112
20 22 36 23 53 3z m254 -41 c19 -19 21 -74 3 -98 -13 -18 -15 -17 -35 9 -24
30 -29 74 -10 93 16 16 23 15 42 -4z m202 -41 c9 -19 14 -47 12 -61 -4 -30
-47 -65 -71 -57 -38 15 -46 125 -11 160 21 21 52 3 70 -42z m-1254 11 c35 -18
43 -33 24 -40 -23 -9 -64 4 -87 27 -39 39 -4 47 63 13z m1892 -70 c10 -25 -29
-96 -84 -153 -52 -54 -79 -64 -87 -31 -7 27 -25 25 -62 -6 -35 -30 -53 -83
-45 -135 5 -28 0 -51 -19 -92 -23 -50 -90 -137 -106 -137 -4 0 -5 17 -3 39 3
25 -5 61 -23 104 -14 37 -24 71 -21 76 3 5 21 12 39 15 41 8 68 35 98 101 29
62 140 175 205 209 57 29 99 33 108 10z m-1780 -86 c23 -37 -36 -77 -63 -44
-8 10 -11 26 -7 42 5 20 12 25 33 22 14 -2 31 -11 37 -20z m624 17 c-3 -3 -46
-25 -95 -49 -50 -24 -94 -50 -98 -57 -13 -20 88 -5 198 31 127 40 169 41 208
4 37 -35 37 -56 -1 -87 -35 -30 -93 -50 -221 -76 -112 -23 -171 -48 -167 -71
8 -43 92 -19 371 106 232 104 283 122 298 107 40 -40 -95 -114 -455 -249 -109
-41 -204 -74 -211 -74 -16 0 -93 117 -111 168 -32 91 -7 213 50 238 29 12 246
21 234 9z m-584 -165 c-1 -41 -49 -124 -65 -114 -15 9 -6 118 11 139 7 9 23
15 34 13 17 -2 21 -10 20 -38z m-214 -4 c0 -42 -9 -68 -21 -60 -10 6 -12 77
-2 87 15 15 23 5 23 -27z m1430 -126 c0 -52 -5 -102 -10 -110 -7 -10 -10 26
-10 110 0 84 3 120 10 110 5 -8 10 -58 10 -110z m-132 38 c-13 -38 -285 -147
-466 -188 -185 -41 -160 -18 91 81 99 39 210 82 246 94 74 26 135 32 129 13z
m33 -144 c20 -25 24 -116 5 -152 -18 -36 -62 -54 -232 -98 -95 -24 -114 -26
-128 -15 -13 11 -14 17 -4 28 17 21 92 57 173 83 39 13 88 32 110 44 l40 21
-45 3 c-28 2 -105 -13 -204 -38 -160 -40 -220 -48 -231 -31 -11 19 178 98 350
147 96 27 148 30 166 8z m409 -57 c0 -39 -126 -167 -165 -167 -14 0 -2 36 27
77 50 70 138 127 138 90z m40 -123 c-61 -61 -107 -91 -121 -77 -17 17 34 76
90 105 83 43 92 35 31 -28z m439 11 c18 -38 20 -107 2 -128 -40 -49 -94 81
-60 144 14 27 41 20 58 -16z m-1535 -54 c10 -15 -55 -62 -81 -59 -35 4 -31 20
13 45 42 25 60 28 68 14z m686 -81 c22 -36 -32 -55 -201 -69 -71 -6 -140 -18
-175 -31 -33 -12 -72 -24 -87 -27 -24 -5 -28 -3 -25 13 7 37 154 97 308 125
68 12 170 6 180 -11z m190 -170 c70 -9 308 2 458 21 85 11 94 10 112 -6 55
-50 176 -270 219 -400 42 -125 56 -217 86 -554 37 -419 62 -555 151 -808 90
-253 108 -367 125 -781 18 -427 7 -500 -160 -998 -142 -427 -193 -543 -349
-790 l-77 -123 -330 -1 c-332 0 -469 9 -532 35 -40 17 -41 30 -5 68 l27 28 0
182 c-1 225 -19 360 -90 682 -82 367 -188 1014 -188 1150 1 50 8 155 18 235
19 161 16 281 -11 383 -13 49 -15 88 -10 187 7 133 7 139 85 590 56 328 77
485 90 669 10 143 19 160 98 203 70 39 150 58 188 45 16 -5 59 -13 95 -17z
m-567 -527 c53 19 57 19 57 -8 0 -47 -41 -109 -145 -216 -115 -119 -176 -221
-177 -296 0 -45 16 -83 36 -83 15 0 55 29 103 73 18 17 36 28 39 24 13 -13
-62 -122 -144 -208 -91 -96 -170 -155 -185 -140 -15 15 17 57 66 88 47 29 57
40 57 66 0 16 -5 18 -40 12 -38 -6 -40 -5 -40 18 0 30 17 38 64 30 33 -5 36
-4 36 19 0 31 -26 55 -65 60 -27 3 -30 7 -33 43 -4 54 45 130 177 272 120 128
145 173 139 244 l-5 49 24 -26 c13 -14 29 -24 36 -21z m-123 -48 c0 -21 -41
-72 -121 -150 -51 -49 -88 -83 -82 -75 93 132 175 230 194 230 5 0 9 -2 9 -5z
m180 -173 c0 -28 -203 -242 -229 -242 -39 0 99 180 179 233 26 18 50 22 50 9z
m-106 -458 c9 -22 7 -94 -2 -94 -4 0 -13 9 -20 20 -32 51 -82 3 -64 -62 11
-41 0 -68 -28 -68 -22 0 -27 29 -10 61 17 31 -5 22 -49 -21 -73 -71 -47 -130
43 -100 60 19 72 -9 36 -81 -30 -57 -47 -60 -87 -13 -43 49 -93 136 -93 161 0
24 51 73 158 152 88 64 106 71 116 45z m-279 -276 c34 -15 43 -53 19 -80 -24
-26 -129 -98 -144 -98 -6 0 5 20 25 45 41 49 41 75 0 75 -33 0 -32 23 1 49 30
24 61 26 99 9z m246 -185 c-6 -23 -34 -66 -66 -103 -47 -54 -70 -100 -49 -100
11 0 50 24 93 57 82 62 98 28 27 -55 -24 -28 -50 -68 -57 -89 -14 -44 -8 -140
21 -308 26 -155 45 -217 74 -252 30 -35 43 -105 51 -263 11 -221 34 -374 120
-780 66 -310 88 -473 83 -600 -5 -108 -21 -151 -68 -175 -17 -9 -30 -24 -30
-34 0 -10 23 -46 50 -80 28 -34 50 -69 50 -77 0 -33 -61 -114 -86 -114 -11 0
-64 99 -64 119 0 5 -6 14 -14 20 -11 9 -17 1 -32 -41 -28 -77 -59 -91 -187
-84 -53 4 -121 14 -150 24 -50 18 -52 20 -51 55 2 69 121 177 179 163 71 -18
125 96 74 155 -19 22 -21 32 -16 129 3 58 13 157 23 220 12 86 17 181 17 375
1 385 -24 622 -98 960 -24 110 -49 241 -55 290 -14 115 -24 145 -67 202 -64
84 -78 148 -48 219 30 72 114 149 151 140 17 -5 32 6 70 51 43 50 49 54 57 36
5 -12 4 -35 -2 -60z m-211 -4 c0 -27 -64 -92 -87 -87 -30 6 -26 34 10 72 39
41 77 48 77 15z m240 -308 c13 -26 13 -121 -1 -121 -14 0 -39 63 -39 98 0 45
21 57 40 23z m406 -2523 c8 -13 -43 -61 -60 -55 -16 5 -20 36 -6 52 15 18 56
20 66 3z"/>
<path d="M5627 11929 c-9 -32 -7 -139 2 -164 6 -15 9 -11 14 20 9 52 8 125 -2
149 -7 18 -8 18 -14 -5z"/>
<path d="M5490 11871 c0 -33 4 -62 9 -66 14 -8 24 57 16 94 -11 51 -25 35 -25
-28z"/>
<path d="M6055 11439 c-9 -35 -2 -104 10 -104 13 0 19 90 6 112 -8 16 -10 15
-16 -8z"/>
<path d="M6185 11411 c11 -82 101 -249 122 -227 16 15 -62 194 -107 246 l-21
25 6 -44z"/>
<path d="M5446 11064 c-9 -23 -7 -67 3 -83 14 -23 35 53 21 79 -13 24 -16 25
-24 4z"/>
<path d="M6275 10124 c-68 -71 -183 -230 -173 -239 7 -7 81 70 149 155 118
147 132 197 24 84z"/>
<path d="M5714 9982 c-15 -10 -44 -67 -44 -88 0 -15 4 -14 26 7 14 13 30 35
35 48 10 26 1 45 -17 33z"/>
<path d="M6539 9586 c-54 -14 -111 -46 -117 -65 -4 -12 12 -13 93 -7 116 9
123 11 131 43 11 43 -22 52 -107 29z"/>
<path d="M4628 9103 c-21 -24 -83 -151 -92 -188 l-7 -29 21 19 c23 21 87 140
101 188 9 31 -1 35 -23 10z"/>
<path d="M3636 7924 c-9 -8 -16 -27 -16 -41 0 -24 2 -25 40 -19 39 6 40 5 30
-14 -15 -27 -40 -39 -73 -33 -33 7 -66 -20 -102 -82 -28 -49 -71 -182 -62
-191 3 -4 31 12 62 35 30 23 55 38 55 33 0 -4 -13 -29 -30 -55 -72 -114 -84
-155 -52 -190 15 -17 17 -38 15 -155 -1 -145 2 -149 38 -44 16 45 20 82 20
176 -1 146 6 164 115 301 105 132 114 145 114 172 0 38 -89 123 -129 123 -5 0
-17 -7 -25 -16z"/>
<path d="M3687 5738 c-8 -13 -24 -80 -36 -149 -35 -211 -24 -357 30 -415 44
-47 50 -1 19 136 -29 127 -26 178 17 302 30 85 36 112 27 125 -17 27 -41 27
-57 1z"/>
<path d="M3807 5513 c-10 -10 -8 -111 2 -117 12 -8 21 18 21 62 0 39 -12 67
-23 55z"/>
<path d="M3450 5117 c-1 -46 134 -345 179 -397 l22 -25 -6 25 c-22 83 -141
346 -179 395 -14 18 -15 18 -16 2z"/>
<path d="M5471 8166 c-25 -40 -53 -115 -46 -126 2 -4 16 -5 30 -2 19 3 25 0
25 -12 0 -17 -30 -82 -59 -126 l-16 -24 -10 49 -11 49 -22 -36 c-28 -46 -28
-82 0 -102 40 -28 75 -20 102 22 34 51 104 219 112 270 6 37 4 40 -13 36 -11
-3 -26 3 -37 15 -25 28 -31 27 -55 -13z"/>
<path d="M5813 6198 c-21 -22 -27 -39 -24 -65 4 -40 81 21 81 63 0 31 -29 32
-57 2z"/>
<path d="M5598 5898 c-31 -30 -40 -88 -13 -88 20 0 47 55 43 88 l-3 27 -27
-27z"/>
<path d="M5550 4448 c-20 -7 -22 -11 -10 -18 19 -13 71 -12 90 0 8 5 13 10 10
10 -3 0 -19 4 -35 9 -17 5 -41 4 -55 -1z"/>
<path d="M5780 4400 c-10 -6 35 -10 135 -10 100 0 145 4 135 10 -8 5 -69 10
-135 10 -66 0 -127 -5 -135 -10z"/>
<path d="M5260 4140 c-10 -7 28 -10 118 -10 86 0 131 4 127 10 -8 13 -225 13
-245 0z"/>
<path d="M5755 4100 c-17 -4 37 -8 130 -8 110 0 147 3 120 9 -49 10 -209 9
-250 -1z"/>
<path d="M1309 9624 c-20 -25 16 -84 66 -109 56 -27 175 -33 199 -10 26 26 3
53 -83 98 -81 42 -157 51 -182 21z"/>
<path d="M1198 9519 c-10 -5 -18 -20 -18 -33 0 -106 295 -191 388 -111 l26 22
-24 13 c-13 7 -67 15 -120 18 -98 4 -144 20 -134 46 3 7 -7 23 -22 35 -29 22
-68 27 -96 10z"/>
<path d="M2120 9433 c-55 -10 -42 -23 23 -23 38 0 67 4 67 10 0 6 -9 10 -19
10 -11 0 -25 2 -33 4 -7 2 -24 1 -38 -1z"/>
<path d="M1962 8315 c-49 -75 -113 -215 -110 -239 2 -16 14 -5 52 53 56 84 99
182 94 214 -3 19 -8 15 -36 -28z"/>
<path d="M820 8208 c0 -63 4 -98 9 -92 16 16 17 194 1 194 -6 0 -10 -41 -10
-102z"/>
<path d="M6291 8175 c-46 -47 -90 -85 -98 -85 -7 0 -22 5 -32 12 -29 18 -61
-9 -125 -105 -43 -64 -56 -93 -56 -121 0 -20 -7 -51 -16 -67 -8 -17 -13 -33
-10 -36 21 -21 436 438 436 481 0 17 -24 -2 -99 -79z m-140 -152 c-30 -42
-141 -149 -141 -136 0 16 70 103 109 136 42 35 58 35 32 0z"/>
<path d="M2533 8131 c-86 -71 -163 -157 -163 -180 0 -27 4 -26 47 6 40 31 193
200 193 214 0 18 -21 8 -77 -40z"/>
<path d="M1984 8118 c-39 -42 -73 -102 -85 -150 -14 -53 -7 -72 16 -42 31 38
96 176 93 196 -3 19 -4 19 -24 -4z"/>
<path d="M8050 7650 c-40 -78 -51 -147 -39 -235 6 -44 12 -82 14 -85 3 -6 50
-234 59 -290 20 -121 36 -409 36 -652 0 -298 -7 -408 -46 -758 -37 -320 -27
-430 36 -430 20 0 59 41 95 100 55 91 116 135 131 95 9 -21 -26 -83 -108 -194
-98 -132 -148 -211 -148 -233 0 -17 5 -19 31 -13 l31 7 -7 -51 c-8 -56 2 -64
35 -31 17 17 20 32 19 98 -2 82 8 114 58 180 32 43 43 40 43 -9 0 -46 -11 -72
-47 -111 l-25 -26 31 -28 c17 -15 31 -37 31 -48 0 -12 -30 -57 -66 -101 -58
-70 -94 -123 -94 -140 0 -18 24 3 72 63 52 64 101 102 114 89 11 -11 -16 -71
-65 -147 -27 -41 -48 -77 -46 -78 2 -2 25 12 51 32 26 20 55 36 64 36 10 0 32
-14 50 -30 42 -40 38 -57 -51 -189 -64 -97 -83 -141 -60 -141 12 0 64 52 119
118 41 49 72 67 72 40 0 -19 -49 -96 -115 -182 -34 -45 -70 -97 -80 -116 -20
-38 -25 -114 -12 -195 l7 -50 -25 30 c-32 38 -192 359 -200 403 -6 28 -4 32
14 32 11 0 34 -17 52 -40 18 -22 37 -40 43 -40 12 0 198 272 191 279 -3 2 -25
-10 -50 -28 -102 -73 -165 -23 -165 134 0 76 -16 135 -36 135 -13 0 -14 8 -9
41 6 36 4 44 -21 71 l-29 29 27 48 c14 26 23 53 20 58 -4 6 -33 23 -65 38 -37
18 -63 38 -72 56 -14 26 -13 29 11 46 17 13 29 34 35 64 13 67 30 589 32 1024
2 430 -5 501 -63 708 -71 254 -213 557 -260 557 -23 0 -14 -99 17 -180 31 -81
27 -124 -21 -250 -47 -119 -47 -139 -2 -105 11 8 27 15 37 15 38 0 84 -192 84
-355 0 -98 -3 -116 -27 -167 -14 -31 -49 -86 -77 -123 -55 -72 -66 -100 -58
-145 5 -22 -1 -37 -24 -66 -34 -43 -44 -74 -35 -110 6 -22 10 -25 38 -19 66
15 51 -53 -21 -93 -50 -28 -56 -39 -71 -122 -28 -156 -205 -630 -330 -885 -44
-88 -84 -182 -90 -210 -28 -125 -38 -712 -20 -1141 11 -272 28 -407 76 -627
20 -89 38 -197 41 -239 6 -75 5 -78 -18 -86 -13 -5 -64 -13 -114 -16 -119 -9
-153 -21 -161 -53 -14 -53 32 -77 123 -66 63 7 69 -6 18 -37 -44 -27 -44 -40
-2 -40 19 0 37 -3 40 -7 4 -3 -13 -28 -38 -54 -46 -49 -48 -53 -49 -104 -1
-36 -33 -55 -92 -55 -54 0 -58 -7 -29 -42 48 -57 26 -127 -72 -228 -42 -43
-73 -83 -73 -95 0 -11 9 -33 20 -50 24 -37 19 -57 -31 -112 -31 -34 -39 -50
-39 -81 0 -27 -7 -45 -21 -58 -43 -39 -61 -75 -64 -127 -2 -39 -17 -81 -60
-170 -46 -95 -58 -129 -59 -172 -1 -43 -8 -62 -34 -98 -18 -25 -32 -48 -32
-51 0 -4 16 0 35 8 33 14 35 14 35 -4 0 -10 -26 -56 -57 -102 -68 -99 -100
-172 -109 -250 -9 -81 -22 -90 -147 -99 -97 -7 -157 -22 -157 -40 0 -21 54
-41 125 -46 47 -4 82 -12 91 -21 12 -11 14 -40 12 -137 -2 -84 1 -128 9 -135
42 -44 1393 147 1668 235 113 36 251 63 393 77 147 14 159 9 119 -50 -15 -21
-27 -45 -27 -54 0 -26 44 -51 185 -106 257 -100 355 -121 388 -84 32 36 50
199 26 243 -10 20 -11 20 -30 3 -10 -9 -19 -22 -19 -27 0 -6 -9 -30 -20 -53
-22 -45 -64 -70 -99 -59 -26 8 -51 54 -51 93 0 15 -6 36 -13 46 -13 17 -14 17
-31 1 -13 -14 -17 -31 -14 -79 l3 -61 -40 3 c-22 2 -76 15 -120 30 -62 21 -81
32 -83 47 -4 30 47 74 103 88 84 21 84 72 -1 86 -59 10 -62 25 -31 153 15 62
47 210 71 328 25 118 47 208 49 200 3 -8 8 -60 12 -115 11 -186 41 -405 56
-405 5 0 9 78 9 178 0 276 -25 569 -66 786 -36 193 -30 257 15 162 32 -66 68
-238 96 -466 30 -236 60 -396 110 -577 19 -70 35 -149 35 -175 0 -41 -4 -50
-30 -69 -16 -12 -27 -25 -25 -29 2 -4 38 -10 80 -13 90 -8 109 -17 123 -57 6
-16 17 -30 25 -30 21 0 83 44 167 120 98 87 215 173 350 257 61 37 110 70 110
73 0 3 -44 23 -97 44 -53 22 -107 49 -122 62 -22 19 -24 24 -11 39 24 29 86
54 277 112 260 77 313 102 313 144 0 38 -133 92 -315 128 -396 78 -825 88
-825 20 0 -21 53 -59 83 -59 31 0 18 -19 -20 -29 -72 -19 -114 -17 -133 6 -47
59 -62 339 -58 1127 3 751 7 699 -72 901 -136 345 -173 513 -220 990 -12 116
-30 271 -41 345 -11 74 -24 173 -29 220 -18 160 -30 725 -30 1370 0 655 -8
863 -36 980 -32 129 -134 310 -227 401 -63 62 -89 64 -117 9z m94 -182 c-22
-84 -20 -91 21 -84 41 8 41 7 19 -76 -8 -33 -13 -62 -11 -64 2 -2 25 21 51 51
49 57 66 67 66 38 0 -24 -52 -113 -83 -141 l-25 -24 -16 24 c-55 84 -76 237
-41 296 28 47 35 39 19 -20z m170 -284 c10 -26 7 -204 -4 -204 -5 0 -19 32
-31 71 -18 61 -20 77 -10 110 12 40 34 51 45 23z m-52 -511 c22 -25 31 -60 23
-90 -8 -35 -30 -15 -44 42 -17 69 -11 84 21 48z m66 -230 c-19 -70 -84 -173
-109 -173 -28 0 15 118 65 178 39 45 57 43 44 -5z m27 -694 c4 -5 -5 -28 -20
-49 -29 -42 -143 -145 -151 -137 -7 7 32 84 65 126 23 31 76 71 93 71 4 0 10
-5 13 -11z m-15 -183 c0 -46 -121 -176 -165 -176 -15 0 -1 42 26 76 46 59 139
125 139 100z m-806 -239 c125 -127 205 -296 301 -632 71 -248 117 -374 215
-590 119 -263 183 -455 215 -642 14 -79 16 -132 10 -273 -5 -139 -3 -193 10
-265 20 -115 69 -262 138 -412 105 -231 131 -398 162 -1035 l6 -128 -35 0
c-55 0 -700 -29 -906 -40 -324 -18 -503 -40 -537 -65 -24 -18 -12 -28 70 -55
38 -12 80 -32 94 -45 l27 -22 -25 -16 c-14 -10 -63 -21 -115 -26 -98 -10 -118
-16 -153 -43 -30 -23 -74 -34 -218 -59 -63 -10 -147 -30 -186 -43 -40 -14 -75
-21 -79 -18 -7 7 12 60 147 412 121 315 202 505 428 995 129 282 167 389 167
474 0 32 -14 125 -30 207 -122 601 -151 1156 -79 1530 18 93 164 617 188 675
6 13 22 56 37 94 46 120 52 121 148 22z m920 -1018 c16 -83 -3 -193 -32 -187
-19 4 -21 40 -8 93 8 27 3 24 -52 -32 -95 -99 -125 -77 -52 36 46 70 96 121
121 121 10 0 19 -11 23 -31z m-91 -281 l50 -32 17 22 c10 12 20 22 22 22 3 0
3 -46 0 -102 -3 -87 -1 -113 17 -166 12 -35 19 -72 16 -82 -8 -26 -69 -62 -97
-58 -21 3 -24 11 -35 103 -7 55 -21 144 -32 199 -22 105 -25 126 -14 126 3 0
29 -14 56 -32z m195 -473 c22 -28 41 -73 141 -330 78 -201 95 -260 80 -287
-24 -45 -58 -10 -98 98 -16 43 -36 95 -45 115 -19 45 -63 99 -81 99 -21 0 -26
46 -14 135 12 91 4 125 -30 125 -26 0 -33 23 -15 49 20 28 38 27 62 -4z m-132
-97 c9 -52 10 -53 44 -53 29 0 35 -3 32 -20 -5 -34 -48 -65 -81 -59 -46 9 -45
-11 4 -70 79 -97 197 -332 219 -437 7 -30 42 -49 93 -49 35 0 36 -1 19 -19
-10 -11 -31 -24 -47 -30 -40 -14 -60 7 -108 112 -72 156 -92 138 -68 -60 9
-78 13 -143 8 -156 -8 -20 -10 -19 -29 18 -11 22 -30 73 -42 113 -12 39 -26
74 -30 77 -4 3 -11 -12 -15 -32 -6 -31 -8 -34 -21 -21 -8 8 -26 48 -40 89 -34
99 -43 281 -20 419 17 105 52 230 65 230 4 0 12 -24 17 -52z m313 -867 c11 -7
12 -17 3 -52 -14 -58 -21 -128 -32 -349 -11 -202 -17 -243 -34 -237 -19 6 -37
79 -42 177 -5 91 -2 112 31 217 6 19 3 21 -27 20 -32 -2 -33 -1 -36 41 -8 110
76 222 137 183z m1201 -1330 c0 -21 -25 -51 -41 -51 -6 0 -19 5 -31 11 -20 11
-20 11 3 35 28 30 69 33 69 5z m-686 -17 c32 -12 15 -24 -34 -24 -46 0 -60 7
-43 23 8 9 56 9 77 1z m-1647 -45 c22 -8 24 -12 13 -19 -20 -13 -61 -12 -80 0
-13 9 -13 11 0 20 19 13 32 12 67 -1z m-64 -255 c12 -13 -15 -46 -48 -60 -36
-15 -145 -20 -145 -6 0 8 21 17 115 52 54 21 68 23 78 14z m-523 -94 c15 -5
-40 -8 -135 -8 -98 0 -152 3 -140 8 25 11 241 11 275 0z m-594 -115 c-11 -55
-76 -97 -76 -49 0 19 37 93 59 118 15 18 16 17 19 -9 2 -16 1 -42 -2 -60z
m982 -112 c2 -9 -10 -13 -42 -13 -43 0 -63 10 -49 24 12 11 86 2 91 -11z m631
-122 c21 -13 -22 -37 -94 -51 -69 -14 -276 -16 -319 -3 -98 30 36 59 274 62
69 0 131 -3 139 -8z m-1311 -40 c19 -12 -8 -21 -63 -21 -24 0 -51 3 -60 6 -28
11 4 24 60 24 28 0 56 -4 63 -9z m442 -1 c10 -7 -33 -10 -130 -10 -97 0 -140
3 -130 10 8 5 67 10 130 10 63 0 122 -5 130 -10z m-784 -42 c8 -13 -39 -58
-60 -58 -19 0 -28 28 -16 51 12 21 64 27 76 7z"/>
<path d="M7398 4063 c-57 -9 -25 -23 49 -23 44 0 73 4 68 9 -13 11 -81 19
-117 14z"/>
<path d="M7595 1610 c19 -31 345 -70 345 -42 0 14 -13 17 -140 37 -109 17
-214 20 -205 5z"/>
<path d="M6876 7461 c-9 -10 -26 -42 -36 -69 -33 -88 8 -72 49 18 31 68 25 93
-13 51z"/>
<path d="M5720 7309 c-41 -17 -69 -49 -90 -106 -28 -74 -52 -278 -48 -399 3
-99 4 -104 52 -195 38 -74 46 -96 38 -110 -13 -21 -3 -31 51 -54 47 -19 53
-19 77 5 17 17 20 28 14 69 -5 35 -2 57 11 82 22 42 66 102 71 96 3 -2 -9 -35
-26 -72 -17 -37 -28 -70 -26 -72 8 -9 66 80 78 118 7 26 8 49 1 71 -8 30 -12
33 -46 31 -34 -2 -37 0 -37 25 0 15 14 72 30 127 31 104 36 141 21 164 -13 21
-53 6 -74 -26 -17 -27 -17 -25 -11 93 9 160 -6 185 -86 153z m-30 -291 c0 -48
-10 -75 -21 -56 -10 15 -12 79 -3 103 10 25 24 -2 24 -47z m101 -198 c-22
-164 -68 -204 -58 -51 6 85 20 143 41 170 20 25 29 -34 17 -119z"/>
<path d="M2876 7199 c-18 -59 -20 -79 -8 -79 21 0 45 43 46 82 1 61 -20 59
-38 -3z"/>
<path d="M7046 7202 c-18 -20 -41 -80 -33 -88 7 -7 67 65 67 81 0 23 -16 26
-34 7z"/>
<path d="M4497 7126 c-3 -19 -3 -53 0 -76 8 -60 23 -30 23 48 0 66 -14 84 -23
28z"/>
<path d="M2697 7024 c-69 -138 -172 -424 -153 -424 10 0 78 142 131 275 89
223 101 307 22 149z"/>
<path d="M7474 6864 c-100 -101 -134 -144 -116 -144 12 0 195 182 222 220 44
62 -5 27 -106 -76z"/>
<path d="M7548 6812 c-154 -146 -292 -293 -324 -344 -41 -64 -60 -127 -93
-310 -42 -226 -81 -352 -152 -492 -33 -65 -54 -116 -47 -114 7 3 43 49 81 104
70 102 122 164 138 164 32 0 -17 -113 -99 -227 -50 -71 -72 -106 -72 -118 0
-4 20 -4 45 -1 36 6 46 4 51 -8 7 -17 -24 -72 -56 -101 -27 -24 -25 -33 8 -37
23 -3 27 -7 25 -33 0 -16 -8 -55 -17 -85 -19 -64 -23 -245 -5 -234 23 14 42
82 45 164 2 69 9 99 35 160 26 59 33 90 33 145 l1 70 -34 -3 c-32 -2 -33 -1
-26 25 9 38 40 79 112 150 58 58 120 143 136 186 8 20 4 19 -57 -25 -21 -15
-43 -28 -48 -28 -21 0 -4 43 44 111 l52 73 -44 -32 c-24 -18 -52 -32 -61 -32
-28 0 -43 62 -36 154 11 132 28 157 293 428 224 228 281 293 236 269 -10 -5
-95 -83 -188 -172 -154 -148 -261 -239 -277 -239 -30 0 26 78 164 229 216 234
280 311 260 311 -5 0 -61 -48 -123 -108z"/>
<path d="M2702 6733 c-29 -46 -81 -159 -97 -213 -8 -25 -8 -25 14 -6 20 18
113 197 126 244 11 37 -11 25 -43 -25z"/>
<path d="M4517 6723 c-18 -29 70 -47 313 -63 85 -6 184 -17 220 -26 219 -49
301 -55 369 -28 34 14 59 39 48 50 -2 2 -18 -1 -36 -7 -38 -13 -147 -6 -256
17 -223 47 -642 83 -658 57z"/>
<path d="M7100 6618 c-24 -39 -24 -42 -5 -58 12 -10 20 -7 45 18 38 38 40 72
5 72 -18 0 -31 -10 -45 -32z"/>
<path d="M7645 6559 c-81 -76 -170 -178 -162 -186 7 -7 129 109 199 190 28 31
45 57 39 57 -5 0 -40 -28 -76 -61z"/>
<path d="M5548 6403 c-50 -76 -55 -138 -10 -114 42 22 83 151 48 151 -7 0 -24
-17 -38 -37z"/>
<path d="M7342 6255 c-64 -67 -90 -105 -73 -105 11 0 151 149 151 161 0 20
-21 6 -78 -56z"/>
<path d="M7455 6149 c-50 -42 -65 -57 -65 -72 0 -13 58 25 91 59 48 50 30 59
-26 13z"/>
<path d="M6430 5799 c-40 -51 -79 -142 -80 -186 0 -54 19 -38 59 50 71 153 79
208 21 136z"/>
<path d="M6499 5334 c-20 -25 -23 -123 -5 -194 9 -35 36 -103 61 -150 60 -120
83 -193 95 -306 11 -101 22 -134 45 -134 37 0 28 102 -26 300 -39 141 -74 222
-110 254 -29 26 -29 28 -29 130 0 106 -7 129 -31 100z"/>
<path d="M1930 4676 c0 -19 102 -44 430 -105 146 -28 352 -71 458 -96 172 -40
482 -98 490 -91 1 2 0 11 -4 20 -11 28 -60 46 -152 57 -130 14 -198 27 -412
76 -347 79 -623 133 -717 140 -51 3 -93 3 -93 -1z"/>
<path d="M1777 4663 c-17 -16 -3 -23 43 -23 49 0 66 12 34 24 -21 8 -69 8 -77
-1z"/>
<path d="M6877 4623 c-17 -27 -28 -206 -27 -456 0 -366 7 -451 40 -460 28 -7
25 -35 -10 -124 -33 -82 -38 -124 -16 -142 11 -9 15 -44 18 -130 3 -117 4
-120 43 -192 40 -74 40 -75 40 -184 0 -106 1 -110 22 -113 33 -5 92 27 99 53
3 12 -1 48 -10 81 -44 178 -105 675 -126 1034 -22 392 -31 507 -41 568 -11 59
-22 82 -32 65z"/>
<path d="M1487 4583 c-10 -3 -16 -10 -14 -16 4 -14 61 -21 85 -12 15 6 15 7 2
14 -24 13 -54 19 -73 14z"/>
<path d="M9133 4453 c-62 -8 -33 -23 42 -23 43 0 75 4 75 10 0 6 -13 10 -29
10 -16 0 -35 2 -43 3 -7 2 -28 2 -45 0z"/>
<path d="M9347 4404 c-14 -14 6 -24 48 -24 45 0 67 13 39 24 -21 8 -79 8 -87
0z"/>
<path d="M8775 4354 c-40 -15 -83 -49 -74 -58 12 -13 179 49 179 65 0 14 -60
9 -105 -7z"/>
<path d="M1470 4232 c-39 -6 -19 -11 145 -36 105 -16 195 -28 200 -28 6 1 11
8 13 17 6 28 -61 46 -192 50 -66 2 -141 0 -166 -3z"/>
<path d="M9920 4220 c40 -33 161 -88 210 -96 42 -6 44 -5 29 10 -19 20 -180
91 -229 100 l-35 7 25 -21z"/>
<path d="M2250 4224 c52 -12 980 -57 1075 -52 56 3 50 4 -70 21 -208 28 -369
36 -705 36 -173 -1 -308 -3 -300 -5z"/>
<path d="M8835 4061 l-70 -6 79 -7 c93 -9 259 -9 336 1 51 6 48 7 -54 14 -116
7 -178 7 -291 -2z"/>
<path d="M9505 4063 c-69 -10 -45 -23 43 -23 55 0 92 4 92 10 0 6 -11 10 -24
10 -13 0 -36 2 -52 4 -16 2 -42 2 -59 -1z"/>
<path d="M1605 3060 c-16 -4 71 -8 195 -8 124 0 212 4 195 8 -16 4 -104 8
-195 8 -91 0 -178 -4 -195 -8z"/>
<path d="M513 2920 c-46 -28 -43 -44 7 -36 51 8 91 27 87 40 -6 19 -61 17 -94
-4z"/>
<path d="M735 2931 c-16 -7 -14 -9 14 -14 42 -9 128 -7 161 2 23 7 21 8 -15
14 -52 9 -135 8 -160 -2z"/>
<path d="M141 2494 c-49 -13 -111 -47 -111 -61 0 -17 279 46 304 68 16 14
-134 9 -193 -7z"/>
<path d="M43 2230 c-24 -10 -43 -24 -43 -30 0 -21 30 -22 107 -5 141 32 163
55 51 55 -50 0 -86 -6 -115 -20z"/>
<path d="M129 2019 c-10 -10 -16 -25 -13 -34 14 -34 81 -47 104 -20 11 13 9
20 -9 39 -31 33 -59 38 -82 15z"/>
<path d="M698 1804 c-73 -31 -50 -69 42 -69 95 0 141 41 80 72 -33 17 -76 15
-122 -3z"/>
<path d="M3901 1504 c-40 -29 -15 -82 33 -70 28 7 40 31 26 56 -14 26 -35 31
-59 14z"/>
<path d="M1960 1501 c-53 -6 -50 -7 75 -24 184 -25 349 -37 500 -36 l130 1
-75 14 c-183 34 -519 58 -630 45z"/>
<path d="M98 1443 c-28 -4 -55 -29 -44 -40 3 -3 59 -10 123 -15 153 -12 191
-22 199 -53 11 -44 69 -43 80 2 4 15 0 30 -11 43 -41 45 -233 80 -347 63z"/>
<path d="M684 1276 c-9 -23 21 -54 65 -66 70 -19 456 -6 571 19 35 8 34 8 -20
14 -30 3 -136 9 -235 12 -164 5 -228 11 -337 31 -30 5 -39 3 -44 -10z"/>
<path d="M1440 813 c-33 -13 -50 -35 -39 -50 16 -19 159 -18 185 1 18 14 18
16 2 32 -18 18 -117 30 -148 17z"/>
<path d="M3239 781 c-73 -23 -151 -68 -219 -127 -94 -81 -106 -84 -338 -84
-222 0 -256 -7 -268 -56 -9 -37 0 -39 43 -10 41 28 91 34 126 14 16 -9 106
-13 322 -13 299 -1 300 -1 455 -34 209 -44 244 -39 281 44 30 65 31 65 -88 65
-178 1 -365 16 -406 33 -70 30 -41 63 81 92 81 19 129 51 119 78 -8 21 -37 21
-108 -2z"/>
<path d="M5584 505 c-81 -18 -133 -45 -178 -95 -38 -43 -56 -77 -56 -111 0
-33 27 -21 65 31 46 62 113 96 210 105 109 10 178 53 120 75 -34 13 -86 12
-161 -5z"/>
<path d="M8091 285 c-44 -20 -31 -35 41 -46 49 -8 163 2 176 16 3 3 -2 13 -11
22 -23 23 -160 29 -206 8z"/>
<path d="M5530 193 c0 -6 13 -16 29 -23 45 -18 65 -45 57 -76 l-7 -27 188 6
c212 8 303 16 303 28 0 4 -48 19 -107 33 -182 43 -463 79 -463 59z"/>
<path d="M1748 158 c-68 -24 -4 -58 109 -58 103 0 151 35 82 59 -39 13 -154
13 -191 -1z"/>
<path d="M5109 156 c-42 -15 -129 -75 -129 -89 0 -5 28 -6 73 -1 139 17 188
12 242 -24 44 -29 55 -32 127 -32 43 0 78 2 78 4 0 2 -31 13 -69 25 -50 15
-82 33 -119 66 -74 66 -125 79 -203 51z"/>
<path d="M2595 110 c17 -5 62 -16 100 -25 40 -9 95 -30 128 -51 84 -52 117
-32 54 31 -43 43 -90 55 -212 54 -72 -1 -92 -3 -70 -9z"/>
</g>
</svg>
