<?xml version="1.0" standalone="no"?>
<!DOCTYPE svg PUBLIC "-//W3C//DTD SVG 20010904//EN"
 "http://www.w3.org/TR/2001/REC-SVG-20010904/DTD/svg10.dtd">
<svg version="1.0" xmlns="http://www.w3.org/2000/svg"
 width="250.000000pt" height="250.000000pt" viewBox="0 0 1280.000000 884.000000"
 preserveAspectRatio="xMidYMid meet">
<metadata>

</metadata>
<g transform="translate(0.000000,884.000000) scale(0.100000,-0.100000)"
fill="#EDC9AF" stroke="none">
<path d="M8477 8833 c-13 -13 -7 -60 18 -131 14 -40 32 -124 40 -187 17 -126
39 -197 85 -265 16 -25 30 -50 30 -56 0 -19 -37 -45 -122 -88 -80 -40 -83 -42
-86 -79 -3 -32 -9 -40 -40 -56 -20 -10 -46 -29 -57 -41 -18 -20 -18 -23 -4
-34 15 -10 13 -15 -15 -48 -34 -40 -151 -256 -143 -264 3 -3 15 0 27 6 12 7
20 8 18 3 -2 -4 -18 -37 -36 -73 -38 -77 -42 -102 -12 -75 45 40 27 3 -35 -73
-78 -98 -85 -121 -25 -87 40 23 43 17 11 -22 -32 -41 -64 -106 -86 -178 -13
-45 -9 -55 13 -33 24 24 24 -4 -2 -72 -38 -104 -32 -160 13 -117 15 13 17 22
-21 -126 -18 -70 -20 -89 -10 -96 9 -5 10 -15 3 -32 -8 -23 -15 -71 -12 -92 1
-5 15 1 32 14 17 12 34 18 38 13 13 -16 59 -137 79 -209 11 -38 38 -127 61
-198 37 -117 40 -133 35 -200 -6 -60 -2 -88 16 -151 20 -66 22 -83 12 -110
-16 -44 -15 -81 3 -117 10 -19 14 -41 10 -63 -5 -22 -1 -44 9 -64 18 -36 21
-105 6 -183 -13 -66 -6 -100 27 -140 l26 -31 -21 -66 c-11 -37 -24 -78 -28
-92 -3 -14 -19 -38 -34 -55 -40 -43 -47 -62 -55 -141 -8 -79 -16 -100 -38 -91
-23 9 -72 -27 -91 -67 -9 -20 -23 -36 -31 -36 -8 0 -25 -10 -36 -21 -19 -19
-25 -20 -61 -10 -30 9 -56 9 -111 0 -40 -7 -85 -9 -100 -5 -29 7 -142 101
-254 213 -107 107 -152 213 -313 733 -23 74 -56 162 -73 195 -75 150 -191 282
-362 411 -163 122 -231 199 -359 408 -63 101 -164 293 -200 380 -18 44 -19 49
-7 42 4 -3 16 1 26 8 17 12 15 15 -23 36 -23 13 -42 30 -42 38 0 8 16 29 35
46 33 31 34 34 18 48 -10 9 -34 23 -53 30 l-35 15 38 12 c20 7 37 16 37 20 0
10 -67 41 -90 41 -32 0 -32 17 2 44 l32 25 -27 6 c-32 8 -35 21 -7 30 46 14
16 36 -75 55 l-60 13 58 19 c31 11 57 24 57 29 0 5 -29 9 -65 9 -70 0 -82 10
-35 30 37 15 39 37 4 46 -31 8 -115 -3 -128 -16 -12 -12 -46 -13 -46 -2 0 5 9
17 20 27 26 24 8 37 -32 23 -36 -13 -46 -4 -24 21 40 44 -31 25 -83 -22 l-24
-22 5 52 c6 58 -4 61 -54 15 l-28 -26 0 36 c0 20 4 48 10 62 13 36 2 33 -45
-14 -39 -38 -40 -39 -41 -15 -1 14 -5 33 -9 43 -6 13 -11 6 -19 -27 -14 -54
-32 -63 -48 -24 l-12 28 -4 -30 c-5 -43 -22 -56 -22 -18 0 35 -9 63 -19 63 -4
0 -15 -23 -25 -51 l-19 -52 -18 24 c-10 13 -24 36 -30 52 -17 41 -32 33 -26
-13 6 -47 -6 -52 -25 -10 -7 17 -16 30 -21 30 -4 0 -10 -13 -13 -30 -4 -16 -8
-30 -10 -30 -1 0 -19 10 -39 21 -52 31 -66 12 -26 -34 36 -40 39 -52 11 -37
-31 16 -146 25 -154 11 -7 -12 -2 -14 49 -26 28 -7 25 -9 -35 -24 -43 -11 -66
-21 -68 -32 -2 -13 3 -15 25 -12 16 2 3 -6 -30 -20 -61 -26 -87 -44 -87 -58 0
-5 7 -9 15 -9 10 0 3 -11 -17 -30 -28 -25 -31 -31 -18 -41 11 -7 12 -12 3 -15
-27 -11 -93 -65 -103 -84 -12 -23 -7 -25 21 -10 26 14 24 1 -6 -40 -14 -19
-23 -41 -20 -48 11 -29 -89 -175 -176 -257 -76 -71 -125 -89 -226 -82 -107 8
-154 23 -202 64 -38 32 -49 62 -51 148 -1 11 -8 31 -16 44 -13 18 -13 25 -4
31 10 6 8 17 -9 45 -12 22 -19 45 -16 56 4 12 1 21 -9 25 -9 3 -16 13 -16 21
0 8 5 11 10 8 6 -3 10 -2 10 4 0 5 -16 15 -35 22 -25 9 -34 18 -32 33 1 13 -5
22 -18 24 -31 6 -42 21 -25 32 13 9 13 11 0 20 -8 5 -27 10 -41 10 -23 0 -26
3 -21 27 4 21 2 25 -12 20 -9 -4 -23 -10 -33 -14 -14 -5 -15 -1 -10 35 6 47
-1 52 -28 22 -16 -18 -20 -19 -27 -5 -12 21 -25 19 -33 -5 -10 -32 -28 -11
-22 26 7 44 -7 43 -49 -3 l-34 -37 0 37 0 37 -30 -32 c-22 -25 -29 -29 -30
-15 0 23 -7 22 -47 -9 l-33 -25 0 33 -1 33 -30 -37 c-35 -43 -46 -47 -51 -16
-6 41 -28 32 -50 -21 -20 -47 -38 -66 -38 -41 0 6 -6 10 -14 10 -15 0 -26 -21
-26 -50 0 -28 -20 -36 -27 -11 -8 32 -25 20 -42 -30 -8 -24 -16 -38 -18 -31
-8 22 -26 13 -20 -10 4 -13 -4 -45 -18 -78 -14 -31 -28 -90 -33 -135 -10 -87
-43 -218 -99 -390 -36 -109 -234 -514 -294 -601 -32 -48 -316 -352 -372 -399
-65 -56 -308 -318 -369 -400 -108 -142 -159 -276 -193 -503 -55 -368 -87 -982
-66 -1252 9 -114 18 -163 42 -233 28 -81 29 -92 19 -142 -19 -90 -65 -169
-155 -264 l-83 -87 -109 -12 c-394 -44 -881 -273 -1179 -555 -149 -141 -227
-256 -240 -351 -27 -192 365 -468 832 -586 249 -64 443 -69 684 -20 136 28
169 31 270 27 140 -5 186 -21 323 -111 119 -79 176 -99 282 -99 90 0 158 12
295 54 192 58 256 49 440 -60 202 -120 292 -146 515 -146 189 1 285 16 639
105 409 102 487 114 746 115 234 0 277 -7 427 -65 97 -37 250 -123 281 -157
46 -51 3 -114 -187 -266 -236 -191 -301 -264 -301 -341 0 -80 75 -135 250
-180 174 -46 318 -60 635 -60 308 -1 460 9 745 50 385 55 700 138 896 237 55
28 107 43 230 66 449 86 1011 157 1566 198 289 21 1109 24 1413 5 478 -31
1072 -82 1300 -114 44 -6 107 -11 140 -12 33 -1 71 -7 84 -15 16 -9 40 -11 76
-6 38 4 63 1 94 -11 34 -13 47 -14 70 -4 29 11 51 46 51 78 0 57 -98 96 -168
67 -33 -15 -41 -14 -80 1 -25 9 -58 14 -76 11 -25 -4 -45 2 -82 24 -30 18 -63
29 -87 29 -21 0 -60 11 -87 25 -27 14 -62 25 -78 25 -16 0 -45 13 -68 30 -21
16 -51 30 -65 30 -16 0 -50 17 -80 40 -30 22 -63 40 -75 40 -14 0 -37 18 -64
50 -23 28 -50 50 -61 50 -11 0 -35 22 -59 54 -22 30 -49 56 -59 59 -11 2 -28
25 -39 51 -13 29 -30 50 -46 56 -13 5 -39 31 -57 59 -22 32 -46 56 -72 67 -37
17 -67 56 -67 89 0 9 -12 28 -26 42 -14 14 -39 54 -54 88 -15 34 -35 65 -43
68 -9 3 -21 30 -28 64 -9 40 -22 66 -41 84 -18 18 -32 45 -40 80 -6 30 -22 66
-36 81 -18 19 -26 42 -30 80 -2 29 -10 60 -18 68 -7 8 -16 40 -19 70 -4 30
-16 68 -27 83 -11 16 -24 55 -28 88 -7 47 -15 66 -38 87 -19 18 -31 41 -36 70
-3 23 -15 59 -26 79 -10 19 -22 61 -26 92 -3 31 -13 66 -21 79 -8 13 -17 46
-20 75 -3 29 -14 67 -24 85 -12 21 -19 53 -19 88 0 31 -7 69 -16 86 -9 17 -18
67 -21 112 -4 58 -11 87 -23 101 -19 20 -21 39 -36 280 -3 50 -10 94 -15 100
-5 5 -9 35 -9 66 0 31 -7 73 -15 92 -8 20 -15 60 -15 89 0 29 -7 75 -15 102
-10 34 -13 69 -9 111 4 39 2 76 -5 98 -7 20 -13 73 -15 119 -1 46 -8 98 -16
115 -12 27 -12 41 -2 78 9 34 9 51 0 70 -9 19 -9 41 0 89 15 81 15 119 0 134
-8 8 -13 60 -14 154 -1 79 -6 213 -10 298 -4 85 -8 227 -8 315 -1 88 -5 168
-10 178 -5 10 -5 42 -1 70 4 29 7 63 6 77 -1 14 -3 63 -4 110 -1 47 -8 95 -15
108 -7 12 -10 27 -7 33 4 5 11 69 16 142 8 114 7 138 -8 179 -14 39 -15 55 -5
100 6 29 11 76 11 103 -2 104 7 271 14 283 5 6 3 27 -4 45 -10 27 -9 38 5 65
16 31 19 32 80 32 65 0 65 0 218 -84 53 -29 84 -39 150 -46 74 -9 90 -14 142
-51 74 -52 129 -61 178 -31 47 29 62 61 56 117 -5 41 -3 46 17 51 12 3 28 16
35 30 8 13 17 24 22 24 4 0 8 8 8 17 0 9 7 24 15 33 10 11 16 40 18 81 2 60
-1 69 -46 144 -53 87 -53 93 -21 197 16 54 16 61 0 125 -34 137 -88 178 -334
253 -56 18 -109 38 -117 47 -8 8 -15 30 -15 49 0 28 -5 36 -26 44 -14 6 -28
20 -31 31 -5 17 -11 20 -36 15 -17 -3 -36 -1 -44 6 -11 9 -20 6 -43 -10 -16
-12 -40 -22 -53 -22 -14 0 -31 -9 -38 -19 -14 -20 -15 -19 -106 4 -113 29
-190 69 -278 144 -36 31 -87 73 -113 93 -113 90 -271 139 -385 118 -52 -10
-60 -9 -84 9 -14 12 -38 21 -52 21 -20 0 -31 9 -46 35 -11 21 -43 52 -79 76
l-61 39 -3 -32 c-5 -47 -16 -54 -48 -29 -31 24 -103 46 -182 56 l-54 7 16 -23
15 -24 -74 3 c-65 3 -75 1 -75 -13 0 -14 -6 -16 -30 -12 -24 5 -28 3 -23 -10
4 -9 -1 -21 -12 -29 -17 -13 -22 -8 -58 54 -52 90 -87 125 -182 180 -44 26
-106 70 -137 99 -55 50 -76 61 -91 46z m1876 -1945 c-2 -46 -5 -159 -8 -253
-7 -200 -7 -140 1 -560 4 -187 7 -379 6 -426 -2 -51 3 -101 11 -125 11 -32 12
-49 1 -94 -7 -34 -9 -61 -3 -72 8 -15 17 -198 22 -478 2 -58 6 -110 9 -116 4
-6 3 -39 -3 -74 -8 -51 -7 -70 5 -101 11 -27 13 -56 9 -108 -5 -54 -2 -81 12
-117 14 -36 16 -62 11 -115 -5 -53 -2 -76 11 -103 14 -30 15 -45 6 -93 -10
-51 -9 -64 9 -103 14 -33 19 -65 18 -120 -2 -120 15 -292 33 -325 11 -21 18
-70 22 -164 3 -73 9 -141 14 -150 4 -9 11 -49 15 -90 3 -41 12 -81 19 -89 6
-8 14 -50 18 -93 4 -62 10 -84 27 -102 17 -18 22 -36 22 -75 0 -35 8 -65 25
-98 17 -32 25 -63 25 -96 0 -29 8 -65 20 -88 12 -24 20 -59 20 -89 0 -41 5
-56 34 -90 22 -26 36 -55 40 -85 4 -27 19 -59 37 -82 20 -25 29 -48 29 -73 0
-20 10 -52 22 -71 12 -19 25 -58 29 -87 4 -28 16 -64 27 -80 11 -15 23 -50 27
-78 5 -37 16 -60 41 -87 25 -28 34 -47 34 -73 0 -27 9 -45 39 -78 27 -30 41
-55 46 -87 5 -32 17 -53 41 -75 18 -16 41 -53 51 -80 14 -36 27 -54 48 -64 45
-21 63 -40 71 -75 8 -40 21 -56 46 -56 11 0 26 -13 36 -31 30 -55 52 -77 80
-83 19 -5 34 -20 52 -54 16 -29 39 -54 61 -67 20 -11 53 -39 73 -61 21 -24 48
-44 65 -47 16 -4 52 -27 81 -52 38 -34 59 -45 83 -45 33 0 127 -52 107 -58 -6
-2 -81 6 -168 17 -684 90 -1238 126 -1830 118 -486 -7 -746 -27 -1242 -98
-211 -30 -561 -91 -630 -109 -64 -18 -56 -10 72 63 151 86 195 123 203 175 9
56 17 65 76 86 46 15 102 19 379 26 381 9 388 11 485 101 73 69 115 89 185 89
122 0 267 48 321 107 32 33 41 60 44 127 1 28 12 82 24 121 32 107 23 203 -25
257 -11 11 -82 63 -159 116 -266 181 -442 319 -583 456 -97 94 -140 154 -163
227 -10 33 -24 69 -29 80 -9 16 -5 29 23 72 19 29 40 70 47 92 7 22 43 83 80
135 155 217 199 309 325 686 160 477 188 624 188 984 -1 129 -6 285 -12 345
-6 61 -10 238 -10 395 1 305 9 431 22 393 5 -13 12 -23 17 -23 14 0 19 41 14
133 l-6 92 20 -24 c14 -17 21 -20 27 -11 13 21 8 132 -9 196 -9 34 -16 72 -16
85 1 22 3 21 34 -15 l33 -38 6 29 c7 35 0 69 -21 100 -9 15 -12 35 -8 58 4 22
1 52 -9 80 -8 25 -15 70 -15 101 0 33 -6 64 -16 78 -10 17 -14 42 -12 83 3 58
6 61 42 47 17 -6 18 -5 11 12 -5 10 -10 46 -12 79 -3 52 0 67 27 112 17 29 42
60 56 70 25 16 30 16 88 -1 177 -50 241 -44 331 30 31 24 70 53 88 64 17 11
32 20 32 20 0 0 -1 -37 -2 -82z m-8468 -4098 c-58 -58 -61 -60 -113 -60 l-53
0 31 33 c17 17 52 60 77 95 l45 63 36 -36 36 -36 -59 -59z"/>
</g>
</svg>
