<?xml version="1.0" standalone="no"?>
<!DOCTYPE svg PUBLIC "-//W3C//DTD SVG 20010904//EN"
 "http://www.w3.org/TR/2001/REC-SVG-20010904/DTD/svg10.dtd">
<svg version="1.0" xmlns="http://www.w3.org/2000/svg"
 width="200.000000pt" height="225.000000pt" viewBox="0 0 1280.000000 985.000000"
 preserveAspectRatio="xMidYMid meet">
<metadata>
Created by potrace 1.15, written by Peter Selinger 2001-2017
</metadata>
<g transform="translate(0.000000,985.000000) scale(0.100000,-0.100000)"
fill="#ecbcb4" stroke="none">
<path d="M1588 9835 c-276 -70 -456 -322 -606 -846 -71 -245 -101 -430 -108
-664 -7 -199 8 -351 54 -550 17 -71 38 -191 47 -265 9 -74 32 -195 51 -268 45
-176 66 -306 67 -417 0 -100 -9 -130 -82 -250 -34 -57 -41 -78 -41 -121 0 -36
6 -59 20 -76 12 -16 16 -28 9 -35 -5 -5 -24 -46 -43 -90 -47 -113 -124 -221
-241 -339 -156 -156 -332 -261 -530 -314 -134 -37 -169 -53 -179 -82 -8 -22
-5 -33 18 -62 64 -85 162 -126 299 -126 261 0 564 169 685 381 36 64 62 91 62
66 0 -8 -9 -57 -19 -109 -11 -52 -27 -168 -35 -259 -40 -422 -46 -813 -20
-1367 18 -392 14 -748 -11 -962 -21 -182 -52 -362 -75 -435 -10 -33 -21 -80
-24 -105 -13 -94 -81 -204 -151 -245 -55 -33 -123 -33 -240 0 -50 14 -103 25
-120 25 -48 0 -134 -55 -152 -97 -19 -46 -5 -83 30 -83 15 0 28 -9 36 -23 18
-34 -3 -105 -33 -109 -16 -2 -22 -11 -24 -39 -3 -31 3 -41 42 -77 l46 -42 214
0 c118 0 250 5 292 11 134 18 243 79 378 208 236 228 370 466 495 882 103 344
132 527 181 1114 37 449 101 924 158 1165 l17 75 69 8 c83 9 191 44 314 102
194 92 326 186 467 333 55 57 119 115 143 129 38 23 50 25 102 19 58 -7 62 -6
223 69 90 41 166 75 169 75 3 0 5 -64 5 -142 0 -123 5 -168 36 -327 41 -210
53 -234 108 -214 40 15 76 2 91 -34 8 -19 13 -130 15 -328 2 -165 8 -340 13
-388 20 -171 108 -596 190 -919 52 -207 63 -247 209 -743 129 -435 179 -640
236 -960 29 -159 30 -232 5 -425 -15 -117 0 -234 51 -400 23 -74 44 -150 47
-169 6 -46 -36 -263 -59 -301 -12 -19 -45 -43 -91 -66 -141 -71 -245 -205
-283 -365 l-15 -64 48 -46 c37 -36 64 -51 127 -72 456 -149 1109 -66 1380 175
117 105 123 159 32 310 -32 53 -62 119 -71 153 -25 100 -74 416 -75 480 0 33
-9 134 -20 225 -23 182 -45 435 -61 695 -5 94 -13 211 -16 260 -3 50 -12 150
-20 223 -26 244 -12 853 25 1074 10 64 33 154 50 198 18 45 36 118 42 162 5
45 12 85 15 90 3 4 0 43 -5 85 -6 43 -22 175 -36 293 -14 118 -29 239 -34 268
l-8 52 30 0 c16 0 45 -9 63 -21 22 -13 62 -23 119 -29 48 -5 109 -16 136 -25
59 -20 129 -82 129 -114 0 -12 5 -31 11 -43 6 -11 17 -64 25 -118 25 -182 86
-386 180 -606 59 -139 190 -400 219 -440 13 -17 49 -95 80 -174 31 -78 85
-201 121 -273 135 -269 219 -505 309 -872 74 -299 89 -343 195 -570 11 -22 52
-72 91 -112 l72 -71 48 -174 c27 -95 52 -198 55 -228 8 -71 -14 -136 -85 -248
-85 -136 -112 -225 -91 -303 16 -59 71 -111 140 -134 30 -10 100 -40 155 -68
119 -59 185 -70 261 -42 35 13 94 20 204 25 l155 6 130 53 c189 76 206 88 270
187 113 175 139 255 133 404 -8 156 -50 242 -220 444 -194 232 -281 396 -329
622 -10 51 -32 197 -49 325 -35 282 -64 474 -132 884 -48 290 -51 322 -51 485
0 231 13 318 56 379 48 66 67 126 67 206 0 39 4 65 8 59 15 -23 125 -54 234
-65 64 -6 146 -22 188 -36 48 -15 117 -28 190 -33 210 -17 344 -30 465 -46 66
-8 139 -18 161 -21 l41 -5 6 -53 c8 -76 25 -103 150 -233 224 -234 350 -379
423 -491 82 -123 93 -146 149 -296 72 -195 71 -175 26 -428 -21 -122 -47 -280
-56 -352 -33 -254 -55 -358 -116 -540 -71 -210 -137 -356 -208 -457 -56 -80
-176 -208 -258 -275 -100 -83 -229 -286 -278 -440 -21 -65 -9 -108 42 -154 31
-27 42 -30 75 -26 29 4 54 -1 91 -18 88 -40 171 -49 397 -41 301 9 453 29 630
84 155 48 233 103 260 183 l18 53 79 18 c43 10 116 23 162 28 84 10 231 54
308 94 55 28 150 138 164 190 19 67 4 219 -37 383 -38 157 -46 257 -25 343 24
103 11 160 -101 429 -90 217 -145 375 -185 526 -22 81 -27 123 -27 220 0 106
3 134 33 240 18 66 42 132 53 147 18 26 77 152 182 388 26 58 71 152 101 210
29 58 126 278 213 490 88 212 201 480 252 595 51 116 111 260 135 320 23 61
52 126 63 145 11 19 70 177 132 350 61 173 115 319 120 324 10 10 25 -18 34
-67 4 -20 25 -71 47 -112 57 -105 78 -214 85 -450 7 -204 5 -227 -46 -465 -49
-231 -50 -235 -56 -436 -8 -220 0 -308 56 -669 116 -739 134 -914 111 -1090
-23 -168 -49 -249 -142 -434 -48 -95 -90 -190 -94 -210 -4 -26 0 -54 14 -92
17 -44 21 -77 21 -181 0 -133 8 -174 37 -185 10 -4 21 -11 25 -17 16 -24 15 4
-3 79 -10 44 -18 94 -18 110 1 29 2 29 14 -10 8 -22 14 -54 14 -70 1 -36 60
-157 80 -163 17 -5 14 9 -25 122 -23 68 -25 84 -15 111 6 17 11 42 11 54 0 14
5 21 13 18 6 -2 10 -11 9 -18 -9 -35 -20 -114 -16 -118 26 -27 48 254 24 300
-16 29 14 25 34 -5 12 -19 16 -54 17 -148 0 -68 -2 -135 -6 -149 -4 -15 -3
-29 2 -32 20 -12 34 13 40 67 6 58 18 64 27 14 9 -54 36 -62 36 -10 0 38 18
15 22 -28 2 -19 8 -33 13 -30 6 3 9 15 7 28 -4 29 5 28 34 -3 25 -27 53 -32
86 -14 20 11 20 12 -7 33 -18 14 -34 43 -46 82 -23 71 -25 115 -4 67 13 -31
47 -58 58 -46 3 3 -10 37 -29 75 -33 66 -34 70 -15 75 12 3 25 20 33 46 17 52
38 61 38 15 0 -18 5 -40 10 -48 7 -10 9 32 6 135 -3 83 -3 139 0 125 11 -59
15 -70 24 -70 16 0 11 72 -11 156 -12 43 -27 104 -34 135 -16 74 -45 133 -95
193 l-40 48 0 222 c0 242 -8 327 -46 516 -14 69 -29 170 -34 225 -5 55 -17
147 -26 205 -12 71 -18 162 -18 280 0 256 30 441 114 695 81 249 105 426 105
770 -1 339 -38 550 -150 860 -159 438 -349 771 -674 1185 -466 593 -841 935
-1388 1263 -418 250 -750 373 -1143 422 -317 39 -503 12 -940 -136 -355 -120
-687 -167 -1110 -156 -250 7 -508 29 -586 52 -95 27 -142 69 -199 175 l-51 95
-130 88 c-283 193 -614 318 -949 357 -122 15 -787 20 -979 8 -308 -18 -520
-83 -731 -222 -95 -64 -108 -66 -175 -29 -67 37 -357 132 -500 164 -89 20
-133 24 -285 24 -155 0 -191 -3 -262 -23 -106 -29 -131 -28 -211 7 -104 45
-149 58 -267 76 -159 24 -317 28 -387 10z"/>
</g>
</svg>
