<?xml version="1.0" standalone="no"?>
<!DOCTYPE svg PUBLIC "-//W3C//DTD SVG 20010904//EN"
 "http://www.w3.org/TR/2001/REC-SVG-20010904/DTD/svg10.dtd">
<svg version="1.0" xmlns="http://www.w3.org/2000/svg"
 width="1276.000000pt" height="1280.000000pt" viewBox="0 0 1276.000000 1280.000000"
 preserveAspectRatio="xMidYMid meet">
<metadata>
Created by potrace 1.15, written by Peter Selinger 2001-2017
</metadata>
<g transform="translate(0.000000,1280.000000) scale(0.100000,-0.100000)"
fill="#000000" stroke="none">
<path d="M6421 12684 c0 -11 3 -14 6 -6 3 7 2 16 -1 19 -3 4 -6 -2 -5 -13z"/>
<path d="M6431 12653 c-1 -10 70 -403 145 -805 l16 -87 -45 -83 c-218 -401
-328 -829 -352 -1373 -6 -115 -11 -151 -31 -203 -38 -97 -62 -206 -74 -341
-25 -278 32 -602 191 -1076 43 -126 77 -231 76 -231 -1 -1 -60 50 -132 113
-71 63 -190 163 -264 221 -74 59 -147 118 -163 132 -22 20 -56 97 -159 365
-146 381 -305 815 -369 1008 -23 71 -44 127 -46 125 -8 -9 189 -680 381 -1295
13 -40 21 -73 18 -73 -3 0 -24 14 -49 32 -41 30 -47 40 -115 212 -434 1105
-691 1960 -835 2781 -36 200 -37 159 -3 -105 90 -716 272 -1493 566 -2420 81
-256 83 -260 77 -260 -3 0 -48 25 -100 56 -138 81 -392 206 -522 255 l-113 44
-105 209 c-258 511 -412 926 -510 1371 -43 197 -43 154 1 -82 79 -434 203
-831 406 -1305 33 -75 59 -139 59 -141 0 -1 -41 7 -92 20 -400 101 -761 52
-1013 -137 l-51 -37 -29 24 c-205 168 -430 323 -581 400 -96 49 -243 108 -251
100 -2 -3 24 -14 57 -27 160 -60 414 -236 653 -453 l98 -90 -28 -31 -28 -31
31 28 31 28 199 -205 c109 -113 201 -211 203 -218 2 -7 -16 6 -40 28 -77 72
-247 202 -383 292 -313 208 -663 347 -996 397 -134 20 -401 29 -505 17 -79 -9
-79 -9 65 -11 606 -7 1129 -228 1643 -694 54 -49 97 -90 95 -92 -2 -1 -68 4
-148 11 -286 25 -991 10 -1145 -26 l-40 -9 45 4 c323 30 885 6 1260 -55 l125
-21 48 -52 c231 -248 469 -575 691 -950 l72 -122 -211 0 c-179 -1 -225 -4
-313 -23 -57 -13 -122 -29 -144 -37 -39 -13 -42 -12 -101 23 -106 61 -376 187
-527 245 -395 151 -767 220 -1185 220 -346 -1 -597 -38 -968 -145 -59 -17
-106 -32 -104 -35 2 -2 59 10 125 26 270 66 492 92 790 92 568 -1 1081 -142
1625 -448 53 -30 97 -59 97 -63 0 -4 -25 -18 -55 -30 -31 -13 -54 -25 -51 -27
2 -2 32 7 66 21 50 21 66 23 84 14 35 -18 278 -185 316 -216 l34 -29 -69 -23
c-97 -31 -200 -80 -300 -140 -116 -70 -115 -79 2 -14 92 51 294 125 378 138
39 6 43 4 141 -76 165 -136 237 -202 224 -206 -6 -2 -20 4 -32 14 -19 18 -20
18 -17 0 4 -16 -11 -21 -116 -43 -66 -13 -181 -44 -257 -69 l-136 -46 -168 96
c-935 535 -2060 926 -2924 1015 -146 15 -384 31 -450 30 l-55 -1 55 -8 c30 -4
113 -13 185 -19 711 -64 1713 -412 2583 -898 141 -79 406 -239 494 -298 l50
-33 -66 -42 c-36 -23 -66 -43 -66 -45 0 -3 34 14 75 36 l75 41 127 -88 c218
-149 611 -447 612 -465 1 -3 -29 -30 -66 -60 -38 -29 -150 -135 -251 -233
l-182 -180 -193 96 c-588 294 -1160 480 -1707 557 -183 26 -594 52 -579 37 2
-3 60 -10 129 -16 298 -26 611 -95 937 -205 134 -46 292 -108 232 -91 -47 13
-255 57 -329 70 -253 44 -605 53 -828 23 -131 -18 -347 -66 -338 -74 3 -3 27
0 53 6 151 33 470 41 683 16 756 -88 1561 -481 2327 -1136 84 -72 151 -134
148 -139 -2 -4 -18 -10 -34 -13 -17 -4 -79 -25 -140 -47 l-109 -41 -112 35
c-488 155 -919 136 -1290 -55 -126 -65 -170 -100 -65 -53 91 42 246 89 350
106 121 21 353 16 485 -11 114 -22 291 -75 377 -112 l45 -19 -83 -60 c-230
-164 -427 -386 -554 -625 -57 -105 -55 -106 13 -5 169 252 416 470 682 600
l66 32 74 -37 c93 -47 300 -171 399 -239 l74 -51 -39 -6 c-21 -4 -73 -12 -114
-19 -108 -17 -286 -65 -403 -109 -727 -273 -1234 -890 -1373 -1671 -29 -161
-27 -551 3 -710 131 -683 539 -1241 1133 -1544 212 -109 421 -178 672 -223 85
-15 335 -17 2948 -20 2906 -4 2988 -3 3176 32 619 119 1149 483 1462 1006 219
364 324 773 309 1194 -11 309 -75 565 -211 850 -111 230 -219 387 -396 569
-367 378 -817 590 -1383 651 l-58 7 32 56 c117 211 284 427 455 592 287 276
598 429 999 495 l90 14 -165 -4 c-225 -5 -415 -42 -614 -121 -171 -68 -390
-195 -532 -311 -71 -58 -88 -86 189 314 l209 301 131 62 c160 76 415 180 441
180 11 0 17 3 13 6 -11 11 -261 -56 -432 -116 -32 -11 -63 -19 -68 -17 -5 1
40 56 100 122 228 250 585 560 848 735 112 75 114 81 10 25 -179 -96 -396
-233 -562 -357 -51 -37 -93 -66 -93 -63 0 3 22 40 48 83 120 192 119 192 -45
-13 -148 -184 -172 -210 -298 -318 -55 -46 -166 -150 -247 -230 -145 -143
-149 -146 -260 -197 -62 -29 -169 -82 -237 -118 l-124 -65 48 89 c212 391 581
984 603 970 4 -3 8 3 8 12 0 10 44 76 98 149 l98 132 127 40 c234 76 444 107
655 99 141 -6 115 5 -52 23 -164 17 -454 -3 -591 -41 -19 -5 -37 -7 -39 -5 -5
4 45 64 178 213 41 46 89 88 130 112 121 70 334 174 480 232 80 31 141 57 135
58 -32 1 -418 -131 -488 -167 -57 -29 -36 -3 78 99 346 306 695 518 1055 641
58 19 114 38 125 41 11 3 2 3 -20 1 -22 -3 -95 -20 -162 -40 -501 -143 -951
-412 -1433 -856 -94 -87 -167 -144 -240 -188 -135 -82 -319 -209 -440 -302
l-94 -73 -131 3 c-185 3 -301 -23 -469 -105 -49 -24 -90 -44 -92 -44 -4 0 68
173 147 353 34 75 65 137 69 137 4 0 61 -27 126 -60 132 -66 120 -50 -23 32
-51 29 -93 56 -93 61 0 13 199 406 267 526 193 340 483 758 577 831 150 117
383 264 581 367 66 34 117 63 114 63 -22 1 -361 -154 -460 -210 -39 -22 -74
-39 -76 -36 -6 6 226 218 327 299 208 167 541 363 775 455 117 46 265 97 315
107 19 5 29 10 23 12 -17 6 -200 -40 -338 -84 -490 -157 -908 -415 -1319 -813
l-151 -146 -110 -41 c-60 -23 -118 -44 -127 -48 -22 -9 -2 38 167 380 445 899
888 1537 1448 2082 163 158 152 155 -43 -11 -134 -114 -479 -460 -596 -596
-433 -507 -786 -1040 -1208 -1828 l-88 -163 -146 -74 c-81 -41 -176 -91 -211
-111 -51 -30 -62 -33 -57 -18 3 11 39 179 81 374 140 654 288 1271 389 1619
24 84 41 149 37 145 -12 -13 -136 -371 -245 -703 -102 -309 -219 -693 -381
-1251 l-98 -335 -101 -72 c-55 -40 -136 -102 -180 -138 -43 -36 -80 -64 -81
-63 -2 2 -10 41 -19 89 l-16 85 74 235 c150 472 353 1008 520 1373 20 44 34
81 32 83 -2 2 -93 -175 -203 -394 -188 -375 -312 -642 -410 -883 -23 -58 -42
-101 -43 -96 -1 31 169 543 259 776 139 364 347 812 501 1081 164 286 155 274
222 304 172 77 388 143 577 176 41 7 70 14 64 16 -37 13 -403 -65 -558 -117
-49 -17 -90 -28 -92 -26 -6 6 189 293 302 446 254 341 592 714 895 984 l65 58
-64 -48 c-35 -27 -114 -92 -175 -145 -412 -354 -783 -764 -1113 -1227 -94
-132 -125 -168 -162 -189 -166 -95 -312 -200 -438 -318 -46 -42 -83 -74 -83
-71 0 30 260 738 365 996 143 349 392 876 549 1164 36 66 64 121 63 123 -4 3
-213 -345 -305 -507 -342 -602 -680 -1341 -932 -2036 -32 -88 -79 -195 -105
-238 -283 -480 -492 -1170 -615 -2033 -18 -128 -70 -554 -70 -577 0 -5 -38 46
-85 114 -84 121 -86 123 -90 194 -3 39 -15 208 -26 376 -11 168 -26 383 -34
478 -13 153 -13 195 1 365 21 274 61 652 89 862 14 99 28 203 31 230 6 45 15
58 78 124 138 144 426 374 631 506 114 74 129 89 40 40 -171 -93 -446 -280
-610 -413 -44 -36 -86 -70 -94 -76 -12 -9 -13 -2 -7 44 24 180 175 864 225
1015 40 122 297 431 536 644 l70 63 -75 -57 c-113 -85 -279 -238 -377 -347
-47 -54 -88 -96 -91 -94 -2 3 32 113 77 245 151 450 340 892 541 1261 77 142
3 28 -105 -163 -256 -450 -476 -938 -644 -1430 -48 -142 -73 -198 -121 -275
-122 -195 -248 -464 -330 -710 -22 -65 -40 -112 -40 -107 0 6 -16 129 -34 275
-19 146 -40 309 -47 363 -6 54 -13 96 -15 95 -1 -2 3 -98 11 -213 7 -116 19
-319 26 -451 l13 -241 -37 -169 c-20 -93 -39 -185 -43 -204 -8 -41 -92 -159
-98 -138 -3 7 -12 51 -21 98 -26 131 -148 681 -225 1010 -96 409 -123 520
-385 1587 l-77 312 56 93 c30 51 65 109 77 128 47 74 -12 0 -74 -93 l-65 -98
-47 193 c-25 106 -69 290 -96 408 -51 221 -57 244 -58 223z m243 -1314 l67
-355 -30 -235 c-18 -129 -54 -394 -81 -589 -72 -514 -119 -868 -126 -949 -4
-39 -10 -71 -13 -71 -11 0 -98 388 -130 585 -20 120 -45 342 -55 487 l-6 77
49 73 c46 67 189 216 271 282 19 15 25 23 13 17 -55 -27 -216 -168 -291 -255
l-42 -49 0 75 c0 306 69 700 172 988 49 134 120 292 128 283 4 -4 37 -168 74
-364z m89 -456 c3 -21 35 -193 71 -383 134 -708 224 -1222 300 -1714 l43 -280
-43 -80 c-55 -103 -130 -280 -179 -419 l-38 -108 -23 23 c-23 22 -172 433
-258 710 l-36 116 10 194 c20 378 33 574 95 1406 19 260 35 495 35 522 0 59
15 67 23 13z m1091 -998 c-40 -148 -100 -401 -139 -585 -22 -108 -30 -129 -56
-155 l-30 -30 6 40 c17 110 62 306 101 442 40 139 143 427 150 420 2 -1 -13
-61 -32 -132z m-1638 -110 c8 -88 24 -221 35 -295 20 -139 91 -508 109 -570
25 -87 4 -53 -36 60 -91 250 -148 497 -160 692 -6 96 7 266 24 327 6 23 7 21
10 -14 1 -22 9 -112 18 -200z m3298 203 c-5 -7 -27 -42 -50 -78 -264 -410
-562 -1016 -764 -1553 -37 -98 -70 -180 -72 -182 -7 -7 115 523 157 682 86
326 157 560 182 598 96 147 299 358 459 480 90 67 100 74 88 53z m-5389 -287
c50 -11 136 -35 193 -53 l102 -31 140 -281 c120 -242 294 -574 417 -794 l35
-63 -68 42 c-275 168 -598 302 -933 388 l-154 39 -206 205 c-113 112 -251 244
-306 293 -55 48 -101 92 -103 96 -6 12 113 84 196 119 135 56 223 69 422 65
129 -3 198 -10 265 -25z m598 -222 c153 -77 348 -194 497 -298 l114 -80 52
-153 c87 -256 171 -499 271 -788 53 -151 98 -282 101 -290 3 -8 -53 41 -124
110 -71 70 -150 144 -175 165 -34 30 -105 135 -286 425 -308 495 -591 970
-577 970 2 0 59 -28 127 -61z m2930 -486 c-3 -21 -10 -47 -14 -58 -6 -15 -8
-11 -8 18 -1 34 13 77 24 77 2 0 1 -17 -2 -37z m-1843 -487 c55 -165 98 -301
97 -302 -2 -3 -234 561 -263 640 -6 16 0 14 29 -10 35 -27 42 -44 137 -328z
m-1653 243 c338 -124 679 -323 973 -567 l85 -71 187 -348 c195 -362 434 -840
425 -849 -2 -3 -49 43 -102 101 -194 208 -468 428 -675 541 -38 20 -69 53
-134 138 l-85 112 -11 89 c-5 50 -11 113 -12 140 -1 28 -4 -3 -8 -68 l-5 -117
-80 102 c-171 220 -397 488 -674 801 -24 26 -38 47 -32 47 6 0 73 -23 148 -51z
m3239 -136 c-11 -11 -19 6 -11 24 8 17 8 17 12 0 3 -10 2 -21 -1 -24z m-1237
-223 l244 -240 -7 -42 c-3 -24 -9 -177 -13 -341 -3 -164 -9 -294 -13 -290 -4
4 -28 60 -53 123 -25 63 -129 321 -231 573 -102 251 -181 457 -177 457 4 0
116 -108 250 -240z m4180 -151 c-45 -51 -109 -116 -142 -143 -32 -28 -76 -66
-98 -85 -47 -40 -47 -42 25 112 l45 98 123 59 c68 32 125 56 127 55 2 -2 -34
-46 -80 -96z m-3093 -364 c49 -307 55 -349 52 -368 -2 -14 -33 15 -118 113
-63 73 -116 140 -118 150 -6 35 83 350 125 447 l17 38 8 -110 c5 -60 20 -182
34 -270z m2391 -231 c-168 -334 -272 -514 -295 -514 -34 1 -32 19 33 330 36
173 69 317 73 320 5 3 51 35 104 73 104 73 270 179 274 175 1 -2 -84 -174
-189 -384z m-3008 96 c69 -196 142 -467 143 -530 0 -42 -23 -435 -27 -438 -1
-2 -19 4 -39 12 -22 9 -36 22 -36 33 0 10 -9 95 -20 188 -28 238 -68 836 -55
823 2 -2 17 -42 34 -88z m-2329 -27 c52 -8 103 -20 113 -25 9 -5 48 -71 86
-146 l69 -138 -82 13 c-44 6 -147 12 -227 12 l-147 1 -113 77 c-63 43 -156
103 -207 134 -69 42 -89 59 -75 63 16 4 117 19 213 30 63 7 273 -4 370 -21z
m4837 -350 c-33 -115 -65 -213 -71 -219 -6 -7 -34 -14 -62 -18 l-52 -6 -11 75
c-18 125 -24 112 117 250 70 69 130 125 133 125 3 0 -21 -93 -54 -207z m-329
66 c-18 -11 -18 -8 -5 41 l12 45 3 -39 c2 -24 -2 -42 -10 -47z m-4352 -95 c67
-13 133 -28 146 -33 17 -6 36 -36 70 -110 l47 -101 -91 0 -91 0 -81 68 c-44
38 -117 97 -161 131 -44 35 -84 67 -90 73 -15 14 107 1 251 -28z m2772 -181
l110 -152 6 -103 c13 -230 16 -353 7 -328 -6 14 -31 92 -57 175 -25 82 -80
244 -120 359 -41 116 -74 213 -74 215 0 9 19 -15 128 -166z m1608 -58 c-2 -7
-24 -19 -48 -28 -24 -8 -52 -18 -62 -23 -15 -6 -12 3 13 40 18 26 47 64 65 84
l31 36 3 -48 c2 -27 1 -54 -2 -61z m-3807 9 c26 -43 26 -44 1 -44 -14 0 -27
15 -45 50 -14 27 -25 52 -25 55 0 15 51 -31 69 -61z m4275 -49 c-4 -8 -8 -15
-10 -15 -2 0 -4 7 -4 15 0 8 4 15 10 15 5 0 7 -7 4 -15z m-265 -27 c0 -7 -13
-51 -28 -98 l-28 -85 -8 80 c-9 103 -10 99 17 107 37 10 48 9 47 -4z m-4683
-158 c60 -69 149 -172 197 -229 l88 -104 -33 -20 c-18 -11 -67 -41 -109 -68
l-77 -47 -53 42 c-129 100 -455 321 -601 408 l-71 42 37 12 c99 35 430 95 492
91 13 -1 62 -49 130 -127z m144 -67 c194 -197 196 -204 5 -23 -55 53 -131 123
-168 158 -45 41 -62 62 -50 62 10 0 104 -86 213 -197z m246 182 c14 -3 28 -19
37 -42 8 -21 23 -56 32 -77 l17 -39 -59 50 c-32 28 -73 66 -91 85 l-32 34 37
-3 c21 -2 48 -6 59 -8z m4099 -312 c-6 -282 -7 -303 -32 -388 -35 -123 -163
-498 -211 -620 l-40 -99 -32 64 c-39 77 -39 90 -9 355 36 323 118 835 140 877
10 19 155 108 176 108 11 0 12 -60 8 -297z m-3726 257 c12 0 35 -27 64 -74
l46 -74 -31 -11 c-17 -6 -34 -11 -38 -11 -7 0 -90 164 -90 177 0 3 7 2 16 -1
9 -3 24 -6 33 -6z m567 -227 c71 -46 369 -560 414 -712 12 -40 24 -81 27 -90
3 -9 -59 92 -139 224 -79 132 -195 318 -256 413 -62 95 -112 175 -112 177 0
11 43 4 66 -12z m-347 -111 c168 -293 425 -772 418 -778 -1 -1 -61 68 -134
154 -72 87 -161 191 -196 232 -58 67 -74 96 -145 263 l-80 187 32 9 c55 16 60
13 105 -67z m4852 -46 c-7 -8 -74 -52 -149 -97 -168 -100 -391 -258 -534 -379
-60 -49 -108 -88 -108 -85 0 2 18 52 39 112 38 102 44 112 106 170 185 173
427 287 619 292 32 1 37 -1 27 -13z m-3431 -29 c0 -18 -2 -19 -10 -7 -13 20
-13 43 0 35 6 -3 10 -16 10 -28z m3610 -84 c-96 -122 -319 -427 -399 -545 -40
-60 -74 -108 -76 -108 -5 0 16 49 102 241 l65 146 136 143 c109 114 206 198
230 200 2 0 -24 -35 -58 -77z m-5569 -95 c96 -121 253 -328 353 -466 22 -30
49 -85 62 -129 l23 -76 -26 24 c-14 13 -89 96 -167 184 -167 190 -462 490
-417 425 18 -25 48 -67 69 -95 43 -58 43 -58 -116 72 l-101 82 77 41 c42 22
88 47 102 54 14 8 27 15 30 15 3 1 53 -59 111 -131z m-477 -213 c129 -113 327
-306 440 -431 89 -96 120 -141 240 -345 77 -129 159 -267 183 -308 l44 -74
-48 7 c-26 3 -110 9 -185 13 l-137 6 -178 134 c-270 203 -640 445 -889 580
-46 24 -84 48 -84 53 0 28 488 440 521 440 4 0 45 -34 93 -75z m5507 -287
c-179 -279 -363 -592 -500 -850 -60 -112 -93 -160 -71 -102 67 176 250 519
394 737 76 116 282 397 290 397 3 0 -48 -82 -113 -182z m354 -575 c-107 -133
-281 -370 -402 -548 -145 -213 -267 -384 -271 -381 -3 4 121 270 240 516 l95
195 89 67 c109 81 287 208 292 208 2 0 -17 -26 -43 -57z m-5678 -622 c187
-201 181 -191 93 -142 -41 24 -163 86 -270 139 l-194 96 39 9 c78 17 190 34
202 30 6 -3 64 -62 130 -132z m778 64 c63 -16 106 -33 117 -45 33 -39 138
-237 138 -261 0 -20 -20 -4 -122 97 -68 66 -151 146 -185 177 -34 31 -58 57
-54 57 4 0 52 -11 106 -25z"/>
</g>
</svg>
