<?xml version="1.0" standalone="no"?>
<!DOCTYPE svg PUBLIC "-//W3C//DTD SVG 20010904//EN"
 "http://www.w3.org/TR/2001/REC-SVG-20010904/DTD/svg10.dtd">
<svg version="1.0" xmlns="http://www.w3.org/2000/svg"
 width="480.000000pt" height="540.000000pt" viewBox="0 0 1280.000000 940.000000"
 preserveAspectRatio="xMidYMid meet">
<metadata>

</metadata>
<g transform="translate(0.000000,940.000000) scale(0.100000,-0.100000)"
fill="green" stroke="none">
<path d="M7761 9243 c-19 -8 -44 -34 -60 -65 -7 -14 -26 -40 -42 -58 -16 -17
-29 -38 -29 -46 0 -8 -4 -14 -10 -14 -5 0 -10 -18 -10 -40 0 -52 -24 -65 -52
-27 -28 38 -75 58 -148 63 l-65 4 38 -15 c53 -20 117 -93 122 -140 3 -24 26
-102 36 -118 5 -10 7 -22 4 -27 -4 -6 3 -10 14 -10 19 0 19 -2 5 -36 -8 -19
-13 -43 -10 -52 3 -9 -1 -30 -8 -47 l-13 -30 -6 35 c-4 19 -9 61 -12 93 -4 31
-12 63 -20 70 -7 7 -14 22 -16 32 -2 10 -11 21 -19 25 -40 20 -76 33 -87 31
-6 -1 -14 3 -18 9 -3 5 -11 10 -16 10 -6 0 -8 -4 -5 -9 3 -5 -5 -16 -19 -25
-31 -20 -32 -34 -2 -38 19 -3 22 -8 19 -38 -2 -19 -10 -39 -19 -43 -9 -6 -13
-21 -12 -41 2 -17 0 -37 -4 -43 -5 -7 -3 -21 3 -32 7 -13 7 -22 0 -26 -7 -4
-6 -13 1 -27 6 -12 13 -51 16 -87 2 -36 5 -83 7 -104 1 -20 8 -43 14 -49 7 -7
12 -20 12 -30 0 -16 5 -18 36 -12 l36 7 -7 -34 c-4 -18 -13 -52 -20 -74 -12
-40 -12 -40 -20 -12 -4 15 -11 27 -16 27 -5 0 -9 10 -9 21 0 35 -23 101 -37
106 -7 3 -13 11 -13 18 0 21 -31 75 -43 75 -7 0 -28 18 -47 40 -19 22 -40 40
-46 40 -7 0 -22 11 -35 25 -13 13 -31 25 -39 25 -9 0 -20 4 -25 9 -6 5 -46 11
-90 14 l-80 6 50 -23 c55 -25 118 -74 110 -85 -2 -5 2 -17 10 -27 21 -28 18
-36 -7 -20 -13 8 -43 15 -68 15 -61 0 -140 -9 -140 -17 1 -8 67 -42 82 -42 6
0 24 -15 40 -32 21 -24 27 -39 23 -56 -4 -15 1 -32 13 -47 14 -17 18 -36 16
-64 -2 -26 2 -43 11 -51 8 -7 15 -21 15 -31 0 -10 5 -21 10 -24 8 -5 7 -11 -1
-21 -9 -12 -9 -20 1 -39 7 -14 17 -25 22 -25 5 0 7 -8 4 -18 -4 -12 1 -25 13
-36 16 -15 18 -22 8 -36 -9 -15 -7 -23 7 -39 15 -16 16 -22 5 -25 -28 -10 -74
-1 -87 16 -7 10 -18 18 -23 18 -5 0 -24 10 -41 23 -23 16 -32 19 -36 9 -3 -10
-10 -8 -28 9 -13 12 -27 20 -30 16 -4 -3 -20 1 -36 9 -20 11 -33 12 -42 5 -8
-7 -26 -6 -55 1 -34 9 -45 8 -51 -2 -4 -7 -13 -9 -19 -6 -11 7 -118 -56 -133
-78 -4 -6 -8 -8 -10 -6 -4 5 -45 86 -77 150 -8 16 -24 30 -37 33 -32 6 -30 -8
5 -41 32 -30 45 -61 33 -80 -6 -9 -15 -5 -34 15 -26 28 -36 56 -45 128 -3 22
-10 45 -17 50 -6 6 -25 38 -41 72 -17 35 -35 63 -41 63 -7 0 -14 7 -18 15 -3
8 -16 14 -29 13 -33 -3 -83 40 -96 83 -10 33 -79 100 -114 112 -8 2 -6 12 6
30 9 14 17 33 17 41 0 19 -64 56 -97 56 -22 0 -25 -3 -21 -30 5 -30 4 -30 -14
-10 -10 11 -22 20 -27 20 -4 0 -18 25 -30 56 -13 30 -25 53 -28 50 -3 -2 1
-14 7 -27 9 -16 1 -12 -24 13 -57 55 -136 87 -136 55 0 -7 20 -23 45 -35 44
-21 140 -101 131 -109 -2 -2 -19 4 -38 13 -32 15 -37 15 -66 0 -18 -9 -32 -21
-32 -27 0 -6 8 -5 22 2 27 15 115 5 138 -16 9 -8 21 -15 27 -15 14 0 38 -29
30 -36 -3 -3 -15 -1 -26 6 -17 9 -25 8 -37 -5 -8 -8 -23 -15 -32 -15 -9 -1
-30 -7 -46 -13 -27 -12 -24 -13 40 -11 107 3 130 -4 156 -42 28 -41 37 -43 30
-7 l-5 27 46 -38 c43 -35 77 -76 77 -93 0 -4 -25 19 -56 51 -31 33 -52 50 -45
39 17 -33 14 -40 -26 -51 -25 -7 -30 -10 -16 -11 12 -1 28 -11 34 -23 7 -13
23 -33 36 -45 12 -12 23 -31 23 -42 0 -11 5 -23 10 -26 6 -3 10 -1 10 6 0 29
21 -9 23 -42 1 -19 6 -37 10 -40 4 -3 3 -18 -3 -33 -13 -34 -13 -76 -1 -76 5
0 18 11 29 24 10 14 30 28 43 31 20 5 30 -1 55 -32 17 -21 39 -54 49 -73 10
-19 31 -50 46 -69 15 -19 26 -38 23 -42 -5 -9 50 -115 76 -144 9 -11 30 -46
46 -78 23 -47 26 -61 17 -75 -23 -33 -64 -114 -60 -118 2 -2 25 10 51 27 27
16 50 29 52 27 1 -2 12 -24 22 -49 l20 -45 -22 -10 c-11 -5 -27 -21 -34 -37
-7 -15 -24 -34 -37 -43 -13 -8 -30 -33 -39 -54 -17 -42 -23 -45 -106 -55 -39
-4 -59 -12 -68 -25 -17 -27 -28 -150 -13 -150 6 0 11 4 11 9 0 20 90 101 112
101 21 -1 21 -2 -10 -28 -18 -15 -32 -35 -32 -45 0 -10 -14 -45 -31 -79 -29
-57 -59 -140 -59 -163 0 -5 12 15 26 45 14 30 37 67 51 81 13 15 36 39 50 54
19 19 33 25 51 22 15 -3 31 2 41 12 18 17 81 24 81 8 0 -9 37 -5 70 7 9 4 20
-2 28 -15 13 -21 13 -21 -21 -15 -21 4 -38 2 -42 -4 -3 -5 -17 -10 -29 -10
-13 0 -29 -7 -36 -15 -7 -8 -32 -24 -56 -35 -25 -10 -46 -25 -48 -32 -25 -86
-33 -103 -58 -117 -15 -9 -26 -20 -25 -26 2 -5 -15 -25 -37 -44 -23 -18 -50
-46 -61 -62 -11 -16 -26 -27 -32 -24 -16 5 -16 0 -2 -27 8 -15 8 -19 0 -14
-13 9 -14 -4 -2 -24 12 -18 3 -34 -12 -22 -7 5 -37 17 -67 27 -52 17 -108 52
-109 68 -1 11 67 9 74 -3 16 -25 33 -8 33 34 1 36 -3 46 -19 51 -10 4 -16 11
-13 17 4 6 0 16 -9 22 -8 7 -17 23 -19 36 -2 19 -9 25 -30 25 -14 1 -33 7 -42
14 -14 12 -26 10 -84 -12 -93 -35 -139 -42 -158 -22 -8 8 -27 15 -42 15 -27 1
-62 20 -62 35 0 8 36 3 80 -11 24 -7 24 -7 9 17 -11 17 -13 34 -8 58 5 25 3
37 -11 51 -11 11 -16 27 -14 37 3 11 -1 25 -10 32 -8 7 -12 19 -9 27 9 24 -6
62 -27 69 -11 3 -20 13 -20 21 0 8 -4 14 -10 14 -5 0 -10 6 -10 13 0 8 -9 22
-20 32 -11 10 -20 23 -20 29 0 7 -9 19 -19 28 -10 9 -23 22 -27 30 -17 26
-120 80 -169 88 -57 9 -66 7 -36 -10 12 -6 21 -17 21 -24 0 -8 7 -19 15 -26 9
-7 13 -20 10 -28 -3 -8 1 -25 10 -38 12 -19 13 -23 0 -26 -12 -3 -12 -8 2 -38
10 -19 23 -39 31 -43 9 -6 10 -12 3 -21 -8 -10 -6 -18 9 -31 11 -10 20 -26 20
-35 0 -9 9 -25 20 -35 13 -11 18 -25 14 -39 -3 -14 2 -28 15 -40 12 -11 21
-27 21 -37 0 -13 12 -21 38 -28 37 -10 87 -40 67 -41 -20 0 -120 36 -145 51
-14 9 -53 27 -87 40 -66 25 -84 43 -33 33 32 -7 40 6 15 26 -8 7 -12 17 -8 24
17 26 14 58 -6 63 -13 3 -18 10 -14 20 4 9 -1 20 -11 25 -9 5 -14 13 -12 17 3
4 -13 24 -35 45 -21 21 -39 44 -39 50 -1 11 -64 56 -80 56 -4 0 -21 7 -36 15
-48 25 -188 2 -266 -45 -21 -12 -38 -23 -38 -25 0 -6 61 14 73 23 22 17 81 22
99 8 10 -7 15 -16 11 -19 -3 -4 2 -9 11 -13 9 -3 16 -12 16 -19 0 -7 7 -18 15
-25 12 -10 13 -15 4 -21 -7 -4 -9 -13 -5 -20 20 -40 35 -61 52 -73 15 -11 16
-17 6 -29 -10 -12 -8 -17 13 -31 14 -9 25 -21 25 -27 0 -22 -32 -19 -62 6 -28
23 -38 26 -90 23 -32 -2 -58 0 -58 5 0 4 11 7 25 7 28 0 32 12 10 30 -8 7 -15
16 -15 21 0 19 -45 59 -66 59 -13 0 -28 9 -34 20 -6 11 -20 20 -32 20 -12 0
-32 10 -44 21 -18 17 -38 22 -91 24 -38 1 -78 5 -90 9 -12 4 -24 2 -28 -4 -3
-5 -15 -10 -26 -10 -10 0 -19 -6 -19 -14 0 -8 -18 -21 -40 -30 -22 -9 -40 -23
-40 -31 0 -12 -14 -15 -62 -15 -85 0 -104 -13 -55 -36 l37 -18 -32 -35 -33
-34 36 20 c41 23 98 19 143 -11 14 -9 38 -16 53 -16 22 0 25 -2 13 -10 -20
-13 -76 -13 -122 0 -29 8 -45 7 -74 -5 -41 -17 -104 -20 -104 -5 0 6 7 10 15
10 8 0 15 3 15 6 0 13 -55 54 -72 54 -30 0 -29 17 2 30 17 7 33 17 36 21 6 10
-27 -2 -88 -31 -25 -12 -62 -20 -91 -20 -59 0 -135 -34 -147 -66 -6 -15 -21
-24 -47 -29 -35 -6 -105 -33 -145 -55 -10 -6 -25 -10 -33 -10 -8 0 -15 -4 -15
-9 0 -5 -12 -14 -27 -20 -16 -7 -36 -23 -46 -36 -17 -24 -17 -25 1 -25 27 0
78 17 150 52 34 16 72 31 85 32 12 2 35 8 50 15 42 16 50 14 26 -10 -11 -11
-18 -27 -15 -36 3 -8 6 -31 7 -51 0 -33 1 -35 12 -17 7 11 43 50 80 87 l68 66
77 7 c42 4 86 9 97 12 24 7 14 -6 -17 -21 -14 -7 -24 -22 -25 -36 -1 -14 -7
-45 -13 -70 -5 -25 -12 -55 -15 -67 -8 -36 11 -27 30 15 29 65 43 86 89 132
43 42 50 45 119 51 39 4 93 8 118 8 l46 1 -4 -32 c-6 -58 -4 -71 11 -80 8 -5
18 -23 21 -41 4 -17 13 -41 21 -52 13 -17 16 -18 24 -5 5 8 10 24 10 35 0 20
43 75 59 75 4 0 34 21 67 46 l59 46 115 -5 c63 -3 126 -8 140 -11 14 -2 33 -5
42 -5 15 -1 16 -5 8 -27 -12 -30 -6 -44 19 -44 14 0 21 -14 30 -57 7 -32 22
-78 33 -103 18 -40 21 -42 31 -25 6 11 11 27 12 35 4 30 24 67 39 73 9 4 16
14 16 22 0 21 24 45 43 45 9 0 17 5 19 11 3 8 15 8 45 0 54 -15 71 -37 21 -27
-40 7 -68 0 -68 -19 0 -7 -10 -20 -22 -29 -22 -15 -22 -16 -5 -29 16 -14 16
-22 -1 -67 -3 -8 -6 -17 -7 -20 -17 -53 -43 -66 -167 -85 -111 -16 -109 -15
-106 -38 2 -12 7 -28 12 -36 5 -8 4 -16 -5 -21 -10 -7 -10 -11 1 -24 7 -9 10
-19 7 -23 -4 -3 -1 -13 6 -21 10 -13 9 -15 -3 -10 -117 43 -161 52 -205 40
-34 -9 -50 -9 -70 0 -18 8 -29 9 -33 1 -4 -5 -29 -14 -57 -19 -43 -8 -52 -14
-65 -41 -8 -18 -27 -37 -42 -42 -14 -5 -56 -27 -93 -49 -36 -22 -84 -43 -106
-46 -21 -3 -57 -9 -78 -12 -31 -4 -44 -13 -64 -43 -22 -33 -29 -37 -56 -33
-22 3 -45 -5 -88 -31 -32 -20 -71 -39 -88 -42 -31 -8 -85 -51 -85 -69 0 -6
-23 -24 -50 -41 -50 -29 -108 -81 -99 -89 5 -5 78 29 108 51 l24 18 -6 -39
c-7 -47 6 -37 23 18 8 24 15 34 20 26 5 -9 11 -7 21 8 17 23 101 67 178 93 65
21 75 23 66 9 -3 -5 -2 -10 2 -10 5 0 14 9 21 20 21 34 32 23 25 -25 -7 -57 3
-57 27 -2 10 23 33 61 49 84 l30 42 66 -4 c36 -1 65 1 65 6 0 5 4 9 9 9 5 0 5
-16 1 -37 -8 -35 -7 -36 6 -19 8 11 14 26 14 33 0 16 51 43 82 43 13 0 30 5
38 10 13 8 12 10 -2 10 -20 0 -25 19 -5 21 6 1 28 2 48 3 l35 1 -3 -41 c-2
-23 0 -57 5 -75 l9 -34 31 67 c34 73 56 91 130 103 36 6 41 4 36 -9 -4 -9 0
-18 9 -22 14 -5 13 -10 -4 -37 -10 -18 -22 -39 -25 -47 -4 -8 -13 -22 -21 -32
-8 -9 -15 -22 -17 -30 -1 -7 -4 -17 -7 -23 -4 -5 -9 -23 -13 -40 l-8 -30 28
25 c15 14 42 39 58 57 17 17 45 34 63 38 17 3 43 17 58 31 14 13 32 24 39 24
7 0 27 18 46 40 18 21 37 37 42 34 5 -4 23 7 39 22 28 27 36 29 129 32 55 2
100 0 100 -5 0 -5 16 -7 35 -5 49 6 107 -6 102 -21 -3 -7 -21 -11 -48 -9 -24
1 -69 -5 -99 -14 -92 -26 -87 -24 -69 -37 18 -14 13 -30 -32 -107 -15 -25 -30
-56 -34 -70 -6 -21 2 -16 48 28 31 28 60 52 66 52 5 0 18 3 28 6 15 6 16 4 6
-7 -7 -7 -13 -16 -13 -21 0 -8 116 67 125 82 10 16 36 11 53 -11 19 -23 47
-18 63 12 5 11 16 19 24 19 7 0 15 4 17 10 2 5 13 7 25 4 19 -5 10 -17 -75
-101 -53 -52 -75 -77 -49 -54 72 60 125 88 201 105 83 20 86 20 86 0 0 -11 -6
-14 -20 -9 -12 4 -20 2 -20 -5 0 -6 -6 -10 -12 -9 -37 5 -50 -2 -45 -21 3 -11
2 -20 -3 -20 -4 0 -25 -7 -46 -16 -34 -14 -37 -17 -21 -29 23 -16 22 -18 -15
-61 -18 -20 -33 -42 -34 -49 -1 -7 -5 -23 -9 -36 -7 -21 -5 -20 34 10 22 18
43 37 46 42 4 5 30 9 60 9 32 0 55 5 57 12 2 6 9 8 15 5 7 -5 1 -18 -19 -37
-52 -52 -68 -60 -114 -53 -38 5 -48 2 -82 -26 -27 -21 -51 -31 -74 -31 -19 0
-62 -11 -95 -24 -66 -26 -135 -88 -177 -161 -13 -22 -33 -49 -45 -59 -12 -11
-21 -24 -21 -31 0 -6 -10 -16 -22 -22 -14 -6 -41 -45 -66 -94 -24 -46 -34 -72
-22 -56 12 15 30 27 40 27 10 0 21 7 24 16 3 9 13 14 21 10 8 -3 17 -1 21 5 3
6 11 8 17 6 6 -2 18 4 27 14 8 10 42 27 75 37 33 11 69 23 80 27 11 4 7 -2
-10 -14 -16 -11 -26 -21 -21 -21 5 0 1 -9 -9 -20 -10 -11 -15 -20 -11 -20 4 0
-2 -16 -14 -36 -29 -46 -37 -131 -15 -159 15 -19 16 -19 60 30 25 27 52 65 61
84 15 31 36 55 106 118 7 7 29 28 48 48 34 34 35 35 38 11 2 -13 14 -34 28
-47 l24 -22 0 66 0 66 38 7 c20 4 46 11 57 17 25 13 33 15 125 27 91 12 86 11
133 4 24 -4 37 -12 37 -21 0 -11 6 -14 23 -9 12 4 37 9 55 13 17 3 32 10 32
15 0 6 10 8 22 5 12 -3 29 -2 38 3 17 9 71 -12 106 -41 22 -18 121 -20 128 -3
5 13 66 20 66 8 0 -3 -11 -15 -25 -26 -14 -11 -25 -24 -25 -30 0 -7 10 -2 23
10 37 35 63 28 130 -37 65 -63 70 -88 12 -56 -23 12 -59 19 -106 20 -38 2 -72
5 -75 8 -3 3 -45 3 -92 0 -63 -4 -101 -1 -139 10 -66 20 -129 6 -117 -27 4
-11 -47 -36 -74 -36 -36 0 -129 -47 -170 -86 -53 -51 -42 -55 42 -16 98 46
170 72 196 72 14 0 49 -7 79 -14 37 -10 61 -12 78 -5 14 5 28 7 31 5 2 -3 14
0 26 6 55 30 181 7 252 -47 40 -30 84 -35 107 -12 12 12 25 16 39 11 11 -3 27
-7 34 -8 8 -1 39 -37 70 -79 30 -42 62 -77 70 -77 8 0 14 2 14 4 0 2 -40 69
-89 150 -49 80 -86 146 -82 146 19 0 64 -63 100 -143 23 -48 45 -87 51 -87 14
0 13 11 -6 55 -11 27 -12 40 -4 45 7 5 6 11 -5 20 -21 17 -55 84 -55 107 0 13
3 14 12 5 7 -7 20 -12 30 -12 14 0 18 -8 18 -35 0 -37 25 -50 36 -20 9 22 30
18 30 -5 0 -11 -4 -20 -8 -20 -4 0 -8 -4 -8 -10 0 -5 7 -10 15 -10 22 0 19
-20 -7 -49 l-23 -26 25 22 c31 27 62 22 85 -13 18 -28 19 -25 -52 -118 -29
-37 -53 -73 -53 -78 0 -16 20 4 75 76 28 36 56 63 63 61 7 -3 12 4 12 15 0 16
71 113 118 160 13 13 14 13 7 0 -5 -8 -21 -32 -38 -52 -16 -21 -26 -38 -23
-38 4 0 -1 -14 -9 -31 -20 -38 -17 -42 19 -24 35 18 36 18 36 0 0 -8 7 -15 15
-15 8 0 15 -4 15 -9 0 -6 23 -8 50 -6 28 2 50 0 50 -5 0 -9 32 -21 65 -25 30
-4 30 -4 51 -24 26 -24 64 -44 71 -37 10 10 -32 124 -52 138 -6 5 -5 15 4 30
12 20 11 24 -13 43 -20 16 -23 24 -15 32 9 9 5 19 -17 42 -16 17 -35 31 -41
31 -7 0 -13 5 -13 11 0 6 -7 9 -15 5 -8 -3 -15 -1 -15 5 0 12 -48 9 -70 -4 -8
-6 1 6 21 26 29 27 42 34 64 30 15 -3 30 -2 34 3 24 33 94 44 127 19 35 -26
39 -16 6 18 l-31 32 29 13 c24 11 33 11 58 -2 23 -12 32 -27 46 -77 12 -43 20
-59 27 -52 14 14 50 123 44 133 -10 15 25 19 57 6 18 -7 47 -17 63 -20 l30 -7
-34 35 c-33 34 -38 62 -6 36 8 -7 22 -10 30 -6 9 3 15 0 15 -8 0 -14 29 -26
63 -26 15 0 57 -33 57 -45 0 -8 43 -55 51 -55 11 0 5 103 -7 121 -5 8 -9 16
-10 19 0 3 -3 12 -6 20 -15 37 -15 59 -1 64 22 9 73 -22 73 -44 0 -11 5 -20
10 -20 6 0 10 -7 10 -15 0 -23 30 -76 39 -71 10 6 50 211 51 257 0 4 9 9 20
12 25 6 26 34 3 60 -18 19 -18 19 19 1 21 -11 38 -24 38 -30 0 -7 18 -19 41
-28 39 -16 76 -48 106 -93 19 -28 37 -30 28 -4 -3 10 -7 32 -10 47 -2 16 -11
44 -21 63 -27 54 -33 94 -15 108 14 11 13 15 -9 33 -14 11 -31 20 -38 20 -7 0
-10 5 -7 10 3 6 -4 10 -17 11 -23 1 -23 1 2 9 47 15 77 11 83 -10 3 -12 14
-20 26 -20 17 0 21 -6 21 -30 0 -17 6 -33 14 -36 8 -3 16 -18 20 -35 4 -20 11
-29 25 -29 13 0 26 -15 40 -45 15 -32 27 -45 42 -45 11 0 18 -4 15 -9 -9 -14
34 -61 55 -61 12 0 27 -13 37 -30 9 -16 20 -30 25 -30 4 0 7 -6 7 -12 0 -7 14
-29 30 -48 l29 -35 2 60 c2 68 0 84 -8 105 -3 8 -7 31 -9 50 -2 19 -6 45 -9
58 -4 16 -1 22 10 22 26 0 28 28 7 64 -30 50 -6 52 46 5 23 -22 41 -43 41 -47
-3 -17 2 -31 21 -52 11 -13 20 -35 21 -49 1 -14 2 -33 3 -41 2 -8 3 -27 4 -42
1 -16 6 -28 10 -28 12 0 62 102 62 128 0 12 5 22 10 22 6 0 10 8 10 19 0 31
24 66 45 66 16 0 20 7 22 37 1 21 -3 40 -8 44 -6 3 -2 12 11 21 16 11 20 22
16 39 -8 29 9 31 69 9 22 -8 57 -14 78 -15 55 0 93 -25 187 -122 164 -167 225
-236 235 -268 9 -29 19 -15 40 58 9 29 21 52 29 52 10 0 13 19 11 85 -3 83 -2
85 19 79 91 -26 162 -50 164 -56 2 -4 19 -10 37 -14 25 -4 41 -16 57 -42 13
-20 28 -43 33 -52 6 -8 22 -31 36 -50 15 -19 37 -63 50 -97 37 -98 44 -78 19
50 -6 27 -8 53 -5 58 3 4 -1 22 -10 39 -8 16 -13 30 -9 30 12 0 89 -45 129
-75 35 -27 162 -98 175 -97 3 0 15 -4 28 -9 46 -18 54 -12 36 23 -29 57 -143
158 -177 158 -10 0 -17 4 -17 8 0 10 -132 72 -153 72 -9 0 -19 5 -22 10 -8 13
-72 13 -77 0 -6 -19 -54 -13 -155 19 -105 33 -131 48 -67 38 32 -5 69 5 84 24
3 3 30 12 60 19 30 8 59 17 65 22 15 13 37 9 80 -12 l40 -21 -25 22 c-45 38
-120 70 -186 78 -66 8 -93 26 -94 64 0 9 -11 23 -25 29 -14 6 -25 17 -25 25 0
7 -7 13 -15 13 -8 0 -15 5 -15 10 0 6 -13 10 -30 10 -16 0 -52 5 -80 11 -43 9
-55 8 -76 -6 -13 -8 -29 -13 -34 -10 -5 3 -20 0 -32 -7 -13 -7 -30 -13 -39
-14 -19 -1 -68 -35 -69 -47 0 -5 -10 -17 -22 -27 l-23 -18 27 -11 c14 -5 29
-15 33 -21 17 -27 -16 -29 -135 -5 -69 13 -149 27 -178 31 -29 4 -55 10 -58
15 -8 14 48 23 78 11 21 -7 30 -7 35 2 5 6 21 17 36 24 19 8 27 18 23 27 -5
15 35 64 69 83 16 9 25 7 45 -11 l24 -22 -26 35 c-22 31 -24 38 -12 54 13 18
14 18 48 -2 35 -21 134 -44 148 -35 5 2 8 15 8 28 0 19 4 22 23 18 19 -5 17 0
-15 34 -21 21 -38 42 -38 46 0 4 -5 13 -10 20 -32 37 -72 111 -72 132 0 26
-38 64 -91 92 -54 29 -117 72 -117 82 0 5 -26 17 -57 27 -71 21 -82 29 -76 54
4 15 -3 21 -34 29 -21 6 -44 11 -51 11 -6 0 -11 3 -11 8 4 26 -3 34 -25 30
-16 -3 -27 0 -30 9 -3 8 -10 12 -14 9 -17 -10 -142 -15 -142 -5 0 12 -52 -14
-69 -35 -7 -9 -18 -13 -23 -10 -5 4 -22 -2 -36 -13 -15 -11 -39 -23 -53 -26
-15 -4 -50 -29 -78 -57 -49 -48 -62 -70 -41 -70 14 0 12 -36 -2 -48 -11 -8
-215 -19 -253 -13 -15 2 18 21 37 21 24 0 96 51 103 72 4 10 21 28 38 40 43
30 107 90 107 100 0 23 52 74 108 105 70 39 80 39 262 10 14 -3 54 -8 90 -11
l65 -7 -50 27 c-27 15 -63 31 -80 37 -85 27 -228 38 -248 18 -6 -6 -17 -11
-25 -11 -23 0 -83 -31 -149 -77 -35 -24 -67 -43 -72 -43 -5 0 -12 19 -16 43
-4 23 -14 54 -21 69 -8 15 -14 29 -14 31 0 11 141 66 182 72 26 4 45 11 43 16
-9 13 -63 0 -149 -37 -44 -19 -81 -34 -83 -34 -10 0 -20 46 -11 57 10 13 -20
46 -64 69 -19 10 -25 19 -21 33 7 28 -64 60 -139 63 -38 2 -58 7 -58 16 0 17
-18 15 -68 -8 -23 -11 -40 -15 -37 -10 12 19 114 61 171 70 88 14 218 -1 282
-32 13 -7 43 -39 67 -72 44 -58 59 -66 30 -16 -22 39 -18 46 12 19 15 -13 3 3
-27 36 -65 70 -133 125 -157 125 -9 0 -24 7 -34 16 -10 9 -47 24 -83 33 -36 9
-69 20 -72 24 -4 4 -19 7 -33 7 -25 1 -25 1 -6 13 11 6 38 13 60 14 22 1 66 7
99 14 45 9 68 9 99 -1 46 -14 119 -81 148 -138 l20 -37 -6 35 c-11 61 -14 66
-68 102 -78 53 -106 61 -180 53 -82 -9 -93 6 -27 34 37 16 55 19 69 12 10 -6
47 -8 82 -5 58 5 71 3 132 -26 38 -18 85 -49 104 -69 l36 -36 -17 33 c-28 54
-114 102 -205 114 -86 12 -125 26 -69 26 19 0 46 5 58 12 14 8 39 9 68 5 40
-6 44 -5 34 8 -7 8 -38 17 -73 20 -52 4 -66 10 -90 36 -17 20 -38 31 -54 31
-14 0 -40 7 -56 16 -36 18 -42 15 -43 -23 -1 -16 -5 -27 -11 -26 -5 1 -30 7
-53 14 -61 17 -68 4 -47 -88 6 -24 13 -33 33 -35 41 -5 36 -22 -14 -46 -47
-23 -67 -22 -57 3 3 9 1 21 -5 28 -5 6 -8 22 -7 35 1 12 -2 22 -6 22 -4 0 -6
11 -3 25 2 14 0 25 -6 25 -6 0 -9 4 -5 9 16 28 -132 45 -152 19 -8 -11 -11
-68 -3 -75 1 -2 3 -6 4 -10 1 -5 5 -13 9 -20 4 -6 3 -14 -3 -18 -6 -3 1 -22
17 -45 21 -34 31 -40 59 -40 44 0 43 -11 -6 -44 -41 -27 -55 -32 -46 -17 3 5
0 14 -8 20 -8 7 -12 20 -9 31 5 18 -48 123 -68 135 -5 4 -21 29 -35 58 l-26
51 -16 -30 c-8 -16 -19 -32 -24 -35 -6 -4 -8 -17 -7 -30 2 -13 0 -30 -4 -36
-4 -7 -3 -22 4 -34 9 -17 8 -20 -2 -17 -19 6 -40 107 -27 128 8 12 6 24 -7 43
-9 15 -21 27 -27 27 -5 0 -5 8 1 19 8 14 5 23 -14 40 -14 11 -27 21 -30 21
-19 0 -85 37 -85 48 0 10 -12 13 -39 11 -22 -2 -46 3 -56 11 -14 11 -18 11
-32 -3 -15 -15 -17 -15 -29 1 -12 16 -15 16 -42 1 -42 -24 -58 -11 -42 35 13
41 37 45 55 11 13 -26 39 -21 59 10 10 15 22 22 31 19 8 -4 15 -2 15 2 0 20
283 21 335 1 22 -8 41 -14 43 -12 8 8 -40 70 -72 91 -21 15 -33 30 -30 38 4 9
-7 19 -30 27 -20 7 -36 19 -36 26 0 12 -13 17 -32 14 -5 0 -8 3 -8 8 0 5 -20
8 -45 7 -24 -2 -46 1 -47 6 -4 11 -84 -27 -94 -44 -4 -6 -9 -5 -14 3 -7 10
-14 9 -35 -5 -15 -10 -29 -15 -32 -13 -9 10 20 87 33 87 8 0 19 -9 26 -20 16
-25 24 -25 73 0 22 12 48 19 58 16 9 -2 17 -1 17 3 0 4 9 7 20 7 11 0 20 -4
20 -9 0 -4 4 -6 9 -3 5 4 22 1 38 -6 15 -6 33 -12 40 -13 6 0 23 -11 37 -24
32 -30 34 -14 5 49 -12 25 -21 57 -21 72 1 18 -6 29 -19 33 -11 4 -17 10 -14
15 11 18 -27 40 -60 37 -19 -2 -36 0 -38 6 -2 6 -11 6 -25 -2 -12 -7 -27 -9
-33 -6 -5 4 -16 1 -24 -5 -8 -6 -19 -9 -24 -5 -6 3 -20 1 -31 -5 -25 -13 -25
-4 -3 52 21 55 22 56 38 35 17 -24 41 -12 52 26 8 26 14 32 35 30 26 -1 26 0
23 57 -3 62 -11 84 -26 75 -19 -12 -47 5 -42 25 6 21 28 27 38 10 9 -15 25
-12 25 5 0 36 83 62 114 36 18 -15 19 -14 12 38 -8 58 -33 90 -73 91 -31 0
-30 32 2 92 14 26 24 51 23 55 0 4 4 20 10 36 33 77 33 77 9 76 -12 0 -28 -3
-36 -6z m-130 -400 c-10 -17 -10 -16 -11 3 0 23 13 41 18 25 2 -6 -1 -18 -7
-28z m-136 -355 c-12 -57 -24 -67 -25 -22 0 41 5 54 22 54 6 0 6 -14 3 -32z
m-160 -492 c-4 -20 -11 -36 -15 -36 -7 0 -7 33 -1 90 1 2 6 -1 12 -7 6 -6 8
-25 4 -47z m39 -75 c3 -5 -1 -14 -8 -20 -12 -10 -13 -8 -9 8 6 23 9 25 17 12z
m1044 -126 c27 -7 27 -7 -13 -25 -28 -12 -42 -14 -47 -6 -5 9 -4 66 1 96 1 3
8 -9 17 -27 9 -19 26 -34 42 -38z m-1773 27 c43 -5 50 -18 25 -53 -13 -19 -32
-42 -42 -52 -11 -10 -18 -32 -18 -53 0 -25 -8 -42 -27 -60 -17 -16 -29 -21
-31 -14 -3 7 2 16 9 21 11 7 12 12 2 28 -10 15 -9 22 2 31 8 6 11 18 8 26 -3
8 0 14 6 14 22 0 10 47 -19 75 -25 24 -28 30 -15 35 15 5 54 6 100 2z m146
-74 c17 -1 29 -6 29 -15 0 -7 11 -13 25 -13 15 0 25 -6 25 -15 0 -8 17 -19 40
-26 22 -7 40 -15 40 -19 0 -14 -128 -32 -169 -25 -27 4 -41 3 -41 -4 0 -16
-35 -14 -49 3 -10 11 -7 17 10 29 19 14 24 14 45 0 31 -20 30 -8 -1 51 -30 57
-31 60 -4 46 11 -6 33 -12 50 -12z m997 -83 c31 -52 42 -56 42 -17 l0 27 14
-27 c8 -15 16 -38 18 -50 2 -16 9 -22 22 -21 28 2 66 -15 66 -29 0 -19 -164
-162 -169 -147 -4 13 36 48 55 49 6 0 11 18 11 41 0 32 -4 43 -21 50 -21 10
-76 98 -76 123 0 7 -9 16 -21 19 -25 7 -16 27 12 27 12 0 29 -16 47 -45z m379
-1 c-3 -3 -12 -4 -19 -1 -8 3 -5 6 6 6 11 1 17 -2 13 -5z m-1277 -44 c0 -5 -4
-10 -10 -10 -5 0 -10 5 -10 10 0 6 5 10 10 10 6 0 10 -4 10 -10z m91 -12 c22
-16 23 -17 4 -17 -11 0 -31 8 -45 19 -23 19 -24 20 -4 17 12 -2 32 -10 45 -19z
m1015 -43 c-11 -8 -25 -15 -30 -15 -6 0 -2 7 8 15 11 8 25 15 30 15 6 0 2 -7
-8 -15z m142 -16 c4 -20 -21 -27 -71 -21 l-39 4 29 19 c33 23 76 21 81 -2z
m-1063 -39 c3 -5 1 -10 -4 -10 -6 0 -11 5 -11 10 0 6 2 10 4 10 3 0 8 -4 11
-10z m-481 -60 l7 -25 -15 25 c-17 28 -21 50 -7 35 5 -6 12 -21 15 -35z m216
10 c0 -5 -4 -10 -10 -10 -5 0 -10 5 -10 10 0 6 5 10 10 10 6 0 10 -4 10 -10z
m313 -16 c-6 -17 -23 -9 -23 11 0 8 6 12 14 9 8 -3 12 -12 9 -20z m859 -27
c10 -20 10 -21 -5 -8 -11 9 -28 11 -52 7 -44 -9 -45 1 -3 19 37 15 43 13 60
-18z m-222 -22 c13 -16 10 -23 -33 -78 -32 -42 -55 -38 -38 6 9 22 7 29 -14
46 -23 17 -36 39 -17 27 4 -2 14 -1 22 5 23 14 66 11 80 -6z m-1025 -75 c3 -5
1 -10 -4 -10 -6 0 -11 5 -11 10 0 6 2 10 4 10 3 0 8 -4 11 -10z m1072 -11 c-1
-11 -9 -25 -19 -30 -23 -12 -23 -4 0 26 21 30 21 30 19 4z m-507 -34 c0 -8 -7
-15 -15 -15 -16 0 -20 12 -8 23 11 12 23 8 23 -8z m-713 -11 c2 -5 -9 -11 -23
-12 -23 -2 -25 0 -14 13 14 16 31 16 37 -1z m1221 -16 c5 -7 12 -22 14 -33 2
-13 10 -19 23 -17 15 2 12 -2 -8 -14 -22 -12 -31 -13 -43 -3 -8 6 -27 9 -43 6
-39 -8 -46 13 -15 47 27 28 55 34 72 14z m220 -20 c8 -8 15 -8 26 1 8 7 17 8
20 3 9 -16 68 -23 83 -11 19 17 81 19 87 3 3 -8 22 -13 48 -12 23 0 44 -5 46
-11 2 -6 8 -11 14 -11 5 0 18 -10 28 -22 21 -27 14 -46 -25 -72 -25 -16 -26
-16 -23 0 3 18 -44 52 -76 53 -10 1 -24 8 -30 16 -6 8 -24 16 -41 17 -16 1
-33 6 -36 11 -3 5 -31 2 -63 -6 -67 -18 -177 -12 -169 9 2 7 18 16 34 19 16 4
31 11 34 16 8 12 29 11 43 -3z m442 -139 c34 -56 32 -67 -22 -95 -31 -16 -55
-7 -77 28 -10 16 -10 23 2 36 8 10 22 32 31 50 9 17 21 32 25 32 5 0 23 -23
41 -51z m-3751 -36 c32 -2 50 -16 51 -37 0 -14 -118 1 -135 17 -16 16 -21 31
-7 24 4 -3 16 -1 27 3 11 4 22 5 25 1 3 -3 20 -7 39 -8z m2008 -50 c-3 -2 -12
9 -20 26 -8 16 -12 33 -8 36 3 4 12 -8 19 -25 7 -18 11 -34 9 -37z m23 37 c0
-7 6 -7 19 0 25 13 31 13 31 0 0 -6 -12 -16 -26 -22 -21 -10 -27 -9 -35 3 -12
19 -11 29 1 29 6 0 10 -5 10 -10z m1262 -1 c16 -8 22 -8 29 2 6 11 12 10 27
-4 10 -9 25 -17 33 -17 8 0 23 -7 33 -15 11 -8 27 -13 36 -10 9 3 23 -1 33 -7
14 -12 11 -21 -35 -90 -38 -59 -56 -78 -73 -78 -13 0 -26 7 -29 16 -5 12 -14
15 -36 10 -17 -3 -30 -1 -30 4 0 6 -21 8 -55 4 -36 -5 -59 -3 -69 5 -9 8 -31
10 -65 5 -49 -6 -51 -6 -95 37 -50 49 -48 71 8 62 22 -3 36 0 45 11 20 23 47
20 110 -15 l56 -31 -43 39 c-23 21 -42 41 -42 46 0 4 13 7 28 7 15 0 32 4 38
9 9 9 36 18 62 20 7 0 23 -4 34 -10z m-3847 -45 l40 -8 -45 -8 c-48 -9 -116
-2 -126 13 -3 5 -14 9 -25 9 -31 0 -22 19 14 28 24 6 41 4 67 -9 19 -10 53
-21 75 -25z m455 26 c0 -5 -8 -10 -17 -10 -15 0 -16 2 -3 10 19 12 20 12 20 0z
m2900 -4 c-6 -8 -18 -12 -26 -9 -23 9 -16 23 12 23 22 0 24 -2 14 -14z m132
-21 c15 -34 7 -39 -41 -24 -39 12 -40 13 -25 31 24 25 52 22 66 -7z m-456 -11
c-3 -9 -6 -20 -6 -25 0 -6 -4 -7 -10 -4 -16 10 -12 45 6 45 11 0 14 -5 10 -16z
m1140 -44 l34 0 -24 -47 c-34 -68 -81 -104 -104 -81 -8 8 -20 7 -42 -2 -21 -9
-34 -10 -41 -3 -14 14 109 146 128 138 8 -3 30 -5 49 -5z m-1729 -70 c-1 -21
-6 -24 -31 -14 -15 6 -15 8 1 20 25 19 32 17 30 -6z m933 -20 c0 -5 -2 -10 -4
-10 -3 0 -8 5 -11 10 -3 6 -1 10 4 10 6 0 11 -4 11 -10z m1360 -29 c3 -1 -5
-10 -18 -20 -12 -11 -20 -26 -16 -34 3 -8 1 -18 -4 -21 -10 -6 -252 20 -260
29 -3 3 23 4 57 2 52 -2 65 0 76 15 8 13 27 20 58 21 26 2 49 6 52 8 4 5 35 4
55 0z m407 -15 l28 -16 -35 1 c-53 0 -88 -8 -115 -25 -13 -9 -34 -16 -45 -16
-12 0 -35 -8 -53 -17 -18 -10 -43 -19 -57 -21 -36 -4 -160 19 -160 31 0 5 7 7
15 3 9 -3 37 8 64 24 26 17 62 33 80 36 17 4 33 10 36 14 9 14 212 2 242 -14z
m93 -2 c12 -12 11 -14 -13 -14 -15 0 -36 9 -48 21 l-21 21 33 -7 c19 -4 41
-13 49 -21z m-3670 -29 c0 -19 -16 -28 -39 -20 -16 5 -17 9 -8 29 9 19 15 22
29 15 10 -5 18 -16 18 -24z m823 -42 c6 -31 -15 -52 -51 -53 -12 0 -39 -9 -59
-20 -21 -11 -43 -20 -50 -20 -7 0 -16 -6 -20 -13 -4 -7 -21 -20 -36 -30 -27
-17 -29 -17 -57 3 -17 12 -30 23 -30 25 0 7 57 34 62 30 3 -3 15 6 28 20 13
14 30 25 37 25 8 0 33 10 56 22 84 45 113 48 120 11z m2282 -21 c17 -11 12
-30 -13 -47 -12 -9 -20 -21 -16 -26 3 -5 0 -16 -6 -24 -7 -8 -10 -26 -8 -40 3
-14 1 -25 -4 -25 -5 0 -7 -4 -3 -9 3 -5 1 -12 -5 -16 -5 -3 -10 -17 -10 -31 0
-14 -6 -24 -14 -24 -8 0 -21 -9 -29 -20 -18 -25 -72 -37 -92 -20 -14 12 -14
15 2 32 11 13 13 22 6 29 -10 10 1 56 20 87 5 6 4 12 -2 12 -5 0 -1 18 10 40
10 21 19 43 19 47 0 29 115 57 145 35z m583 -13 l25 -19 -54 3 c-34 2 -70 -3
-101 -15 -46 -17 -114 -16 -103 3 3 4 30 13 61 20 30 7 57 16 59 20 10 15 89
7 113 -12z m-3413 -61 c6 -6 -1 -7 -20 -3 -35 8 -105 53 -105 67 0 10 104 -44
125 -64z m-185 41 l33 -12 -23 -17 -23 -17 21 -15 c14 -9 18 -19 12 -28 -4 -7
-6 -19 -3 -27 3 -7 2 -25 -1 -39 -6 -22 -11 -25 -34 -19 -35 9 -36 10 -23 34
9 16 8 22 -5 29 -11 6 -13 11 -5 16 16 10 14 56 -4 62 -11 5 -12 11 -4 25 11
22 15 23 59 8z m1869 2 c9 -6 22 -6 32 -1 12 7 22 4 35 -11 17 -19 17 -20 -6
-36 -31 -22 -74 -21 -100 2 -19 17 -19 19 -4 37 19 20 23 21 43 9z m441 -44
c14 -9 35 -17 49 -17 39 0 157 -96 178 -144 9 -23 19 -44 21 -48 2 -5 -8 -12
-23 -18 -15 -6 -29 -19 -32 -30 -4 -14 -9 -17 -17 -11 -6 5 -39 19 -73 30 -34
11 -85 35 -113 51 -48 28 -55 30 -82 18 -24 -11 -28 -17 -24 -40 3 -17 0 -28
-9 -32 -19 -7 -35 16 -28 42 4 17 -1 24 -20 31 -66 25 -25 60 66 55 84 -4 134
-21 185 -62 24 -19 46 -32 49 -29 3 4 -3 27 -13 52 -14 35 -32 55 -71 81 -28
18 -56 34 -62 34 -6 0 -11 7 -11 16 0 14 -8 16 -47 11 -27 -2 -56 -8 -67 -12
-14 -6 -18 -4 -14 6 6 18 65 39 104 35 16 -1 41 -10 54 -19z m1090 -3 c0 -2
-15 -4 -32 -4 -23 0 -29 3 -19 9 12 8 51 4 51 -5z m-1723 -10 c-3 -3 -12 -4
-19 -1 -8 3 -5 6 6 6 11 1 17 -2 13 -5z m-2073 -10 c20 -8 11 -24 -15 -24 -10
0 -19 7 -19 15 0 16 9 19 34 9z m2464 -40 c-14 -15 -32 -24 -38 -22 -8 2 1 13
21 26 45 29 49 28 17 -4z m-2455 -32 c-1 -11 4 -26 12 -32 21 -17 19 -27 -7
-34 l-23 -6 27 -24 26 -24 -36 -5 c-21 -3 -46 -8 -57 -12 -15 -5 -16 -4 -6 3
8 6 11 17 8 26 -4 9 -2 16 3 16 5 0 15 14 24 30 14 29 13 30 -6 30 -20 0 -21
1 -3 20 10 11 15 20 11 20 -4 0 -4 5 -1 11 11 16 30 4 28 -19z m661 -49 c57
-54 63 -63 44 -64 -47 -3 -61 4 -101 42 -23 21 -45 39 -49 39 -4 0 -8 5 -8 11
0 13 31 40 41 36 4 -1 37 -30 73 -64z m19 56 c31 -16 67 -51 62 -59 -3 -4 1
-7 8 -6 18 2 23 -19 5 -22 -9 -2 -19 6 -23 16 -3 11 -27 34 -53 51 -45 29 -44
43 1 20z m3019 -18 c4 -29 -9 -40 -47 -41 -19 0 -14 39 6 45 10 4 19 11 19 16
0 23 18 6 22 -20z m-2902 5 c0 -3 -4 -8 -10 -11 -5 -3 -10 -1 -10 4 0 6 5 11
10 11 6 0 10 -2 10 -4z m-280 -41 c43 -22 37 -35 -15 -35 -49 0 -51 1 -33 30
15 24 12 24 48 5z m3190 -39 c0 -15 -7 -26 -20 -29 -19 -5 -25 -25 -21 -69 1
-10 -3 -18 -8 -18 -6 0 -14 0 -18 0 -11 0 -10 24 1 32 6 4 3 16 -6 30 -8 12
-17 33 -20 45 -5 18 -1 23 21 26 63 10 71 8 71 -17z m-2605 -9 c17 -13 15 -14
-15 -20 -19 -4 -38 -2 -46 4 -32 26 26 41 61 16z m-1411 -62 c3 -9 -6 -16 -24
-20 -17 -4 -32 -11 -35 -16 -4 -5 -19 -2 -36 7 -28 14 -29 17 -16 32 19 21
103 18 111 -3z m226 16 c0 -11 -49 -21 -55 -10 -3 4 3 10 12 12 30 8 43 7 43
-2z m3356 -10 c0 -16 -3 -17 -14 -9 -12 10 -7 19 13 28 1 0 1 -9 1 -19z
m-3010 -26 c-22 -17 -52 -20 -60 -6 -9 14 5 21 43 21 34 -1 35 -2 17 -15z
m1439 -14 c3 -5 1 -12 -5 -16 -5 -3 -10 1 -10 9 0 18 6 21 15 7z m1870 -36
c19 -19 35 -39 35 -45 0 -6 -26 -10 -63 -10 -51 0 -68 4 -82 20 -16 18 -16 20
-2 20 10 0 17 7 17 15 0 15 26 34 48 35 7 0 28 -16 47 -35z m-4375 -15 c0 -12
-17 -12 -45 0 -17 7 -15 9 13 9 17 1 32 -3 32 -9z m3985 -10 c4 -11 15 -20 26
-20 45 0 5 -18 -53 -24 -35 -4 -101 -14 -146 -22 -46 -9 -86 -13 -89 -11 -7 8
67 27 104 27 17 0 34 4 37 9 3 4 20 11 37 15 22 4 29 10 26 20 -4 10 2 16 16
19 12 2 25 5 29 6 4 0 10 -8 13 -19z m499 10 c7 0 20 -6 30 -13 17 -12 13 -14
-28 -14 -39 0 -46 3 -46 20 0 13 5 17 16 13 9 -3 21 -6 28 -6z m-1104 -21 c0
-6 -4 -7 -10 -4 -5 3 -10 11 -10 16 0 6 5 7 10 4 6 -3 10 -11 10 -16z m-2193
5 c-3 -3 -12 -4 -19 -1 -8 3 -5 6 6 6 11 1 17 -2 13 -5z m2126 -23 c33 -13 33
-16 2 -37 -33 -21 -65 -10 -65 23 0 18 -4 24 -15 19 -8 -3 -15 -1 -15 5 0 11
53 6 93 -10z m305 -42 c7 -12 12 -23 10 -24 -2 -2 -23 1 -47 6 -30 7 -47 6
-57 -2 -7 -6 -19 -9 -26 -6 -14 5 67 46 92 47 8 0 21 -9 28 -21z m82 0 c0 -9
-40 -33 -45 -27 -3 2 -2 13 1 25 4 14 11 19 25 16 10 -3 19 -9 19 -14z m-3950
-7 c0 -4 -10 -13 -22 -21 -23 -14 -23 -14 -4 8 20 22 26 25 26 13z m1828 -34
c20 -20 13 -28 -13 -16 -14 6 -25 15 -25 20 0 12 24 10 38 -4z m3598 0 c3 -4
12 -4 20 -1 8 3 21 0 28 -6 10 -8 16 -9 21 -1 7 12 25 14 25 2 0 -5 -10 -19
-21 -31 -22 -23 -19 -31 16 -44 6 -3 7 -7 4 -11 -3 -4 -84 15 -180 41 -128 35
-165 49 -141 51 18 2 39 -1 45 -6 16 -12 77 -14 77 -3 0 17 90 24 106 9z
m-1711 -8 c-3 -5 -11 -10 -16 -10 -6 0 -7 5 -4 10 3 6 11 10 16 10 6 0 7 -4 4
-10z m-702 -22 c-11 -13 -22 -30 -25 -38 -3 -10 -6 -11 -12 -2 -4 7 4 22 20
37 34 31 45 33 17 3z m217 12 c0 -5 -5 -10 -10 -10 -11 0 -9 -37 3 -56 4 -7 0
-17 -8 -24 -7 -6 -12 -17 -9 -24 6 -15 -13 -33 -41 -38 -18 -3 -20 2 -17 40 1
29 -1 41 -9 37 -7 -5 -9 3 -7 21 2 18 13 33 33 45 34 20 65 24 65 9z m2002
-30 c71 -19 94 -30 67 -30 -18 0 -150 38 -157 45 -10 10 18 5 90 -15z m-1539
-17 c-7 -2 -19 -2 -25 0 -7 3 -2 5 12 5 14 0 19 -2 13 -5z m-4013 -17 c0 -2
-8 -10 -17 -17 -16 -13 -17 -12 -4 4 13 16 21 21 21 13z m3277 -33 c-3 -3 -11
-2 -17 2 -9 6 -9 10 1 16 14 8 27 -7 16 -18z m-713 -12 c13 -24 13 -31 2 -40
-14 -11 -30 -6 -83 29 -22 14 -22 14 10 26 49 18 55 16 71 -15z m3113 -58 c2
-21 6 -49 9 -63 5 -22 4 -23 -9 -10 -20 21 -37 76 -26 87 5 5 -1 19 -16 35
-31 33 -19 46 14 14 15 -15 26 -39 28 -63z m-1837 48 c0 -6 -4 -13 -10 -16 -5
-3 -10 1 -10 9 0 9 5 16 10 16 6 0 10 -4 10 -9z m-105 -20 c-3 -6 -11 -11 -17
-11 -6 0 -6 6 2 15 14 17 26 13 15 -4z m205 -2 c0 -11 -21 -12 -45 -3 -12 5
-13 9 -5 14 15 9 50 1 50 -11z m-279 -53 c-29 -30 -35 -32 -57 -22 -13 6 -24
14 -24 19 0 13 94 54 104 45 6 -5 -3 -22 -23 -42z m-1641 14 c0 -5 8 -10 18
-10 9 0 -10 -12 -43 -25 -43 -18 -70 -23 -93 -19 -29 6 -32 8 -19 21 8 8 36
20 63 28 61 17 74 18 74 5z m2000 -46 c0 -8 -5 -12 -10 -9 -6 4 -8 11 -5 16 9
14 15 11 15 -7z m-1682 -13 c12 0 22 -4 22 -8 0 -5 -43 -9 -95 -10 -53 -2 -95
1 -95 6 0 15 59 19 168 12z m692 -27 c0 -8 -5 -12 -10 -9 -6 4 -8 11 -5 16 9
14 15 11 15 -7z m-705 -19 l30 -15 -35 6 c-19 3 -39 10 -44 15 -15 14 15 10
49 -6z m-50 -7 c14 -6 25 -15 25 -20 0 -5 -4 -7 -8 -4 -5 3 -20 7 -35 10 -14
2 -34 9 -44 15 -16 9 -15 10 9 11 15 0 39 -5 53 -12z m-360 -8 c-3 -5 -15 -10
-26 -10 -10 0 -19 5 -19 10 0 6 12 10 26 10 14 0 23 -4 19 -10z m-340 -29 c-3
-5 -33 -19 -68 -30 -38 -13 -79 -36 -106 -61 -53 -48 -70 -52 -39 -9 32 44
133 95 211 108 5 0 6 -3 2 -8z m300 -7 c-8 -6 -15 -16 -15 -22 0 -8 -83 -62
-97 -62 -2 0 1 9 7 19 17 32 -9 37 -34 7 -19 -24 -24 -25 -55 -16 -19 5 -44 7
-55 5 -12 -3 -28 -1 -36 5 -13 8 -12 11 5 25 44 34 79 47 114 42 20 -2 45 -1
56 4 11 4 44 7 73 6 41 -2 49 -4 37 -13z m-305 -20 c0 -18 -22 -42 -34 -38
-12 5 -12 9 2 25 16 18 32 25 32 13z m1147 -62 c-13 -13 -19 -13 -31 -2 -9 7
-16 21 -16 31 0 19 2 19 31 3 29 -14 30 -17 16 -32z m-947 -37 c-7 -9 -15 -13
-18 -10 -3 2 1 11 8 20 7 9 15 13 18 10 3 -2 -1 -11 -8 -20z m991 -18 c-13
-13 -26 -3 -16 12 3 6 11 8 17 5 6 -4 6 -10 -1 -17z m-1071 8 c0 -3 -33 -27
-74 -54 -73 -48 -76 -48 -142 -45 -89 6 -106 16 -69 40 33 21 38 23 125 29 76
5 103 10 127 24 20 11 33 14 33 6z m-27 -70 c1 -5 -14 -11 -33 -13 -33 -2 -34
-2 -15 13 21 17 45 17 48 0z m1650 9 c8 -8 -143 -195 -153 -189 -16 10 3 57
26 65 13 5 25 13 25 17 1 5 3 19 4 32 1 14 18 37 36 52 34 28 50 34 62 23z
m-504 -163 c28 -40 26 -45 -9 -24 -16 9 -30 25 -30 35 0 26 16 22 39 -11z"/>
<path d="M5703 8796 c20 -8 47 -26 60 -42 44 -56 48 -59 33 -29 -30 59 -64 85
-108 85 -17 -1 -14 -4 15 -14z"/>
<path d="M8714 7283 c7 -7 77 -5 85 2 2 3 -17 5 -44 5 -27 0 -45 -3 -41 -7z"/>
<path d="M10280 6102 c0 -5 10 -17 21 -28 22 -19 22 -19 10 3 -12 24 -31 39
-31 25z"/>
<path d="M3774 5886 c-11 -8 -33 -32 -49 -53 -26 -35 -24 -34 23 12 29 27 52
51 52 52 0 5 -5 3 -26 -11z"/>
<path d="M3834 5503 c-22 -98 -176 -698 -182 -709 -5 -9 -23 0 -66 33 -57 42
-146 93 -163 93 -4 0 16 -14 46 -30 68 -38 160 -107 168 -126 5 -14 -4 -60
-33 -161 l-15 -51 -82 38 c-86 40 -192 70 -255 70 -33 1 -41 7 -74 53 -21 29
-68 81 -105 117 l-68 65 56 -60 c66 -71 129 -149 129 -160 0 -4 -7 -4 -16 -1
-8 3 -12 2 -9 -4 8 -14 4 -13 -41 9 -48 24 -229 198 -212 204 7 2 5 3 -5 1
-10 -1 -41 14 -68 35 -68 51 -198 123 -289 159 -131 52 -313 93 -399 91 -30
-1 -36 -3 -16 -5 209 -25 347 -64 517 -150 116 -58 205 -123 318 -232 l65 -63
-40 8 c-71 13 -187 6 -245 -15 -83 -30 -133 -53 -127 -58 2 -2 25 5 51 16 74
31 159 50 227 50 125 0 148 -24 34 -34 -99 -9 -207 -37 -307 -81 -45 -19 -82
-34 -83 -32 0 1 -13 21 -28 44 l-26 42 47 39 c65 53 154 105 242 141 90 37 78
41 -16 6 -146 -55 -269 -137 -403 -268 -82 -80 -92 -85 -45 -20 13 17 24 34
24 38 0 3 25 40 55 80 30 41 55 77 55 80 0 15 -149 -180 -179 -232 -7 -13 -13
-12 -46 1 -21 9 -40 14 -42 12 -3 -2 12 -10 31 -17 20 -7 36 -18 36 -24 0 -24
-53 -85 -98 -113 l-49 -30 -7 89 c-4 49 -4 94 -1 99 3 6 16 10 28 10 15 0 18
3 9 8 -9 6 13 33 75 93 125 120 196 167 295 193 52 14 52 15 16 15 -89 2 -231
-72 -376 -197 -35 -30 -65 -53 -67 -50 -2 2 -9 15 -15 28 -9 22 -10 20 -4 -14
5 -36 2 -42 -36 -81 l-42 -43 -35 70 c-85 169 -263 288 -433 288 -43 0 -46 2
-75 48 -38 61 -99 126 -140 152 l-32 20 -8 113 c-9 123 -22 111 -24 -22 l-1
-73 -27 5 -28 6 28 -12 c21 -9 27 -17 27 -42 0 -18 3 -59 6 -93 l7 -61 -54 -4
-54 -3 51 -2 51 -2 7 -92 c4 -51 16 -169 27 -261 10 -93 19 -170 19 -172 0 -2
-33 11 -73 30 -39 18 -110 45 -157 60 -63 19 -95 35 -123 63 -20 20 -37 31
-37 26 0 -6 9 -19 20 -29 11 -10 17 -22 14 -26 -3 -5 6 -13 19 -18 62 -24 302
-344 396 -529 34 -67 19 -60 -24 10 -196 321 -560 629 -955 809 -223 101 -230
94 -14 -15 158 -80 309 -178 438 -284 42 -35 74 -67 71 -72 -4 -6 1 -10 10
-10 37 0 226 -209 336 -372 33 -49 57 -88 54 -88 -3 0 -40 18 -83 39 -105 53
-171 71 -277 76 l-90 4 76 -8 c95 -10 172 -28 224 -53 l40 -18 -60 5 c-104 9
-191 -23 -293 -109 -24 -20 -49 -36 -56 -36 -21 0 -169 -76 -221 -114 -66 -48
-50 -46 23 2 56 38 169 92 191 92 6 0 -5 -21 -24 -46 -43 -57 -89 -133 -83
-139 3 -3 26 25 51 63 26 37 62 84 81 105 31 35 39 38 113 47 113 14 240 -6
324 -51 22 -11 21 -13 -32 -40 -63 -32 -61 -38 2 -9 63 28 82 25 127 -20 39
-39 40 -43 47 -125 4 -47 11 -88 16 -91 5 -3 7 26 4 68 l-5 73 30 -63 c24 -49
35 -62 47 -58 9 4 19 2 22 -3 10 -16 121 -17 131 -1 7 11 12 11 23 2 12 -10
18 -10 29 2 16 15 43 6 64 -22 17 -23 60 -8 69 25 5 21 8 24 16 12 5 -7 9 -9
9 -3 0 6 14 32 31 57 22 34 38 47 54 47 55 0 118 -90 167 -240 29 -88 29 -53
1 50 -30 108 -85 188 -141 205 -23 7 -23 7 10 32 43 32 123 73 143 73 8 0 28
-21 43 -46 45 -76 56 -83 18 -12 -38 72 -36 79 20 81 19 1 34 4 34 8 0 14 151
20 227 9 78 -12 190 -45 208 -61 5 -5 14 -9 20 -9 5 0 3 4 -5 10 -8 5 -11 12
-7 16 10 10 131 -53 215 -114 41 -29 76 -51 79 -49 7 8 -141 114 -213 153 -38
21 -71 39 -73 40 -13 10 90 253 132 309 15 19 16 19 52 -19 79 -84 116 -213
96 -329 -6 -35 -11 -66 -11 -69 0 -3 10 -8 23 -11 12 -3 39 -10 60 -15 43 -11
43 -11 62 60 30 115 136 311 165 306 8 -2 20 -14 27 -28 8 -16 13 -19 13 -9 0
9 -9 24 -20 34 -15 13 -17 22 -9 36 5 11 14 19 19 19 7 0 29 -51 36 -85 1 -5
7 -30 13 -55 15 -62 13 -222 -3 -298 -7 -37 -9 -65 -4 -68 12 -8 113 -34 153
-40 78 -12 78 -13 93 41 18 66 71 214 88 245 l13 25 23 -50 c19 -41 23 -67 23
-146 l0 -96 42 -12 c57 -17 85 -11 94 19 4 14 12 38 18 53 10 25 13 27 33 15
47 -26 73 -19 97 26 72 138 236 250 403 277 73 12 173 -3 248 -36 30 -14 46
-18 36 -10 -35 27 -129 56 -198 62 -83 7 -172 -10 -257 -48 -35 -16 -75 -29
-89 -29 l-26 0 30 31 c79 84 268 200 355 218 24 5 62 16 84 24 100 38 341 41
468 6 21 -6 41 -8 43 -6 3 3 -28 13 -68 23 -55 15 -108 19 -218 19 -128 -1
-157 -4 -245 -29 -55 -16 -124 -32 -153 -37 -29 -5 -76 -18 -104 -29 -29 -11
-53 -18 -55 -17 -3 3 94 80 145 116 19 13 71 43 116 67 101 54 92 58 -13 5
-96 -48 -148 -80 -231 -143 l-65 -50 60 59 c33 32 83 78 110 102 28 23 36 33
18 22 -17 -12 -73 -58 -124 -103 l-92 -81 43 56 c23 31 46 55 50 52 4 -3 7 1
6 9 -2 21 146 187 246 277 102 92 187 155 281 211 78 47 83 62 7 23 -159 -81
-302 -187 -467 -348 l-122 -119 -47 16 c-26 9 -65 16 -86 16 -35 0 -38 2 -38
28 0 16 15 58 33 93 27 55 43 72 112 121 168 120 392 216 592 254 48 9 149 20
223 24 l135 8 -160 -3 c-91 -2 -194 -10 -240 -20 -227 -45 -446 -141 -634
-278 -36 -26 -66 -45 -68 -43 -3 2 -10 29 -17 60 l-14 57 72 77 c39 42 62 70
52 62 -55 -43 -223 -236 -213 -246 2 -3 20 15 38 40 33 46 48 57 50 34 0 -7 4
-34 8 -61 8 -47 8 -47 -35 -82 l-43 -36 -11 43 c-6 24 -20 65 -32 91 l-22 48
41 82 c23 45 56 107 74 137 50 87 -1 30 -66 -75 -31 -49 -60 -90 -64 -90 -5 0
-30 32 -56 70 l-47 70 41 220 c36 191 77 436 94 557 7 44 -10 62 -19 21z
m-2450 -580 c15 -25 25 -48 23 -50 -5 -5 -110 18 -119 26 -4 3 -10 42 -13 86
l-6 80 45 -48 c24 -26 56 -68 70 -94z m-26 -54 c60 -15 66 -21 92 -99 39 -120
61 -283 58 -432 l-3 -136 -53 48 -54 48 -5 191 c-3 104 -10 188 -15 185 -4 -3
-8 -67 -9 -142 -1 -155 -4 -149 -43 84 -35 211 -41 264 -27 264 7 0 33 -5 59
-11z m241 -30 c70 -16 151 -60 201 -110 78 -78 157 -252 129 -285 -10 -12 -17
-6 -42 38 -85 149 -221 275 -370 343 l-52 24 45 0 c25 0 65 -4 89 -10z m22
-90 c102 -69 195 -172 249 -276 l33 -62 -27 -36 c-15 -19 -30 -35 -35 -35 -4
0 -23 16 -42 36 -18 20 -47 45 -64 55 -16 10 -35 33 -42 51 -10 28 -12 29 -12
10 -1 -19 -5 -22 -23 -18 l-23 6 22 -11 c20 -10 22 -17 16 -58 -3 -25 -21
-104 -38 -176 l-33 -130 -1 86 c-1 48 -6 133 -12 190 -7 76 -7 105 1 107 7 3
6 8 -3 16 -8 6 -23 47 -32 91 -15 69 -41 150 -70 218 -7 17 -4 17 36 -3 24
-13 69 -40 100 -61z m1404 -89 c6 -20 23 -200 18 -200 -1 0 -26 10 -55 22 -45
19 -72 22 -178 23 -69 0 -144 -3 -167 -8 -36 -6 -46 -4 -64 14 -11 11 -18 26
-16 32 14 45 281 132 414 136 33 1 43 -3 48 -19z m108 -77 c85 -129 136 -241
116 -254 -12 -7 -11 -9 3 -9 13 0 23 -19 38 -71 12 -39 19 -73 17 -76 -5 -5
-17 26 -16 41 0 5 -4 12 -9 15 -5 3 -26 27 -46 54 -29 38 -33 47 -18 48 15 1
14 2 -2 6 -10 3 -44 26 -75 51 l-56 45 -16 96 c-9 53 -20 108 -24 124 -15 58
25 26 88 -70z m28 52 c88 -66 169 -203 195 -332 4 -20 -58 8 -64 29 -15 59
-106 224 -165 301 -36 46 -28 47 34 2z m620 -66 l22 -49 -28 -52 c-15 -29 -29
-55 -31 -57 -1 -2 -18 14 -36 35 -36 40 -36 39 -11 153 l16 75 22 -28 c13 -16
33 -50 46 -77z m-551 71 c0 29 172 -11 279 -64 48 -24 71 -42 71 -54 -1 -32
-47 -177 -56 -175 -5 1 -18 4 -29 8 -11 3 -8 -1 8 -10 41 -24 34 -44 -24 -68
l-37 -15 -17 46 c-28 76 -75 163 -120 223 -24 31 -48 66 -55 78 -6 12 -15 19
-20 16 -11 -7 -50 16 -50 29 0 4 11 1 25 -8 14 -9 25 -12 25 -6z m-721 -30
c18 -33 20 -44 10 -56 -7 -8 -20 -12 -31 -8 -10 3 -17 1 -16 -4 2 -6 -24 -29
-57 -52 -44 -32 -63 -40 -75 -33 -8 6 -15 15 -15 22 0 13 142 171 154 171 4 0
18 -18 30 -40z m38 -85 c-4 -8 -2 -17 3 -20 16 -10 11 -25 -8 -25 -10 0 -41
-6 -70 -14 -29 -7 -52 -12 -52 -10 0 9 91 64 105 64 9 0 13 5 10 10 -3 6 -1
10 5 10 7 0 10 -7 7 -15z m-483 -119 c-5 -68 -11 -89 -24 -96 -15 -8 -19 -3
-25 37 -4 25 -9 51 -11 57 -5 12 55 100 63 93 2 -3 1 -44 -3 -91z m921 63 l60
-24 -4 -55 c-1 -30 -5 -57 -7 -59 -3 -3 -26 6 -52 18 -85 42 -172 63 -172 41
0 -5 14 -10 31 -10 38 0 84 -26 98 -56 9 -20 5 -25 -31 -49 -29 -19 -43 -24
-51 -16 -8 8 -4 19 14 38 l24 28 -26 -23 -26 -23 -33 41 c-27 34 -31 44 -19
52 11 8 10 9 -4 4 -10 -3 -28 0 -39 8 -19 14 -19 15 18 19 l39 4 -42 1 c-30 2
-55 11 -87 35 -25 17 -45 35 -45 39 -1 9 109 15 214 13 57 -2 97 -9 140 -26z
m-334 -21 c39 -28 41 -32 24 -39 -16 -6 -14 -8 12 -8 27 -1 40 -12 92 -77 62
-77 74 -104 45 -104 -14 0 -15 2 -3 18 12 16 12 15 -7 -1 -16 -13 -35 -17 -73
-15 l-51 3 -1 60 c-2 55 -2 56 -8 20 l-6 -40 -8 42 c-9 55 -27 93 -43 93 -6 0
-17 14 -23 31 -21 60 -13 63 50 17z m-77 -10 c3 -17 2 -36 -3 -41 -6 -6 -4
-15 5 -24 9 -9 14 -35 14 -69 l0 -54 -39 0 c-34 0 -41 5 -66 43 -15 23 -45 63
-67 88 l-38 47 72 20 c104 29 114 28 122 -10z m1263 -2 c9 -30 8 -39 -14 -71
-24 -35 -25 -36 -39 -17 -12 17 -10 26 8 71 12 28 25 51 28 51 4 0 11 -15 17
-34z m-1507 10 c9 -12 4 -19 -30 -36 -40 -20 -41 -21 -31 -1 10 19 39 51 45
51 2 0 9 -6 16 -14z m1400 -52 c0 -7 -5 -25 -12 -39 -9 -20 -18 -25 -45 -25
-28 0 -33 3 -29 18 3 9 8 35 12 57 4 22 9 44 11 48 7 11 63 -43 63 -59z
m-2600 19 c36 -14 88 -39 115 -54 l51 -29 18 -117 c10 -65 20 -129 23 -143 4
-15 -16 6 -52 55 -73 102 -132 173 -214 259 -61 63 -64 68 -36 61 17 -3 59
-18 95 -32z m650 -32 c29 -27 50 -55 48 -62 -3 -8 -19 -16 -36 -20 -18 -4 -42
-19 -54 -34 -20 -26 -22 -27 -30 -9 -6 14 -7 12 -3 -8 3 -17 -2 -39 -15 -60
-24 -39 -25 -31 -6 43 8 31 16 88 17 127 1 49 6 72 14 72 7 0 36 -22 65 -49z
m612 12 c10 -9 18 -21 18 -26 0 -6 -9 -2 -20 8 -11 10 -20 16 -20 13 0 -2 12
-15 27 -29 14 -13 22 -17 18 -9 -8 13 -7 13 8 1 10 -8 15 -16 13 -19 -3 -2 6
-21 19 -41 14 -19 25 -38 25 -42 0 -3 -19 -11 -42 -18 -99 -28 -124 -42 -220
-128 -37 -35 -67 -53 -83 -53 l-25 0 21 43 c50 97 213 317 236 317 4 0 15 -7
25 -17z m746 -29 c37 -43 39 -50 30 -78 -16 -47 -21 -48 -58 -18 -37 32 -37
58 2 65 22 4 22 4 -2 6 -22 1 -26 6 -28 36 -2 19 2 35 7 35 5 0 27 -21 49 -46z
m-958 7 c0 -15 -30 -41 -46 -41 -22 0 -17 14 14 32 32 21 32 21 32 9z m64 -26
c-32 -43 -40 -45 -19 -6 12 25 24 35 43 40 2 1 -9 -15 -24 -34z m1607 -68
c-17 -18 -18 -18 -31 12 -11 27 -10 34 11 63 l24 32 7 -44 c6 -37 4 -48 -11
-63z m172 88 c-3 -9 -8 -14 -10 -11 -3 3 -2 9 2 15 9 16 15 13 8 -4z m-1396
-37 c-3 -7 -5 -2 -5 12 0 14 2 19 5 13 2 -7 2 -19 0 -25z m-670 0 c-3 -8 -6
-5 -6 6 -1 11 2 17 5 13 3 -3 4 -12 1 -19z m1032 8 c18 -10 20 -14 8 -19 -8
-3 -23 3 -33 14 -20 22 -10 24 25 5z m786 4 c3 -5 1 -10 -4 -10 -6 0 -11 5
-11 10 0 6 2 10 4 10 3 0 8 -4 11 -10z m215 -15 c0 -8 -5 -25 -12 -39 -9 -20
-14 -23 -25 -15 -10 9 -12 6 -7 -18 4 -22 2 -32 -10 -36 -10 -4 -16 -1 -16 7
0 8 -2 20 -5 28 -6 14 50 88 66 88 5 0 9 -7 9 -15z m-307 -39 c-14 -29 -19
-33 -35 -25 -34 18 -12 58 34 59 17 0 17 -2 1 -34z m69 -26 c-42 -68 -59 -78
-35 -22 8 20 19 47 24 60 5 12 17 22 28 22 18 0 16 -6 -17 -60z m-1807 19 c6
-24 2 -36 -14 -52 l-20 -21 -9 25 c-7 17 -5 32 4 52 19 35 31 34 39 -4z m205
27 c0 -3 -4 -8 -10 -11 -5 -3 -10 -1 -10 4 0 6 5 11 10 11 6 0 10 -2 10 -4z
m886 -27 c-3 -17 -6 -41 -7 -53 0 -15 -6 -8 -20 22 -21 48 -18 62 13 62 18 0
20 -4 14 -31z m194 -43 c18 -36 29 -69 25 -75 -3 -6 -1 -11 6 -11 8 0 8 -4 -1
-15 -19 -22 -31 -8 -19 23 8 22 8 25 -2 15 -19 -19 -25 -16 -49 17 -17 24 -20
38 -15 70 4 22 10 40 14 40 5 0 23 -29 41 -64z m140 9 c0 -20 -26 -54 -33 -44
-4 5 -27 84 -27 92 0 3 14 -1 30 -9 20 -11 30 -23 30 -39z m432 -23 c-11 -15
-30 -36 -42 -47 -17 -16 -23 -17 -30 -6 -5 9 4 34 28 72 l37 59 13 -26 c11
-21 10 -28 -6 -52z m-1757 48 c-3 -5 -11 -10 -16 -10 -6 0 -7 5 -4 10 3 6 11
10 16 10 6 0 7 -4 4 -10z m930 -37 l6 -31 -43 5 c-61 8 -65 17 -22 47 42 28
49 26 59 -21z m159 -11 c3 -10 -13 -71 -35 -137 -36 -108 -40 -114 -34 -65 3
30 8 99 12 152 l6 97 23 -16 c13 -8 26 -22 28 -31z m372 26 c-3 -13 -6 -29 -6
-36 0 -9 -7 -8 -25 4 -31 20 -31 28 -2 42 33 16 40 14 33 -10z m143 -2 c8 -10
4 -29 -20 -81 -16 -37 -32 -66 -33 -64 -6 7 28 159 35 159 4 0 12 -6 18 -14z
m-2150 -171 c-9 -73 -24 -105 -40 -87 -10 10 -36 136 -44 207 l-7 60 51 -50
50 -50 -10 -80z m1091 146 c0 -12 -9 -20 -27 -24 -16 -3 -29 -5 -29 -4 -1 1
-5 12 -8 25 -7 20 -4 22 28 22 29 0 36 -4 36 -19z m-697 -10 c3 -13 -10 -33
-45 -68 -52 -50 -52 -45 -1 45 27 46 38 52 46 23z m612 -2 c9 -28 0 -34 -32
-20 -23 10 -25 10 -15 -2 10 -12 5 -16 -29 -25 -40 -10 -79 0 -79 19 0 12 59
31 75 25 9 -3 13 -2 10 3 -5 9 14 18 47 20 9 0 20 -8 23 -20z m1371 -16 c-11
-11 -19 6 -11 24 8 17 8 17 12 0 3 -10 2 -21 -1 -24z m272 16 c28 -11 28 -21
1 -45 -12 -10 -55 -64 -95 -119 -41 -54 -74 -92 -74 -84 0 9 3 19 7 23 4 4 8
15 8 24 0 9 7 17 15 17 8 1 14 7 12 14 -1 7 2 10 7 7 5 -3 15 2 22 12 13 15
12 16 -3 3 -27 -21 -21 -1 9 33 15 17 8 12 -17 -11 l-45 -42 9 89 c8 78 12 90
30 93 25 5 81 -2 114 -14z m-668 -13 c8 -11 9 -20 1 -33 -11 -20 -9 -21 -26
32 -6 19 9 19 25 1z m-718 -26 c-14 -25 -22 -30 -42 -25 -23 6 -24 5 -6 -7 17
-14 17 -15 -1 -46 -22 -35 -33 -33 -33 8 0 62 11 89 39 93 63 10 62 10 43 -23z
m108 19 c0 -6 6 -25 14 -42 20 -43 46 -136 46 -161 0 -14 -7 -7 -19 20 -20 44
-87 124 -103 124 -5 0 8 -20 30 -45 22 -26 45 -60 51 -78 8 -26 8 -28 -2 -12
-7 10 -33 42 -59 70 l-46 50 23 29 c15 18 27 26 35 21 9 -5 11 -4 6 3 -8 14 0
32 15 32 5 0 9 -5 9 -11z m112 -12 c4 -7 8 -61 7 -122 l0 -110 -25 83 c-13 46
-33 101 -44 122 -11 22 -20 42 -20 46 0 10 74 -7 82 -19z m179 -113 c-25 -40
-47 -71 -49 -69 -3 3 33 153 44 185 4 10 11 7 28 -15 l23 -28 -46 -73z m219
116 c0 -5 -7 -10 -16 -10 -8 0 -12 5 -9 10 3 6 10 10 16 10 5 0 9 -4 9 -10z
m470 -5 c0 -2 -10 -10 -22 -16 -21 -11 -22 -11 -9 4 13 16 31 23 31 12z
m-1891 -32 c-1 -16 -4 -41 -8 -58 -7 -28 -7 -28 -15 17 -4 27 -4 52 -1 58 12
19 25 10 24 -17z m401 17 c19 -12 18 -12 -70 -49 l-75 -31 48 45 c49 45 69 53
97 35z m229 -27 c-1 -21 -5 -51 -9 -68 -7 -29 -8 -29 -9 -4 0 14 -6 41 -12 59
-9 26 -9 34 2 41 24 15 29 10 28 -28z m1117 -29 c-32 -47 -44 -26 -14 25 17
30 25 36 31 26 5 -10 -1 -28 -17 -51z m-318 -94 c3 -148 -5 -185 -14 -64 -2
38 -9 96 -14 129 -13 81 -13 87 8 83 15 -3 17 -19 20 -148z m-866 75 c9 -28
17 -77 17 -110 -1 -48 -3 -54 -8 -29 -4 17 -11 36 -15 42 -4 7 -3 12 3 12 5 0
1 10 -9 23 -10 12 -33 39 -50 59 l-32 38 24 9 c39 16 52 8 70 -44z m-602 -35
l0 -69 -44 -26 -44 -26 -26 26 c-15 15 -23 32 -19 38 19 34 116 136 124 131 5
-3 9 -36 9 -74z m1928 -61 l-25 -62 -17 68 -17 68 33 34 33 34 9 -40 c7 -33 4
-51 -16 -102z m97 94 c-4 -27 -11 -52 -16 -57 -11 -13 -11 -8 2 54 14 63 24
65 14 3z m-1465 -46 c0 -5 -10 -6 -22 -3 -13 4 -54 12 -92 19 l-69 11 59 27
59 27 33 -35 c17 -20 32 -41 32 -46z m740 71 c-1 -7 -17 -31 -37 -53 -37 -41
-36 -37 4 28 24 39 33 46 33 25z m79 -48 c12 -55 14 -98 4 -70 -3 8 -14 32
-24 53 -17 36 -16 67 1 67 5 0 13 -23 19 -50z m1005 -11 c-72 -38 -142 -90
-223 -165 -33 -31 -61 -52 -61 -48 0 21 142 173 177 189 117 56 205 76 107 24z
m-643 -6 c-8 -15 -10 -15 -11 -2 0 17 10 32 18 25 2 -3 -1 -13 -7 -23z m-714
-5 c-3 -8 -6 -5 -6 6 -1 11 2 17 5 13 3 -3 4 -12 1 -19z m-502 -11 c43 -12 52
-18 62 -48 7 -19 12 -63 12 -98 1 -56 -1 -62 -16 -56 -101 38 -331 45 -423 11
-36 -13 -50 -14 -72 -5 -27 11 -28 13 -12 30 10 11 28 19 41 19 16 0 23 6 23
20 0 10 9 24 19 30 18 9 19 8 10 -22 -11 -40 -11 -38 0 -38 5 0 17 22 26 49
14 44 23 54 83 91 65 40 69 41 132 35 36 -3 88 -11 115 -18z m1353 -112 c0
-33 -5 -76 -13 -95 l-13 -35 -6 30 c-4 17 -15 61 -25 99 l-19 70 26 34 27 35
12 -39 c6 -21 11 -66 11 -99z m-841 73 c-3 -7 -5 -2 -5 12 0 14 2 19 5 13 2
-7 2 -19 0 -25z m10 -70 c-2 -13 -4 -5 -4 17 -1 22 1 32 4 23 2 -10 2 -28 0
-40z m-1206 -41 c-8 -8 -10 1 -7 33 6 60 9 62 13 16 3 -21 -1 -44 -6 -49z
m1959 74 c0 -5 3 -18 6 -28 5 -16 4 -16 -10 1 -18 23 -20 36 -6 36 6 0 10 -4
10 -9z m-2556 -21 c37 -14 69 -36 100 -70 25 -27 46 -54 46 -59 0 -23 -67 -23
-111 -1 -84 44 -208 64 -304 51 -33 -5 -62 -7 -63 -6 -7 6 107 77 145 90 55
20 124 18 187 -5z m749 -12 c12 -7 24 -14 26 -15 2 -2 -4 -12 -14 -23 -12 -13
-31 -20 -57 -20 -46 0 -50 19 -10 49 33 25 27 24 55 9z m-173 -20 c0 -16 -3
-19 -11 -11 -6 6 -8 16 -5 22 11 17 16 13 16 -11z m1948 -56 c16 -48 28 -187
15 -179 -6 4 -13 24 -17 45 -3 21 -16 59 -30 83 -22 42 -22 48 -9 73 16 31 25
27 41 -22z m-1808 0 c0 -5 -14 -21 -32 -38 -22 -20 -29 -24 -25 -11 4 10 7 25
7 32 0 12 14 19 43 24 4 0 7 -3 7 -7z m2188 -37 c-25 -19 -62 -53 -83 -77 -32
-37 -34 -38 -14 -8 53 80 91 120 117 120 23 0 21 -3 -20 -35z m-2074 19 c28
-11 18 -21 -26 -28 -24 -4 -38 -10 -32 -14 6 -4 -14 -29 -50 -62 -40 -37 -53
-45 -39 -25 31 44 62 75 75 75 6 0 8 3 5 7 -7 7 31 53 44 53 4 0 14 -3 23 -6z
m464 -14 c28 -8 52 -17 52 -20 0 -4 -24 -1 -52 7 -64 17 -207 21 -303 10 -71
-9 -83 -2 -23 14 46 12 263 4 326 -11z m-788 -14 c0 -8 -9 -24 -20 -37 l-20
-24 17 38 c18 40 23 45 23 23z m2340 10 c0 -2 -8 -10 -17 -17 -16 -13 -17 -12
-4 4 13 16 21 21 21 13z m-1930 -10 c0 -3 -4 -8 -10 -11 -5 -3 -10 -1 -10 4 0
6 5 11 10 11 6 0 10 -2 10 -4z m-40 -15 c0 -5 -12 -13 -27 -19 -16 -5 -53 -26
-83 -47 -45 -30 -51 -32 -30 -11 23 25 116 85 133 86 4 0 7 -4 7 -9z m-702
-46 l3 -38 -35 29 c-41 35 -43 41 -13 47 36 7 42 2 45 -38z m50 -85 l12 -35
-20 23 c-10 13 -16 30 -13 38 7 18 7 18 21 -26z"/>
<path d="M1458 4513 c7 -3 16 -2 19 1 4 3 -2 6 -13 5 -11 0 -14 -3 -6 -6z"/>
<path d="M3418 4373 c7 -3 16 -2 19 1 4 3 -2 6 -13 5 -11 0 -14 -3 -6 -6z"/>
<path d="M2408 4563 c7 -3 16 -2 19 1 4 3 -2 6 -13 5 -11 0 -14 -3 -6 -6z"/>
<path d="M2718 4163 c7 -3 16 -2 19 1 4 3 -2 6 -13 5 -11 0 -14 -3 -6 -6z"/>
<path d="M8042 5187 c-66 -110 -149 -338 -167 -459 -5 -29 -12 -48 -20 -48
-10 0 -12 -13 -8 -54 3 -31 1 -61 -5 -72 -9 -15 -11 0 -12 69 0 52 4 86 9 82
5 -3 12 -1 16 5 3 5 -1 10 -11 10 -15 0 -16 10 -12 88 3 48 2 78 -3 67 -4 -11
-8 -36 -8 -55 -2 -78 -12 -104 -49 -128 -42 -28 -39 -31 -103 86 -22 39 -42
72 -45 72 -3 0 -2 -5 1 -10 4 -6 -31 27 -77 73 -80 80 -145 127 -198 141 -14
4 0 -7 30 -24 61 -34 134 -102 185 -171 31 -41 105 -165 105 -175 0 -2 -21 12
-47 32 -50 38 -142 87 -183 98 -14 3 -1 -5 29 -19 74 -35 181 -113 181 -132 0
-9 3 -13 7 -10 10 11 43 -24 43 -45 0 -27 -23 -17 -31 13 -4 13 -7 17 -8 9 -2
-26 -145 50 -202 106 -55 54 -70 55 -34 2 22 -33 23 -37 7 -41 -13 -4 -12 -5
5 -6 20 -1 63 -49 179 -205 l29 -40 -25 7 c-72 21 -84 18 -32 -7 57 -27 125
-76 118 -83 -3 -3 -18 4 -34 15 -59 43 -148 82 -220 98 -63 14 -92 15 -196 6
-112 -10 -225 -37 -249 -61 -4 -4 18 1 50 13 48 17 80 20 183 20 107 -1 136
-4 200 -27 l75 -25 -90 5 c-109 7 -111 -2 -3 -11 97 -8 182 -34 241 -75 50
-34 85 -80 52 -67 -52 20 -110 28 -159 22 -64 -8 -158 -52 -206 -96 l-35 -32
35 26 c45 34 117 71 154 80 58 14 154 8 201 -13 25 -11 45 -25 45 -31 0 -6 4
-9 9 -5 6 3 25 -7 43 -23 18 -16 39 -27 46 -25 6 3 12 0 12 -6 0 -8 7 -7 20 1
20 13 33 39 34 68 1 9 16 19 37 24 l35 9 -4 86 c-3 65 0 93 12 116 9 17 16 25
16 19 0 -6 22 -14 50 -16 33 -3 61 -14 85 -33 20 -15 38 -25 41 -22 10 10 -78
59 -116 64 -22 3 -43 10 -46 15 -13 21 75 86 154 114 21 7 30 13 21 14 -22 0
-87 -27 -121 -51 -38 -27 -45 -23 -17 9 13 15 5 10 -18 -12 -39 -36 -41 -37
-48 -17 -5 16 2 31 26 59 98 112 204 160 374 172 l110 7 -91 1 c-144 3 -271
-45 -366 -136 -21 -20 -38 -32 -38 -26 0 12 80 110 89 108 3 -1 5 2 3 7 -2 10
114 89 131 89 6 0 8 3 5 6 -10 9 -80 -32 -131 -76 -26 -23 -68 -69 -93 -101
-44 -58 -64 -67 -64 -29 0 37 32 115 62 154 26 32 27 36 9 26 -29 -15 -79 -94
-94 -147 -6 -24 -15 -43 -19 -43 -9 0 -4 42 23 193 24 130 65 261 114 357 20
40 35 74 33 76 -2 2 -18 -20 -36 -49z m-232 -514 c-1 -27 -1 -27 -15 -9 -14
19 -12 36 6 36 5 0 9 -12 9 -27z m-30 -40 l9 -38 -19 25 c-21 26 -24 42 -13
53 9 10 14 3 23 -40z m-164 -15 c46 -28 52 -36 72 -96 24 -75 33 -81 -89 57
-76 87 -73 94 17 39z m149 -18 c9 -16 13 -30 11 -30 -3 0 -12 14 -21 30 -9 17
-13 30 -11 30 3 0 12 -13 21 -30z m136 -85 c-8 -54 -9 -56 -10 -19 -1 45 11
118 16 94 2 -8 -1 -42 -6 -75z m61 45 c3 -3 1 -13 -6 -22 -11 -15 -13 -14 -13
12 0 17 3 27 6 23 3 -4 9 -10 13 -13z m32 -46 c3 -9 -3 -27 -14 -41 -17 -22
-20 -23 -20 -7 1 52 21 81 34 48z m-31 -114 c-3 -12 -8 -19 -11 -16 -5 6 5 36
12 36 2 0 2 -9 -1 -20z m-192 -167 l24 -27 -24 15 c-14 9 -27 21 -29 27 -6 19
3 14 29 -15z"/>
<path d="M2058 5173 c6 -2 18 -2 25 0 6 3 1 5 -13 5 -14 0 -19 -2 -12 -5z"/>
<path d="M1058 4893 c7 -3 16 -2 19 1 4 3 -2 6 -13 5 -11 0 -14 -3 -6 -6z"/>
<path d="M8393 4863 c9 -2 23 -2 30 0 6 3 -1 5 -18 5 -16 0 -22 -2 -12 -5z"/>
<path d="M8318 4853 c7 -3 16 -2 19 1 4 3 -2 6 -13 5 -11 0 -14 -3 -6 -6z"/>
<path d="M8796 4817 l-36 -44 -85 -1 c-47 -1 -92 -5 -100 -10 -9 -4 27 -6 80
-4 l96 4 -65 -98 c-36 -55 -79 -127 -97 -162 -18 -34 -34 -61 -36 -59 -2 2 6
42 17 88 27 112 24 134 -4 34 -13 -44 -40 -134 -60 -199 l-38 -119 -17 39
c-22 49 -71 91 -116 100 -65 12 -205 -36 -275 -95 -14 -11 16 0 66 26 75 38
103 46 162 51 71 5 72 4 107 -31 19 -19 35 -44 35 -55 0 -12 -26 -47 -60 -80
-33 -33 -60 -65 -60 -71 0 -5 23 15 51 45 29 30 55 54 60 54 4 0 4 -14 -1 -31
-5 -18 -5 -40 0 -54 16 -42 76 -20 105 39 21 43 40 25 46 -44 l6 -65 1 73 c2
68 3 72 25 72 41 -1 112 -41 162 -93 27 -29 44 -44 36 -35 -12 16 -10 20 10
38 34 28 52 26 47 -5 -12 -58 42 -74 89 -27 33 34 34 39 2 22 -10 -6 -19 -8
-19 -5 0 12 76 87 101 101 27 14 29 13 43 -13 7 -16 13 -44 12 -63 -3 -48 20
-83 51 -75 13 3 23 1 23 -5 0 -6 5 -8 11 -4 6 3 8 15 5 27 -8 33 53 135 94
157 16 9 22 6 35 -19 24 -47 20 -61 -18 -61 -33 0 -107 -42 -107 -61 0 -6 16
3 35 20 27 24 45 31 76 31 l41 0 -3 -42 c-3 -30 1 -43 11 -46 8 -3 17 -8 20
-12 12 -17 48 -20 60 -5 7 8 16 12 21 9 5 -3 9 2 9 10 0 9 3 16 8 16 4 0 8 15
9 33 2 42 30 110 41 103 5 -3 7 6 4 19 -6 35 14 31 27 -5 9 -28 7 -34 -12 -31
-5 1 -6 -3 -3 -8 3 -5 -6 -29 -20 -54 -30 -54 -47 -107 -33 -107 5 0 12 12 15
28 4 15 16 45 28 67 l21 40 3 -31 c2 -21 10 -34 22 -37 20 -5 40 10 40 29 0 7
5 16 10 19 7 4 9 -2 4 -19 -4 -16 -2 -26 5 -26 6 0 11 11 11 24 0 25 35 76 52
76 7 0 9 -21 5 -61 -5 -58 -4 -61 21 -70 14 -5 33 -7 41 -3 9 4 19 7 23 6 4
-1 12 13 18 32 13 41 76 116 97 116 9 0 34 -19 57 -42 37 -40 39 -41 21 -10
-11 18 -31 40 -44 49 -30 19 -78 26 -86 13 -3 -6 -1 -10 5 -10 7 0 -1 -15 -18
-34 -17 -19 -33 -44 -37 -56 -4 -12 -9 -19 -11 -17 -8 8 22 71 40 86 10 8 13
17 7 20 -15 10 11 55 33 59 20 4 115 -23 160 -45 15 -8 26 -10 22 -5 -3 5 -19
15 -36 22 -42 18 -37 28 18 35 62 9 74 13 37 14 -17 1 -46 -4 -65 -9 -44 -13
-130 -3 -130 15 0 7 19 29 43 49 23 20 55 48 70 63 15 14 51 38 80 54 29 16
47 29 41 29 -20 0 -134 -75 -181 -120 -26 -25 -43 -38 -38 -30 66 116 189 232
290 273 22 9 33 16 25 16 -28 1 -135 -56 -192 -103 -31 -25 -62 -46 -68 -46
-6 0 -24 -7 -40 -15 -34 -18 -36 -14 -15 45 23 66 11 58 -16 -10 -25 -64 -70
-104 -116 -105 -12 -1 -31 -9 -43 -20 -30 -27 -34 -13 -10 34 11 23 18 41 15
41 -2 0 -14 -18 -25 -41 -21 -41 -22 -41 -43 -22 -19 16 -20 16 -8 0 17 -21
10 -30 -21 -25 -22 3 -21 6 23 51 25 25 44 49 42 51 -5 5 106 96 117 96 4 0
22 13 39 29 72 67 285 150 436 170 63 8 65 9 23 10 -138 3 -350 -73 -528 -191
-43 -29 -97 -64 -120 -78 -23 -14 -58 -41 -78 -60 -32 -31 -34 -32 -19 -7 10
15 15 27 12 27 -7 0 70 152 116 227 21 35 36 63 34 63 -8 0 -83 -117 -125
-195 -24 -44 -44 -81 -45 -82 0 -1 -23 4 -50 12 -26 8 -76 14 -109 14 l-61 -2
80 -7 c44 -4 92 -13 107 -18 l27 -11 -21 -48 c-33 -76 -32 -76 -99 -37 -32 19
-63 32 -68 29 -9 -5 -61 53 -61 68 0 3 8 8 18 11 12 3 11 4 -4 3 -15 -1 -48
23 -102 75 -63 60 -101 87 -174 121 -51 25 -118 50 -148 57 -99 21 -94 17 -67
53 52 70 47 79 -7 14z m147 -109 c116 -48 278 -176 318 -250 9 -16 5 -16 -28
5 -63 41 -108 50 -208 44 -134 -8 -152 10 -38 37 32 8 49 15 38 15 -12 1 -47
-6 -79 -14 -54 -14 -63 -14 -103 1 -24 9 -46 14 -49 11 -3 -3 8 -8 25 -12 46
-10 46 -21 -2 -40 -67 -27 -74 -28 -47 -6 l25 22 -27 -12 c-23 -10 -32 -8 -64
10 -20 12 -39 20 -41 17 -3 -2 9 -12 26 -21 36 -18 39 -30 11 -45 -11 -6 -45
-31 -75 -55 -45 -37 -53 -41 -45 -21 16 42 109 225 150 296 l40 68 61 -14 c33
-8 84 -24 112 -36z m-28 -207 c7 -12 -104 -63 -122 -57 -24 10 -13 27 30 46
46 21 82 25 92 11z m268 -25 c40 -16 117 -83 117 -100 0 -7 -11 -22 -23 -34
-23 -22 -24 -22 -48 -4 -38 30 -101 60 -144 68 -36 6 -114 59 -115 76 0 21
159 17 213 -6z m467 21 c0 -2 -15 -16 -32 -33 l-33 -29 29 33 c28 30 36 37 36
29z m-910 -27 c0 -5 -4 -10 -9 -10 -6 0 -41 -23 -78 -51 -37 -29 -59 -41 -48
-29 23 26 116 99 128 99 4 1 7 -3 7 -9z m234 -19 l28 -30 -38 -6 c-70 -11 -70
-13 -2 -14 63 -1 67 -2 86 -33 29 -46 13 -64 -33 -36 -20 11 -63 22 -102 26
-37 4 -68 12 -67 17 0 6 -6 17 -15 25 -13 13 -11 16 20 21 33 6 33 6 5 8 -38
1 -25 14 34 35 58 20 52 20 84 -13z m949 17 c-6 -7 -31 -41 -57 -75 -26 -35
-49 -63 -51 -63 -1 0 5 25 14 56 13 46 23 59 51 75 41 21 56 24 43 7z m-1143
-37 c0 -4 -30 -19 -66 -35 -36 -16 -71 -34 -78 -40 -52 -47 -64 -53 -26 -13
61 65 141 118 158 105 6 -6 12 -13 12 -17z m788 -31 c-22 -30 -35 -41 -22 -17
9 16 36 47 41 47 2 0 -6 -13 -19 -30z m247 3 c-4 -10 -14 -37 -22 -60 -8 -24
-17 -43 -19 -43 -10 0 3 89 15 104 18 21 35 21 26 -1z m-1001 -15 c21 -30 8
-40 -53 -41 -73 -1 -86 17 -30 42 56 26 64 26 83 -1z m335 -20 c55 -23 111
-65 110 -81 0 -8 -2 -8 -6 1 -3 8 -9 10 -16 4 -15 -12 -117 -23 -117 -13 0 4
-15 33 -34 64 l-35 57 27 -6 c15 -4 47 -15 71 -26z m226 16 c17 -18 17 -55 -1
-61 -8 -3 -44 56 -44 72 0 11 30 4 45 -11z m365 3 c0 -1 -13 -14 -29 -29 -24
-23 -30 -25 -35 -12 -3 8 -2 13 3 10 4 -3 16 3 26 14 15 17 35 27 35 17z
m-306 -38 c-6 -11 -24 -2 -24 11 0 5 7 7 15 4 8 -4 12 -10 9 -15z m-110 -11
c9 -36 8 -38 -24 -38 -34 0 -36 6 -14 38 19 28 30 28 38 0z m313 -8 c-6 -16
-18 -30 -27 -31 -8 0 -10 -3 -4 -5 13 -5 7 -44 -6 -44 -5 0 -11 8 -13 18 -3
10 -5 6 -6 -10 -1 -31 -15 -37 -25 -10 -3 9 -9 23 -12 30 -4 7 3 12 18 13 l23
2 -23 4 c-22 4 -22 5 -5 34 14 24 24 29 54 29 37 0 37 0 26 -30z m-1057 16 c0
-2 -8 -10 -17 -17 -16 -13 -17 -12 -4 4 13 16 21 21 21 13z m193 -34 c31 -16
57 -41 72 -66 14 -23 25 -35 25 -27 0 8 2 12 5 10 13 -13 -12 -53 -50 -78
l-43 -29 -33 34 c-39 40 -104 74 -142 74 -22 0 -27 5 -27 23 0 30 18 47 50 48
19 1 21 2 6 6 -18 5 -18 6 5 24 29 23 63 18 132 -19z m88 -18 c10 -27 16 -50
15 -51 -1 -2 -25 19 -54 47 -50 49 -51 49 -24 53 42 6 45 4 63 -49z m104 45
c47 -12 125 -71 112 -85 -12 -12 -42 11 -40 31 1 12 -2 14 -9 7 -8 -8 -19 -7
-37 2 -35 18 -103 37 -96 26 3 -4 20 -11 38 -14 19 -3 42 -13 53 -20 18 -13
16 -16 -31 -60 -27 -25 -49 -46 -50 -46 0 0 -2 12 -3 28 -2 37 -23 114 -35
130 -12 16 37 16 98 1z m505 -9 c0 -6 -6 -13 -14 -16 -8 -3 -12 -13 -9 -24 3
-10 -1 -21 -8 -25 -9 -6 -11 -2 -7 13 4 12 2 25 -3 28 -15 9 -10 22 9 27 29 8
32 7 32 -3z m200 -2 c0 -19 -18 -43 -25 -36 -9 9 4 48 16 48 5 0 9 -6 9 -12z
m65 -5 c-2 -10 -4 -21 -4 -25 -1 -5 -8 -8 -16 -8 -18 0 -20 21 -3 38 17 17 27
15 23 -5z m-651 -19 c9 -22 -3 -32 -14 -14 -12 19 -12 30 -1 30 5 0 12 -7 15
-16z m316 -4 c0 -5 -7 -10 -15 -10 -8 0 -15 5 -15 10 0 6 7 10 15 10 8 0 15
-4 15 -10z m-60 -20 c0 -5 -5 -10 -11 -10 -5 0 -7 5 -4 10 3 6 8 10 11 10 2 0
4 -4 4 -10z m390 -14 c0 -8 -4 -18 -10 -21 -5 -3 -10 3 -10 14 0 12 5 21 10
21 6 0 10 -6 10 -14z m-695 -26 c-7 -11 -65 -40 -65 -33 0 3 10 17 23 33 15
19 26 25 34 18 7 -6 10 -14 8 -18z m154 -11 l-32 -41 -14 32 c-7 18 -13 34
-13 35 0 5 38 12 68 14 23 1 23 0 -9 -40z m66 21 c-10 -11 -23 -20 -28 -20 -6
0 -2 9 8 20 10 11 23 20 28 20 6 0 2 -9 -8 -20z m445 -1 c0 -6 -4 -7 -10 -4
-5 3 -10 11 -10 16 0 6 5 7 10 4 6 -3 10 -11 10 -16z m-365 1 c-3 -5 -1 -10 4
-10 6 0 11 -18 11 -41 0 -46 -15 -44 -25 4 -4 17 -12 38 -17 45 -8 9 -5 12 11
12 12 0 19 -4 16 -10z m316 -63 l-33 -32 6 30 c4 17 15 41 23 55 l16 24 10
-22 c9 -20 6 -28 -22 -55z m-1091 43 c0 -5 -5 -10 -11 -10 -5 0 -7 5 -4 10 3
6 8 10 11 10 2 0 4 -4 4 -10z m545 -21 c10 -42 0 -46 -19 -8 -19 39 -19 39 -2
39 8 0 17 -14 21 -31z"/>
<path d="M8758 4563 c7 -3 16 -2 19 1 4 3 -2 6 -13 5 -11 0 -14 -3 -6 -6z"/>
<path d="M9063 4563 c9 -2 23 -2 30 0 6 3 -1 5 -18 5 -16 0 -22 -2 -12 -5z"/>
<path d="M9178 4413 c6 -2 18 -2 25 0 6 3 1 5 -13 5 -14 0 -19 -2 -12 -5z"/>
<path d="M8868 4393 c7 -3 16 -2 19 1 4 3 -2 6 -13 5 -11 0 -14 -3 -6 -6z"/>
<path d="M8688 4323 c7 -3 16 -2 19 1 4 3 -2 6 -13 5 -11 0 -14 -3 -6 -6z"/>
<path d="M8763 4289 c26 -17 58 -50 72 -72 14 -23 25 -36 25 -29 0 24 -45 80
-86 106 -58 37 -67 33 -11 -5z"/>
<path d="M8518 4763 c6 -2 18 -2 25 0 6 3 1 5 -13 5 -14 0 -19 -2 -12 -5z"/>
<path d="M4154 4738 l-19 -23 23 19 c21 18 27 26 19 26 -2 0 -12 -10 -23 -22z"/>
<path d="M5128 4753 c12 -2 30 -2 40 0 9 3 -1 5 -23 4 -22 0 -30 -2 -17 -4z"/>
<path d="M7343 4703 c15 -2 37 -2 50 0 12 2 0 4 -28 4 -27 0 -38 -2 -22 -4z"/>
<path d="M8233 4619 c-11 -5 2 -8 35 -8 28 -1 52 1 52 3 0 8 -69 12 -87 5z"/>
<path d="M8095 4600 c-3 -6 1 -7 9 -4 18 7 21 14 7 14 -6 0 -13 -4 -16 -10z"/>
<path d="M9858 4583 c23 -2 61 -2 85 0 23 2 4 4 -43 4 -47 0 -66 -2 -42 -4z"/>
<path d="M10120 4510 c-8 -5 -10 -10 -5 -10 6 0 17 5 25 10 8 5 11 10 5 10 -5
0 -17 -5 -25 -10z"/>
<path d="M9895 4250 c-3 -5 -2 -10 4 -10 5 0 13 5 16 10 3 6 2 10 -4 10 -5 0
-13 -4 -16 -10z"/>
<path d="M7299 4123 c-13 -16 -12 -17 4 -4 9 7 17 15 17 17 0 8 -8 3 -21 -13z"/>
<path d="M9018 4131 c43 -11 46 -15 32 -43 -11 -22 -11 -22 9 2 24 29 26 36 9
38 -7 1 -29 4 -48 7 l-35 4 33 -8z"/>
<path d="M5085 4110 c27 -12 43 -12 25 0 -8 5 -22 9 -30 9 -10 0 -8 -3 5 -9z"/>
<path d="M4568 4103 c6 -2 18 -2 25 0 6 3 1 5 -13 5 -14 0 -19 -2 -12 -5z"/>
<path d="M5140 4090 c8 -5 20 -10 25 -10 6 0 3 5 -5 10 -8 5 -19 10 -25 10 -5
0 -3 -5 5 -10z"/>
<path d="M5622 3883 c102 -110 200 -294 214 -402 2 -20 7 -45 10 -56 4 -13 -4
-8 -23 15 -69 86 -161 151 -233 164 -27 5 -22 1 23 -18 70 -29 130 -73 121
-88 -4 -6 -3 -8 3 -5 6 4 17 -1 24 -10 10 -12 10 -14 2 -9 -18 10 -16 3 8 -41
l21 -38 -21 25 c-48 56 -63 80 -49 80 8 1 5 6 -7 16 -11 8 -25 12 -32 10 -6
-3 -13 -2 -15 2 -5 12 -123 62 -159 67 -19 3 -5 -4 31 -16 57 -20 62 -23 40
-30 -22 -6 -21 -7 11 -8 42 -1 103 -42 145 -96 36 -48 22 -64 -37 -41 -23 9
-43 15 -46 12 -2 -2 12 -9 31 -16 20 -6 36 -16 36 -22 0 -6 -7 -8 -15 -4 -8 3
5 -14 29 -37 33 -32 48 -57 61 -100 9 -32 15 -67 12 -78 -6 -23 4 -30 45 -31
18 -1 39 -7 46 -15 34 -33 59 -27 115 30 52 51 92 72 172 90 19 4 19 5 -1 6
-35 2 -106 -28 -148 -61 -58 -47 -29 -4 48 70 36 34 87 72 113 84 26 12 53 27
58 34 17 22 115 44 199 45 l81 2 -53 10 c-65 12 -182 -8 -269 -47 l-58 -26 49
45 c59 53 144 99 217 119 33 9 44 15 28 15 -74 2 -224 -74 -331 -169 -61 -54
-62 -54 -30 -13 32 41 76 83 122 116 25 17 25 17 -6 3 -18 -9 -46 -28 -64 -43
-39 -33 -39 -31 24 85 44 81 53 91 89 103 22 7 35 15 28 17 -15 5 -110 -40
-166 -78 -41 -28 -45 -29 -45 -11 0 25 32 56 90 86 25 13 41 24 36 25 -5 0
-33 -14 -63 -30 -46 -26 -53 -28 -54 -13 -1 12 -4 9 -9 -7 l-7 -25 -7 26 c-13
47 67 184 137 237 17 12 27 22 23 22 -10 0 -96 -62 -96 -69 0 -3 -16 -23 -35
-44 -40 -44 -49 -59 -69 -119 -9 -24 -28 -67 -44 -96 l-29 -52 -12 40 c-7 23
-19 44 -27 47 -8 3 -14 10 -14 17 0 6 -12 34 -25 61 -14 28 -23 41 -19 30 30
-93 34 -113 29 -134 -5 -21 -11 -14 -39 50 -55 126 -156 266 -238 330 -37 28
-33 23 24 -38z m410 -335 c-8 -8 -9 -4 -5 13 4 13 8 18 11 10 2 -7 -1 -18 -6
-23z m78 -63 c-28 -41 -52 -75 -54 -75 -2 0 0 19 4 42 6 32 18 51 47 75 21 18
42 33 46 33 4 0 -15 -34 -43 -75z m-70 27 c0 -20 -26 -60 -33 -52 -6 6 19 70
28 70 3 0 5 -8 5 -18z m-335 -2 c3 -5 2 -10 -4 -10 -5 0 -13 5 -16 10 -3 6 -2
10 4 10 5 0 13 -4 16 -10z m195 -16 c0 -8 -4 -14 -10 -14 -5 0 -10 9 -10 21 0
11 5 17 10 14 6 -3 10 -13 10 -21z m109 -105 c-8 -29 -14 -38 -17 -26 -4 19
17 81 25 73 2 -2 -1 -24 -8 -47z m-227 -11 c0 -7 2 -18 2 -24 1 -6 7 -18 13
-26 7 -8 15 -34 18 -58 l6 -45 -21 40 c-11 22 -34 54 -51 71 -17 18 -26 34
-21 38 5 3 15 -1 22 -9 7 -8 18 -15 24 -15 6 0 3 7 -6 14 -22 16 -23 26 -3 26
8 0 16 -6 17 -12z m65 -60 c-3 -8 -6 -5 -6 6 -1 11 2 17 5 13 3 -3 4 -12 1
-19z"/>
<path d="M2190 3766 c0 -2 7 -7 16 -10 8 -3 12 -2 9 4 -6 10 -25 14 -25 6z"/>
<path d="M6308 3633 c7 -3 16 -2 19 1 4 3 -2 6 -13 5 -11 0 -14 -3 -6 -6z"/>
<path d="M5381 3609 c-24 -5 -47 -11 -50 -15 -3 -4 5 -4 19 -1 14 4 44 7 68 7
23 0 42 5 42 10 0 11 -17 11 -79 -1z"/>
<path d="M5503 3613 c9 -2 25 -2 35 0 9 3 1 5 -18 5 -19 0 -27 -2 -17 -5z"/>
<path d="M5510 3530 c-18 -12 -2 -12 25 0 13 6 15 9 5 9 -8 0 -22 -4 -30 -9z"/>
<path d="M5578 3423 c12 -2 30 -2 40 0 9 3 -1 5 -23 4 -22 0 -30 -2 -17 -4z"/>
<path d="M5568 3403 c6 -2 18 -2 25 0 6 3 1 5 -13 5 -14 0 -19 -2 -12 -5z"/>
<path d="M6555 3400 c27 -12 43 -12 25 0 -8 5 -22 9 -30 9 -10 0 -8 -3 5 -9z"/>
<path d="M5638 3393 c7 -3 16 -2 19 1 4 3 -2 6 -13 5 -11 0 -14 -3 -6 -6z"/>
<path d="M7770 3368 c0 -3 12 -31 26 -62 31 -69 77 -224 94 -323 13 -71 13
-73 -10 -91 -14 -11 -24 -31 -25 -53 l-3 -34 19 38 c24 45 35 47 43 6 9 -44 8
-47 -11 -52 -17 -4 -17 -5 -1 -6 21 -1 25 -17 37 -141 7 -69 6 -97 -3 -102 -7
-5 -14 3 -20 20 -5 15 -21 58 -37 95 -16 38 -26 74 -22 80 3 7 3 9 -2 5 -5 -5
-17 6 -27 23 -18 30 -18 32 -1 53 17 20 17 21 -2 4 -18 -17 -21 -15 -72 41
-53 59 -138 112 -177 110 -12 0 0 -7 26 -15 50 -15 152 -100 177 -147 13 -24
10 -33 -33 -116 -26 -50 -60 -132 -76 -183 l-30 -93 6 60 c4 33 10 70 15 81 4
12 4 25 -1 30 -5 5 -10 18 -13 29 -2 11 -4 8 -2 -7 1 -15 -2 -29 -6 -30 -5 -2
-12 -41 -16 -88 l-7 -85 -8 55 c-4 30 -13 85 -18 123 -12 79 -36 143 -56 151
-11 4 -11 1 2 -19 22 -34 43 -165 43 -265 l0 -85 -18 63 c-10 35 -27 79 -37
98 -17 31 -17 36 -4 45 13 9 13 10 -1 6 -10 -3 -29 8 -50 30 -38 39 -79 63
-106 63 -10 -1 -1 -7 20 -15 39 -13 82 -47 98 -76 6 -13 -2 -24 -39 -50 -26
-19 -51 -34 -57 -34 -5 0 -20 -19 -33 -42 -13 -24 -27 -43 -30 -43 -4 0 -6 26
-5 57 3 70 -3 60 -13 -22 l-7 -60 -11 55 c-14 65 -35 107 -67 135 -20 18 -20
16 4 -15 30 -41 51 -121 41 -163 l-6 -29 -17 29 c-10 15 -26 35 -37 43 -15 11
-14 9 3 -10 29 -34 43 -73 43 -124 0 -33 4 -45 18 -48 25 -7 41 1 53 25 10 21
10 21 -5 3 -25 -31 -19 -9 15 54 37 70 68 101 134 135 28 14 44 25 37 25 -18
0 -70 -27 -112 -58 -19 -14 -29 -19 -22 -10 7 8 11 22 9 29 -2 8 -2 11 1 6 2
-4 27 13 54 38 28 25 56 44 62 42 11 -4 49 -94 60 -142 l6 -30 -16 30 c-20 36
-44 65 -55 65 -4 0 3 -11 16 -24 33 -33 55 -115 62 -228 6 -102 15 -118 57
-102 14 5 16 15 11 58 -8 65 27 250 52 279 10 11 12 17 6 13 -18 -10 -16 -3 8
55 12 27 28 49 35 49 8 0 14 -4 14 -10 0 -5 6 -10 13 -10 13 0 41 -26 78 -70
47 -56 94 -191 105 -300 12 -128 14 -138 34 -143 11 -3 29 -3 40 0 17 5 20 14
20 68 0 34 3 110 7 168 5 88 9 107 22 108 10 0 12 2 4 6 -14 5 -16 46 -6 106
6 37 7 39 36 33 47 -10 134 -52 180 -88 l41 -33 -44 -7 c-25 -4 -74 -5 -110
-3 -58 4 -60 3 -20 -4 85 -16 126 -31 173 -62 47 -31 98 -93 117 -144 8 -22
14 -25 33 -19 12 5 36 7 52 5 59 -7 97 -4 105 8 4 7 10 40 14 72 6 63 40 144
56 134 6 -4 10 1 10 9 0 21 65 71 112 85 53 16 59 7 11 -17 -55 -29 -118 -99
-146 -162 -29 -63 -44 -136 -28 -125 6 3 11 17 11 30 0 48 41 134 88 184 56
59 149 106 190 96 61 -14 66 -14 37 0 -26 12 -27 14 -8 15 39 0 192 -64 180
-76 -5 -5 -101 26 -111 36 -6 6 -15 10 -20 10 -6 0 -2 -6 9 -13 19 -11 17 -12
-15 -18 -29 -5 -26 -7 25 -8 72 -3 109 -16 167 -57 42 -30 99 -113 113 -164 6
-23 5 -23 -13 5 -11 17 -32 41 -48 55 -22 19 -20 15 9 -19 20 -24 41 -59 48
-78 10 -32 13 -34 52 -31 l42 3 6 85 c3 52 13 98 24 120 l18 34 24 -29 c14
-17 22 -23 18 -15 -5 8 -15 23 -23 32 -14 16 -9 38 8 38 4 0 15 -21 24 -47 19
-56 19 -56 4 -47 -8 5 -9 2 -4 -12 16 -37 24 -84 15 -84 -5 0 -9 -20 -9 -44 0
-37 4 -45 23 -50 41 -11 50 -7 43 17 -10 43 57 137 144 200 20 14 21 16 3 7
-29 -13 -36 -13 -27 3 5 8 3 8 -9 -2 -9 -7 -15 -17 -12 -21 6 -9 -12 -24 -38
-33 -13 -5 -17 -3 -15 5 3 7 10 13 15 13 6 0 15 4 20 9 5 5 3 6 -4 2 -20 -11
-15 4 13 41 14 18 33 33 42 33 13 0 14 2 4 9 -11 6 -6 14 17 31 30 20 33 21
56 6 28 -18 48 -50 37 -61 -4 -3 -1 -5 7 -3 9 2 30 -21 52 -57 41 -65 52 -98
16 -50 -34 47 -89 95 -126 111 -19 8 -36 12 -38 10 -3 -2 5 -7 18 -11 17 -6
19 -9 8 -17 -10 -7 -8 -8 7 -3 31 8 99 -62 136 -140 16 -35 34 -94 39 -132 5
-37 13 -70 17 -74 4 -3 21 -9 39 -12 45 -9 63 12 63 72 0 96 60 269 118 341
l20 24 11 -39 c23 -84 16 -112 -43 -176 -56 -60 -97 -145 -95 -197 0 -17 7 -2
18 38 9 36 23 76 30 88 17 31 81 102 92 102 25 0 -5 -138 -51 -239 -34 -73
-36 -81 -14 -81 9 0 18 -9 21 -19 3 -11 18 -24 34 -30 28 -10 30 -8 90 79 33
49 90 116 125 150 62 58 156 120 182 120 9 0 12 -24 12 -89 l0 -88 -63 -6
c-104 -10 -172 -41 -246 -113 -36 -35 -62 -66 -59 -70 4 -3 35 23 70 59 48 48
77 69 123 86 71 27 172 34 167 12 -2 -8 -5 -41 -7 -75 -9 -140 -89 -383 -181
-553 l-45 -83 30 0 c32 0 39 -8 21 -26 -7 -7 2 -17 31 -30 24 -10 50 -26 58
-35 38 -39 55 -33 99 35 85 130 221 224 338 234 l61 4 21 -58 c12 -33 24 -72
27 -89 5 -25 2 -22 -22 19 -15 27 -39 56 -53 65 -21 13 -20 10 7 -17 17 -17
37 -49 45 -69 17 -51 15 -169 -5 -215 -15 -35 -15 -37 6 -51 50 -31 54 -30 89
40 45 91 114 163 156 163 62 0 71 -76 26 -214 -19 -59 -67 -158 -97 -200 -11
-16 -16 -31 -10 -35 5 -3 30 -21 56 -39 l47 -33 62 64 c35 35 83 73 108 85 48
23 141 44 162 38 7 -3 29 -7 48 -10 26 -4 31 -3 18 4 -37 22 -131 23 -193 2
-74 -25 -85 -20 -19 9 90 39 237 38 247 -1 3 -11 0 -20 -6 -20 -8 0 -7 -3 1
-9 27 -17 -19 -235 -73 -341 l-24 -48 24 -16 c35 -23 53 -20 70 14 9 16 13 30
10 30 -4 0 4 18 16 40 27 48 47 54 22 8 -9 -18 -16 -36 -15 -41 3 -9 -64 -143
-89 -179 -23 -32 -24 -38 -3 -38 14 0 14 -2 3 -16 -11 -14 -10 -18 6 -30 11
-7 28 -21 38 -30 17 -17 20 -16 65 28 56 55 80 68 122 68 71 0 132 -55 173
-155 9 -22 16 -33 16 -25 1 30 -47 116 -82 147 -41 36 -88 48 -150 40 -39 -5
-41 -5 -22 9 33 25 116 65 139 68 12 1 27 5 34 9 40 25 191 15 277 -18 13 -5
17 -5 10 2 -24 24 -112 43 -201 43 -72 0 -92 3 -90 14 4 28 38 47 117 68 70
17 102 19 208 15 69 -3 140 -8 156 -11 17 -3 8 1 -19 8 -117 34 -293 28 -404
-14 -57 -22 -72 -24 -72 -12 0 12 150 90 227 117 37 13 60 24 51 25 -25 0
-154 -48 -232 -87 -37 -19 -70 -32 -73 -29 -8 8 104 122 202 204 102 85 209
157 248 167 15 4 27 11 27 15 0 22 -124 -32 -222 -96 -68 -45 -77 -48 -133
-46 -38 1 -80 -5 -112 -16 -29 -11 -53 -15 -53 -11 0 14 69 61 127 86 32 13
45 22 28 18 -16 -3 -56 -18 -87 -33 -56 -28 -57 -28 -64 -7 -6 17 -8 16 -11
-10 -2 -17 -12 -36 -22 -42 -17 -11 -19 -6 -20 75 -2 96 -14 180 -36 243 -8
23 -15 45 -15 50 0 7 48 19 150 38 29 6 36 9 19 10 -15 1 -62 -6 -105 -15 -48
-10 -79 -13 -81 -7 -2 6 -11 19 -19 29 -16 20 -16 13 2 -31 4 -9 -1 -17 -12
-21 -11 -4 -59 -24 -108 -45 -49 -22 -91 -37 -93 -35 -7 6 81 56 145 82 32 13
49 24 39 24 -9 0 -45 -11 -79 -25 -57 -23 -60 -24 -42 -4 32 35 161 92 200 87
21 -2 30 0 25 5 -15 15 -105 9 -153 -10 -24 -9 -67 -32 -97 -51 l-54 -34 34
43 c66 83 141 151 162 145 19 -5 19 -4 4 11 -15 15 -19 16 -49 1 -18 -8 -53
-32 -76 -52 -51 -42 -60 -45 -40 -13 8 12 23 35 33 50 10 15 16 29 14 32 -2 2
-37 -43 -77 -101 -73 -104 -203 -266 -209 -261 -1 2 2 19 8 38 6 19 12 93 13
166 1 73 5 135 8 138 3 3 34 10 69 14 59 8 60 9 19 10 -25 0 -60 -3 -78 -8
-30 -9 -46 1 -19 12 109 47 169 77 157 77 -8 0 -50 -15 -92 -34 l-78 -34 -34
72 c-20 40 -53 91 -76 114 l-40 42 38 0 c43 0 169 -33 216 -57 17 -8 51 -32
75 -51 39 -32 42 -37 25 -44 -12 -5 -4 -6 20 -3 44 6 61 15 28 15 -12 0 -46
19 -75 43 -29 23 -76 53 -106 65 -59 26 -168 52 -219 52 -18 0 -43 5 -54 11
-11 6 -18 7 -14 1 3 -5 -17 -12 -47 -16 -28 -4 -79 -14 -112 -23 -53 -14 -64
-14 -95 -1 l-34 14 64 52 c80 64 142 96 240 122 65 18 44 21 -30 5 -14 -3 1 8
33 25 58 31 77 32 77 4 0 -8 9 -14 23 -13 15 1 17 3 6 6 -24 6 -31 40 -10 48
71 30 193 67 281 87 94 21 130 23 340 23 234 0 245 7 35 20 -178 11 -383 -17
-573 -81 -97 -32 -104 -33 -128 -18 -13 9 -24 18 -24 20 0 7 91 56 151 80 35
14 69 30 74 35 15 15 -131 -39 -197 -72 -41 -21 -72 -29 -109 -29 -34 0 -67
-8 -100 -25 -27 -13 -49 -22 -49 -20 0 3 46 62 102 132 172 215 344 374 421
390 45 9 32 26 -15 19 -98 -16 -286 -158 -453 -343 -158 -174 -152 -171 -98
-55 34 75 51 101 61 97 12 -4 13 -3 3 9 -7 8 -9 20 -5 27 4 7 2 10 -7 7 -8 -3
-38 8 -67 25 -29 16 -55 28 -57 25 -2 -2 21 -16 51 -32 30 -16 54 -33 54 -39
0 -16 -121 -228 -129 -225 -3 2 -30 19 -58 37 -48 31 -53 38 -53 70 0 20 -9
56 -20 80 -11 24 -20 61 -20 84 l0 40 83 -6 c78 -5 80 -5 43 8 -24 8 -58 11
-88 8 -44 -5 -48 -4 -48 15 0 15 13 28 41 43 74 37 242 87 339 99 151 19 186
28 90 23 -124 -7 -271 -39 -381 -82 l-97 -38 -19 68 -20 67 26 26 c14 14 21
26 14 26 -6 0 -16 -7 -23 -15 -19 -23 -26 -19 -45 33 -10 26 -31 65 -46 88
-24 35 -28 52 -30 119 -2 73 -1 78 22 91 13 7 20 13 16 14 -5 0 -17 -5 -27
-10 -15 -8 -21 -6 -29 7 -9 16 -10 15 -11 -7 0 -17 -10 -30 -31 -43 -31 -17
-31 -17 -67 11 -48 37 -113 74 -119 68 -3 -2 12 -14 34 -25 21 -11 54 -34 73
-51 34 -29 35 -30 15 -45 -11 -9 -55 -50 -97 -91 l-76 -76 -23 43 c-56 111
-148 213 -247 272 -33 21 -64 37 -68 37 -5 0 16 -15 46 -32 85 -50 178 -151
230 -250 40 -78 43 -88 32 -113 -13 -27 -13 -27 -34 -9 -22 19 -22 19 -6 -4
15 -23 14 -28 -24 -100 -45 -84 -59 -105 -53 -76 13 57 46 185 51 198 3 9 2
16 -3 16 -5 0 -10 -6 -10 -12 0 -11 -38 -142 -63 -218 -5 -16 -9 25 -11 115
-2 127 -3 133 -9 65 -4 -41 -8 -109 -9 -151 0 -42 -4 -79 -8 -82 -3 -4 -15 25
-25 65 -37 148 -92 253 -166 320 -47 42 -82 55 -109 39 -15 -10 -14 -10 9 -5
90 20 191 -166 233 -431 6 -39 6 -39 -36 30 -23 39 -62 90 -86 115 -38 41 -41
46 -26 58 9 6 12 12 7 12 -6 0 -15 -5 -21 -11 -9 -9 -19 -6 -40 8 -41 30 -122
69 -171 84 l-42 12 22 25 c13 13 47 38 76 54 28 16 52 32 52 35 0 9 -89 -45
-128 -78 -37 -30 -43 -32 -118 -32 -43 1 -67 -1 -53 -4 l27 -4 -19 -59 c-10
-33 -22 -83 -26 -112 l-8 -53 -6 60 c-9 81 -10 225 -3 264 6 29 10 32 33 27
l26 -5 -25 11 c-14 7 -26 12 -27 13 -1 0 2 17 6 38 5 20 5 35 1 32 -5 -3 -11
-19 -15 -35 -6 -29 -8 -30 -43 -23 -21 4 -89 8 -152 8 -123 -1 -183 -14 -269
-61 -45 -25 -77 -31 -66 -14 4 6 11 7 17 4 6 -4 8 -2 5 3 -22 35 162 174 303
229 32 13 32 14 5 9 -41 -8 -145 -57 -202 -96 -27 -18 -81 -66 -122 -108 -67
-68 -71 -71 -40 -27 46 65 139 150 205 188 67 37 71 47 7 14 -75 -39 -155
-107 -232 -200 -39 -47 -76 -88 -82 -92 -15 -9 -5 34 32 144 16 47 27 87 25
89 -5 5 -57 -131 -85 -219 -11 -38 -27 -80 -34 -94 -13 -26 -15 -23 -25 56 -5
45 -16 87 -23 94 -9 8 -10 7 -5 -8 7 -21 -14 -156 -25 -156 -3 0 -23 68 -44
151 -42 173 -41 199 22 293 28 41 30 46 9 26 -14 -14 -38 -49 -54 -79 l-30
-53 -17 52 c-24 72 -28 57 -5 -18 16 -55 17 -66 4 -90 -8 -15 -14 -43 -14 -62
l-1 -35 -56 65 c-31 36 -85 93 -121 127 l-64 62 35 58 c36 58 75 101 112 121
11 6 15 12 9 12 -24 0 -93 -61 -129 -116 -21 -33 -39 -60 -40 -62 -2 -2 -20 9
-41 23 -46 31 -169 91 -204 100 -14 3 4 -8 40 -25 89 -43 190 -109 190 -127 0
-11 -4 -11 -21 -3 -11 7 -24 9 -27 5 -3 -3 4 -8 16 -12 27 -7 27 -4 -3 -83
-25 -65 -25 -65 -20 -20 l5 45 -13 -37 -12 -38 -42 28 c-39 25 -43 31 -44 72
l-2 45 -6 -43 c-6 -39 -8 -42 -24 -30 -12 9 -27 50 -43 118 -34 145 -94 313
-129 363 -8 12 -15 19 -15 15z m430 -458 c0 -5 26 -35 58 -67 32 -32 64 -67
70 -79 10 -20 8 -21 -39 -22 -27 0 -68 7 -92 17 -23 10 -50 21 -59 24 -16 6
-16 10 4 67 15 46 24 60 36 55 12 -4 13 -3 2 10 -11 13 -10 14 4 9 9 -3 16
-10 16 -14z m-220 -75 c0 -8 0 -18 1 -22 1 -16 -19 -13 -24 4 -2 10 -8 26 -12
37 -7 16 -6 17 13 7 12 -7 22 -18 22 -26z m60 -30 c0 -3 -9 -5 -20 -5 -11 0
-20 7 -20 15 0 13 4 14 20 5 11 -6 20 -13 20 -15z m2453 -23 l-6 -43 -23 22
c-13 12 -24 25 -24 28 0 6 53 41 57 38 1 -1 -1 -22 -4 -45z m-2503 -44 c0 -62
-5 -60 -14 5 -5 31 -4 47 3 47 7 0 11 -22 11 -52z m75 42 c4 -6 1 -43 -5 -83
-14 -90 -19 -107 -30 -107 -9 0 -13 24 -25 143 l-6 57 30 0 c16 0 33 -5 36
-10z m2372 -17 c43 -55 44 -59 32 -107 -8 -31 -17 -46 -28 -46 -12 0 -13 -2
-3 -8 14 -9 -1 -59 -58 -194 -26 -62 -37 -78 -54 -79 -17 0 -18 -2 -5 -7 15
-6 13 -15 -16 -72 l-34 -65 6 60 c3 33 11 63 17 67 8 6 8 8 0 8 -6 0 -14 30
-19 68 -14 124 -14 123 30 154 22 15 57 33 78 39 20 7 35 14 33 17 -9 8 -99
-28 -131 -53 l-33 -25 -11 32 c-10 27 -8 35 16 67 27 35 153 161 161 161 3 0
11 -8 19 -17z m-2606 -35 c25 -49 63 -150 73 -193 7 -30 7 -30 -19 8 -14 20
-27 37 -30 37 -2 0 -11 3 -20 6 -9 4 -2 -8 16 -26 26 -25 30 -34 18 -41 -11
-7 -11 -9 3 -9 16 0 36 -43 58 -125 17 -68 11 -63 -35 31 -27 57 -58 104 -81
124 -30 26 -34 34 -23 42 11 8 10 8 -5 4 -10 -4 -27 -4 -37 -1 -24 8 -10 49
39 106 20 24 26 35 13 24 -13 -11 -37 -38 -52 -59 -16 -21 -29 -36 -29 -32 0
16 71 146 80 146 5 0 19 -19 31 -42z m354 23 c40 -18 40 -18 16 -30 -21 -12
-27 -10 -55 18 -35 36 -22 40 39 12z m305 -105 c0 -5 -9 -1 -20 9 -21 19 -25
51 -13 95 6 21 9 15 20 -35 6 -33 12 -64 13 -69z m833 99 c16 -7 17 -15 10
-74 -4 -36 -7 -128 -7 -203 1 -76 0 -138 -1 -138 -1 0 -19 25 -40 55 -21 31
-54 68 -74 84 -63 48 -68 46 -11 -6 30 -28 63 -65 74 -83 17 -29 13 -28 -45
20 -35 29 -97 68 -138 87 -71 34 -78 35 -160 30 -96 -6 -125 -15 -187 -57 -55
-37 -62 -22 -25 57 28 59 109 143 138 143 18 0 90 -37 98 -50 3 -5 16 -15 28
-21 l22 -12 -20 23 c-11 12 -42 35 -68 50 l-49 28 54 24 c46 22 73 31 163 52
28 7 216 -1 238 -9z m-1072 -162 c26 -37 28 -45 13 -38 -39 16 -119 35 -151
35 -36 0 -37 3 -23 70 24 106 15 102 75 38 30 -32 68 -79 86 -105z m86 125
c32 -27 34 -28 14 -5 -14 15 -20 27 -14 27 13 0 34 -24 37 -43 1 -8 7 -21 12
-28 30 -39 20 -36 -37 10 -35 28 -68 51 -73 51 -6 0 -4 5 4 10 19 13 14 15 57
-22z m-24 -26 c24 -17 58 -47 75 -67 26 -29 32 -44 32 -83 l0 -47 -28 41 c-42
64 -133 184 -139 184 -3 0 3 -12 12 -27 42 -63 54 -89 47 -100 -5 -8 -27 10
-65 54 -41 48 -53 69 -44 75 20 13 63 2 110 -30z m2206 -61 c-15 -5 -22 6 -14
19 6 9 10 9 16 -1 5 -8 4 -15 -2 -18z m32 -55 c37 -84 36 -94 -23 -163 -36
-42 -61 -62 -78 -64 -17 -1 -20 -3 -7 -6 14 -4 11 -13 -25 -58 -23 -30 -44
-53 -45 -51 -2 2 7 27 21 57 23 53 73 202 95 287 15 55 37 54 62 -2z m-1041
28 c0 -3 -11 -20 -24 -37 -32 -41 -86 -156 -86 -182 0 -11 -5 -27 -11 -35 -8
-12 -9 -10 -5 10 3 14 6 42 6 63 0 28 3 36 13 31 9 -6 9 -5 0 8 -7 8 -11 17
-9 19 3 3 7 17 10 32 3 16 10 44 16 63 11 31 15 34 51 34 21 0 39 -3 39 -6z
m104 -28 c35 -13 83 -37 106 -52 l41 -28 -52 -50 c-29 -28 -70 -78 -91 -110
l-38 -59 -1 44 c-1 24 -5 58 -10 74 -6 23 -7 18 -3 -21 2 -28 0 -62 -4 -74 -8
-20 -10 -17 -15 23 -8 55 -26 94 -67 140 l-29 34 35 51 c19 29 41 52 49 52 8
0 43 -11 79 -24z m-1392 -19 c18 -9 42 -18 53 -21 11 -3 25 -14 31 -23 5 -10
21 -36 34 -57 l24 -39 -55 43 c-60 48 -135 85 -191 95 -21 4 -38 12 -38 18 0
14 100 3 142 -16z m118 -7 c12 -23 12 -24 -3 -11 -10 7 -17 20 -17 29 0 18 3
16 20 -18z m1882 -15 c3 -14 2 -28 -2 -30 -13 -8 -31 21 -24 39 9 24 21 20 26
-9z m-2273 -22 c0 -35 -1 -36 -10 -14 -5 14 -7 31 -5 38 10 24 16 13 15 -24z
m2247 -19 c4 -12 -43 -70 -51 -62 -9 9 27 79 39 75 5 -2 11 -7 12 -13z m43
-37 c0 -21 -1 -21 -9 -2 -12 28 -12 37 0 30 6 -3 10 -16 9 -28z m-765 4 c15
-16 15 -19 1 -31 -13 -11 -19 -11 -31 2 -8 8 -12 22 -8 31 8 22 17 21 38 -2z
m-793 -44 c-10 -9 -11 -8 -5 6 3 10 9 15 12 12 3 -3 0 -11 -7 -18z m1924 -38
l7 -46 -47 -27 c-25 -15 -72 -48 -103 -73 -31 -25 -64 -51 -72 -57 -20 -15 58
94 132 186 35 42 66 73 70 70 3 -4 9 -28 13 -53z m-1160 41 c4 -6 0 -21 -8
-33 -7 -12 -17 -35 -21 -51 -13 -51 -16 -21 -5 37 11 55 21 68 34 47z m-1098
-44 c21 -19 47 -49 57 -68 l19 -33 -44 42 c-24 23 -63 51 -86 63 -24 12 -43
24 -43 26 0 2 13 4 30 4 20 0 42 -11 67 -34z m2258 -86 c-3 -5 -14 -10 -23
-10 -15 0 -15 2 -2 10 20 13 33 13 25 0z m184 -290 l42 -31 -28 -51 c-23 -41
-99 -116 -109 -106 -1 2 4 35 12 73 7 39 13 87 14 108 0 46 13 47 69 7z m422
-49 l23 -19 -71 -36 c-42 -21 -80 -33 -90 -30 -13 4 -15 3 -5 -4 11 -7 6 -14
-20 -30 -38 -23 -119 -62 -127 -62 -15 1 244 199 260 200 4 0 17 -8 30 -19z
m-471 -137 c-8 -8 -23 -20 -34 -26 -19 -10 -18 -8 3 16 26 27 53 37 31 10z
m150 -87 c0 -2 -15 -13 -32 -26 l-33 -22 28 25 c26 24 37 31 37 23z m353 -97
c41 -45 69 -95 88 -159 13 -43 12 -44 -16 -66 l-28 -23 -18 21 c-16 21 -16 23
13 64 35 52 28 56 -16 8 l-32 -36 -27 21 c-23 18 -27 29 -27 71 0 27 -7 66
-15 86 -18 42 -28 40 -17 -3 5 -16 7 -48 4 -72 -3 -34 -8 -42 -19 -37 -9 3
-36 10 -62 16 -32 8 -56 22 -78 48 -18 20 -32 39 -33 43 0 14 156 55 216 57
25 1 39 -8 67 -39z m-349 24 c23 -9 20 -21 -6 -30 -13 -4 -52 -24 -87 -45 -34
-22 -66 -39 -69 -39 -4 0 20 27 53 60 57 58 75 67 109 54z m80 -76 l25 -33
-77 -12 c-50 -8 -102 -24 -147 -47 l-70 -35 40 35 c37 34 181 124 197 124 3 0
18 -15 32 -32z m143 -83 l31 -13 -15 -69 c-9 -37 -21 -84 -28 -103 l-12 -34
-6 62 c-4 34 -18 89 -31 122 l-25 60 27 -6 c15 -4 41 -12 59 -19z m106 -71
c-3 -14 -65 -115 -69 -112 -2 3 6 54 22 126 4 22 6 23 27 9 12 -8 21 -18 20
-23z m47 -45 c0 -8 -89 -99 -96 -99 -1 0 14 29 33 65 29 51 39 62 50 54 7 -6
13 -15 13 -20z m80 -44 c0 -42 -4 -43 -26 -9 -15 22 -15 27 -3 35 24 15 29 10
29 -26z m-46 -3 c2 -4 -4 -8 -14 -8 -10 0 -16 4 -14 8 3 4 9 8 14 8 5 0 11 -4
14 -8z m506 -131 c0 -5 -6 -12 -12 -14 -8 -3 -7 -6 4 -6 21 -1 25 -15 38 -116
12 -91 4 -189 -14 -178 -8 5 -8 3 1 -8 16 -20 5 -63 -23 -90 -29 -27 -30 -20
-3 60 20 63 23 140 4 131 -5 -3 -9 -9 -7 -14 2 -5 0 -16 -4 -25 -4 -9 -8 -22
-10 -29 -7 -36 -14 -20 -11 27 4 73 -13 82 -153 84 -59 1 -88 -5 -138 -25 -72
-30 -68 -19 18 47 81 63 155 104 214 120 28 7 47 14 41 15 -10 1 34 29 48 30
4 0 7 -4 7 -9z m330 -355 c0 -2 -26 -25 -57 -51 -32 -25 -84 -71 -115 -102
-32 -31 -58 -53 -58 -50 0 4 11 32 25 63 31 69 25 85 -7 20 -20 -43 -49 -67
-33 -28 4 9 11 32 17 50 5 20 15 32 26 32 13 0 14 2 3 9 -16 11 -8 16 62 42
45 16 137 26 137 15z m-319 -74 c-5 -9 -20 -26 -32 -37 -24 -20 -24 -20 -9 0
36 51 60 72 41 37z m50 -59 c-20 -35 -21 -36 -15 -8 7 31 24 59 31 51 3 -2 -5
-21 -16 -43z m10 -66 c-10 -9 -11 -8 -5 6 3 10 9 15 12 12 3 -3 0 -11 -7 -18z
m109 -76 c0 -5 -7 -12 -16 -15 -24 -9 -28 -7 -14 9 14 17 30 20 30 6z m10 -41
c0 -12 -7 -20 -17 -20 -10 0 -38 -9 -62 -20 -64 -29 -61 -18 6 24 66 42 73 43
73 16z"/>
<path d="M9058 2513 c7 -3 16 -2 19 1 4 3 -2 6 -13 5 -11 0 -14 -3 -6 -6z"/>
<path d="M9515 2450 c-3 -6 1 -7 9 -4 18 7 21 14 7 14 -6 0 -13 -4 -16 -10z"/>
<path d="M8198 2533 c6 -2 18 -2 25 0 6 3 1 5 -13 5 -14 0 -19 -2 -12 -5z"/>
<path d="M5275 3288 c-31 -35 -75 -94 -97 -131 -22 -37 -43 -65 -46 -62 -6 6
-75 -169 -132 -335 l-39 -115 -1 90 c-2 101 -7 170 -18 221 -4 19 -6 -41 -6
-133 1 -92 -2 -177 -6 -188 -6 -14 -9 -1 -9 41 -2 132 -46 297 -101 373 -44
61 -78 74 -195 76 -55 1 -77 0 -50 -3 40 -3 46 -6 30 -13 -15 -7 -11 -8 16 -4
61 9 135 -57 194 -174 15 -29 24 -62 22 -72 -3 -11 -1 -17 3 -14 22 13 50
-158 49 -290 l-1 -100 -14 88 c-15 102 -38 158 -84 211 -27 31 -31 40 -19 46
8 5 23 16 34 25 24 20 1 9 -36 -16 -14 -10 -29 -16 -33 -14 -3 3 -4 2 -1 -2 3
-4 -8 -20 -24 -37 -17 -17 -44 -56 -60 -86 -36 -66 -37 -63 -10 36 25 90 20
109 -6 27 -11 -32 -23 -62 -27 -68 -5 -5 -6 58 -3 140 5 170 -6 151 -26 -43
l-12 -123 -24 43 c-46 81 -110 130 -172 133 -30 1 -35 5 -33 21 7 39 74 134
135 190 34 32 49 50 32 40 -59 -37 -134 -121 -176 -200 -15 -29 -49 -45 -49
-23 1 32 14 56 34 60 l21 4 -21 2 c-20 1 -21 4 -13 42 6 23 8 44 5 46 -2 3
-13 -32 -23 -76 -10 -45 -21 -81 -24 -81 -3 0 -4 93 -2 208 3 130 1 216 -5
232 -8 19 -11 -4 -11 -100 -1 -183 -10 -260 -30 -260 -15 -1 -15 -1 0 -10 17
-10 15 -60 -1 -60 -9 0 -25 39 -22 51 3 14 -67 70 -89 72 -13 1 -31 11 -40 22
-10 11 -32 28 -50 39 l-34 18 37 -31 c21 -18 35 -38 33 -46 -3 -8 -8 -23 -12
-32 -3 -10 -5 -25 -5 -33 3 -23 -7 -32 -79 -77 -79 -48 -99 -56 -119 -43 -13
8 -10 19 18 75 35 71 58 83 86 43 9 -12 16 -17 16 -11 0 16 -29 43 -46 43 -8
0 -14 2 -14 5 0 17 61 98 115 152 71 73 70 83 -3 18 -27 -25 -61 -46 -73 -46
-16 -1 -18 -3 -7 -6 13 -3 -3 -29 -70 -118 -47 -63 -87 -113 -89 -111 -2 1 8
36 22 76 29 86 18 83 -18 -5 -18 -47 -28 -59 -43 -57 -17 2 -17 1 -2 -8 14 -9
15 -15 6 -42 l-11 -32 -17 59 c-15 55 -15 64 -1 104 9 24 36 67 61 95 42 47
43 49 11 26 -19 -13 -48 -46 -65 -74 -27 -42 -31 -46 -34 -27 -2 14 -9 21 -17
17 -8 -3 -27 17 -48 52 -38 61 -64 88 -112 118 -20 12 -14 4 17 -25 60 -54
110 -152 116 -229 l5 -57 -72 71 c-62 61 -169 134 -197 134 -5 0 14 -13 42
-28 57 -32 151 -117 189 -172 24 -35 50 -130 35 -130 -4 0 -28 35 -53 79 -52
89 -116 145 -156 138 -16 -3 -36 3 -56 19 -35 27 -113 63 -135 64 -8 0 12 -13
46 -29 69 -33 160 -118 218 -205 41 -62 40 -80 -2 -54 -133 83 -212 108 -332
106 l-85 -1 101 -7 c91 -7 110 -12 186 -49 47 -23 92 -49 99 -58 13 -15 12
-15 -8 -5 -27 15 -63 15 -83 1 -11 -8 -8 -9 14 -4 41 9 127 -36 169 -88 50
-62 54 -73 16 -45 -41 31 -93 58 -111 58 -7 0 10 -11 37 -24 55 -25 113 -83
134 -133 12 -29 16 -31 45 -26 17 3 36 10 42 14 6 5 13 6 17 3 3 -3 19 -3 36
1 28 6 31 11 31 43 0 44 35 119 63 134 18 9 24 7 45 -18 25 -30 14 -4 -13 30
-17 23 -31 14 -78 -49 -23 -31 -28 -34 -22 -15 4 14 15 33 24 43 8 11 16 24
16 30 0 23 33 58 59 63 15 2 26 0 26 -6 0 -6 -4 -8 -10 -5 -5 3 -10 2 -10 -2
0 -5 -14 -17 -31 -27 -17 -10 -28 -20 -25 -23 3 -3 12 -1 19 6 36 29 67 -17
74 -112 3 -40 6 -73 7 -74 1 -2 16 -6 33 -9 29 -6 31 -4 38 32 11 59 52 133
88 155 30 20 27 21 -18 3 -18 -7 -19 -6 -5 12 8 10 23 29 34 42 11 12 16 22
12 22 -8 0 -19 -10 -60 -60 -16 -19 -26 -26 -22 -15 5 11 9 26 9 33 0 6 4 12
9 12 5 0 7 4 4 9 -8 12 14 71 26 71 5 0 6 6 2 13 -4 7 -3 9 2 4 5 -5 9 -12 9
-15 0 -4 9 -19 19 -34 31 -47 47 -119 45 -203 l-2 -80 31 -3 c28 -3 32 0 32
20 0 42 49 228 72 271 12 23 21 46 20 51 -2 5 9 1 24 -9 24 -15 26 -16 21 -1
-15 38 57 5 105 -49 34 -39 67 -92 67 -110 1 -5 -4 -3 -9 5 -5 8 -10 12 -10 7
0 -4 -12 -1 -27 6 -16 8 -39 18 -53 22 -22 6 -22 5 5 -13 61 -38 105 -112 105
-174 0 -14 8 -18 34 -18 32 0 34 2 39 45 8 53 40 120 64 134 10 6 14 11 9 11
-6 0 -20 -10 -33 -22 l-23 -22 10 30 c14 40 83 129 100 129 21 0 78 -80 91
-127 23 -86 31 -166 24 -250 l-6 -87 25 -7 c33 -8 53 0 59 23 2 11 3 9 2 -4
-5 -50 11 -18 32 63 13 47 37 115 55 151 40 82 116 163 153 163 16 0 24 4 20
10 -19 30 -110 -45 -165 -136 -19 -32 -47 -94 -62 -139 -32 -94 -36 -76 -8 35
88 345 264 621 451 710 35 16 58 30 51 30 -25 0 -128 -59 -176 -101 -27 -24
-65 -64 -85 -89 -20 -25 -40 -46 -46 -48 -5 -1 -11 -6 -11 -12 -1 -5 -2 -15
-3 -21 0 -5 -5 -8 -10 -4 -13 7 -30 -26 -23 -44 3 -8 0 -11 -6 -7 -14 8 -45
-50 -36 -66 5 -7 3 -8 -6 -3 -10 6 -12 4 -6 -11 4 -10 4 -15 0 -11 -5 4 -14
-3 -21 -15 l-14 -23 7 25 c39 152 161 399 244 499 33 39 58 71 56 71 -2 0 -30
-28 -61 -62z m-541 -182 c46 -19 92 -80 117 -153 30 -92 19 -106 -20 -24 -33
69 -90 140 -141 173 -20 14 -22 17 -7 17 10 1 32 -5 51 -13z m-624 -196 c0 -4
-16 -12 -36 -18 l-36 -11 7 32 c4 18 7 41 7 52 -1 17 4 14 29 -15 16 -19 29
-37 29 -40z m38 21 c14 -20 13 -21 -8 -18 -21 3 -50 31 -50 49 0 14 44 -9 58
-31z m-491 -3 c-3 -8 -6 -5 -6 6 -1 11 2 17 5 13 3 -3 4 -12 1 -19z m1474 -21
c-10 -9 -11 -8 -5 6 3 10 9 15 12 12 3 -3 0 -11 -7 -18z m-1680 -24 c65 -72
64 -84 -1 -18 -24 25 -40 45 -34 45 6 0 21 -12 35 -27z m722 -4 c3 -10 1 -19
-4 -19 -5 0 -9 6 -9 13 0 8 -4 7 -10 -3 -5 -8 -10 -12 -10 -8 0 3 -2 13 -5 20
-3 8 2 14 14 15 11 1 21 -6 24 -18z m-49 -5 c8 -21 9 -20 -41 -27 -50 -6 -61
15 -15 31 39 15 49 14 56 -4z m986 -2 c0 -5 -7 -17 -15 -28 -14 -18 -14 -17
-4 9 12 27 19 34 19 19z m-1095 -31 c-9 -16 -64 -43 -77 -39 -6 2 9 16 33 30
44 26 57 29 44 9z m153 -7 c4 2 8 -12 9 -33 2 -40 -10 -26 -20 24 -4 17 -4 24
-1 17 3 -6 9 -10 12 -8z m712 -4 c0 -11 -2 -20 -4 -20 -2 0 -6 9 -9 20 -3 11
-1 20 4 20 5 0 9 -9 9 -20z m-730 -26 c16 -48 6 -54 -31 -16 -17 18 -36 32
-43 32 -6 0 -4 -5 4 -10 8 -5 10 -10 4 -10 -6 0 -11 -6 -11 -12 0 -7 -12 -38
-27 -68 l-26 -55 6 65 c3 35 6 69 7 75 4 20 32 34 69 35 33 0 38 -3 48 -36z
m67 4 c-3 -7 -5 -2 -5 12 0 14 2 19 5 13 2 -7 2 -19 0 -25z m79 -17 c-9 -14
-26 -14 -26 0 0 5 5 7 12 3 8 -5 9 -1 4 12 -5 14 -4 16 5 7 6 -6 8 -16 5 -22z
m-286 12 c-1 -20 -16 -31 -30 -22 -13 8 -13 10 0 19 18 12 30 13 30 3z m241
-24 c-9 -22 -10 -22 -10 -3 -1 11 2 24 6 27 12 12 14 0 4 -24z m-268 -11 c13
-7 17 -16 13 -31 -3 -12 -6 -30 -6 -39 0 -11 -8 -18 -20 -18 -22 0 -27 16 -7
23 6 2 4 3 -5 2 -23 -4 -35 15 -17 26 10 6 8 9 -8 9 -26 0 -29 10 -10 29 10
11 8 11 -10 2 -13 -7 -23 -8 -23 -2 0 21 51 21 93 -1z m-143 3 c0 -6 -5 -13
-11 -17 -6 -3 -19 -20 -30 -38 -22 -37 -25 -20 -5 29 13 31 46 49 46 26z m350
-35 c0 -13 3 -31 6 -40 3 -9 1 -16 -5 -16 -6 0 -12 17 -12 38 -1 36 -2 36 -8
7 -7 -30 -7 -30 -14 -5 -4 15 -2 27 6 32 20 13 27 9 27 -16z m-335 -16 c-10
-11 -20 -18 -23 -15 -7 6 18 35 31 35 5 0 2 -9 -8 -20z m-305 -45 c20 -24 6
-28 -15 -5 -10 11 -13 20 -8 20 6 0 16 -7 23 -15z m400 -40 c0 -5 -5 -3 -10 5
-5 8 -10 20 -10 25 0 6 5 3 10 -5 5 -8 10 -19 10 -25z m33 15 c-3 -11 -7 -20
-8 -20 -1 0 -5 9 -8 20 -3 12 0 20 8 20 8 0 11 -8 8 -20z m522 -20 c10 -11 16
-20 13 -20 -3 0 -13 9 -23 20 -10 11 -16 20 -13 20 3 0 13 -9 23 -20z"/>
<path d="M6235 3330 c3 -5 8 -10 11 -10 2 0 4 5 4 10 0 6 -5 10 -11 10 -5 0
-7 -4 -4 -10z"/>
<path d="M6258 3233 c6 -2 18 -2 25 0 6 3 1 5 -13 5 -14 0 -19 -2 -12 -5z"/>
<path d="M5538 3213 c7 -3 16 -2 19 1 4 3 -2 6 -13 5 -11 0 -14 -3 -6 -6z"/>
<path d="M6330 3216 c0 -2 7 -7 16 -10 8 -3 12 -2 9 4 -6 10 -25 14 -25 6z"/>
<path d="M6390 3186 c0 -2 8 -10 18 -17 15 -13 16 -12 3 4 -13 16 -21 21 -21
13z"/>
<path d="M3652 3000 c0 -14 2 -19 5 -12 2 6 2 18 0 25 -3 6 -5 1 -5 -13z"/>
<path d="M7488 2973 c7 -3 16 -2 19 1 4 3 -2 6 -13 5 -11 0 -14 -3 -6 -6z"/>
<path d="M9198 2943 c7 -3 16 -2 19 1 4 3 -2 6 -13 5 -11 0 -14 -3 -6 -6z"/>
<path d="M8101 2894 c0 -11 3 -14 6 -6 3 7 2 16 -1 19 -3 4 -6 -2 -5 -13z"/>
<path d="M7049 2849 c-18 -67 -28 -164 -29 -269 l0 -95 -35 65 c-20 36 -45 74
-57 85 -17 16 -16 13 4 -15 26 -36 67 -113 51 -95 -5 6 -21 27 -36 47 -33 45
-80 82 -130 103 -53 22 -46 10 11 -19 64 -33 103 -77 146 -165 35 -72 50 -126
25 -91 -9 13 -10 13 -5 0 3 -8 10 -34 17 -57 10 -38 15 -43 40 -43 29 0 29 0
29 64 0 68 19 137 48 170 16 20 16 20 -2 6 -11 -8 -27 -32 -36 -53 l-17 -39
-7 46 c-7 43 -2 114 11 161 3 11 2 17 -3 12 -4 -4 -14 -33 -21 -65 -12 -54
-13 -51 -8 78 2 74 9 150 15 169 5 19 8 37 5 39 -2 2 -9 -16 -16 -39z"/>
<path d="M8755 2879 c-4 -6 -5 -12 -2 -15 2 -3 7 2 10 11 7 17 1 20 -8 4z"/>
<path d="M6234 2858 c45 -30 107 -93 137 -139 31 -49 94 -198 86 -205 -2 -2
-18 18 -35 44 -40 63 -137 157 -198 193 -59 35 -164 69 -208 68 -19 -1 -23 -3
-11 -6 72 -15 68 -13 52 -31 -9 -9 -32 -44 -52 -77 -28 -47 -43 -62 -73 -72
-35 -11 -35 -12 -4 -7 36 6 38 1 17 -49 -8 -20 -26 -73 -39 -119 l-24 -82 -7
63 c-11 96 -24 128 -19 46 l5 -70 -25 80 c-14 44 -25 81 -26 82 0 1 12 9 28
17 15 8 22 15 17 16 -6 0 -20 -7 -31 -14 -19 -14 -23 -12 -50 24 -16 21 -46
47 -67 56 -23 11 -36 22 -33 31 3 7 1 13 -4 13 -10 0 -56 -93 -65 -135 -8 -31
-45 -95 -56 -95 -12 0 -17 55 -8 75 10 19 9 19 -5 2 -14 -18 -15 -17 -31 13
-15 29 -15 37 0 111 21 100 14 114 -10 22 -10 -37 -20 -70 -22 -72 -2 -3 -20
11 -41 31 -41 39 -82 68 -95 68 -5 0 10 -15 34 -32 64 -50 100 -98 92 -126
l-6 -23 -27 30 c-29 32 -116 91 -134 91 -5 0 12 -14 40 -31 75 -47 114 -88
114 -121 0 -34 0 -33 -44 -7 -46 27 -47 17 -1 -11 40 -25 47 -53 13 -48 -14 2
-29 18 -42 44 -12 22 -32 49 -45 59 -13 10 -21 13 -17 7 11 -18 -13 -14 -42 6
-48 33 -58 35 -23 6 19 -16 46 -40 60 -54 14 -14 29 -25 33 -25 3 0 10 -4 15
-9 5 -5 2 -6 -6 -1 -9 5 -12 3 -9 -6 3 -8 10 -13 16 -12 6 2 9 -4 5 -13 -5
-13 -7 -13 -23 1 -30 27 -31 16 0 -13 28 -27 50 -70 50 -95 0 -7 -6 -3 -12 8
-15 27 -70 85 -81 85 -5 0 6 -12 24 -27 39 -33 68 -95 69 -145 0 -37 1 -38 34
-38 34 0 35 1 52 60 9 33 20 63 24 65 9 6 24 -81 16 -94 -8 -12 14 -27 49 -34
30 -5 31 -4 47 52 13 42 28 67 53 90 44 38 29 42 -16 4 l-33 -28 28 52 c30 54
121 153 142 153 24 0 58 -123 43 -153 -8 -14 -8 -18 0 -13 13 8 14 -74 2 -168
-7 -59 -6 -62 33 -68 15 -2 22 8 35 57 21 72 44 120 80 160 l26 30 -28 -25
c-16 -14 -40 -45 -53 -70 -21 -38 -24 -40 -19 -15 12 58 66 184 104 241 34 53
81 105 136 149 34 27 -8 4 -46 -26 -20 -16 -47 -44 -60 -63 -17 -26 -29 -34
-44 -31 -11 3 -14 2 -7 -1 15 -7 16 -31 0 -40 -8 -5 -9 -2 -5 9 11 28 -1 19
-18 -13 -9 -17 -13 -35 -10 -40 3 -5 -1 -22 -10 -37 -15 -26 -14 -16 2 24 4
11 3 14 -5 9 -11 -7 11 59 68 206 12 31 34 70 49 87 l26 30 51 -19 c27 -11 60
-29 72 -40 11 -11 25 -20 30 -20 12 0 83 -75 77 -82 -4 -3 -1 -9 6 -14 8 -5
10 -3 4 7 -8 12 -6 12 8 0 18 -14 23 -26 8 -16 -5 3 -12 1 -16 -5 -3 -5 -2
-10 4 -10 36 0 119 -121 136 -198 2 -9 9 -33 14 -52 16 -53 13 -58 -9 -16 -10
22 -17 43 -14 47 3 5 -1 9 -8 9 -7 0 -26 14 -42 30 -16 17 -45 40 -66 50 -29
15 -39 27 -44 54 -9 46 -23 55 -18 11 3 -29 1 -34 -20 -38 -23 -4 -23 -4 0 -6
18 -1 22 -6 21 -33 -2 -42 -16 -101 -18 -73 -3 52 -83 175 -114 175 -5 0 2 -9
15 -20 35 -27 67 -107 74 -182 l6 -63 -25 50 c-13 28 -40 71 -60 97 -24 31
-32 49 -24 52 7 3 6 4 -3 3 -8 -1 -29 7 -45 19 -55 38 -53 34 20 -39 77 -77
120 -156 97 -179 -9 -9 -19 -6 -39 13 -17 14 -13 7 10 -19 35 -39 37 -46 37
-107 0 -55 3 -66 21 -75 27 -15 49 -6 49 20 0 27 40 111 56 117 7 2 11 10 8
16 -5 14 49 83 77 98 17 9 22 5 39 -33 10 -24 21 -59 25 -80 7 -39 34 -54 78
-43 21 6 22 11 23 106 1 75 4 103 15 110 8 5 9 9 3 9 -16 0 -1 75 29 149 31
76 73 129 122 152 22 10 34 19 27 19 -38 0 -128 -69 -161 -125 -11 -18 -12
-18 -7 7 3 14 8 34 11 45 3 10 -3 0 -13 -22 -10 -22 -25 -65 -32 -95 -20 -87
-26 -87 -39 1 -25 161 -72 289 -107 289 -14 0 -14 -2 -1 -15 9 -8 22 -46 31
-84 19 -83 19 -84 5 -75 -6 3 -4 -7 4 -22 8 -16 17 -51 21 -79 l6 -50 -45 92
c-51 104 -129 195 -196 231 -24 12 -35 17 -25 10z m-512 -204 c31 -20 38 -28
27 -35 -11 -7 -11 -9 3 -9 10 0 22 -9 28 -20 6 -11 7 -20 2 -20 -17 0 -100
-80 -131 -127 -17 -25 -31 -42 -31 -36 0 19 39 103 63 137 12 17 22 35 22 39
0 4 7 12 15 17 32 21 -8 8 -47 -15 -24 -13 -43 -20 -43 -16 0 23 32 111 41
111 5 0 28 -12 51 -26z m-39 -86 c-4 -7 -23 -38 -41 -68 l-34 -55 7 45 c4 29
15 53 31 68 27 24 50 30 37 10z m-185 -44 c2 -16 -1 -23 -7 -19 -6 3 -10 17
-9 30 3 29 11 23 16 -11z m-153 16 c3 -5 2 -10 -4 -10 -5 0 -13 5 -16 10 -3 6
-2 10 4 10 5 0 13 -4 16 -10z m626 -47 c-12 -20 -14 -14 -5 12 4 9 9 14 11 11
3 -2 0 -13 -6 -23z m-489 -25 c-9 -9 -12 -7 -12 12 0 19 3 21 12 12 9 -9 9
-15 0 -24z m89 -4 c-7 -24 -10 -26 -16 -11 -4 10 -2 24 5 32 18 21 21 14 11
-21z m-56 -13 c-3 -12 -10 -21 -15 -21 -4 0 -3 11 3 24 14 29 22 27 12 -3z
m890 -41 l26 -27 -44 -36 c-25 -20 -47 -33 -51 -29 -4 3 -4 -1 -1 -10 4 -9 2
-19 -4 -23 -15 -9 -7 52 14 101 9 22 11 34 6 29 -6 -6 -22 -37 -36 -70 l-26
-60 5 55 c3 30 6 74 6 98 l0 43 40 -22 c22 -12 51 -34 65 -49z m-975 13 c0
-22 -2 -25 -10 -13 -13 20 -13 40 0 40 6 0 10 -12 10 -27z"/>
<path d="M4675 2809 c-16 -6 -14 -8 13 -8 33 -1 41 4 20 12 -7 2 -22 1 -33 -4z"/>
<path d="M7184 2768 l-29 -33 33 29 c17 17 32 31 32 33 0 8 -8 1 -36 -29z"/>
<path d="M7848 2783 c7 -3 16 -2 19 1 4 3 -2 6 -13 5 -11 0 -14 -3 -6 -6z"/>
<path d="M4440 2739 c25 -24 53 -55 62 -69 10 -14 17 -20 17 -15 1 16 -56 81
-92 106 -24 17 -21 12 13 -22z"/>
<path d="M5248 2753 c7 -3 16 -2 19 1 4 3 -2 6 -13 5 -11 0 -14 -3 -6 -6z"/>
<path d="M6642 2735 c-17 -37 -14 -45 4 -12 9 16 14 31 11 33 -2 2 -9 -7 -15
-21z"/>
<path d="M5223 2723 c9 -2 25 -2 35 0 9 3 1 5 -18 5 -19 0 -27 -2 -17 -5z"/>
<path d="M5281 2717 c2 -2 18 -11 34 -21 l30 -17 -24 20 c-13 12 -28 21 -34
21 -6 0 -8 -1 -6 -3z"/>
<path d="M6180 2710 c-9 -6 -10 -10 -3 -10 6 0 15 5 18 10 8 12 4 12 -15 0z"/>
<path d="M5221 2696 c2 -2 18 -6 34 -10 22 -5 26 -4 15 4 -14 9 -59 15 -49 6z"/>
<path d="M7115 2669 c-9 -17 -15 -33 -13 -35 3 -2 12 12 21 31 21 43 13 47 -8
4z"/>
<path d="M7671 2684 c0 -11 3 -14 6 -6 3 7 2 16 -1 19 -3 4 -6 -2 -5 -13z"/>
<path d="M7662 2630 c0 -14 2 -19 5 -12 2 6 2 18 0 25 -3 6 -5 1 -5 -13z"/>
<path d="M3348 2623 c7 -3 16 -2 19 1 4 3 -2 6 -13 5 -11 0 -14 -3 -6 -6z"/>
<path d="M3393 2623 c9 -2 23 -2 30 0 6 3 -1 5 -18 5 -16 0 -22 -2 -12 -5z"/>
<path d="M7087 2607 c-4 -10 -7 -26 -7 -35 1 -15 2 -15 11 1 6 10 9 25 7 35
-3 16 -4 15 -11 -1z"/>
<path d="M5203 2573 c9 -2 23 -2 30 0 6 3 -1 5 -18 5 -16 0 -22 -2 -12 -5z"/>
<path d="M7172 2541 c20 -17 48 -54 62 -83 14 -29 26 -45 26 -37 0 32 -67 122
-105 141 -11 6 -4 -4 17 -21z"/>
<path d="M7072 2530 c0 -14 2 -19 5 -12 2 6 2 18 0 25 -3 6 -5 1 -5 -13z"/>
<path d="M6941 2473 c18 -21 38 -42 43 -48 5 -6 5 -3 0 6 -14 25 -62 79 -70
79 -5 0 8 -17 27 -37z"/>
<path d="M5721 2477 c2 -2 18 -11 34 -21 l30 -17 -24 20 c-13 12 -28 21 -34
21 -6 0 -8 -1 -6 -3z"/>
<path d="M11308 2463 c6 -2 18 -2 25 0 6 3 1 5 -13 5 -14 0 -19 -2 -12 -5z"/>
<path d="M8904 2414 c-18 -14 -18 -14 6 -3 31 14 36 19 24 19 -6 0 -19 -7 -30
-16z"/>
<path d="M5728 2413 c7 -3 16 -2 19 1 4 3 -2 6 -13 5 -11 0 -14 -3 -6 -6z"/>
<path d="M7724 2398 l-19 -23 23 19 c12 11 22 21 22 23 0 8 -8 2 -26 -19z"/>
<path d="M6080 2400 c8 -5 22 -10 30 -10 13 0 13 1 0 10 -8 5 -22 10 -30 10
-13 0 -13 -1 0 -10z"/>
<path d="M5803 2376 c7 -13 15 -22 19 -20 8 5 -13 44 -23 44 -4 0 -2 -11 4
-24z"/>
<path d="M6151 2364 c13 -17 29 -40 36 -50 7 -11 12 -13 12 -6 1 7 -15 29 -35
50 -30 30 -32 31 -13 6z"/>
<path d="M7680 2329 c-12 -23 -20 -43 -18 -45 3 -2 14 17 26 41 27 56 20 60
-8 4z"/>
<path d="M8205 2359 c-4 -6 -5 -12 -2 -15 2 -3 7 2 10 11 7 17 1 20 -8 4z"/>
<path d="M7344 2338 l-19 -23 23 19 c12 11 22 21 22 23 0 8 -8 2 -26 -19z"/>
<path d="M5821 2324 c0 -11 3 -14 6 -6 3 7 2 16 -1 19 -3 4 -6 -2 -5 -13z"/>
<path d="M9466 2320 c12 -14 29 -38 37 -55 9 -16 16 -26 17 -22 0 16 -29 63
-51 82 l-24 20 21 -25z"/>
<path d="M9181 2326 c2 -2 15 -9 29 -15 24 -11 24 -11 6 3 -16 13 -49 24 -35
12z"/>
<path d="M7645 2240 c-4 -17 -5 -34 -2 -36 2 -3 7 10 11 27 8 42 0 50 -9 9z"/>
<path d="M6370 2256 c0 -2 8 -10 18 -17 15 -13 16 -12 3 4 -13 16 -21 21 -21
13z"/>
<path d="M9655 2240 c-32 -21 -64 -59 -65 -75 0 -5 9 3 20 19 10 17 36 40 57
53 21 13 34 23 28 23 -5 0 -23 -9 -40 -20z"/>
<path d="M12131 2016 c2 -2 22 -6 44 -9 28 -5 34 -4 20 3 -19 8 -73 14 -64 6z"/>
<path d="M11058 1723 c7 -3 16 -2 19 1 4 3 -2 6 -13 5 -11 0 -14 -3 -6 -6z"/>
<path d="M11688 1523 c7 -3 16 -2 19 1 4 3 -2 6 -13 5 -11 0 -14 -3 -6 -6z"/>
<path d="M12078 1253 c23 -2 59 -2 80 0 20 2 1 4 -43 4 -44 0 -61 -2 -37 -4z"/>
<path d="M11260 1210 c-18 -12 -2 -12 25 0 13 6 15 9 5 9 -8 0 -22 -4 -30 -9z"/>
<path d="M11182 1164 c-24 -20 -49 -49 -58 -66 -25 -48 -9 -43 20 6 14 24 42
54 61 66 19 12 35 24 35 26 0 12 -21 0 -58 -32z"/>
<path d="M12148 933 c7 -3 16 -2 19 1 4 3 -2 6 -13 5 -11 0 -14 -3 -6 -6z"/>
<path d="M12560 575 c46 -18 64 -17 25 0 -16 8 -37 14 -45 14 -8 0 1 -7 20
-14z"/>
<path d="M12320 456 c0 -3 9 -10 20 -16 11 -6 20 -8 20 -6 0 3 -9 10 -20 16
-11 6 -20 8 -20 6z"/>
<path d="M12101 174 c0 -11 3 -14 6 -6 3 7 2 16 -1 19 -3 4 -6 -2 -5 -13z"/>
</g>
</svg>
