<?xml version="1.0" standalone="no"?>
<!DOCTYPE svg PUBLIC "-//W3C//DTD SVG 20010904//EN"
 "http://www.w3.org/TR/2001/REC-SVG-20010904/DTD/svg10.dtd">
<svg version="1.0" xmlns="http://www.w3.org/2000/svg"
 width="640.000000pt" height="1280.000000pt" viewBox="0 0 640.000000 1280.000000"
 preserveAspectRatio="xMidYMid meet">
<metadata>
Created by potrace 1.15, written by Peter Selinger 2001-2017
</metadata>
<g transform="translate(0.000000,1280.000000) scale(0.100000,-0.100000)"
fill="#000000" stroke="none">
<path d="M2960 12788 c-905 -83 -1722 -634 -2141 -1442 -209 -403 -309 -814
-309 -1266 0 -541 151 -1046 448 -1496 208 -315 512 -610 832 -809 146 -90
382 -200 546 -255 105 -34 148 -53 144 -62 -3 -7 -5 -71 -5 -143 l0 -130 81
-175 c150 -324 238 -577 254 -730 9 -85 50 -861 70 -1340 6 -140 15 -356 20
-480 5 -124 14 -335 20 -470 6 -135 15 -346 20 -470 5 -124 14 -342 20 -485 6
-143 15 -366 20 -495 5 -129 14 -347 20 -485 36 -894 50 -1224 55 -1254 7 -52
-10 -24 -24 39 -6 30 -26 80 -45 110 -18 30 -49 84 -69 120 -41 72 -84 130
-72 95 13 -37 46 -207 42 -218 -2 -6 -13 19 -26 54 -34 95 -41 94 -41 -5 0
-85 -33 -266 -49 -266 -3 0 -12 32 -18 72 -8 54 -28 106 -82 216 -40 80 -73
143 -75 141 -2 -2 1 -32 7 -67 12 -72 1 -165 -28 -227 -16 -33 -19 -35 -29
-18 -13 22 -12 261 1 351 6 34 7 62 4 62 -3 0 -35 -59 -71 -130 -35 -71 -67
-127 -69 -124 -3 2 -10 30 -16 60 l-11 57 -36 -114 c-20 -63 -41 -134 -46
-159 l-10 -45 -1 56 c-2 81 -12 149 -22 143 -5 -3 -9 -13 -9 -24 0 -23 -88
-200 -100 -200 -21 0 -66 208 -78 355 l-7 90 -6 -100 c-4 -55 -10 -135 -14
-179 l-8 -78 -22 28 -23 29 -8 -52 -7 -53 -41 74 c-66 114 -181 253 -133 159
22 -43 63 -177 86 -287 17 -79 19 -101 9 -107 -16 -10 -31 18 -48 91 -27 117
-98 236 -163 271 -14 8 -12 -2 13 -50 16 -33 30 -63 30 -66 0 -3 -48 45 -107
106 -59 61 -152 152 -207 202 l-100 92 47 -65 c158 -219 298 -445 364 -586 41
-89 45 -126 29 -326 -13 -152 -7 -160 160 -203 300 -78 689 -119 1139 -119
305 -1 367 4 730 55 194 27 638 103 677 115 15 4 15 9 -4 51 -27 60 -20 125
26 265 18 56 50 155 71 218 41 128 132 343 207 495 39 77 45 95 28 80 -40 -35
-281 -308 -328 -372 -26 -34 -48 -61 -49 -59 -3 2 60 192 82 251 5 11 -8 0
-28 -25 -20 -25 -55 -59 -79 -76 -55 -39 -100 -106 -129 -191 l-22 -68 -17 40
c-21 50 -37 137 -53 290 l-13 120 -13 -70 c-17 -99 -50 -224 -66 -254 l-14
-26 -26 59 c-14 33 -29 72 -32 88 -7 33 -23 48 -24 21 -3 -121 -19 -246 -32
-267 -15 -22 -82 -54 -92 -44 -3 2 -9 38 -15 79 -12 88 -42 205 -69 274 -19
47 -20 48 -21 18 0 -17 -4 -34 -8 -37 -4 -2 -6 28 -4 67 l3 72 -25 -30 c-14
-16 -38 -49 -53 -72 -30 -45 -43 -55 -38 -26 2 10 6 47 9 83 l5 65 -78 -154
-78 -155 -22 75 c-20 67 -82 249 -85 249 0 0 -2 -61 -3 -135 -2 -152 -22 -226
-24 -90 l-1 80 -19 -40 -19 -40 5 85 c5 84 15 327 35 820 6 140 15 361 20 490
5 129 14 350 20 490 15 371 39 940 50 1205 5 127 14 340 20 475 25 592 31 736
40 920 45 890 41 851 96 1020 48 149 123 339 228 574 l66 149 0 124 0 124 -37
-6 c-21 -3 16 10 82 30 321 96 618 247 888 452 124 94 389 356 478 473 197
256 333 508 435 804 36 106 54 184 95 430 l51 301 -5 220 c-6 236 -20 351 -68
555 -147 622 -507 1170 -1018 1551 -198 147 -464 291 -671 363 -47 16 -230 52
-493 96 -438 74 -478 77 -677 58z m-403 -5334 c-3 -3 -12 -4 -19 -1 -8 3 -5 6
6 6 11 1 17 -2 13 -5z m1260 -10 c-3 -3 -12 -4 -19 -1 -8 3 -5 6 6 6 11 1 17
-2 13 -5z m-1142 -14 c27 -7 27 -8 5 -8 -14 0 -36 4 -50 8 -20 6 -21 8 -5 8
11 0 34 -4 50 -8z m1060 -5 c-27 -7 -61 -13 -75 -13 -14 0 0 6 30 13 72 17
110 16 45 0z m-992 -12 c-7 -2 -19 -2 -25 0 -7 3 -2 5 12 5 14 0 19 -2 13 -5z
m162 -18 c66 -8 197 -14 290 -14 94 0 224 6 290 14 132 16 151 17 143 10 -13
-13 -282 -35 -428 -35 -146 0 -415 22 -428 35 -7 7 -3 7 133 -10z"/>
</g>
</svg>
