<?xml version="1.0" standalone="no"?>
<!DOCTYPE svg PUBLIC "-//W3C//DTD SVG 20010904//EN"
 "http://www.w3.org/TR/2001/REC-SVG-20010904/DTD/svg10.dtd">
<svg version="1.0" xmlns="http://www.w3.org/2000/svg"
 width="640.000000pt" height="1280.000000pt" viewBox="0 0 640.000000 1280.000000"
 preserveAspectRatio="xMidYMid meet">
<metadata>
Created by potrace 1.15, written by Peter Selinger 2001-2017
</metadata>
<g transform="translate(0.000000,1280.000000) scale(0.100000,-0.100000)"
fill="#000000" stroke="none">
<path d="M2378 12644 c-3 -90 -10 -150 -19 -171 -10 -22 -42 -50 -108 -93
-113 -74 -189 -148 -227 -221 -27 -50 -29 -62 -29 -164 0 -151 11 -178 86
-215 67 -34 118 -38 196 -15 61 18 142 98 174 172 24 55 35 168 24 240 l-8 48
-14 -79 c-15 -87 -36 -146 -52 -146 -6 0 -11 6 -11 13 0 6 -14 41 -30 76 l-30
63 31 36 c70 79 106 205 94 326 -7 67 -46 221 -64 254 -5 9 -10 -41 -13 -124z"/>
<path d="M2054 11655 c-40 -7 -88 -18 -108 -25 -33 -10 -35 -14 -29 -38 4 -15
6 -40 5 -55 -1 -24 2 -28 16 -22 151 64 330 69 474 15 l47 -18 11 51 c6 27 9
51 8 52 -13 10 -118 36 -181 45 -98 13 -153 12 -243 -5z"/>
<path d="M2016 11505 c-70 -20 -140 -58 -144 -79 -5 -25 23 -53 72 -71 38 -14
45 -14 86 0 25 9 80 19 122 22 63 5 90 2 148 -17 86 -28 127 -20 179 34 l34
35 -27 25 c-49 45 -107 58 -271 62 -108 2 -164 -1 -199 -11z"/>
<path d="M2103 11303 l-52 -4 5 -42 c5 -33 1 -51 -16 -80 -20 -33 -20 -38 -6
-43 26 -10 58 -81 51 -113 -4 -19 0 -35 13 -51 17 -21 22 -22 66 -12 60 12 64
5 46 -88 -8 -40 -10 -94 -7 -129 5 -41 2 -73 -8 -102 -22 -62 -20 -122 6 -145
21 -19 21 -18 49 13 l28 31 26 -136 c49 -259 49 -261 22 -307 -13 -22 -36 -51
-50 -64 -34 -32 -35 -95 -2 -165 16 -34 35 -115 56 -246 18 -107 38 -208 44
-224 12 -29 12 -29 33 45 12 41 29 112 38 159 9 47 18 95 21 108 2 13 12 22
22 22 22 -1 172 -36 178 -43 3 -2 2 -16 -1 -30 -5 -20 -14 -26 -52 -31 -68 -9
-69 -9 -90 23 l-18 30 0 -113 c0 -108 -2 -116 -33 -177 -32 -63 -112 -177
-226 -324 -32 -42 -56 -79 -52 -82 16 -16 120 -2 175 24 79 37 173 134 214
220 29 61 32 77 31 158 0 62 -5 102 -17 129 -10 22 -16 40 -15 41 2 2 17 1 34
-2 28 -4 31 -9 42 -61 19 -89 23 -90 77 -38 26 25 59 49 73 52 15 3 56 17 92
30 36 13 70 24 75 23 20 -1 130 -86 133 -104 7 -35 -9 -125 -22 -125 -8 0 -16
-14 -20 -32 -3 -17 -13 -39 -21 -48 -13 -15 -12 -19 15 -45 34 -33 37 -49 14
-93 -26 -53 -16 -76 37 -86 34 -6 53 -5 75 5 37 18 85 97 132 221 34 90 39 98
64 98 37 0 41 12 23 72 -8 28 -15 67 -15 85 l0 33 108 1 c59 1 154 4 212 8
l105 6 -202 39 c-188 37 -202 41 -206 63 -2 12 1 27 7 31 6 5 88 40 183 77 95
38 171 71 169 72 -2 2 -88 -10 -192 -27 -103 -17 -193 -29 -199 -26 -5 2 -18
17 -27 34 l-18 29 136 142 c75 77 133 141 131 141 -3 0 -81 -52 -172 -116
l-167 -117 -60 19 -60 18 7 190 c4 105 5 189 2 186 -2 -3 -23 -75 -46 -160
-64 -235 -54 -215 -114 -229 -28 -6 -59 -16 -67 -21 -12 -7 -45 22 -152 133
l-138 142 95 -163 94 -163 -32 -29 -32 -29 -142 -1 -141 0 -7 63 c-4 34 -22
162 -40 284 -48 314 -60 461 -47 605 16 171 -3 312 -56 413 -9 17 -15 44 -13
62 3 43 -13 70 -46 77 -52 9 -108 13 -160 9z"/>
<path d="M2127 9577 c-50 -49 -110 -197 -153 -372 -27 -114 -30 -171 -10 -219
14 -33 72 -106 85 -106 5 0 12 35 17 77 l9 76 55 3 c47 2 59 7 83 34 19 21 26
37 21 48 -27 64 -44 161 -53 304 -6 89 -15 166 -20 171 -6 6 -19 0 -34 -16z"/>
<path d="M3298 9157 c-59 -134 -65 -166 -52 -249 5 -31 11 -38 29 -38 20 0 23
-6 27 -50 3 -28 7 -52 9 -54 2 -2 30 -1 62 1 68 6 66 -1 32 153 l-26 113 21
22 c26 28 25 45 -5 130 -13 39 -25 78 -25 88 0 38 -18 11 -72 -116z"/>
<path d="M2554 9092 c-101 -139 -141 -213 -169 -308 -13 -46 -29 -94 -36 -105
-27 -51 3 -20 70 74 58 80 86 132 129 237 30 74 61 148 69 163 29 58 5 34 -63
-61z"/>
<path d="M2707 9147 c6 -40 -13 -310 -28 -402 -6 -33 -48 -172 -95 -308 -46
-137 -84 -251 -84 -254 0 -3 15 8 34 23 18 16 50 42 70 57 31 24 36 33 36 70
1 91 18 162 54 223 41 71 55 79 230 125 60 15 113 34 118 41 4 7 8 27 8 44 0
25 -9 38 -44 65 -52 41 -122 122 -176 202 -43 64 -74 102 -108 131 l-21 18 6
-35z"/>
<path d="M2257 8896 c-172 -89 -191 -107 -219 -203 -15 -51 -15 -51 9 -62 48
-22 67 -14 144 67 100 103 249 283 233 281 -5 -1 -80 -39 -167 -83z"/>
<path d="M2550 8791 c-139 -189 -315 -406 -360 -442 -32 -26 -40 -38 -36 -55
3 -12 -1 -34 -8 -50 -8 -16 -17 -49 -21 -73 -7 -40 -5 -43 11 -37 52 20 178
110 239 171 l70 70 98 264 c53 145 96 265 95 266 -2 1 -41 -50 -88 -114z"/>
<path d="M3050 8478 c-96 -99 -213 -210 -260 -246 -115 -89 -273 -250 -341
-347 -84 -119 -288 -486 -305 -547 -31 -118 -9 -244 47 -273 55 -29 145 -11
154 30 3 11 23 110 46 220 45 223 103 466 119 496 15 27 27 24 35 -11 10 -44
-2 -103 -42 -204 -20 -52 -33 -101 -31 -120 3 -28 11 -19 102 119 282 428 439
678 548 876 31 57 69 123 83 147 14 23 25 42 23 41 -2 -1 -82 -82 -178 -181z"/>
<path d="M3474 8575 c3 -11 33 -108 66 -216 54 -178 60 -205 60 -286 0 -50 3
-131 6 -181 l7 -91 41 33 c75 61 82 62 119 22 57 -62 68 -76 78 -103 5 -14 11
-24 13 -22 8 8 -35 256 -54 319 -31 96 -112 253 -183 351 -76 107 -160 201
-153 174z"/>
<path d="M3316 8368 c-267 -613 -408 -962 -461 -1143 -70 -238 -140 -413 -221
-556 -79 -139 -157 -297 -178 -363 -36 -106 -41 -185 -22 -324 10 -71 15 -140
11 -153 -4 -12 -30 -60 -57 -106 -86 -145 -108 -201 -108 -268 0 -97 1 -97
148 -6 72 45 145 93 161 107 60 50 239 341 335 546 78 166 104 245 131 403 30
173 67 320 134 526 51 161 103 356 166 634 35 150 38 178 50 450 16 339 18
455 7 455 -4 0 -47 -91 -96 -202z"/>
<path d="M2408 8262 c-1 -4 -49 -47 -106 -96 -57 -49 -106 -95 -109 -102 -9
-23 18 -75 44 -85 12 -5 23 -17 23 -27 0 -24 30 -112 38 -112 4 0 31 89 61
198 30 108 58 205 63 215 5 10 5 17 -1 17 -5 0 -11 -3 -13 -8z"/>
<path d="M4185 8108 c-6 -35 -10 -39 -30 -34 -28 7 -28 7 -162 -191 l-110
-162 -6 -178 c-6 -163 -5 -179 12 -198 42 -45 65 -116 106 -320 15 -71 27
-131 28 -132 1 -1 29 -4 62 -8 l60 -7 34 64 c88 161 128 214 264 348 149 145
247 263 247 299 0 28 -19 65 -63 120 l-35 44 38 51 c36 47 38 52 23 68 -15 17
-15 20 6 42 13 13 18 27 13 30 -6 3 -116 50 -245 105 l-236 98 -6 -39z"/>
<path d="M2914 7763 c-303 -464 -550 -867 -644 -1049 -42 -81 -50 -106 -50
-151 0 -96 36 -133 115 -119 40 8 41 9 100 154 24 59 155 365 293 680 137 314
248 572 246 572 -1 0 -28 -39 -60 -87z"/>
<path d="M3741 7568 c-25 -134 -40 -170 -86 -210 -89 -79 -82 -10 -89 -823 -3
-396 -9 -827 -12 -959 l-7 -238 24 7 c68 20 447 249 520 314 l43 38 -12 104
c-18 141 -47 304 -152 834 -49 248 -96 493 -104 545 -36 226 -89 450 -105 450
-5 0 -14 -28 -20 -62z"/>
<path d="M3451 6445 c-28 -49 -70 -147 -146 -345 -53 -138 -65 -182 -75 -269
-13 -117 -48 -247 -86 -324 -15 -29 -54 -92 -89 -142 -120 -174 -222 -377
-400 -796 -47 -110 -85 -203 -85 -206 0 -4 11 7 24 25 12 18 44 50 70 73 26
23 84 87 130 143 156 189 203 223 433 311 162 63 191 81 203 124 5 20 14 137
20 261 12 263 33 1171 27 1177 -3 2 -14 -12 -26 -32z"/>
<path d="M3230 6208 c-13 -18 -36 -57 -51 -88 -90 -184 -378 -461 -782 -750
-105 -75 -118 -87 -141 -139 -51 -114 -82 -291 -92 -521 -6 -128 -5 -147 10
-159 25 -21 19 -68 -14 -116 -35 -51 -38 -87 -10 -115 12 -12 18 -25 15 -30
-8 -13 13 -88 27 -97 63 -38 358 139 358 216 0 31 46 172 120 366 40 105 94
256 122 337 50 149 90 225 169 318 64 76 140 267 233 585 26 88 52 173 57 189
13 40 7 41 -21 4z"/>
<path d="M3765 5111 c-32 -64 -88 -546 -121 -1053 -3 -49 -10 -88 -15 -88 -5
0 -45 35 -88 78 l-80 77 89 435 c88 428 98 490 82 490 -5 0 -53 -32 -108 -71
-54 -39 -118 -80 -141 -90 -41 -19 -42 -20 -48 -84 -6 -56 3 -292 21 -516 l6
-76 -73 -62 c-40 -33 -75 -57 -79 -52 -10 16 25 416 55 634 3 20 2 37 -2 37
-25 -1 -170 -246 -194 -327 -7 -24 -16 -43 -20 -43 -4 0 -17 13 -28 29 l-21
29 24 124 c13 68 22 125 20 127 -6 6 -91 -29 -102 -42 -6 -7 -27 -79 -47 -161
-63 -261 -117 -404 -148 -393 -18 6 -24 60 -19 190 4 92 2 117 -8 117 -7 0
-37 -18 -67 -40 l-53 -41 0 -187 c0 -133 -4 -192 -12 -200 -16 -16 -57 -15
-64 1 -3 8 11 58 31 113 34 94 39 144 14 144 -6 0 -7 13 -4 34 4 18 3 36 -2
39 -12 7 -53 -11 -53 -23 0 -17 -101 -243 -117 -262 -8 -9 -41 -26 -74 -38
-58 -22 -109 -54 -109 -69 0 -4 87 -6 193 -4 105 2 538 8 962 13 423 6 771 13
773 15 3 3 -10 212 -55 838 -3 48 -9 90 -14 92 -13 9 -63 -15 -116 -57 -29
-22 -57 -38 -62 -36 -5 1 -1 24 11 50 l20 48 -22 97 c-12 54 -24 101 -27 106
-2 4 -13 2 -24 -3 -17 -10 -19 -7 -19 28 0 64 -38 84 -65 33z"/>
<path d="M2623 3823 l-572 -3 -5 -43 c-3 -23 -7 -75 -8 -115 l-3 -72 445 0
c245 0 752 3 1128 7 l682 6 0 21 c-1 37 -27 186 -34 194 -8 7 -687 9 -1633 5z"/>
<path d="M1820 3210 l0 -220 1300 0 1299 0 3 216 c2 119 1 218 -1 220 -2 2
-589 4 -1303 4 l-1298 0 0 -220z"/>
<path d="M1690 2640 l0 -230 1510 0 1510 0 0 230 0 230 -1510 0 -1510 0 0
-230z"/>
<path d="M1890 1115 l0 -1115 1280 0 1280 0 0 1115 0 1115 -1280 0 -1280 0 0
-1115z m990 640 l0 -315 -170 0 -170 0 0 308 c0 170 3 312 7 315 3 4 80 7 170
7 l163 0 0 -315z m498 -2 l2 -313 -170 0 -170 0 0 315 0 315 168 -2 167 -3 3
-312z m532 2 l0 -315 -170 0 -170 0 0 315 0 315 170 0 170 0 0 -315z"/>
</g>
</svg>
