<?xml version="1.0" standalone="no"?>
<!DOCTYPE svg PUBLIC "-//W3C//DTD SVG 20010904//EN"
 "http://www.w3.org/TR/2001/REC-SVG-20010904/DTD/svg10.dtd">
<svg version="1.0" xmlns="http://www.w3.org/2000/svg"
 width="640.000000pt" height="1280.000000pt" viewBox="0 0 640.000000 1280.000000"
 preserveAspectRatio="xMidYMid meet">
<metadata>
Created by potrace 1.15, written by Peter Selinger 2001-2017
</metadata>
<g transform="translate(0.000000,1280.000000) scale(0.100000,-0.100000)"
fill="#000000" stroke="none">
<path d="M1866 12765 c-15 -27 -29 -38 -60 -46 -23 -6 -54 -17 -70 -25 -22
-11 -31 -12 -37 -3 -4 7 -19 10 -38 6 -30 -6 -31 -5 -31 26 0 18 -6 42 -14 52
-13 18 -15 19 -33 3 -10 -9 -30 -20 -46 -23 -15 -4 -37 -20 -48 -36 -11 -16
-38 -38 -59 -49 -40 -20 -80 -85 -80 -128 0 -32 24 -86 58 -129 39 -51 43 -65
23 -90 -23 -28 -55 -37 -81 -21 -18 11 -23 10 -39 -11 -13 -17 -23 -22 -39
-16 -16 4 -22 2 -22 -8 0 -9 -6 -17 -12 -20 -10 -3 -8 -13 5 -39 19 -35 19
-37 -2 -83 -27 -61 -26 -69 5 -110 26 -35 87 -65 130 -65 23 0 25 -3 19 -28
-4 -22 0 -33 20 -52 35 -33 35 -86 0 -102 -32 -14 -34 -58 -4 -76 l21 -14 -21
-14 c-27 -19 -27 -48 0 -73 13 -12 17 -21 10 -26 -21 -12 -11 -53 17 -75 26
-21 27 -26 26 -103 0 -45 -4 -105 -8 -132 -7 -41 -5 -53 8 -64 9 -7 16 -25 16
-40 0 -61 53 -161 85 -161 16 0 55 43 55 61 1 29 38 124 43 109 3 -8 10 -55
17 -105 16 -129 56 -343 86 -464 32 -129 114 -342 148 -381 13 -16 27 -44 31
-62 4 -18 30 -95 57 -171 l50 -138 -37 -112 c-46 -137 -62 -269 -38 -306 11
-18 14 -38 9 -77 -8 -69 9 -89 67 -80 45 7 87 -13 87 -42 0 -9 6 -28 13 -43
31 -59 44 -115 39 -172 -3 -38 1 -72 11 -100 31 -85 48 -161 42 -186 -3 -14
-16 -42 -29 -61 -29 -45 -101 -225 -125 -315 -45 -164 -60 -408 -32 -532 11
-52 11 -87 1 -208 -15 -178 -6 -337 26 -495 65 -312 83 -412 89 -490 4 -47 13
-130 20 -185 8 -55 14 -161 13 -235 -2 -108 3 -154 20 -230 12 -52 22 -104 22
-116 0 -32 66 -227 90 -266 13 -22 20 -51 20 -87 0 -60 -23 -391 -41 -577 -6
-66 -8 -130 -5 -141 4 -12 0 -70 -9 -129 -8 -60 -18 -129 -21 -154 -6 -51 -36
-188 -65 -305 -30 -117 -61 -177 -123 -239 l-55 -56 -188 -40 c-103 -22 -205
-45 -226 -51 -44 -12 -59 -40 -50 -93 3 -19 2 -69 -2 -110 l-7 -76 -60 -21
c-33 -13 -62 -28 -65 -36 -6 -16 13 -66 44 -113 21 -32 23 -46 23 -161 l0
-125 -35 -41 c-35 -41 -35 -42 -35 -137 0 -91 -1 -97 -23 -105 -17 -7 -26 -4
-42 16 -29 35 -95 43 -124 14 -11 -11 -21 -30 -21 -40 0 -24 -9 -26 -133 -42
-95 -12 -98 -12 -118 9 -16 18 -31 22 -78 22 -39 0 -63 -5 -71 -14 -8 -10 -12
-69 -13 -184 -2 -164 -1 -170 20 -188 18 -16 23 -31 25 -84 l3 -65 69 -3 c62
-3 70 -6 93 -33 14 -16 44 -40 67 -54 l42 -24 3 -73 c1 -40 6 -75 11 -78 5 -3
5 -61 0 -135 -6 -72 -21 -281 -35 -465 -13 -184 -26 -378 -28 -431 -2 -52 -6
-100 -10 -106 -3 -5 -27 -18 -52 -27 -36 -14 -45 -22 -45 -42 0 -13 4 -24 8
-24 5 0 19 -9 32 -20 20 -17 22 -25 16 -71 -5 -37 -4 -54 5 -60 15 -9 14 -37
-3 -278 -10 -147 -13 -166 -35 -191 -17 -20 -23 -40 -23 -74 l0 -46 2209 0
c1956 0 2210 2 2221 15 19 23 7 105 -19 124 -17 13 -23 33 -30 101 -17 158
-24 370 -12 370 7 0 11 23 11 60 0 55 2 61 30 82 44 32 37 58 -20 78 -39 13
-46 20 -52 50 -4 19 -17 170 -28 335 -11 165 -25 338 -30 385 -6 47 -14 150
-19 230 -7 120 -7 148 5 161 8 8 14 36 14 61 0 82 8 102 56 132 25 16 52 39
60 51 12 19 27 24 89 30 l75 7 0 68 c0 60 3 69 24 83 23 16 23 16 18 184 -5
199 -7 203 -91 203 -47 0 -58 -4 -76 -25 l-20 -26 -143 17 c-128 15 -145 19
-152 38 -14 38 -47 59 -82 53 -18 -3 -40 -8 -49 -12 -13 -5 -17 8 -26 80 -9
74 -15 91 -39 116 -27 28 -29 36 -32 134 -4 96 -2 107 19 142 32 51 59 111 59
132 0 30 -28 58 -77 76 -26 10 -51 23 -55 29 -4 6 -8 61 -8 121 0 129 -11 155
-63 155 -18 0 -48 5 -67 10 -19 6 -87 19 -150 30 l-115 20 -51 53 c-49 50 -51
55 -73 162 -13 61 -34 156 -47 213 -15 65 -22 117 -18 145 5 40 0 96 -47 442
-30 226 -30 260 4 318 l28 47 -20 133 c-30 197 -36 291 -21 326 10 25 7 85
-14 333 -24 274 -48 647 -63 960 l-6 117 37 -11 c72 -22 175 25 236 109 15 21
39 70 53 108 14 39 32 84 41 100 8 17 22 77 31 134 8 56 22 115 30 130 22 43
39 244 26 297 -6 24 -37 95 -68 156 -37 74 -58 130 -61 161 -2 26 -9 50 -13
53 -5 3 -9 16 -9 29 0 33 -10 55 -25 55 -8 0 -16 9 -20 19 -3 10 -13 21 -23
23 -10 3 -41 53 -74 119 l-56 114 29 104 c16 58 29 110 29 117 0 12 -57 34
-86 34 -7 0 -20 -22 -30 -50 -10 -27 -20 -50 -23 -50 -9 0 -86 140 -104 190
-9 25 -41 76 -70 115 -54 73 -232 255 -248 255 -5 0 -34 16 -64 36 -42 28 -62
35 -86 32 -28 -4 -35 1 -70 47 -21 29 -39 57 -39 63 0 6 14 25 31 42 29 28 31
35 26 78 -3 29 0 68 10 101 28 97 -5 213 -64 227 -20 5 -23 11 -18 28 17 51
17 155 0 211 -9 31 -15 59 -12 61 3 4 216 81 249 91 10 3 15 9 12 14 -6 10
-70 6 -227 -12 l-88 -11 -37 34 c-20 18 -48 40 -60 48 l-23 15 70 99 c39 55
69 101 67 103 -2 3 -53 -32 -112 -77 -60 -44 -119 -83 -131 -86 -14 -4 -41 5
-74 23 l-53 28 -32 173 c-18 96 -35 176 -37 179 -5 4 -10 -44 -23 -229 l-6
-88 -51 0 -52 0 -194 193 c-208 206 -209 205 -26 -38 66 -88 120 -163 120
-167 0 -3 -18 -18 -39 -33 l-39 -27 -121 48 c-67 26 -177 66 -246 90 l-125 44
-56 112 c-67 135 -123 277 -178 450 -55 176 -134 355 -177 398 -38 40 -43 73
-17 102 9 11 17 31 18 45 0 24 7 29 60 44 43 13 68 28 88 51 32 38 33 56 7
108 -25 49 -25 55 1 92 17 23 19 32 9 38 -7 4 -9 13 -5 20 5 8 0 11 -16 10
-40 -4 -49 -1 -49 15 0 11 -10 14 -44 11 -32 -3 -46 -1 -50 10 -3 8 -15 14
-26 14 -16 0 -20 7 -20 31 0 22 12 44 48 82 27 29 61 78 76 109 15 32 44 71
64 88 42 34 70 116 52 151 -15 27 -23 24 -44 -16z m341 -2013 c26 -16 111 -62
188 -102 197 -103 191 -98 187 -157 l-4 -49 -126 -37 c-70 -21 -135 -40 -144
-43 -13 -5 -18 2 -23 33 -11 67 -44 162 -95 271 -28 58 -50 107 -50 108 0 10
24 1 67 -24z m376 -399 c3 -5 2 -31 0 -60 l-5 -52 -64 -33 -63 -33 -54 53
c-29 28 -58 52 -65 52 -15 0 -38 47 -28 58 4 4 58 10 119 13 62 3 122 6 134 7
12 1 24 -1 26 -5z m43 -191 c6 -4 15 -23 19 -42 4 -19 20 -62 35 -95 29 -61
70 -200 70 -235 0 -31 -15 -31 -76 0 -92 46 -154 129 -154 204 0 11 -11 31
-24 45 -16 17 -26 41 -28 65 l-3 40 50 12 c60 14 96 16 111 6z"/>
</g>
</svg>
