<?xml version="1.0" standalone="no"?>
<!DOCTYPE svg PUBLIC "-//W3C//DTD SVG 20010904//EN"
 "http://www.w3.org/TR/2001/REC-SVG-20010904/DTD/svg10.dtd">
<svg version="1.0" xmlns="http://www.w3.org/2000/svg"
 width="640.000000pt" height="1280.000000pt" viewBox="0 0 640.000000 1280.000000"
 preserveAspectRatio="xMidYMid meet">
<metadata>
Created by potrace 1.15, written by Peter Selinger 2001-2017
</metadata>
<g transform="translate(0.000000,1280.000000) scale(0.100000,-0.100000)"
fill="#000000" stroke="none">
<path d="M1502 12757 c23 -75 -37 -134 -178 -176 -123 -36 -164 -76 -164 -163
0 -28 -10 -67 -25 -100 -14 -29 -25 -65 -25 -79 0 -26 52 -109 68 -109 5 0 15
-11 22 -26 8 -14 43 -46 79 -71 65 -47 65 -47 37 -54 -48 -13 -85 0 -100 35
-7 17 -20 37 -28 44 -14 11 -17 7 -23 -38 -8 -58 -21 -63 -92 -31 l-42 19 -3
-26 c-4 -36 -41 -41 -81 -11 l-30 22 6 -33 7 -32 -35 6 c-20 4 -35 3 -35 -3 0
-17 92 -132 104 -128 6 2 10 18 8 35 -3 26 2 34 27 46 42 22 46 21 66 -24 27
-60 37 -59 34 1 -3 44 0 54 16 60 47 18 60 11 80 -43 l19 -53 17 55 c17 57 30
67 89 69 21 1 28 -6 38 -33 20 -54 38 -63 67 -36 25 23 25 23 40 4 8 -10 18
-28 22 -39 5 -17 9 -14 18 19 6 22 16 41 22 43 6 2 25 -21 43 -51 17 -31 35
-58 40 -61 5 -3 19 9 33 26 l24 30 33 -37 c33 -38 65 -102 56 -111 -2 -3 -26
2 -53 10 -117 38 -324 52 -553 38 -143 -9 -218 -30 -257 -73 -17 -19 -17 -21
8 -66 16 -30 44 -59 75 -79 71 -48 71 -47 79 -100 8 -58 18 -78 58 -120 l30
-32 -31 -30 c-36 -32 -36 -33 -23 -79 7 -21 6 -43 0 -59 -8 -22 -5 -32 21 -64
l30 -38 -25 -25 c-14 -14 -25 -31 -25 -39 0 -29 90 -229 120 -267 31 -39 32
-41 15 -66 -9 -14 -15 -34 -12 -44 3 -11 -5 -28 -19 -41 -33 -31 -30 -49 11
-89 27 -26 35 -42 35 -69 0 -20 6 -56 14 -81 41 -128 53 -309 36 -544 -16
-222 -8 -279 76 -538 42 -129 58 -195 65 -267 5 -53 11 -108 14 -122 5 -20 -9
-46 -61 -123 -86 -128 -158 -280 -191 -403 -21 -81 -25 -122 -26 -233 -1 -142
8 -206 49 -332 l26 -78 48 0 c26 0 73 -10 104 -21 l55 -21 -30 -44 c-41 -60
-59 -106 -59 -152 0 -45 14 -60 74 -82 26 -9 61 -36 94 -71 l52 -56 -27 -59
c-17 -36 -29 -82 -31 -119 l-4 -60 46 -42 c25 -23 46 -48 46 -55 0 -7 -22 -44
-50 -82 -74 -101 -73 -115 20 -244 67 -92 170 -281 170 -311 0 -8 -27 -68 -60
-135 -161 -325 -283 -895 -221 -1031 34 -75 134 -145 207 -145 21 0 21 -3 -16
-98 -112 -284 -133 -522 -75 -837 14 -77 55 -344 91 -594 l65 -455 -31 -85
c-63 -173 -77 -325 -40 -422 18 -49 18 -55 4 -118 -26 -111 -43 -265 -55 -502
-14 -265 -2 -520 32 -675 l20 -96 -27 -40 c-27 -39 -28 -40 -17 -124 7 -55 7
-103 1 -137 -8 -44 -7 -59 11 -102 l21 -51 -30 -154 c-41 -205 -52 -230 -118
-253 -80 -29 -138 -72 -161 -121 -12 -23 -21 -45 -21 -49 0 -4 702 -7 1559 -7
l1560 0 -20 45 c-29 64 -51 320 -81 915 l-12 242 70 63 69 63 -2 68 c0 38 -11
196 -24 352 l-23 282 22 16 c18 13 22 25 22 74 0 54 3 60 34 87 l34 28 -8 90
c-5 50 -11 120 -14 157 l-6 67 50 28 c36 20 50 34 50 49 0 12 -18 167 -40 344
-37 294 -39 325 -25 346 8 13 15 36 15 52 0 15 -27 205 -60 420 -33 216 -60
403 -60 415 0 16 18 39 54 70 43 37 62 47 90 47 158 0 224 149 300 680 l32
225 51 6 c69 9 138 45 183 96 21 24 62 89 92 145 29 57 85 156 123 222 82 141
85 160 32 240 -20 31 -37 59 -37 62 0 3 29 53 64 110 l65 103 -21 26 -21 27
46 46 46 46 -217 112 c-119 61 -284 148 -367 192 -161 86 -163 86 -164 20 -1
-31 -18 -45 -34 -29 -6 6 -14 11 -18 11 -4 0 -51 -67 -104 -150 l-97 -150 -70
65 c-38 35 -90 77 -115 92 -33 21 -52 43 -75 88 -17 32 -41 76 -54 97 -15 23
-32 78 -45 143 -60 316 -206 553 -394 646 -52 25 -65 37 -70 60 -4 16 -21 41
-40 54 -28 22 -43 54 -105 214 l-72 188 38 53 37 52 -16 67 c-9 36 -32 123
-51 194 l-34 127 34 15 c40 16 41 25 12 85 -25 54 -28 138 -5 192 15 36 15 36
89 42 223 17 510 36 556 36 28 0 52 5 52 10 0 6 -3 10 -6 10 -17 0 -689 93
-692 95 -2 2 -5 18 -5 36 l-2 32 302 131 c166 72 294 132 285 134 -9 1 -168
-24 -352 -57 l-335 -59 -37 36 c-21 20 -38 40 -38 45 0 4 73 103 163 218 175
227 183 239 168 239 -6 0 -119 -82 -252 -181 l-242 -182 -76 19 c-42 10 -79
20 -83 23 -4 3 -34 121 -68 261 -33 140 -64 264 -69 275 -6 13 -10 -83 -10
-266 l-1 -287 -47 -6 c-27 -4 -78 -17 -115 -29 l-68 -21 -272 182 c-149 100
-273 181 -274 179 -1 -1 90 -99 202 -217 112 -118 204 -219 204 -226 0 -6 -7
-17 -16 -25 -18 -15 -48 -69 -41 -75 2 -2 17 14 32 36 28 40 48 47 52 19 2 -8
-15 -26 -36 -41 l-39 -28 -274 0 -275 0 0 138 c0 167 -15 255 -87 512 -104
371 -108 396 -115 795 l-6 350 -74 144 c-93 179 -101 227 -51 284 28 32 32 43
28 82 l-3 45 45 6 c90 13 139 43 170 104 17 34 17 38 -2 113 l-20 78 26 37
c23 32 24 38 11 48 -11 8 -13 20 -8 44 l6 34 -35 -22 c-52 -32 -61 -29 -53 18
l7 40 -34 -14 c-18 -8 -46 -16 -62 -18 -25 -2 -31 1 -39 27 -13 40 -11 39 -46
21 -16 -9 -32 -16 -36 -16 -3 0 -5 19 -5 43 0 37 6 48 41 82 158 153 157 432
-2 618 -48 56 -61 59 -47 14z m49 -69 c26 -98 -16 -207 -98 -254 -25 -15 -91
-38 -147 -51 -55 -13 -110 -26 -121 -30 -33 -9 16 39 146 142 125 100 176 156
185 204 9 43 21 39 35 -11z m56 -60 c54 -105 26 -217 -79 -320 -59 -57 -119
-94 -171 -103 -66 -13 -132 32 -91 62 9 7 47 24 83 38 150 58 211 139 219 291
3 46 6 84 8 84 2 0 16 -24 31 -52z m-202 -48 c-3 -5 -54 -48 -113 -95 l-107
-85 -3 34 c-2 20 2 44 8 56 13 24 73 56 150 81 67 21 73 22 65 9z m-88 -1096
c86 -18 183 -51 183 -64 0 -4 -17 -4 -37 1 -54 12 -200 11 -267 -2 -71 -15
-83 -6 -66 45 11 35 13 36 61 36 28 0 84 -7 126 -16z m-57 -140 c22 -20 40
-40 40 -45 0 -5 -20 -9 -44 -9 -41 0 -44 2 -50 31 -14 71 -4 75 54 23z m155
-101 c10 -44 32 -71 75 -93 69 -35 106 -142 103 -305 -1 -126 -21 -191 -22
-73 -1 91 -23 211 -49 271 -12 27 -33 52 -55 66 -39 24 -63 66 -73 131 -8 48
9 50 21 3z m-110 -3 c7 0 15 -9 18 -21 8 -29 -32 -42 -117 -37 -53 3 -71 8
-82 23 -22 30 -2 38 62 25 52 -11 60 -10 69 4 5 9 16 14 23 11 8 -3 19 -5 27
-5z m49 -131 c50 -17 92 -32 94 -34 1 -1 0 -9 -4 -18 -9 -25 -40 -30 -94 -16
-39 10 -57 10 -90 0 -35 -10 -46 -9 -83 7 -40 18 -75 48 -65 57 6 7 110 34
132 34 10 1 60 -13 110 -30z m-3 -139 c33 -9 59 -43 41 -54 -4 -2 -67 -1 -139
2 -121 4 -133 6 -139 25 -4 12 -1 23 7 28 19 12 186 11 230 -1z m-15 -171 c8
-17 34 -51 56 -76 46 -49 44 -60 -20 -79 l-37 -11 40 -7 c71 -13 102 -26 126
-52 l24 -26 -35 8 c-19 5 -88 7 -152 6 -119 -2 -145 6 -93 30 30 14 32 46 6
103 l-18 40 41 46 c23 26 42 47 43 48 1 1 10 -13 19 -30z m115 -290 c23 -11
39 -22 37 -24 -1 -2 -28 1 -58 6 -33 5 -79 5 -115 -1 -33 -5 -74 -10 -92 -10
-29 0 -32 2 -24 23 5 13 20 25 37 29 51 12 171 0 215 -23z m-48 -158 l21 -21
-56 0 c-31 0 -63 -3 -71 -6 -10 -3 -16 3 -19 20 -7 35 0 39 55 33 32 -3 56
-12 70 -26z m8 -97 c10 -12 2 -14 -50 -14 -44 0 -61 4 -61 13 0 8 2 16 4 18
10 10 96 -4 107 -17z m-61 -194 c0 -90 29 -353 51 -461 24 -120 71 -258 149
-434 33 -75 60 -138 60 -142 0 -10 -71 6 -96 22 -52 34 -177 343 -192 477 -4
35 -6 183 -4 331 2 227 5 267 17 267 12 0 15 -14 15 -60z m2210 -414 c0 -11
-342 -296 -355 -296 -34 0 -4 29 171 162 179 138 184 141 184 134z m-672 -291
c11 -25 11 -25 -38 -25 -65 0 -143 -17 -209 -46 -63 -28 -79 -23 -36 11 47 38
167 77 256 84 9 0 21 -10 27 -24z m269 -15 c69 -32 129 -74 143 -100 7 -13 -5
-10 -48 13 -31 17 -95 45 -142 62 -60 21 -86 36 -88 49 -4 16 0 18 35 12 21
-4 66 -20 100 -36z m-272 -92 c9 -89 4 -132 -17 -136 -14 -3 -18 4 -18 30 0
18 -6 61 -14 96 -7 34 -10 64 -8 67 3 3 15 5 28 5 20 0 23 -6 29 -62z m102
-85 c-2 -27 -3 -5 -3 47 0 52 1 74 3 48 2 -27 2 -69 0 -95z m127 117 c-1 -3
-5 -44 -9 -91 -6 -78 -9 -86 -26 -82 -16 5 -19 15 -19 63 0 91 9 122 34 118
11 -2 20 -5 20 -8z m-345 -50 c17 -80 15 -130 -7 -130 -14 0 -20 14 -30 68 -6
37 -15 77 -18 90 -5 19 -2 22 19 22 22 0 27 -6 36 -50z m942 -16 c-135 -35
-250 -64 -257 -64 -13 0 -39 28 -33 35 6 5 487 93 514 93 11 0 -90 -28 -224
-64z m-1053 -35 c13 -26 24 -59 25 -75 3 -46 -23 -35 -43 17 -9 26 -25 57 -34
70 -22 32 -20 41 7 37 15 -2 29 -18 45 -49z m569 38 c-2 -7 -11 -39 -18 -72
-11 -49 -14 -55 -17 -31 -4 35 17 116 30 116 6 0 8 -6 5 -13z m-664 -89 c16
-26 27 -55 25 -65 -3 -13 -9 -8 -24 22 -11 22 -29 53 -39 69 -15 22 -16 28 -5
24 8 -2 28 -25 43 -50z m735 -10 c-24 -73 -44 -102 -33 -48 10 49 36 110 45
110 5 0 -1 -28 -12 -62z m-784 -50 c28 -39 17 -43 -19 -8 -19 19 -35 38 -35
42 0 14 38 -10 54 -34z m609 3 c121 -42 206 -110 252 -200 14 -28 25 -55 25
-61 0 -5 -44 14 -97 43 -54 28 -150 72 -213 98 -107 42 -117 49 -147 93 -18
27 -31 51 -29 55 8 12 149 -6 209 -28z m267 31 c0 -14 -61 -105 -66 -99 -7 6
22 65 44 90 17 19 22 21 22 9z m-494 -47 c13 -8 24 -20 24 -25 0 -5 -26 -23
-57 -39 -32 -16 -122 -72 -201 -125 -79 -54 -151 -96 -160 -94 -21 4 -28 68
-13 119 12 41 46 70 142 123 115 63 209 78 265 41z m-681 -21 c71 -8 131 -17
133 -19 2 -2 6 -21 9 -43 5 -40 5 -41 -28 -46 -93 -15 -281 -25 -298 -17 -25
14 -87 84 -106 122 l-17 32 88 -7 c49 -4 147 -14 219 -22z m253 -29 c48 -45
27 -46 -24 0 -21 19 -33 34 -26 35 7 0 29 -16 50 -35z m937 -25 c-30 -44 -35
-47 -35 -26 0 17 50 79 58 72 3 -3 -8 -24 -23 -46z m-1452 -34 l30 -38 -22
-72 c-52 -165 -231 -480 -349 -615 l-38 -44 -13 124 c-6 68 -23 183 -37 254
-72 381 -72 382 26 290 70 -68 129 -157 170 -257 l28 -71 45 69 c24 38 66 109
92 158 l48 89 -12 71 c-6 39 -14 82 -17 96 -5 23 -5 24 7 5 7 -11 26 -37 42
-59z m494 0 c15 -13 26 -27 22 -30 -6 -6 -69 35 -69 47 0 14 19 7 47 -17z
m1339 -17 c228 -30 307 -47 164 -35 -107 9 -359 26 -397 26 -26 0 -33 4 -33
20 0 26 -8 26 266 -11z m-335 -19 c-12 -11 -27 -17 -33 -14 -11 7 21 33 42 33
10 0 8 -6 -9 -19z m-435 -52 c37 -29 79 -63 93 -75 l26 -23 -68 3 c-51 1 -70
-2 -78 -13 -6 -9 -7 -68 -3 -157 l6 -143 -43 0 c-71 0 -90 8 -83 36 6 25 -1
30 -25 15 -12 -8 -12 -16 -2 -54 10 -34 20 -48 44 -59 l32 -16 -30 -13 c-42
-18 -85 -49 -85 -60 0 -14 36 -11 49 5 15 17 49 27 56 16 3 -5 -6 -17 -20 -26
-33 -22 -32 -34 4 -34 42 0 63 -25 59 -69 -3 -34 -4 -36 -38 -33 -19 1 -54 9
-77 18 -36 13 -43 20 -43 42 0 47 -14 55 -38 22 -13 -16 -26 -30 -31 -30 -10
0 -29 91 -37 186 l-7 72 71 37 c39 20 78 48 87 62 17 25 65 157 65 176 0 6
-24 8 -57 5 -88 -8 -91 0 -19 48 36 24 78 59 93 79 15 19 29 35 30 35 1 0 33
-24 69 -52z m-987 -16 c10 -19 -19 -94 -93 -241 -95 -187 -278 -441 -318 -441
-4 0 25 45 66 99 123 166 240 377 297 535 25 70 32 77 48 48z m331 -54 c0 -6
9 -31 21 -54 19 -41 19 -45 5 -95 -24 -79 -21 -124 8 -147 l25 -19 -65 -97
-65 -97 -39 31 c-21 17 -49 47 -62 68 -21 34 -22 46 -20 164 3 136 -1 154 -55
226 l-24 32 135 0 c98 0 136 -3 136 -12z m-279 -24 c11 -13 8 -26 -19 -80 -18
-35 -32 -76 -32 -90 0 -22 -114 -254 -125 -254 -2 0 3 21 11 47 26 86 16 90
-32 13 -62 -102 -174 -237 -283 -344 l-91 -88 -46 7 c-26 4 -58 11 -70 15 -23
9 -23 10 -8 62 16 53 39 98 51 98 3 0 26 -18 50 -41 34 -31 48 -38 56 -30 9 9
8 16 -1 29 -50 69 -67 180 -38 247 l13 30 6 -30 c3 -16 9 -70 13 -118 7 -97
14 -107 76 -107 38 0 79 37 162 147 87 116 244 395 270 481 9 26 19 28 37 6z
m-618 -58 c3 -8 -30 -65 -75 -127 -44 -63 -86 -127 -95 -142 -27 -52 -6 -39
40 25 25 35 66 86 91 113 38 41 47 47 56 35 5 -8 9 -23 8 -32 -2 -9 -58 -75
-125 -146 -68 -72 -123 -133 -123 -136 0 -3 46 26 103 64 57 39 107 70 111 70
5 0 -28 -39 -73 -86 -77 -81 -153 -181 -168 -221 -4 -10 20 5 53 33 62 54 155
117 162 110 2 -2 -28 -96 -66 -208 -38 -111 -75 -229 -82 -260 -7 -32 -17 -58
-21 -58 -11 0 -46 115 -60 195 -14 81 -6 229 16 325 32 136 109 300 192 404
24 31 45 56 47 56 2 0 6 -6 9 -14z m1636 -161 c75 -44 88 -74 66 -158 -15 -58
-51 -135 -79 -172 -15 -19 -15 -18 -16 19 0 22 7 47 16 57 14 16 14 20 -6 47
-31 41 -43 102 -24 123 20 22 18 32 -16 64 -23 22 -27 32 -19 42 15 17 9 18
78 -22z m-986 -92 c-24 -45 -40 -52 -48 -20 -5 18 2 36 27 69 l33 44 3 -29 c2
-15 -5 -45 -15 -64z m-119 -86 c-74 -122 -157 -238 -220 -305 l-64 -67 59 95
c32 52 103 163 157 247 89 136 99 149 102 122 2 -20 -8 -49 -34 -92z m358
-136 l32 -28 -12 -119 c-13 -125 -40 -199 -97 -269 l-25 -30 10 30 c22 69 40
215 40 326 0 72 4 119 10 119 5 0 24 -13 42 -29z m-87 -88 c-13 -183 -22 -199
-24 -45 -1 125 1 142 15 142 15 0 16 -11 9 -97z m177 2 c15 -33 -9 -279 -52
-549 -17 -103 -29 -190 -27 -193 7 -6 61 149 80 227 17 67 41 203 53 299 5 47
8 52 19 38 7 -10 14 -71 18 -154 3 -76 10 -149 15 -162 l9 -25 6 30 c3 16 11
76 18 134 7 58 16 109 21 115 19 22 39 -25 54 -126 25 -182 66 -289 154 -403
l53 -69 -33 -30 -32 -29 -20 29 c-29 43 -84 153 -98 198 -13 42 -30 68 -30 46
0 -28 54 -170 87 -230 l36 -64 -39 -33 c-22 -18 -42 -33 -46 -34 -16 0 -60
105 -83 201 -26 110 -35 130 -35 82 0 -55 31 -196 56 -258 l25 -60 -108 -103
c-59 -56 -121 -112 -137 -124 l-29 -22 6 80 6 79 -21 -45 c-11 -25 -25 -72
-30 -105 -11 -58 -15 -64 -112 -162 -55 -57 -103 -103 -107 -103 -12 0 -17
163 -8 260 12 128 45 254 109 419 86 223 150 492 181 764 7 59 16 107 21 107
5 0 14 -11 20 -25z m-401 -91 c-6 -32 -11 -75 -11 -96 0 -32 4 -39 26 -44 23
-6 24 -8 10 -16 -12 -7 -25 -5 -43 7 -24 16 -25 21 -21 84 3 36 14 86 24 111
23 55 29 34 15 -46z m-101 19 c-52 -94 -137 -206 -208 -276 -60 -59 -129 -117
-140 -117 -2 0 26 33 63 73 37 39 122 141 187 225 66 83 122 152 125 152 3 0
-10 -26 -27 -57z m687 -75 l6 -59 -37 21 c-20 12 -36 23 -36 25 0 2 10 29 22
60 19 52 23 55 30 34 5 -12 11 -49 15 -81z m-446 -23 c-37 -133 -101 -232
-183 -279 -32 -19 -31 -18 14 33 59 65 96 129 144 250 43 109 55 107 25 -4z
m531 8 c9 -10 45 -67 81 -128 100 -168 172 -245 256 -274 19 -6 94 -11 172
-11 145 0 211 -12 175 -32 -10 -6 -57 -13 -105 -16 -87 -5 -89 -14 -6 -27 l40
-7 -30 -15 c-55 -27 -106 -66 -127 -95 -11 -16 -18 -31 -16 -33 2 -2 26 12 54
31 27 20 65 44 86 55 44 23 118 40 118 28 0 -5 -4 -9 -9 -9 -11 0 -259 -264
-372 -396 -193 -226 -400 -497 -514 -674 -46 -71 -108 -147 -193 -235 -68 -71
-154 -160 -189 -197 -36 -38 -69 -68 -75 -68 -23 0 155 294 345 570 144 209
379 531 384 526 2 -1 -17 -42 -43 -90 -25 -48 -44 -89 -42 -92 21 -20 477 616
465 648 -3 8 -69 -52 -173 -158 -93 -94 -208 -206 -256 -249 -94 -84 -248
-251 -365 -398 -177 -220 -399 -584 -519 -849 -32 -70 -59 -126 -61 -124 -16
16 76 424 113 499 l15 32 -22 -25 c-61 -69 -185 -394 -230 -600 -18 -83 -23
-138 -23 -267 -1 -107 -5 -163 -12 -163 -5 0 -31 13 -57 30 -26 16 -47 26 -47
22 0 -27 34 -114 60 -156 17 -26 29 -50 27 -52 -8 -9 -74 49 -94 84 -18 29
-23 52 -23 106 0 284 168 850 311 1047 141 194 676 718 1067 1045 172 144 246
196 301 210 l46 11 -75 8 c-224 22 -376 119 -457 291 -39 81 -43 118 -23 178
13 41 20 44 42 19z m-1258 -42 c8 -12 -24 -39 -61 -52 -46 -16 -50 -46 -8 -66
41 -19 36 -33 -10 -33 -71 0 -75 12 -32 113 19 46 21 47 63 47 23 0 45 -4 48
-9z m288 -43 c-31 -51 -141 -139 -226 -182 -43 -21 -79 -36 -82 -34 -2 3 42
37 98 76 57 39 130 94 163 121 33 27 62 50 63 50 2 1 -5 -14 -16 -31z m1632
-148 l56 -95 -61 -3 c-34 -2 -62 -2 -64 0 -1 2 -5 52 -8 112 -7 128 -7 128 77
-14z m-1055 -2 c-13 -59 -32 -115 -55 -157 -57 -105 -61 -105 -51 1 8 90 9 93
64 170 31 43 57 78 58 78 2 0 -6 -41 -16 -92z m-129 57 c0 -21 -106 -224 -164
-315 -121 -187 -365 -488 -387 -474 -22 13 -1 49 124 209 145 187 268 364 342
495 27 47 54 88 59 92 17 12 26 9 26 -7z m603 -183 c59 -55 144 -102 222 -121
28 -7 56 -15 63 -17 8 -2 -31 -37 -85 -78 l-98 -73 -33 31 c-72 68 -158 241
-177 356 l-7 45 31 -46 c17 -25 55 -69 84 -97z m-1379 108 c-22 -11 -60 -22
-84 -26 -38 -6 -43 -5 -37 10 4 10 7 22 7 27 0 5 35 9 78 8 l77 -1 -41 -18z
m2119 -196 c18 -10 46 -28 63 -41 17 -13 57 -28 88 -34 71 -13 132 -38 202
-85 85 -56 88 -79 6 -39 -92 46 -154 65 -232 72 -62 6 -68 9 -122 61 -76 72
-78 103 -5 66z m-1323 -171 c-71 -184 -98 -268 -115 -355 -21 -108 -29 -276
-17 -358 l9 -65 -76 -84 c-88 -97 -91 -95 -71 43 18 121 59 274 149 556 92
287 93 288 128 350 41 70 38 32 -7 -87z m1247 83 c-8 -19 -249 -363 -370 -526
-72 -97 -154 -188 -291 -326 -207 -206 -308 -296 -286 -254 64 121 379 531
598 780 116 131 325 340 340 340 8 0 12 -6 9 -14z m36 -13 c-4 -10 -85 -196
-181 -413 -194 -442 -193 -439 -161 -390 12 19 51 98 85 175 35 77 64 132 64
123 0 -48 -137 -633 -241 -1023 -316 -1187 -744 -2410 -1123 -3210 -54 -115
-60 -123 -109 -151 -29 -17 -60 -34 -70 -37 -32 -12 -19 39 39 151 31 59 63
120 71 135 35 66 -9 34 -85 -62 -34 -41 -52 -46 -52 -11 0 28 66 119 158 219
46 50 80 91 75 91 -4 0 -45 -20 -91 -45 -55 -29 -84 -40 -87 -32 -9 30 -45
329 -45 376 0 95 91 452 197 776 157 480 433 1185 722 1848 222 509 287 645
339 710 77 97 182 259 267 412 136 245 256 433 228 358z m96 -44 c168 -112
392 -437 479 -694 30 -87 72 -272 72 -314 0 -15 -6 -21 -23 -21 -20 0 -34 25
-117 208 -94 209 -334 700 -350 716 -5 5 4 -29 20 -75 75 -216 80 -485 15
-719 -21 -78 -20 -88 10 -60 27 26 56 95 75 183 7 31 17 57 21 57 9 0 29 -114
29 -168 0 -35 -4 -43 -33 -61 -18 -11 -41 -29 -50 -39 -21 -23 -9 -36 43 -47
63 -13 76 -28 94 -106 9 -39 16 -75 16 -80 0 -5 -30 23 -67 62 -57 60 -124
109 -149 109 -4 0 11 -19 32 -42 70 -76 174 -219 174 -239 0 -4 -37 32 -82 78
-46 47 -96 94 -111 105 l-28 20 -44 -37 c-34 -27 -45 -32 -45 -20 0 9 18 82
40 163 72 262 85 345 85 547 -1 177 -1 182 -34 280 -18 55 -39 107 -47 115 -9
9 -3 -20 15 -72 16 -48 34 -111 39 -140 17 -85 24 -198 14 -198 -5 0 -36 33
-68 73 l-59 72 -6 -75 c-4 -41 -12 -363 -19 -715 -7 -352 -15 -689 -19 -749
l-6 -110 -55 -44 c-30 -24 -81 -69 -114 -100 l-58 -57 6 60 c24 232 63 838 77
1216 10 240 10 347 1 452 l-12 137 40 92 c22 50 42 93 44 95 2 2 36 -37 75
-86 39 -50 74 -91 77 -91 6 0 7 -1 -73 123 l-63 97 18 36 18 35 38 -56 c22
-30 40 -54 42 -52 3 2 -9 37 -26 77 -31 75 -36 100 -21 100 5 0 36 -18 70 -41z
m246 -153 c39 -39 100 -109 134 -155 72 -97 161 -272 161 -316 0 -17 16 -56
37 -90 20 -33 47 -85 60 -115 12 -30 28 -58 35 -62 7 -4 47 -22 88 -41 70 -31
160 -101 160 -124 0 -5 -51 -64 -112 -130 -168 -180 -198 -200 -198 -133 0 19
13 44 41 76 93 108 123 188 97 264 -16 50 -38 65 -38 26 0 -39 -60 -195 -86
-224 l-23 -27 8 30 c5 17 16 50 25 74 22 61 21 69 -16 73 l-31 3 -17 100 c-53
309 -177 572 -368 777 -40 43 -72 80 -72 83 0 14 49 -24 115 -89z m85 -4 c85
-88 163 -206 175 -267 7 -34 12 -41 -70 84 -27 42 -92 120 -144 174 -80 83
-91 97 -70 97 17 0 49 -25 109 -88z m-2063 -79 c-2 -5 -42 -73 -87 -152 l-83
-144 -19 37 c-23 44 -30 31 97 169 82 89 103 110 92 90z m134 -201 c-44 -86
-89 -279 -111 -477 -14 -129 -16 -135 -41 -165 l-20 -25 4 110 c7 170 80 437
154 563 31 54 42 49 14 -6z m616 -109 c-289 -395 -558 -822 -667 -1058 -31
-66 -113 -208 -160 -275 -27 -39 6 76 56 195 179 421 479 877 778 1183 44 45
82 82 83 82 2 0 -39 -57 -90 -127z m1067 -41 c0 -42 -7 -109 -13 -147 -17 -91
-71 -306 -82 -325 -9 -15 -4 319 7 508 l6 92 41 -25 42 -25 -1 -78z m241 -202
c154 -396 253 -717 284 -920 12 -73 40 -382 36 -388 -2 -1 -16 19 -33 46 -26
39 -44 100 -97 322 -98 407 -274 1105 -296 1168 -10 30 -19 60 -18 66 1 17 27
-47 124 -294z m-575 -235 c-12 -272 -43 -751 -66 -1022 -15 -186 -14 -208 16
-279 17 -38 17 -54 -6 -355 -13 -172 -26 -334 -29 -357 -9 -62 -130 -297 -229
-445 -143 -214 -284 -388 -647 -793 -105 -117 -237 -270 -294 -340 -57 -69
-113 -133 -124 -141 l-21 -14 19 43 c10 24 55 124 99 223 250 563 490 1206
703 1885 83 261 226 741 254 848 8 33 35 111 59 174 102 264 182 542 230 798
43 233 41 227 44 115 2 -55 -1 -208 -8 -340z m1761 174 c151 -78 278 -145 283
-150 6 -6 -3 -23 -24 -44 l-33 -34 26 -10 c15 -6 27 -14 27 -18 0 -4 -28 -49
-62 -101 l-61 -93 -49 48 c-47 46 -50 47 -64 29 -18 -25 -18 -74 0 -117 7 -19
17 -56 21 -83 l7 -49 -35 22 c-19 11 -50 21 -70 21 -20 0 -48 5 -63 10 -32 13
-44 1 -44 -42 0 -24 -4 -28 -28 -28 -28 0 -29 -2 -46 -86 l-17 -86 31 -48 c18
-27 31 -62 31 -81 1 -26 -45 -115 -206 -399 -113 -201 -213 -375 -221 -387
-13 -22 -15 -22 -66 -6 -29 8 -55 17 -56 18 -2 2 -28 160 -58 352 l-55 348 22
53 c19 47 20 58 9 97 -12 42 -11 46 15 77 63 74 109 211 103 305 l-3 48 -33
-70 c-33 -70 -95 -145 -119 -145 -7 0 -17 9 -23 20 -10 18 5 41 127 188 157
189 156 188 283 372 51 74 94 137 97 139 2 3 19 -11 38 -29 l35 -34 0 67 c0
37 1 67 3 67 2 0 127 -64 278 -141z m-2382 -365 c-408 -838 -728 -1592 -935
-2204 l-29 -85 -3 77 c-3 89 52 434 98 613 60 232 202 623 345 950 80 183 264
577 278 595 7 9 68 61 137 117 69 56 148 122 175 146 28 25 51 44 53 42 1 -1
-52 -114 -119 -251z m2504 -73 c20 -19 27 -34 27 -63 0 -44 -14 -49 -55 -16
-34 27 -57 80 -49 114 7 28 6 28 77 -35z m-1599 -20 c71 -49 121 -127 131
-202 l6 -44 -27 53 c-14 30 -60 89 -100 133 -41 43 -74 81 -74 84 0 12 24 3
64 -24z m-1250 -48 c-278 -421 -443 -684 -563 -895 -18 -32 -35 -58 -37 -58
-11 0 10 101 42 198 58 179 151 356 276 527 47 64 82 97 176 167 64 48 119 87
121 88 2 0 -5 -12 -15 -27z m1226 -59 c79 -53 150 -152 150 -210 0 -44 -74
-183 -137 -259 l-58 -70 -3 45 c-6 69 9 510 17 510 4 0 18 -7 31 -16z m1476
-34 c35 0 129 -58 179 -109 26 -29 28 -33 13 -47 -14 -14 -19 -14 -49 2 -19 9
-54 32 -78 51 -24 18 -62 38 -83 45 -35 10 -78 48 -78 69 0 4 15 3 32 -2 18
-5 47 -9 64 -9z m-93 -75 c20 -8 47 -15 59 -15 26 0 148 -115 148 -140 0 -30
-25 -53 -49 -45 -31 9 -89 62 -106 96 -10 18 -26 30 -47 34 -50 11 -78 32 -78
60 0 30 20 32 73 10z m-2749 -171 c-166 -371 -289 -688 -369 -954 -26 -85 -90
-275 -143 -423 -113 -313 -114 -313 -116 -37 -1 136 3 194 18 260 43 200 138
425 289 686 88 154 390 644 394 640 2 -1 -31 -79 -73 -172z m2755 8 c56 -60
101 -130 95 -147 -9 -22 -34 -26 -59 -9 -31 20 -135 173 -135 198 0 32 50 11
99 -42z m-1090 -402 c34 -217 130 -847 216 -1399 85 -552 155 -1009 155 -1015
0 -7 -26 -24 -57 -40 -69 -33 -391 -213 -482 -268 -35 -22 -65 -37 -68 -34 -3
3 -11 389 -19 858 -7 469 -18 1100 -23 1403 l-9 549 54 59 c57 64 125 191 145
272 10 39 14 45 20 30 5 -11 35 -198 68 -415z m220 -19 l71 -179 -52 -50 c-29
-28 -54 -49 -56 -48 -1 2 -11 92 -22 202 -11 109 -22 214 -24 232 -9 61 13 22
83 -157z m-519 -98 c0 -130 16 -1174 35 -2289 l7 -370 -208 -135 c-114 -73
-224 -145 -246 -158 l-38 -23 0 45 c0 81 40 753 65 1097 95 1301 126 1700 135
1732 6 20 32 60 58 89 49 54 170 159 184 159 4 0 8 -66 8 -147z m685 -293 c9
-69 56 -408 105 -755 50 -346 90 -633 90 -636 0 -4 -33 25 -74 65 l-73 72 -7
69 c-17 162 -47 390 -72 538 l-27 159 26 21 c76 62 73 189 -8 397 -17 43 -17
49 0 123 9 43 19 77 20 75 2 -2 11 -60 20 -128z m-1155 -1038 c16 -17 32 -46
36 -68 12 -60 -15 -679 -66 -1529 -11 -181 -23 -381 -27 -444 l-6 -113 -133
-88 c-72 -48 -238 -142 -368 -209 -146 -76 -241 -131 -248 -144 -7 -12 -15
-64 -18 -114 -6 -91 -6 -93 -45 -134 -61 -64 -292 -268 -365 -324 -90 -68
-180 -145 -180 -155 0 -14 79 -40 119 -40 54 0 74 22 111 122 29 79 71 140 86
125 6 -6 -91 -274 -154 -424 -24 -60 -39 -83 -52 -83 -9 0 -38 19 -64 41 l-47
42 7 -29 c18 -74 43 -99 104 -105 l35 -4 64 147 c36 81 67 146 69 144 2 -2
-19 -73 -46 -158 -27 -84 -53 -164 -57 -177 -7 -23 -6 -24 26 -18 l34 7 -57
-54 c-61 -59 -76 -62 -130 -24 -34 24 -43 23 -56 -7 l-12 -25 -156 0 -156 0
19 32 c18 31 64 60 174 108 44 19 70 83 100 241 11 63 26 137 33 164 11 47 10
53 -12 85 -19 29 -23 43 -18 79 3 25 8 46 10 48 1 2 20 -4 42 -13 57 -24 148
-16 206 19 l46 27 237 952 c130 524 240 969 246 989 6 26 40 69 118 150 l109
114 -43 -165 c-23 -91 -93 -356 -155 -590 -330 -1245 -319 -1200 -301 -1200
16 0 21 14 110 353 45 168 148 559 230 869 82 310 193 727 246 928 53 200 101
373 107 384 6 10 36 53 67 95 31 42 74 104 96 139 22 34 44 62 48 62 5 0 21
-13 37 -28z m1284 -461 l49 -49 33 -274 c18 -150 33 -283 34 -295 0 -21 -5
-23 -50 -23 -59 0 -49 -38 -90 350 -17 157 -32 297 -35 313 -2 15 -1 27 3 27
4 0 30 -22 56 -49z m-2481 -867 c4 -4 -21 -37 -56 -73 -34 -36 -84 -94 -111
-129 -27 -34 -51 -60 -54 -58 -13 14 27 78 105 166 83 94 101 109 116 94z
m1581 -271 c19 -223 19 -247 -2 -260 -27 -16 -29 -5 -38 180 -7 143 -6 147 14
147 18 0 21 -8 26 -67z m-1247 -140 c-20 -59 -95 -290 -167 -513 -73 -223
-152 -467 -176 -542 -34 -104 -51 -142 -71 -158 -39 -31 -43 -25 -23 38 10 31
98 305 195 607 98 303 182 559 187 570 16 31 81 115 86 110 2 -2 -12 -52 -31
-112z m-490 -30 c-74 -179 -107 -301 -107 -400 0 -32 4 -43 15 -43 27 0 85 28
128 62 23 18 38 29 35 23 -3 -5 -39 -57 -78 -115 l-72 -105 7 -110 c8 -139 26
-237 44 -243 8 -3 45 29 89 74 41 44 72 75 70 69 -33 -66 -195 -342 -213 -363
l-24 -27 -1 24 c0 13 14 40 30 61 l31 39 -20 63 c-43 134 -60 463 -41 768 18
289 15 278 74 301 27 10 54 23 59 28 24 24 17 -4 -26 -106z m1417 45 c22 -17
42 -32 42 -32 1 -1 5 -62 9 -137 l7 -137 -62 -42 c-34 -23 -64 -39 -67 -36 -3
3 -1 85 6 183 6 98 11 190 11 206 0 15 3 27 6 27 3 0 25 -14 48 -32z m236
-183 c0 -6 -103 -75 -112 -75 -5 0 -8 39 -8 86 l0 85 60 -46 c33 -25 60 -48
60 -50z m397 -171 c-32 -662 -113 -1323 -191 -1551 -34 -100 -8 -147 51 -91
l23 22 28 -26 c45 -43 89 -61 114 -47 21 11 20 12 -20 46 -23 19 -42 39 -42
44 0 5 18 9 40 9 34 0 45 -6 78 -42 20 -23 55 -54 76 -70 l39 -28 -119 0 c-65
0 -143 -3 -173 -7 -51 -6 -54 -5 -49 15 5 18 -1 21 -54 31 -82 14 -88 21 -88
96 0 47 -4 64 -15 69 -12 4 -15 -5 -15 -49 0 -53 -1 -54 -32 -60 -18 -4 -55
-1 -82 5 -27 6 -50 9 -53 7 -6 -7 14 -52 30 -66 9 -7 37 -21 64 -31 l48 -19
-341 -1 c-188 0 -369 -3 -404 -7 -72 -7 -75 4 -8 38 38 19 42 19 79 5 22 -9
68 -16 103 -16 68 0 76 6 76 54 0 23 1 23 128 22 122 -1 127 0 130 20 2 11 -4
27 -13 34 -12 10 -24 9 -64 -9 -33 -14 -71 -21 -110 -21 -68 0 -72 5 -46 65
18 44 46 55 143 55 83 1 82 9 -5 30 -49 11 -64 22 -45 34 9 5 217 -48 267 -68
20 -9 33 -11 30 -6 -13 21 -95 61 -187 90 -89 29 -98 34 -98 56 0 22 3 24 23
18 69 -21 198 -79 254 -114 35 -22 67 -40 71 -40 13 0 -76 84 -140 132 -71 52
-76 59 -55 76 9 8 40 -14 121 -84 60 -52 111 -92 113 -90 3 2 -5 48 -18 103
-31 139 -38 367 -14 489 10 49 20 95 24 101 4 7 7 -83 8 -200 1 -228 20 -399
53 -473 20 -46 37 -62 45 -42 3 8 7 246 9 529 3 525 7 597 47 793 37 184 100
306 156 306 14 0 15 -16 10 -136z m79 9 c-3 -71 -9 -177 -13 -238 l-8 -110 -6
120 c-3 66 -7 173 -8 238 -1 113 0 117 20 117 21 0 21 -2 15 -127z m302 -123
c18 -11 35 -27 38 -35 4 -8 -6 -142 -20 -298 -60 -644 -93 -1099 -83 -1138 4
-13 29 -52 57 -86 l51 -63 -37 0 c-30 0 -45 8 -79 43 -24 23 -47 58 -52 77
-23 91 25 1467 53 1512 9 14 38 9 72 -12z m-138 -247 c0 -171 -11 -454 -40
-1025 -12 -234 -14 -226 58 -300 l46 -48 -37 0 c-32 0 -47 8 -94 52 -84 80
-87 90 -79 243 20 390 67 1107 75 1153 10 51 43 112 62 112 5 0 9 -78 9 -187z
m-1203 -303 c-6 -259 -12 -301 -79 -510 -21 -66 -108 -263 -114 -257 -2 2 10
68 26 148 30 149 54 306 64 419 9 100 -11 40 -35 -105 -27 -165 -71 -333 -125
-483 -26 -70 -50 -134 -54 -142 -5 -8 -31 -28 -59 -45 -51 -30 -63 -51 -37
-61 42 -16 199 114 263 219 20 31 38 55 41 53 2 -3 -19 -53 -47 -111 -36 -74
-68 -123 -105 -161 l-52 -54 -190 0 -191 0 -57 40 c-64 45 -71 47 -85 23 -9
-15 -3 -21 37 -40 l47 -22 -73 0 -73 -1 32 46 c19 28 45 52 68 61 93 39 212
138 305 253 24 31 27 32 21 10 -11 -37 -61 -123 -106 -180 -44 -56 -44 -56
-24 -64 35 -13 126 129 163 259 12 39 28 113 37 165 9 52 27 136 40 185 13 50
31 128 39 174 9 47 18 86 20 88 2 2 8 -3 15 -11 9 -11 8 -46 -4 -152 -49 -428
-161 -728 -299 -801 -50 -27 -6 -28 50 -1 126 58 226 235 274 483 20 101 170
729 180 752 5 12 26 41 47 64 32 35 39 39 42 23 2 -10 1 -129 -2 -264z m-168
-70 c-26 -113 -50 -212 -52 -220 -6 -20 3 266 9 306 4 27 81 131 89 122 2 -2
-19 -95 -46 -208z m-228 163 c4 -4 -28 -96 -72 -203 -44 -107 -101 -247 -126
-310 -45 -113 -72 -162 -59 -109 13 59 26 168 26 235 0 70 1 73 43 120 66 76
66 76 77 160 17 132 15 127 62 121 22 -3 44 -9 49 -14z m35 -137 c-18 -231
-103 -465 -245 -676 -38 -57 -68 -106 -66 -108 2 -2 16 4 32 14 20 12 17 7
-12 -19 -62 -57 -155 -129 -155 -122 0 4 20 36 45 72 118 168 223 416 331 778
58 196 53 184 66 161 7 -12 8 -49 4 -100z m1794 -371 c24 -402 37 -560 49
-616 9 -39 9 -39 -21 -39 -40 0 -83 47 -103 113 -13 45 -14 81 -5 262 15 295
48 669 56 640 2 -5 12 -167 24 -360z m-2110 67 c-6 -54 -24 -147 -40 -207 -27
-107 -88 -271 -97 -261 -5 5 41 305 67 435 15 74 25 100 47 123 15 16 29 24
31 18 3 -7 -1 -55 -8 -108z m28 -24 c-13 -170 -68 -367 -144 -522 -28 -55
-118 -186 -129 -186 -6 0 -16 5 -22 11 -9 9 2 29 42 78 29 36 71 100 94 141
70 131 135 354 148 512 3 37 9 66 12 63 4 -2 3 -45 -1 -97z m218 -221 c-14
-61 -28 -81 -89 -129 l-38 -30 54 80 c30 44 60 94 67 112 19 45 21 32 6 -33z
m1153 -459 l36 -23 -28 -3 c-40 -5 -57 4 -57 28 0 25 4 25 49 -2z"/>
<path d="M1730 458 c0 -7 9 -32 19 -55 33 -72 83 -80 121 -19 26 44 26 46 -12
46 -18 0 -53 9 -77 20 -51 24 -51 24 -51 8z"/>
</g>
</svg>
