<?xml version="1.0" standalone="no"?>
<!DOCTYPE svg PUBLIC "-//W3C//DTD SVG 20010904//EN"
 "http://www.w3.org/TR/2001/REC-SVG-20010904/DTD/svg10.dtd">
<svg version="1.0" xmlns="http://www.w3.org/2000/svg"
 width="770.000000pt" height="1280.000000pt" viewBox="0 0 770.000000 1280.000000"
 preserveAspectRatio="xMidYMid meet">
<metadata>
Created by potrace 1.15, written by Peter Selinger 2001-2017
</metadata>
<g transform="translate(0.000000,1280.000000) scale(0.100000,-0.100000)"
fill="#000000" stroke="none">
<path d="M3996 12743 c-6 -58 -20 -243 -33 -442 l-6 -104 39 6 c21 4 47 7 57
7 16 0 17 9 12 118 -13 266 -28 448 -37 460 -19 22 -26 13 -32 -45z"/>
<path d="M3769 12029 l-169 -170 0 -295 0 -294 60 0 60 0 0 -33 c0 -19 -13
-179 -29 -358 -39 -426 -64 -731 -81 -994 -34 -518 -46 -674 -65 -900 -8 -88
-21 -229 -30 -313 -9 -84 -15 -158 -13 -164 2 -5 21 140 41 323 48 425 45 396
57 584 6 88 15 219 20 290 6 72 15 191 20 265 6 74 15 194 20 265 32 418 70
910 76 972 6 58 9 64 45 88 l39 25 0 -51 c0 -35 7 -63 20 -85 l21 -33 -24 -16
c-14 -9 -27 -30 -31 -47 -5 -26 -1 -39 25 -71 30 -37 30 -39 13 -53 -52 -40
-54 -39 -48 24 5 43 3 61 -6 67 -11 7 -12 -11 -7 -89 5 -83 3 -95 -9 -85 -11
9 -14 7 -14 -12 0 -13 -3 -48 -7 -77 -5 -46 -4 -52 11 -46 12 5 16 19 16 60 0
30 4 54 9 54 9 0 65 -69 60 -74 -2 -2 -18 -11 -35 -19 -23 -12 -33 -25 -37
-49 -3 -18 -13 -64 -22 -102 -9 -38 -14 -76 -12 -85 6 -24 14 2 24 78 l8 65
29 -44 29 -44 -37 -29 c-28 -23 -36 -36 -36 -62 0 -19 -4 -36 -9 -39 -5 -3
-12 -27 -15 -53 -4 -27 -9 -61 -12 -78 -5 -22 -3 -27 5 -19 6 6 14 41 18 78
l6 67 38 -37 38 -37 -45 -34 c-41 -32 -44 -37 -44 -81 -1 -43 -2 -46 -15 -28
-15 20 -15 20 -16 0 0 -10 -4 -56 -7 -102 -6 -64 -5 -81 5 -77 9 3 13 -8 13
-37 0 -33 -3 -39 -12 -30 -7 7 -15 12 -19 12 -4 0 -9 -50 -11 -110 -2 -85 0
-109 10 -105 8 3 12 -9 12 -40 0 -25 -4 -45 -10 -45 -5 0 -10 5 -10 10 0 6 -4
10 -10 10 -6 0 -10 -42 -10 -105 0 -63 4 -105 10 -105 13 0 13 -60 0 -80 -9
-13 -11 -13 -20 0 -7 11 -10 -2 -10 -46 0 -34 -3 -90 -7 -125 -6 -59 -5 -63
10 -50 12 10 17 29 17 70 0 31 3 73 7 94 l6 38 49 -47 48 -48 -56 -51 c-50
-45 -57 -55 -61 -99 -5 -43 -8 -47 -19 -32 -11 16 -13 15 -18 -11 -5 -26 -26
-222 -26 -246 0 -7 4 -7 12 1 24 24 29 11 23 -51 l-7 -64 62 -56 c34 -30 59
-60 56 -66 -11 -18 -127 -103 -132 -98 -3 3 -1 52 5 109 10 97 9 104 -9 123
-20 19 -20 19 -20 -5 0 -14 -5 -77 -10 -140 -5 -63 -7 -116 -5 -118 3 -3 11 1
20 8 13 11 15 8 15 -23 0 -19 -3 -49 -6 -66 -5 -25 -9 -29 -21 -20 -7 7 -15
10 -17 8 -5 -7 -34 -264 -30 -268 3 -3 14 4 25 16 17 17 23 39 28 117 4 53 10
98 12 101 3 2 29 -19 58 -49 l52 -53 -64 -51 -65 -52 -7 -97 -7 -97 43 -38
c24 -20 47 -38 52 -38 19 0 2 -18 -53 -54 l-60 -38 -1 -57 c0 -31 -4 -76 -7
-100 -7 -41 -8 -43 -22 -26 -14 16 -17 7 -32 -106 -9 -68 -14 -126 -12 -128 2
-3 10 1 16 7 7 7 16 12 21 12 8 0 -1 -220 -10 -230 -2 -3 -13 6 -23 20 l-20
25 0 -119 c0 -102 2 -117 14 -107 12 10 15 7 18 -19 l3 -30 55 45 c30 25 57
45 60 45 3 0 31 -38 62 -84 l57 -83 -77 -76 c-43 -42 -80 -77 -84 -77 -3 0
-24 25 -45 55 -22 30 -43 52 -46 48 -4 -3 -7 -35 -7 -69 0 -49 -3 -62 -13 -58
-10 4 -18 -18 -30 -80 -22 -112 -22 -119 3 -106 18 10 20 8 20 -19 l0 -31 71
52 c57 42 73 49 79 37 5 -7 24 -36 44 -63 l35 -49 -91 -99 c-49 -54 -94 -98
-98 -98 -4 0 -15 9 -25 20 -28 31 -35 24 -35 -35 0 -39 -4 -55 -13 -55 -33 0
-183 23 -189 29 -3 3 -2 31 3 61 12 74 52 372 88 660 17 129 49 379 71 554 22
176 39 327 38 335 -2 9 -14 -60 -26 -154 -33 -254 -58 -427 -92 -655 -43 -288
-109 -697 -135 -831 l-12 -67 231 -6 c127 -3 479 -9 781 -12 391 -5 552 -10
557 -18 4 -6 8 -22 8 -36 0 -23 9 -29 84 -56 l84 -31 10 39 c8 29 7 40 -1 43
-7 3 -44 16 -83 30 -39 14 -79 25 -88 25 -9 0 -16 3 -16 6 0 3 -45 411 -100
907 -100 905 -131 1186 -150 1372 -6 55 -15 136 -20 180 -9 76 -17 156 -40
388 -6 56 -15 143 -20 192 -23 225 -55 636 -100 1275 -5 80 -14 206 -20 280
-5 74 -12 191 -16 260 -7 110 -9 121 -18 90 -9 -29 -11 -5 -14 132 l-2 168 41
67 c23 38 46 72 50 76 10 13 -2 -204 -13 -225 -8 -16 -3 -18 37 -18 l45 0 0
323 0 322 -154 154 -154 154 5 -87 6 -86 -56 0 c-89 0 -88 -1 -81 96 4 46 3
84 -1 84 -4 0 -84 -77 -176 -171z m520 -343 c42 -42 42 -45 35 -92 -5 -32 -20
-66 -48 -105 -23 -31 -46 -65 -52 -75 -9 -15 -13 3 -19 94 l-8 112 -197 0
-198 0 -51 -46 c-29 -26 -54 -45 -56 -42 -2 2 -7 29 -10 59 l-6 54 53 42 53
43 230 0 231 0 43 -44z m-50 -1021 c12 -137 26 -297 31 -355 5 -58 14 -161 20
-230 11 -129 21 -247 40 -455 6 -66 44 -507 85 -980 41 -473 79 -913 85 -977
5 -65 15 -170 20 -233 14 -164 26 -295 60 -680 16 -188 32 -374 35 -415 3 -41
8 -87 10 -102 l5 -28 -139 0 -139 0 -6 103 c-7 122 -22 526 -36 992 -6 187
-15 477 -20 645 -5 168 -14 460 -20 650 -25 867 -30 1038 -40 1390 -6 206 -15
503 -20 660 -6 157 -9 315 -9 350 l2 65 8 -75 c4 -41 17 -187 28 -325z m-466
-496 c15 -21 27 -43 27 -48 0 -10 -69 -56 -75 -50 -6 6 7 139 14 139 3 -1 18
-19 34 -41z m-7 -246 l38 -46 -45 -39 c-24 -21 -48 -38 -53 -38 -5 0 -6 21 -2
46 3 26 6 64 6 85 0 22 4 39 9 39 5 0 26 -21 47 -47z m-18 -283 l43 -49 -52
-35 c-29 -19 -55 -34 -57 -31 -7 6 9 165 17 164 3 -1 25 -23 49 -49z m-45
-595 l46 -64 -56 -40 c-32 -22 -58 -39 -60 -38 -6 6 10 207 17 207 3 0 27 -29
53 -65z m51 -522 c-41 -105 -41 -105 5 -133 23 -14 41 -28 41 -32 0 -4 -14
-15 -30 -23 l-31 -16 -54 57 c-77 79 -75 97 13 163 37 27 70 50 74 50 4 1 -4
-29 -18 -66z m-94 -410 c11 -50 13 -53 43 -54 18 -1 42 -4 54 -7 21 -7 20 -9
-22 -57 l-44 -50 -50 50 c-49 48 -51 51 -51 106 0 48 4 59 23 72 27 18 32 11
47 -60z m-29 -388 c39 -62 43 -65 80 -65 21 0 39 -4 39 -9 0 -16 -101 -94
-109 -85 -5 5 -25 31 -45 57 -31 42 -36 56 -36 102 0 47 4 56 27 64 2 1 21
-28 44 -64z m-66 -152 c60 -75 60 -67 4 -108 -28 -20 -52 -35 -54 -33 -5 6 8
178 14 178 3 0 20 -17 36 -37z m26 -218 c31 -44 34 -45 85 -45 29 0 55 -4 58
-9 5 -8 -120 -161 -132 -161 -16 0 -62 108 -62 145 0 41 10 115 16 115 1 0 17
-20 35 -45z m-41 -248 c0 -4 -16 -24 -35 -45 -34 -36 -34 -36 -35 -12 0 14 3
49 7 79 l6 54 28 -34 c16 -19 29 -37 29 -42z"/>
<path d="M4240 11198 l1 -43 14 40 c18 49 18 45 0 45 -11 0 -15 -11 -15 -42z"/>
<path d="M3493 8455 c0 -22 2 -30 4 -17 2 12 2 30 0 40 -3 9 -5 -1 -4 -23z"/>
<path d="M3482 8380 c0 -14 2 -19 5 -12 2 6 2 18 0 25 -3 6 -5 1 -5 -13z"/>
<path d="M3472 8280 c0 -14 2 -19 5 -12 2 6 2 18 0 25 -3 6 -5 1 -5 -13z"/>
<path d="M3461 8214 c0 -11 3 -14 6 -6 3 7 2 16 -1 19 -3 4 -6 -2 -5 -13z"/>
<path d="M3451 8104 c0 -11 3 -14 6 -6 3 7 2 16 -1 19 -3 4 -6 -2 -5 -13z"/>
<path d="M3442 8050 c0 -14 2 -19 5 -12 2 6 2 18 0 25 -3 6 -5 1 -5 -13z"/>
<path d="M3520 8009 c0 -2 -9 -53 -19 -114 -11 -60 -18 -111 -17 -112 1 -1 14
8 29 20 25 19 29 31 36 100 6 68 5 80 -11 94 -10 9 -18 14 -18 12z"/>
<path d="M3432 7950 c0 -14 2 -19 5 -12 2 6 2 18 0 25 -3 6 -5 1 -5 -13z"/>
<path d="M3422 7880 c0 -19 2 -27 5 -17 2 9 2 25 0 35 -3 9 -5 1 -5 -18z"/>
<path d="M3448 6924 c-14 -17 -15 -21 -2 -38 18 -25 26 -16 22 24 -3 31 -4 32
-20 14z"/>
<path d="M3403 6438 c-28 -30 -31 -89 -6 -114 16 -16 18 -15 26 15 4 18 7 53
5 78 l-3 45 -22 -24z"/>
<path d="M3037 6080 c-43 -10 -80 -20 -82 -22 -7 -7 7 -108 16 -108 4 0 38 18
77 40 38 22 74 40 81 40 6 0 11 9 11 19 0 11 3 26 6 35 8 20 -7 20 -109 -4z"/>
<path d="M3137 6018 c-3 -9 -8 -36 -12 -60 l-7 -45 499 -6 c274 -4 639 -10
811 -14 l312 -6 0 36 c0 20 -4 47 -9 60 l-9 24 -496 6 c-272 4 -627 10 -789
14 -258 5 -294 4 -300 -9z"/>
<path d="M3066 5880 c18 -36 30 -38 38 -7 9 35 8 37 -23 37 -29 0 -29 0 -15
-30z"/>
<path d="M4750 5856 c0 -37 17 -40 35 -6 15 30 15 30 -10 30 -20 0 -25 -5 -25
-24z"/>
<path d="M3090 5797 c-40 -160 -373 -1012 -713 -1822 l-113 -270 -137 -3 c-75
-1 -137 -5 -137 -7 0 -12 62 -114 76 -126 10 -8 34 -10 74 -6 33 4 60 3 60 -2
0 -4 -20 -54 -44 -110 l-45 -101 112 0 c62 0 867 -5 1791 -10 923 -6 1680 -9
1682 -7 2 1 -14 47 -36 100 -61 152 -63 137 25 137 l76 0 19 46 c11 25 20 48
20 50 0 2 -52 4 -115 4 -100 0 -115 2 -124 18 -5 10 -168 419 -362 908 -222
564 -370 950 -401 1055 l-51 167 -496 6 c-273 3 -643 8 -823 11 l-327 5 -11
-43z m203 -36 c16 -6 12 -13 -29 -46 l-47 -39 -23 28 c-24 27 -31 56 -17 70 7
7 84 -2 116 -13z m616 -78 c0 -27 -4 -67 -7 -91 l-7 -43 -45 45 -44 46 44 45
c24 25 48 45 52 45 4 0 8 -21 7 -47z m-511 -3 l33 -39 -38 -35 c-21 -20 -42
-36 -47 -36 -5 0 -6 21 -2 46 3 26 6 60 6 75 0 38 9 36 48 -11z m602 -5 l44
-45 -44 -45 c-24 -25 -48 -45 -52 -45 -4 0 -8 41 -8 90 0 50 4 90 8 90 4 0 28
-20 52 -45z m-316 -4 l38 -39 -53 -36 c-29 -19 -54 -34 -56 -32 -6 6 20 146
26 146 4 0 24 -18 45 -39z m-378 -42 l-10 -71 -28 34 c-15 18 -28 37 -28 42 0
9 60 65 70 66 3 0 1 -32 -4 -71z m177 -61 c9 -20 13 -39 9 -42 -8 -9 -122 -7
-122 1 0 14 84 93 91 85 4 -4 14 -24 22 -44z m326 1 l44 -49 -84 1 c-124 1
-129 6 -66 56 28 23 54 42 57 42 3 -1 25 -23 49 -50z m-581 -4 l22 -45 -65 0
c-56 0 -65 2 -65 18 0 22 18 46 45 60 33 18 40 14 63 -33z m1213 -15 l44 -39
-78 -1 -77 0 26 40 c15 22 30 40 34 40 4 0 27 -18 51 -40z m219 -27 c0 -14 -5
-15 -37 -7 -21 6 -21 7 -6 31 16 24 17 24 30 7 7 -10 13 -24 13 -31z m-1137
-187 c21 0 21 4 -3 -103 -10 -48 -46 -214 -80 -368 -33 -154 -65 -298 -70
-320 -5 -22 -48 -215 -95 -429 -47 -214 -88 -393 -91 -398 -4 -7 -102 -1 -111
7 -2 1 13 64 33 140 l36 138 -78 78 c-50 50 -75 82 -69 88 16 15 206 123 210
119 2 -2 -5 -42 -16 -88 -39 -171 -42 -191 -32 -201 7 -7 13 2 17 28 8 39 53
235 62 265 4 13 1 16 -10 12 -10 -4 -13 0 -10 13 2 10 13 58 24 108 12 49 25
92 31 95 12 8 58 222 63 294 2 28 7 63 11 77 8 32 -10 39 -96 39 -31 0 -58 3
-61 6 -7 7 34 134 43 134 4 0 34 -30 66 -66 l58 -65 8 33 c5 18 14 36 20 40
14 9 60 222 48 226 -5 2 -4 22 1 45 16 69 15 68 45 60 16 -4 36 -7 46 -7z
m-321 -22 c10 -6 6 -32 -12 -80 l-11 -27 -54 53 c-30 30 -55 58 -55 64 0 9
114 1 132 -10z m203 10 c12 -5 -6 -21 -65 -61 -45 -30 -83 -53 -85 -51 -1 2 2
29 8 61 l10 57 58 0 c31 0 65 -3 74 -6z m1165 -64 c0 -27 -3 -50 -7 -50 -8 0
-153 90 -153 96 0 2 36 4 80 4 l80 0 0 -50z m-680 -91 l145 -14 -190 -6 c-104
-4 -194 -7 -199 -8 -8 -1 -3 -55 10 -124 l6 -27 271 2 271 3 13 64 c13 66 19
79 29 69 7 -7 -6 -172 -15 -187 -8 -12 -621 -3 -641 9 -7 5 -7 41 2 124 l13
118 70 -5 c38 -3 135 -11 215 -18z m380 -284 c0 -3 45 -173 99 -378 91 -340
112 -420 172 -647 11 -41 22 -83 25 -92 5 -16 -3 -18 -75 -18 -45 0 -81 4 -81
8 0 5 -18 132 -40 283 -22 151 -49 335 -60 409 -11 74 -27 180 -35 234 -8 55
-15 101 -15 103 0 1 -62 3 -137 3 -76 0 -229 3 -340 7 -200 6 -203 6 -203 28
0 21 5 22 198 35 108 7 235 16 282 20 110 9 210 11 210 5z m-976 -235 c-16
-66 -31 -120 -34 -120 -3 0 -35 29 -70 66 -52 52 -62 67 -50 74 8 5 51 33 95
62 44 29 81 50 83 46 2 -5 -9 -62 -24 -128z m-307 -145 l-13 -60 -53 -3 -52
-3 7 38 c3 21 10 42 15 47 18 20 104 61 107 51 1 -6 -4 -37 -11 -70z m219 -27
c3 -5 0 -31 -6 -58 -12 -49 -12 -50 -107 -101 -52 -28 -96 -49 -98 -47 -3 3
23 102 71 266 l15 53 59 -51 c33 -29 63 -56 66 -62z m1554 -8 c12 -50 20 -93
17 -97 -4 -3 -23 1 -44 10 -28 11 -42 24 -52 50 -12 34 -12 38 18 81 18 25 33
46 35 46 2 0 14 -41 26 -90z m-1751 -475 c34 -47 61 -89 61 -94 0 -10 -239
-145 -245 -139 -3 2 20 71 51 152 54 147 62 166 69 166 2 0 30 -38 64 -85z"/>
<path d="M1970 3339 c0 -5 7 -40 15 -77 8 -37 16 -83 18 -102 3 -34 5 -31 45
54 23 49 45 99 48 112 6 23 5 24 -60 24 -40 0 -66 -4 -66 -11z"/>
<path d="M5710 3321 c0 -6 14 -47 32 -92 l32 -82 11 64 c6 35 16 74 23 86 18
32 17 33 -43 33 -30 0 -55 -4 -55 -9z"/>
<path d="M5781 3040 l2 -75 -679 -8 c-1121 -13 -2712 4 -2979 33 -139 14 -136
13 -130 63 5 38 4 40 -7 17 -6 -14 -38 -78 -70 -142 -32 -65 -56 -118 -53
-118 3 0 21 25 40 55 20 30 39 55 43 55 5 0 21 -13 36 -29 21 -22 26 -35 21
-53 -18 -58 -163 -323 -203 -371 -55 -64 -108 -143 -351 -522 -354 -552 -376
-585 -382 -585 -3 0 -24 16 -46 35 -23 19 -45 35 -50 35 -4 0 -128 -179 -275
-398 -146 -218 -363 -540 -481 -715 l-215 -317 753 0 752 0 12 78 c39 244 148
633 254 902 68 176 204 449 292 590 188 302 429 558 688 734 181 122 377 210
595 267 267 69 619 80 897 28 719 -135 1273 -647 1638 -1516 107 -253 222
-646 267 -913 12 -69 24 -135 26 -147 l4 -23 760 0 759 0 -197 303 c-552 844
-697 1070 -694 1083 4 17 -41 87 -491 767 l-372 562 -77 194 c-43 107 -81 197
-84 200 -3 3 -4 -28 -3 -69z m-3153 -339 l-123 -192 -250 7 c-137 4 -256 10
-264 14 -8 4 15 12 55 18 38 6 123 20 189 32 66 12 141 25 167 29 43 7 60 20
175 128 70 67 137 130 147 142 47 52 19 -1 -96 -178z m224 -83 c8 -7 29 -39
46 -70 l32 -58 -40 -20 c-21 -11 -43 -20 -48 -20 -11 0 -82 113 -82 129 0 17
38 51 58 51 10 0 25 -6 34 -12z m180 0 c8 -7 24 -28 34 -46 22 -38 17 -44 -49
-62 -46 -13 -54 -9 -63 35 -11 62 36 106 78 73z m182 -8 c41 -15 34 -46 -11
-54 -66 -10 -83 -8 -83 13 0 43 42 61 94 41z m166 0 c17 -11 9 -14 -55 -25
l-40 -7 19 21 c20 22 51 27 76 11z m1252 -17 c10 -9 18 -24 18 -35 0 -20 -22
-18 -84 6 l-29 12 34 17 c42 20 39 20 61 0z m233 -45 c87 -62 359 -278 425
-338 l35 -31 -75 39 c-228 120 -537 286 -547 294 -15 12 1 68 24 86 29 21 48
14 138 -50z m-2125 -40 c22 -35 40 -68 40 -74 0 -12 -86 -62 -93 -54 -27 33
-87 126 -87 134 0 29 32 56 65 56 31 0 38 -6 75 -62z m-495 -72 c60 -10 75
-15 60 -21 -11 -5 -90 -39 -175 -76 -85 -37 -157 -65 -158 -64 -2 2 27 42 65
89 77 97 68 94 208 72z m349 -26 c14 -5 30 -18 36 -29 9 -18 5 -24 -37 -50
l-47 -29 -18 23 c-24 31 -23 61 4 79 26 19 29 19 62 6z m-247 -111 l-46 -83
-83 3 c-46 2 -99 6 -120 9 -35 7 -32 9 125 83 89 42 164 75 165 73 2 -1 -16
-40 -41 -85z m3114 -30 c39 -33 56 -39 149 -55 123 -22 107 -31 -55 -33 l-100
-1 -44 82 c-48 90 -49 90 50 7z m-2961 7 c0 -10 -72 -48 -78 -41 -10 10 36 45
59 45 10 0 19 -2 19 -4z m-368 -138 l107 -11 -57 -83 c-31 -46 -60 -84 -63
-84 -5 0 -118 162 -127 183 -5 10 15 9 140 -5z m-355 -45 c-2 -5 -26 -45 -52
-90 l-47 -83 -79 0 c-43 0 -79 3 -79 8 1 8 240 170 253 171 5 1 6 -2 4 -6z
m192 -85 l60 -83 -121 -3 c-66 -1 -123 0 -126 2 -5 6 110 165 120 166 4 0 34
-37 67 -82z m3610 47 l50 -36 60 31 c33 16 63 30 66 30 4 0 -22 -34 -56 -75
-34 -41 -65 -75 -69 -75 -5 0 -31 36 -59 80 -28 44 -48 80 -46 80 3 0 27 -16
54 -35z m328 -447 c63 -25 66 -27 33 -28 -19 0 -52 -3 -72 -6 -36 -6 -38 -5
-71 47 -18 30 -44 72 -57 94 -22 39 -21 38 38 -20 45 -42 81 -67 129 -87z
m-4507 37 c16 -24 30 -46 30 -49 0 -3 -54 -33 -120 -66 -66 -33 -120 -58 -120
-55 0 14 163 224 171 220 5 -4 22 -26 39 -50z"/>
<path d="M1301 1978 c-254 -369 -348 -515 -340 -522 8 -8 16 -4 27 13 31 43
613 925 642 974 78 125 -7 5 -329 -465z"/>
</g>
</svg>
