<?xml version="1.0" standalone="no"?>
<!DOCTYPE svg PUBLIC "-//W3C//DTD SVG 20010904//EN"
 "http://www.w3.org/TR/2001/REC-SVG-20010904/DTD/svg10.dtd">
<svg version="1.0" xmlns="http://www.w3.org/2000/svg"
 width="1280.000000pt" height="1258.000000pt" viewBox="0 0 1280.000000 1258.000000"
 preserveAspectRatio="xMidYMid meet">
<metadata>
Created by potrace 1.15, written by Peter Selinger 2001-2017
</metadata>
<g transform="translate(0.000000,1258.000000) scale(0.100000,-0.100000)"
fill="#000000" stroke="none">
<path d="M5801 12276 c-1 -6 261 -3175 324 -3911 2 -33 3 -55 0 -50 -5 9 -134
714 -537 2927 -95 521 -174 944 -176 940 -2 -6 238 -1605 524 -3491 30 -200
53 -368 51 -374 -1 -5 -219 846 -482 1891 -264 1045 -482 1899 -483 1897 -2
-2 4 -37 13 -77 17 -75 275 -1243 510 -2313 74 -335 175 -796 225 -1023 50
-228 90 -416 88 -417 -3 -3 -531 1615 -1092 3342 -66 205 -122 371 -123 369
-2 -2 240 -838 537 -1857 297 -1020 543 -1865 546 -1879 6 -28 -388 946 -1031
2552 -242 603 -441 1095 -443 1094 -1 -2 11 -41 29 -87 17 -46 309 -847 650
-1779 341 -932 633 -1731 650 -1774 16 -43 28 -80 27 -82 -2 -1 -352 723 -778
1609 -778 1619 -955 1985 -946 1957 2 -8 362 -822 800 -1809 688 -1552 852
-1928 770 -1769 -9 18 -436 776 -949 1683 -512 908 -949 1680 -969 1718 -21
37 -40 67 -43 67 -2 0 13 -33 35 -72 46 -84 1809 -3443 1824 -3473 l9 -20 -17
20 c-9 11 -492 745 -1073 1631 -581 886 -1064 1622 -1074 1635 -28 38 -9 3 59
-106 34 -55 490 -800 1014 -1655 524 -855 960 -1566 968 -1580 14 -23 14 -24
0 -10 -9 8 -550 724 -1203 1590 -653 866 -1198 1589 -1212 1605 l-25 30 25
-35 c13 -19 525 -744 1137 -1610 612 -866 1128 -1597 1147 -1625 l35 -50 -55
60 c-30 33 -609 704 -1287 1490 -677 787 -1244 1441 -1258 1455 l-26 25 21
-25 c11 -14 571 -704 1243 -1535 672 -830 1229 -1518 1238 -1527 85 -97 -191
181 -1375 1385 -758 771 -1400 1425 -1427 1452 -165 170 165 -189 1367 -1489
742 -802 1347 -1459 1345 -1460 -2 -2 -534 472 -1183 1051 -1669 1492 -1832
1636 -1725 1531 52 -51 673 -642 1380 -1313 1188 -1126 1477 -1404 1425 -1363
-41 32 -3072 2402 -3115 2436 -188 148 207 -183 1505 -1263 825 -686 1509
-1257 1520 -1268 l20 -21 -23 15 c-22 14 -2986 2038 -3205 2188 -115 80 -162
105 -70 38 861 -624 3192 -2324 3203 -2335 14 -14 13 -14 -10 0 -40 24 -3361
1989 -3400 2011 -93 54 3 -11 219 -147 1286 -813 3128 -1982 3126 -1984 -2 -2
-760 381 -1686 851 -1945 987 -1869 948 -1869 943 0 -2 39 -25 87 -51 389
-210 3390 -1850 3398 -1857 14 -13 134 -64 -1850 786 -995 426 -1810 774
-1812 773 -2 -3 816 -383 3124 -1454 270 -125 490 -229 489 -231 -2 -1 -844
294 -1872 657 -1651 584 -2049 722 -1807 628 1353 -524 3584 -1386 3601 -1392
13 -4 21 -9 19 -12 -5 -4 -569 154 -2961 828 -467 132 -850 238 -852 236 -2
-1 279 -91 624 -200 345 -108 1158 -363 1807 -567 649 -204 1219 -383 1267
-397 48 -15 86 -28 84 -31 -2 -2 -525 107 -1163 243 -637 135 -1327 282 -1533
326 -206 44 -554 118 -774 165 -219 47 -400 84 -402 82 -2 -2 863 -215 1921
-473 1059 -259 1921 -471 1916 -473 -4 -1 -192 24 -417 57 -1423 210 -3507
511 -3510 509 -1 -2 862 -156 1919 -342 1057 -186 1938 -342 1957 -346 68 -15
-14 -10 -699 45 -377 31 -1104 89 -1616 130 -511 41 -1067 86 -1235 100 -168
14 -318 25 -335 24 -16 0 834 -97 1890 -214 2215 -247 2028 -226 2023 -230 -2
-2 -379 3 -838 10 -459 8 -1265 21 -1790 29 -525 9 -1067 17 -1205 20 -338 5
-275 0 370 -29 599 -27 1954 -91 2784 -130 287 -14 552 -25 587 -25 36 0 64
-4 64 -10 0 -6 -28 -10 -64 -10 -35 0 -300 -11 -587 -25 -830 -39 -2185 -103
-2784 -130 -645 -29 -708 -34 -370 -29 138 3 680 11 1205 20 525 8 1331 21
1790 29 459 7 836 12 838 10 5 -4 192 17 -2023 -230 -1056 -117 -1906 -214
-1890 -214 17 -1 167 10 335 24 168 14 724 59 1235 100 512 41 1239 99 1616
130 685 55 767 60 699 45 -19 -4 -900 -160 -1957 -346 -1057 -186 -1920 -340
-1919 -342 3 -2 2087 299 3510 509 225 33 413 58 417 57 5 -2 -857 -214 -1916
-473 -1058 -258 -1923 -471 -1921 -473 2 -2 183 35 402 82 220 47 536 115 704
150 168 36 847 180 1508 321 662 141 1218 258 1235 260 47 7 11 -4 -1952 -621
-995 -313 -1809 -570 -1807 -571 2 -2 385 104 852 236 2392 674 2956 832 2961
828 2 -3 -6 -8 -19 -12 -17 -6 -2248 -868 -3601 -1392 -242 -94 156 44 1807
628 1028 363 1870 658 1872 657 1 -2 -219 -106 -489 -231 -2311 -1072 -3126
-1451 -3124 -1454 2 -1 817 347 1812 773 1977 847 1864 799 1850 786 -8 -7
-3009 -1647 -3397 -1857 -49 -26 -88 -49 -88 -51 0 -6 -47 -29 1879 948 920
467 1674 848 1676 846 2 -2 -1839 -1171 -3126 -1984 -216 -136 -312 -201 -219
-147 39 22 3360 1987 3400 2011 23 14 24 14 10 0 -11 -11 -2342 -1711 -3202
-2335 -93 -67 -46 -42 69 38 219 150 3183 2174 3205 2188 l23 15 -20 -21 c-11
-11 -695 -582 -1520 -1268 -1297 -1079 -1694 -1412 -1505 -1263 43 34 3074
2404 3115 2436 52 41 -237 -236 -1425 -1363 -707 -671 -1328 -1262 -1380
-1313 -108 -106 63 45 1720 1526 652 582 1186 1058 1188 1056 2 -1 -603 -658
-1345 -1460 -1201 -1298 -1533 -1660 -1367 -1489 27 28 669 681 1427 1453
1184 1204 1459 1481 1375 1385 -9 -10 -566 -697 -1238 -1528 -672 -830 -1232
-1521 -1243 -1535 l-21 -25 26 25 c14 14 581 669 1258 1455 678 787 1257 1457
1287 1490 l55 60 -35 -50 c-19 -27 -535 -759 -1147 -1625 -612 -866 -1124
-1591 -1137 -1610 l-25 -35 25 30 c14 17 559 739 1212 1605 653 866 1194 1582
1203 1590 14 14 14 13 0 -10 -8 -14 -444 -725 -968 -1580 -524 -855 -980
-1600 -1014 -1655 -68 -109 -87 -144 -59 -106 10 13 493 749 1074 1635 581
886 1064 1620 1073 1631 l17 20 -9 -20 c-15 -30 -1778 -3389 -1824 -3473 -22
-39 -37 -72 -35 -72 3 0 22 30 43 68 20 37 457 810 969 1717 513 908 940 1665
949 1683 82 159 -82 -217 -770 -1769 -438 -987 -798 -1801 -800 -1809 -9 -28
168 338 946 1957 426 886 776 1610 778 1609 1 -2 -11 -39 -27 -82 -17 -43
-309 -842 -650 -1774 -341 -932 -633 -1733 -650 -1779 -18 -46 -30 -85 -29
-87 2 -1 201 491 443 1094 643 1606 1037 2580 1031 2552 -3 -14 -249 -859
-546 -1879 -297 -1019 -539 -1855 -537 -1857 1 -2 57 164 123 369 561 1727
1089 3345 1092 3342 2 -1 -38 -189 -88 -417 -50 -227 -151 -687 -225 -1023
-235 -1070 -493 -2238 -510 -2313 -9 -40 -15 -75 -13 -77 1 -2 219 852 483
1897 263 1045 481 1896 482 1891 2 -6 -21 -174 -51 -374 -286 -1886 -526
-3485 -524 -3491 2 -4 81 419 176 940 403 2213 532 2918 537 2927 3 6 2 -17 0
-50 -96 -1132 -324 -3909 -322 -3912 2 -1 13 84 25 189 36 342 423 3712 428
3737 3 13 6 22 8 20 1 -2 -3 -326 -10 -719 -33 -1841 -55 -3222 -51 -3226 2
-2 9 117 15 264 12 251 50 1046 107 2197 13 275 34 714 46 975 12 261 26 479
31 484 4 6 8 -21 8 -59 0 -37 9 -248 20 -469 11 -221 36 -727 55 -1126 120
-2486 115 -2392 109 -1945 -8 593 -53 3326 -57 3473 -2 79 -1 139 3 135 4 -4
26 -177 49 -383 23 -206 100 -881 171 -1500 71 -619 153 -1333 182 -1587 29
-254 53 -461 55 -459 3 2 -233 2859 -322 3911 -2 33 -3 56 0 50 5 -9 134 -714
537 -2927 95 -521 174 -944 176 -940 1 4 -61 424 -137 932 -77 509 -206 1359
-286 1890 -80 531 -148 985 -150 1010 l-5 45 14 -45 c8 -25 73 -277 144 -560
147 -587 542 -2148 702 -2780 60 -234 109 -420 109 -413 1 7 -8 50 -18 95 -11
46 -97 434 -191 863 -311 1413 -417 1894 -525 2383 -58 266 -105 486 -103 487
2 2 276 -833 608 -1855 332 -1023 606 -1858 608 -1856 2 2 -24 95 -57 207 -33
112 -238 816 -456 1564 -218 748 -437 1499 -486 1668 -50 170 -89 310 -87 312
2 2 64 -148 138 -333 74 -186 405 -1011 735 -1834 329 -823 601 -1496 602
-1494 2 2 -10 41 -28 87 -17 46 -309 845 -649 1774 -340 930 -633 1728 -650
1775 -17 47 -27 81 -22 75 5 -5 393 -810 863 -1787 469 -978 854 -1776 856
-1775 1 2 -358 815 -797 1807 -440 992 -798 1805 -797 1807 2 1 435 -763 963
-1698 527 -935 965 -1707 972 -1717 22 -29 4 6 -903 1733 -976 1858 -921 1754
-907 1740 10 -10 2105 -3202 2164 -3297 16 -27 32 -48 34 -48 3 0 2 6 -2 13
-4 6 -37 59 -73 117 -35 58 -498 813 -1028 1679 -531 866 -972 1586 -980 1600
-15 23 -15 24 -1 11 9 -8 550 -724 1203 -1590 653 -866 1192 -1579 1198 -1585
8 -7 8 -6 0 5 -9 14 -2272 3215 -2296 3250 -39 56 177 -194 1268 -1460 675
-784 1254 -1454 1287 -1490 l60 -65 -65 80 c-128 160 -2420 2990 -2435 3008
-8 9 -13 17 -10 17 4 0 2331 -2362 2799 -2841 30 -30 42 -41 28 -25 -33 38
-2436 2642 -2606 2822 -68 73 -123 134 -123 138 0 6 2866 -2549 2953 -2633 26
-25 47 -42 47 -39 0 4 -655 628 -1455 1388 -800 760 -1455 1384 -1455 1387 0
3 19 -10 43 -29 127 -104 3138 -2456 3117 -2435 -14 13 -702 588 -1530 1277
-828 689 -1514 1262 -1525 1273 l-20 21 22 -15 c22 -13 2916 -1990 3191 -2179
72 -50 132 -89 132 -87 0 3 -39 33 -87 68 -626 453 -3152 2295 -3163 2307 -14
14 -13 14 10 0 14 -8 765 -453 1670 -988 905 -535 1661 -983 1680 -995 46 -29
80 -47 80 -42 0 2 -760 485 -1689 1073 -929 588 -1688 1070 -1686 1072 1 2
740 -371 1641 -829 1805 -916 1904 -965 1889 -952 -5 6 -784 432 -1730 948
-946 515 -1724 942 -1730 947 -5 5 6 3 25 -5 19 -8 841 -360 1825 -782 985
-422 1797 -769 1805 -771 33 -10 -164 83 -1852 866 -966 448 -1755 816 -1753
818 2 2 2816 -990 3609 -1272 71 -26 131 -45 133 -43 2 2 -18 12 -44 22 -27
10 -847 327 -1823 705 -976 378 -1785 691 -1798 695 -13 4 -21 9 -19 12 4 3
1932 -537 3581 -1003 233 -66 319 -83 133 -26 -56 17 -631 197 -1277 400 -646
203 -1453 457 -1792 563 -339 107 -615 195 -613 197 2 2 88 -15 192 -37 103
-22 928 -198 1833 -390 905 -192 1688 -359 1740 -370 183 -40 112 -18 -155 48
-148 37 -1016 249 -1928 471 -911 223 -1653 406 -1648 408 4 1 192 -24 417
-57 346 -51 1781 -261 3093 -452 189 -27 348 -48 353 -47 5 2 -854 156 -1909
342 -1055 186 -1920 340 -1922 342 -8 7 39 4 591 -41 304 -24 807 -65 1118
-90 311 -25 702 -56 870 -70 1113 -90 1307 -105 1329 -104 36 2 74 -2 -2018
230 -1042 115 -1897 211 -1899 214 -3 3 105 2 239 -1 563 -13 3823 -63 3828
-59 2 3 -18 5 -45 5 -27 0 -193 7 -369 15 -351 17 -1331 63 -2652 125 -468 22
-879 40 -912 40 -34 0 -61 4 -61 10 0 6 27 10 61 10 33 0 444 18 912 40 1321
62 2301 108 2652 125 176 8 342 15 369 15 27 0 47 2 45 5 -5 4 -3265 -46
-3828 -59 -134 -3 -242 -4 -239 -1 2 3 857 99 1899 214 2094 232 2055 228
2018 230 -22 1 -844 -64 -1639 -129 -657 -54 -2234 -180 -2253 -180 -11 0 -18
2 -16 4 2 2 867 156 1922 342 1055 186 1914 340 1909 342 -5 1 -164 -20 -353
-47 -1312 -191 -2747 -401 -3093 -452 -225 -33 -413 -58 -417 -57 -5 2 737
185 1648 408 912 222 1780 434 1928 471 267 66 338 88 155 48 -52 -11 -835
-178 -1740 -370 -905 -192 -1730 -368 -1833 -390 -104 -22 -190 -39 -192 -37
-2 2 170 58 383 125 213 66 1042 326 1842 578 800 251 1479 464 1507 472 29 9
51 18 49 20 -2 2 -106 -25 -232 -61 -1649 -466 -3577 -1006 -3581 -1003 -2 3
6 8 19 12 13 4 822 317 1798 695 976 378 1796 695 1823 705 26 10 46 20 44 22
-2 2 -62 -17 -133 -43 -793 -282 -3607 -1274 -3609 -1272 -2 2 787 370 1753
818 1687 783 1885 876 1852 866 -8 -2 -820 -349 -1805 -771 -984 -422 -1806
-774 -1825 -782 -19 -8 -30 -10 -25 -5 6 5 784 432 1730 948 946 515 1725 941
1730 947 15 13 -85 -37 -1889 -952 -901 -458 -1640 -831 -1641 -829 -2 2 757
484 1686 1072 929 588 1689 1071 1689 1073 0 5 -34 -13 -80 -42 -19 -12 -775
-460 -1680 -995 -905 -535 -1656 -980 -1670 -988 -23 -14 -24 -14 -10 0 13 13
2620 1915 3080 2247 80 57 152 111 160 119 18 17 134 96 -1773 -1206 -834
-570 -1527 -1043 -1540 -1051 l-22 -15 20 21 c11 11 697 584 1525 1273 828
689 1516 1264 1530 1277 21 21 -2990 -2331 -3117 -2435 -24 -19 -43 -32 -43
-29 0 3 655 627 1455 1387 800 760 1455 1384 1455 1388 0 3 -21 -14 -47 -39
-87 -84 -2953 -2639 -2953 -2633 0 4 55 65 123 138 170 180 2573 2784 2606
2822 14 16 2 5 -28 -25 -468 -479 -2795 -2841 -2799 -2841 -3 0 2 8 10 18 15
17 2307 2847 2435 3007 l65 80 -60 -65 c-33 -36 -612 -706 -1287 -1490 -1091
-1266 -1307 -1516 -1268 -1460 24 35 2287 3236 2296 3250 8 11 8 12 0 5 -6 -5
-545 -719 -1198 -1585 -653 -866 -1194 -1582 -1203 -1590 -14 -13 -14 -12 1
11 8 14 449 734 980 1600 530 866 993 1621 1028 1679 36 58 69 111 73 118 4 6
5 12 2 12 -2 0 -18 -21 -34 -47 -59 -96 -2154 -3288 -2164 -3298 -14 -14 -69
-118 907 1740 907 1727 925 1762 903 1733 -7 -10 -445 -782 -972 -1717 -528
-935 -961 -1699 -963 -1698 -1 2 357 815 797 1807 439 992 798 1805 797 1807
-2 1 -387 -797 -856 -1775 -470 -977 -858 -1781 -863 -1787 -5 -5 5 28 22 75
17 47 310 846 650 1775 340 930 632 1728 649 1774 18 46 30 85 28 87 -1 2
-273 -671 -602 -1494 -330 -823 -661 -1648 -735 -1834 -74 -185 -136 -335
-138 -333 -2 2 37 142 87 312 49 169 268 920 486 1668 218 748 423 1452 456
1564 33 112 59 205 57 207 -2 2 -276 -833 -608 -1856 -332 -1022 -606 -1857
-608 -1855 -2 1 45 221 103 487 108 489 214 970 525 2383 94 429 180 817 191
863 10 45 19 88 18 95 0 7 -49 -179 -109 -413 -160 -632 -555 -2193 -702
-2780 -71 -283 -136 -535 -144 -560 l-14 -45 5 45 c2 25 70 479 150 1010 80
531 209 1381 286 1890 76 508 138 928 137 932 -2 4 -81 -419 -176 -940 -403
-2213 -532 -2918 -537 -2927 -3 -5 -2 17 0 50 89 1052 325 3909 322 3911 -2 2
-26 -205 -55 -459 -29 -254 -111 -968 -182 -1587 -71 -619 -148 -1294 -171
-1500 -23 -206 -45 -379 -49 -383 -4 -4 -5 56 -3 135 4 147 49 2880 57 3473 6
447 11 541 -109 -1945 -19 -399 -44 -905 -55 -1126 -11 -221 -20 -432 -20
-469 0 -38 -4 -65 -8 -60 -5 6 -19 224 -31 485 -12 261 -33 700 -46 975 -57
1151 -95 1946 -107 2197 -6 147 -13 266 -15 264 -4 -4 18 -1385 51 -3226 7
-393 11 -717 10 -719 -2 -2 -5 7 -8 20 -4 22 -353 3057 -417 3634 -29 259 -35
308 -38 291z"/>
<path d="M5402 12220 c0 -14 2 -19 5 -12 2 6 2 18 0 25 -3 6 -5 1 -5 -13z"/>
<path d="M7392 12220 c0 -14 2 -19 5 -12 2 6 2 18 0 25 -3 6 -5 1 -5 -13z"/>
<path d="M5011 12134 c0 -11 3 -14 6 -6 3 7 2 16 -1 19 -3 4 -6 -2 -5 -13z"/>
<path d="M7781 12134 c0 -11 3 -14 6 -6 3 7 2 16 -1 19 -3 4 -6 -2 -5 -13z"/>
<path d="M9285 11600 c-9 -16 -13 -30 -11 -30 3 0 12 14 21 30 9 17 13 30 11
30 -3 0 -12 -13 -21 -30z"/>
<path d="M9979 11203 c-13 -16 -12 -17 4 -4 16 13 21 21 13 21 -2 0 -10 -8
-17 -17z"/>
<path d="M2495 10960 c10 -11 20 -20 23 -20 3 0 -3 9 -13 20 -10 11 -20 20
-23 20 -3 0 3 -9 13 -20z"/>
<path d="M10294 10958 l-19 -23 23 19 c12 11 22 21 22 23 0 8 -8 2 -26 -19z"/>
<path d="M1895 10430 c10 -11 20 -20 23 -20 3 0 -3 9 -13 20 -10 11 -20 20
-23 20 -3 0 3 -9 13 -20z"/>
<path d="M10899 10433 c-13 -16 -12 -17 4 -4 9 7 17 15 17 17 0 8 -8 3 -21
-13z"/>
<path d="M11159 10133 c-13 -16 -12 -17 4 -4 9 7 17 15 17 17 0 8 -8 3 -21
-13z"/>
<path d="M1630 10136 c0 -2 8 -10 18 -17 15 -13 16 -12 3 4 -13 16 -21 21 -21
13z"/>
<path d="M800 8780 c8 -5 20 -10 25 -10 6 0 3 5 -5 10 -8 5 -19 10 -25 10 -5
0 -3 -5 5 -10z"/>
<path d="M538 8033 c7 -3 16 -2 19 1 4 3 -2 6 -13 5 -11 0 -14 -3 -6 -6z"/>
<path d="M468 7643 c6 -2 18 -2 25 0 6 3 1 5 -13 5 -14 0 -19 -2 -12 -5z"/>
<path d="M12308 7643 c7 -3 16 -2 19 1 4 3 -2 6 -13 5 -11 0 -14 -3 -6 -6z"/>
<path d="M368 7263 c6 -2 18 -2 25 0 6 3 1 5 -13 5 -14 0 -19 -2 -12 -5z"/>
<path d="M12403 7263 c9 -2 23 -2 30 0 6 3 -1 5 -18 5 -16 0 -22 -2 -12 -5z"/>
<path d="M12343 7253 c9 -2 23 -2 30 0 6 3 -1 5 -18 5 -16 0 -22 -2 -12 -5z"/>
<path d="M328 6873 c12 -2 30 -2 40 0 9 3 -1 5 -23 4 -22 0 -30 -2 -17 -4z"/>
<path d="M12438 6873 c12 -2 30 -2 40 0 9 3 -1 5 -23 4 -22 0 -30 -2 -17 -4z"/>
<path d="M328 5703 c12 -2 30 -2 40 0 9 3 -1 5 -23 4 -22 0 -30 -2 -17 -4z"/>
<path d="M12438 5703 c12 -2 30 -2 40 0 9 3 -1 5 -23 4 -22 0 -30 -2 -17 -4z"/>
<path d="M12343 5323 c9 -2 23 -2 30 0 6 3 -1 5 -18 5 -16 0 -22 -2 -12 -5z"/>
<path d="M368 5313 c6 -2 18 -2 25 0 6 3 1 5 -13 5 -14 0 -19 -2 -12 -5z"/>
<path d="M12403 5313 c9 -2 23 -2 30 0 6 3 -1 5 -18 5 -16 0 -22 -2 -12 -5z"/>
<path d="M468 4933 c6 -2 18 -2 25 0 6 3 1 5 -13 5 -14 0 -19 -2 -12 -5z"/>
<path d="M12308 4933 c7 -3 16 -2 19 1 4 3 -2 6 -13 5 -11 0 -14 -3 -6 -6z"/>
<path d="M538 4543 c7 -3 16 -2 19 1 4 3 -2 6 -13 5 -11 0 -14 -3 -6 -6z"/>
<path d="M800 3800 c-8 -5 -10 -10 -5 -10 6 0 17 5 25 10 8 5 11 10 5 10 -5 0
-17 -5 -25 -10z"/>
<path d="M1639 2453 c-13 -16 -12 -17 4 -4 9 7 17 15 17 17 0 8 -8 3 -21 -13z"/>
<path d="M11150 2456 c0 -2 8 -10 18 -17 15 -13 16 -12 3 4 -13 16 -21 21 -21
13z"/>
<path d="M1894 2148 l-19 -23 23 19 c21 18 27 26 19 26 -2 0 -12 -10 -23 -22z"/>
<path d="M10890 2156 c0 -2 8 -10 18 -17 15 -13 16 -12 3 4 -13 16 -21 21 -21
13z"/>
<path d="M2494 1618 l-19 -23 23 19 c21 18 27 26 19 26 -2 0 -12 -10 -23 -22z"/>
<path d="M10295 1620 c10 -11 20 -20 23 -20 3 0 -3 9 -13 20 -10 11 -20 20
-23 20 -3 0 3 -9 13 -20z"/>
<path d="M9970 1386 c0 -2 8 -10 18 -17 15 -13 16 -12 3 4 -13 16 -21 21 -21
13z"/>
<path d="M9285 980 c9 -16 18 -30 21 -30 2 0 -2 14 -11 30 -9 17 -18 30 -21
30 -2 0 2 -13 11 -30z"/>
<path d="M5011 444 c0 -11 3 -14 6 -6 3 7 2 16 -1 19 -3 4 -6 -2 -5 -13z"/>
<path d="M7781 444 c0 -11 3 -14 6 -6 3 7 2 16 -1 19 -3 4 -6 -2 -5 -13z"/>
<path d="M5402 360 c0 -14 2 -19 5 -12 2 6 2 18 0 25 -3 6 -5 1 -5 -13z"/>
<path d="M7392 360 c0 -14 2 -19 5 -12 2 6 2 18 0 25 -3 6 -5 1 -5 -13z"/>
</g>
</svg>
