<?xml version="1.0" standalone="no"?>
<!DOCTYPE svg PUBLIC "-//W3C//DTD SVG 20010904//EN"
 "http://www.w3.org/TR/2001/REC-SVG-20010904/DTD/svg10.dtd">
<svg version="1.0" xmlns="http://www.w3.org/2000/svg"
 width="240.000000pt" height="380.000000pt" viewBox="0 0 640.000000 1280.000000"
 preserveAspectRatio="xMidYMid meet">
<metadata>
Created by potrace 1.15, written by Peter Selinger 2001-2017
</metadata>
<g transform="translate(0.000000,1280.000000) scale(0.100000,-0.100000)"
fill="green" stroke="none">
<path d="M3256 12778 c-19 -30 -35 -101 -36 -159 0 -70 -17 -104 -76 -154 -30
-26 -54 -55 -54 -64 0 -29 34 -51 89 -58 38 -4 55 -11 63 -27 7 -13 14 -132
19 -311 11 -421 20 -495 64 -511 28 -11 17 -50 -25 -88 -45 -41 -54 -43 -175
-50 -94 -5 -190 -32 -235 -66 -24 -18 -24 -19 -6 -39 13 -14 31 -21 58 -21 21
0 38 -4 38 -8 0 -12 -89 -77 -132 -98 -21 -10 -38 -21 -38 -26 0 -4 19 -37 43
-72 23 -36 51 -79 62 -98 19 -30 25 -33 70 -33 59 0 89 -15 110 -55 23 -45 19
-87 -13 -119 -22 -23 -40 -29 -97 -35 -101 -10 -295 -79 -295 -105 0 -5 21
-14 47 -21 25 -8 61 -26 79 -42 44 -38 94 -58 151 -58 67 0 98 -18 97 -55 -1
-17 -7 -44 -15 -62 -7 -18 -11 -35 -8 -38 4 -4 120 23 224 52 13 3 4 -11 -27
-44 -27 -27 -48 -54 -48 -61 0 -6 12 -14 28 -17 44 -10 89 -35 102 -60 26 -48
-44 -121 -142 -147 -38 -10 -67 -10 -145 1 -54 7 -159 19 -233 27 -74 7 -168
18 -208 24 -111 15 -211 13 -218 -5 -15 -39 114 -203 183 -231 35 -15 35 -16
29 -63 -9 -71 5 -78 90 -46 101 38 122 22 54 -41 -36 -33 -39 -40 -26 -52 16
-16 53 -18 196 -11 77 3 89 1 114 -19 25 -19 41 -22 120 -22 93 0 141 -14 141
-39 0 -15 -10 -22 -65 -46 -19 -8 -65 -41 -103 -74 -71 -62 -86 -68 -205 -78
-121 -10 -132 -43 -30 -97 71 -39 98 -64 98 -95 0 -18 8 -30 23 -36 55 -24 21
-139 -56 -192 -38 -26 -46 -28 -146 -27 -122 1 -143 7 -408 123 -161 71 -290
113 -370 124 l-43 5 0 -152 0 -152 224 -152 c123 -84 229 -159 236 -167 32
-38 -123 -7 -390 80 -95 31 -182 55 -194 53 -55 -8 -18 -104 61 -155 53 -34
57 -40 53 -99 -1 -21 7 -41 23 -60 21 -24 32 -28 79 -29 49 0 60 -4 103 -40
96 -81 93 -79 168 -77 l70 2 -6 -34 c-10 -62 32 -72 121 -31 94 44 103 33 40
-45 -24 -29 -53 -67 -66 -84 l-23 -31 46 -42 c25 -23 45 -49 45 -56 0 -8 -17
-38 -39 -68 -71 -100 -88 -153 -56 -179 8 -7 60 -23 115 -36 156 -37 207 -72
225 -156 10 -43 36 -51 180 -52 149 -1 164 -7 214 -79 85 -124 41 -153 -168
-111 -192 38 -209 24 -151 -119 38 -96 40 -144 4 -157 -73 -28 -211 7 -369 95
-125 69 -245 127 -310 150 -67 23 -151 31 -168 16 -8 -6 -17 -40 -20 -77 -9
-89 -23 -108 -101 -134 -81 -27 -94 -41 -71 -76 20 -31 76 -57 170 -79 126
-28 124 -38 -19 -105 -113 -53 -135 -70 -111 -90 14 -12 132 -31 290 -47 l80
-8 -90 -59 c-91 -58 -145 -103 -145 -118 0 -31 191 15 335 82 110 51 134 50
155 -6 26 -72 32 -75 122 -68 75 7 80 6 76 -12 -2 -11 -27 -31 -66 -49 -34
-17 -70 -39 -80 -49 -16 -16 -16 -18 8 -38 22 -18 35 -20 116 -16 80 4 101 10
183 47 50 24 98 40 106 37 9 -3 15 -18 15 -35 0 -22 -12 -40 -51 -75 -68 -61
-175 -110 -318 -148 -120 -31 -186 -60 -205 -91 -18 -28 12 -68 74 -100 47
-23 69 -27 152 -30 54 -1 98 -5 98 -9 0 -5 -4 -8 -8 -8 -17 0 -122 -103 -122
-119 0 -30 38 -56 78 -54 21 1 81 15 136 32 116 36 132 38 146 11 14 -26 61
-50 99 -50 39 0 79 -19 86 -40 21 -65 -86 -142 -265 -191 -94 -26 -105 -69
-26 -109 27 -14 51 -31 53 -37 7 -20 -45 -39 -219 -82 -92 -22 -247 -63 -344
-91 -97 -27 -189 -50 -205 -50 -36 0 -143 39 -203 74 -29 17 -58 46 -80 80
-19 30 -95 120 -170 200 -74 80 -170 192 -212 248 -137 182 -392 415 -475 433
-41 9 -54 -6 -52 -60 2 -57 38 -134 97 -209 54 -70 56 -82 21 -216 -33 -127
-32 -145 10 -204 19 -27 44 -74 56 -105 23 -64 41 -87 84 -108 41 -21 75 -53
75 -72 0 -9 -21 -50 -45 -91 -25 -41 -45 -87 -45 -102 0 -55 69 -61 143 -13
41 28 42 27 50 -43 9 -75 42 -92 95 -47 45 38 76 46 102 28 20 -14 22 -22 17
-63 -7 -58 3 -70 59 -70 60 0 92 -15 112 -52 29 -54 58 -78 95 -78 18 0 41 -6
50 -13 15 -11 16 -19 6 -69 -14 -69 0 -115 37 -124 13 -3 52 4 87 15 50 17 70
19 91 11 39 -14 134 -113 152 -157 9 -21 34 -61 55 -89 21 -28 39 -58 39 -67
0 -17 -75 -57 -108 -57 -11 0 -32 -4 -46 -10 -23 -8 -26 -15 -26 -60 0 -64
-23 -90 -80 -90 -51 0 -75 11 -200 93 -113 74 -170 105 -252 138 -142 55 -209
101 -254 171 -30 47 -63 78 -84 78 -9 0 -27 -11 -40 -25 -33 -35 -34 -113 -1
-183 29 -62 24 -82 -23 -82 -19 0 -47 -5 -61 -10 -23 -9 -26 -14 -21 -38 10
-40 92 -156 161 -228 61 -64 102 -84 171 -84 76 0 122 -37 105 -83 -24 -63
-221 -184 -316 -195 -84 -9 -225 78 -282 175 -77 132 -176 41 -145 -134 6 -34
6 -62 1 -69 -5 -6 -59 -14 -121 -18 -170 -10 -218 -49 -141 -116 41 -36 107
-68 253 -124 53 -20 131 -58 175 -86 43 -27 101 -56 129 -65 32 -9 74 -34 111
-65 33 -28 71 -53 85 -57 45 -10 69 -32 76 -69 8 -43 49 -72 146 -104 119 -38
136 -70 58 -110 -79 -40 -36 -101 114 -161 84 -34 149 -70 161 -90 12 -19 -16
-29 -82 -29 -85 0 -155 16 -242 56 -93 43 -154 88 -287 215 -121 115 -157 139
-279 189 -106 43 -159 75 -237 142 -79 68 -97 73 -204 52 -110 -20 -234 -20
-339 0 -110 22 -160 21 -185 -4 -24 -24 -24 -29 -5 -58 24 -33 85 -65 234
-123 73 -28 143 -61 154 -72 l20 -20 -20 -16 c-12 -9 -35 -24 -52 -33 -17 -9
-31 -22 -31 -27 0 -19 75 -24 185 -14 61 6 111 10 112 9 1 -1 -51 -35 -117
-76 l-118 -75 84 -20 c46 -12 92 -29 102 -39 16 -16 16 -18 -10 -39 -15 -12
-55 -33 -88 -46 -34 -13 -64 -30 -67 -39 -14 -34 86 -92 158 -92 57 0 179 -65
179 -95 0 -18 -56 -64 -107 -87 -41 -18 -43 -21 -43 -64 0 -89 51 -111 345
-149 264 -35 361 -53 405 -75 21 -11 65 -50 99 -87 58 -64 60 -68 39 -75 -50
-14 -139 -8 -200 14 -68 24 -117 26 -428 18 -142 -3 -159 -2 -203 18 -60 27
-81 28 -107 2 -60 -60 11 -127 214 -201 130 -47 132 -50 152 -220 6 -56 6 -56
-40 -108 -52 -58 -59 -98 -26 -131 30 -30 93 -25 212 15 196 67 460 105 503
72 33 -25 10 -65 -65 -114 -108 -70 -117 -79 -129 -130 -10 -40 -25 -61 -92
-125 -43 -42 -79 -83 -79 -91 0 -7 11 -24 25 -37 21 -20 39 -25 95 -28 88 -5
170 19 344 99 71 33 157 67 192 76 58 14 65 14 88 0 18 -12 27 -29 32 -62 8
-59 26 -70 138 -84 94 -11 136 -30 136 -60 0 -30 33 -51 79 -51 29 0 64 11
110 35 37 19 73 35 79 35 7 0 52 -20 100 -44 49 -25 115 -51 146 -60 32 -8 61
-18 64 -21 4 -4 10 -67 13 -141 6 -156 17 -180 90 -202 58 -18 192 -10 241 14
42 20 39 11 63 189 22 162 47 225 89 225 28 0 129 -48 233 -111 46 -28 109
-61 141 -74 122 -49 412 -93 545 -82 127 11 157 25 222 112 17 22 31 28 88 35
72 9 97 22 97 51 0 24 -33 46 -97 65 -29 8 -63 24 -75 35 l-23 19 24 20 c29
25 54 25 186 0 58 -12 134 -20 167 -18 61 3 62 4 82 43 12 21 35 48 53 60 18
11 47 29 65 40 18 11 42 36 55 55 55 87 48 84 181 90 126 7 137 10 264 84 25
15 79 34 119 42 84 17 105 30 88 50 -6 8 -22 14 -35 14 -36 0 -75 22 -72 39 3
14 24 16 145 17 162 0 190 10 152 50 -24 26 -19 41 37 110 50 62 61 91 42 110
-8 9 -33 20 -54 24 -105 25 -260 2 -559 -80 -287 -79 -310 -81 -399 -41 -38
17 -73 31 -78 31 -5 0 -38 -27 -72 -60 -75 -72 -79 -73 -296 -35 -177 31 -218
43 -231 66 -12 23 17 145 41 169 10 10 42 19 81 23 43 5 74 14 94 30 29 22 34
22 277 19 287 -4 290 -3 335 80 l28 53 95 0 c124 1 123 1 159 30 21 19 32 38
36 70 10 61 37 82 205 164 150 72 185 96 201 138 17 46 10 72 -32 118 -46 50
-47 49 53 80 90 28 94 36 81 163 -6 60 -7 117 -2 130 5 13 29 31 61 45 29 13
72 43 95 66 48 49 117 183 134 260 10 48 9 56 -8 80 -15 19 -33 28 -68 33 -74
11 -76 18 -27 108 47 88 54 136 22 165 -44 40 -104 9 -255 -135 -161 -153
-208 -192 -324 -268 -151 -98 -155 -99 -252 -77 -81 19 -95 35 -31 35 52 1
112 16 130 33 25 26 7 60 -90 167 l-92 102 55 48 c100 89 165 115 372 145 132
19 139 22 135 49 -3 20 -53 52 -110 71 -19 6 -13 9 32 16 148 25 190 47 190
101 0 67 -29 81 -188 93 -110 8 -175 25 -219 58 -39 28 -34 37 21 37 113 2
236 94 236 178 0 25 -5 33 -25 38 -35 9 -164 -19 -385 -84 -173 -50 -205 -57
-285 -57 -83 0 -102 4 -241 53 -99 34 -183 57 -245 65 -89 12 -94 14 -97 37
-4 38 33 89 68 97 19 3 42 21 62 45 l31 40 91 -6 c94 -7 98 -6 161 38 19 14
45 20 91 21 64 1 65 1 113 51 31 33 61 53 81 58 18 3 101 6 184 6 167 0 226
10 226 39 0 37 -161 118 -282 143 -46 9 -79 9 -156 -1 -53 -6 -149 -18 -213
-26 -137 -16 -201 -37 -288 -93 -56 -37 -71 -42 -120 -42 -63 0 -242 40 -308
70 -49 22 -56 48 -23 90 11 14 25 51 31 82 13 67 19 69 121 42 33 -8 72 -14
87 -12 26 3 26 4 23 73 -3 81 5 98 83 165 93 81 167 130 194 130 14 0 58 -16
97 -36 66 -33 75 -35 107 -25 20 7 55 28 79 46 51 41 66 42 155 11 98 -35 144
-40 187 -22 61 25 46 64 -54 141 -33 26 -60 51 -60 57 0 17 72 1 186 -43 211
-80 339 -92 319 -30 -14 44 -245 210 -401 288 -66 33 -106 46 -151 50 -58 5
-67 3 -155 -40 -120 -59 -288 -116 -485 -166 -220 -55 -260 -59 -297 -30 -25
20 -28 27 -23 63 8 58 26 67 132 64 49 -1 96 1 103 5 24 16 13 65 -23 106 -33
37 -35 40 -16 46 12 3 58 -7 109 -24 49 -17 98 -31 108 -31 10 0 42 23 71 52
l53 52 27 -25 c69 -64 108 -74 144 -38 25 25 21 66 -12 107 -27 34 -16 37 56
12 102 -35 127 -23 145 69 14 73 15 74 71 67 91 -12 179 29 179 84 0 36 -23
51 -129 84 -107 34 -235 56 -325 56 -90 0 -150 27 -231 103 -73 67 -121 145
-135 216 -11 61 -1 91 33 91 42 0 50 14 43 69 -9 65 -4 66 133 2 121 -56 151
-66 185 -57 51 13 38 61 -33 131 -23 21 -41 45 -41 52 0 17 57 16 140 -2 36
-8 99 -14 141 -15 90 0 124 19 135 76 6 35 44 74 71 74 35 0 116 56 150 104
61 86 83 104 162 137 77 32 121 62 121 85 0 28 -71 35 -460 45 -217 5 -411 13
-430 17 -27 6 -36 13 -38 32 -4 31 44 104 120 185 l56 60 103 -3 c116 -3 186
10 241 44 43 28 58 51 58 93 0 63 -69 79 -747 166 -235 31 -375 58 -407 79
-24 15 -36 53 -36 117 0 47 27 69 85 69 73 0 85 8 85 51 0 28 5 41 20 49 10 5
118 17 239 25 232 15 308 29 389 71 27 14 68 28 91 31 48 7 65 24 57 58 -11
45 -45 54 -321 85 -127 14 -244 44 -352 90 -107 46 -165 61 -207 53 -17 -3
-71 -23 -119 -45 -124 -56 -172 -46 -218 44 -44 87 -9 158 85 171 90 13 172
77 196 154 19 58 55 99 131 149 102 68 142 127 114 171 -14 20 -21 23 -53 17
-20 -4 -98 -33 -172 -64 -151 -65 -198 -80 -251 -80 -82 0 -122 83 -50 106 37
12 46 23 55 75 7 38 35 59 81 59 22 0 32 9 84 79 16 21 25 24 82 22 52 -1 75
4 114 24 62 31 65 31 111 0 28 -19 50 -25 92 -25 51 0 57 2 93 42 l39 43 157
1 c155 1 203 6 203 24 0 18 -61 40 -222 80 -89 22 -199 51 -243 64 -88 26
-269 52 -435 61 -179 10 -322 25 -343 36 -17 10 -19 18 -14 66 11 109 45 123
296 123 187 0 191 0 205 23 8 12 17 36 21 54 3 17 13 37 21 44 18 15 95 6 183
-21 75 -22 86 -18 96 40 4 21 15 46 25 55 19 18 50 17 155 -1 37 -6 69 14 59
39 -9 25 -79 62 -144 78 -66 15 -296 17 -573 6 l-197 -9 -49 104 c-27 56 -51
113 -54 126 -7 31 17 52 63 52 49 0 90 15 90 34 0 8 -11 28 -25 44 -14 17 -25
35 -25 41 0 24 60 9 133 -35 106 -63 111 -60 105 72 -6 133 -14 145 -134 199
-160 72 -176 87 -197 191 -18 93 -11 124 33 139 28 10 35 17 35 39 -1 14 3 26
8 26 4 0 38 -18 74 -40 68 -41 124 -52 140 -27 4 6 8 39 8 72 0 59 0 60 39 80
22 11 41 26 44 33 10 31 -60 72 -197 116 -86 28 -146 55 -191 86 -14 10 -54
28 -90 40 -36 13 -77 35 -92 48 -45 41 -71 123 -72 227 -1 77 -4 95 -24 122
-33 46 -87 75 -161 88 -63 10 -67 12 -85 50 -24 48 -27 148 -7 218 9 30 31 67
59 98 42 47 44 51 32 79 -12 29 -55 55 -109 66 -61 12 -73 36 -105 199 -23
115 -66 164 -100 113z m1223 -5619 c64 -22 121 -63 121 -88 0 -24 -29 -34
-179 -60 -119 -21 -125 -21 -160 -4 -47 23 -77 80 -61 115 31 66 148 82 279
37z m-1876 -3491 c12 -15 40 -32 63 -38 49 -12 61 -33 38 -68 -14 -22 -21 -24
-67 -20 -69 6 -170 45 -215 84 -31 27 -35 34 -24 47 18 21 44 26 120 23 55 -2
66 -6 85 -28z m1761 -744 c47 -48 57 -144 20 -201 -33 -52 -85 -10 -104 83
-13 60 -7 106 17 129 21 21 37 19 67 -11z m752 -10 c46 -19 126 -65 122 -70
-2 -1 -66 -21 -142 -43 -105 -31 -142 -38 -152 -30 -25 20 -15 46 37 103 56
61 72 66 135 40z m-956 -151 c23 -30 23 -51 -2 -67 -20 -12 -58 16 -58 45 0
53 27 63 60 22z m-1456 -681 c69 -25 128 -77 124 -107 -4 -29 -34 -30 -76 -2
-42 29 -101 42 -252 56 -105 10 -170 26 -170 41 0 8 33 21 85 34 11 2 67 4
125 2 78 -2 120 -8 164 -24z m1448 -447 c24 -9 60 -29 79 -45 l34 -29 -42 -1
c-51 0 -120 22 -188 61 l-50 29 61 0 c33 0 81 -7 106 -15z m-336 -253 c95 -69
136 -127 104 -147 -24 -15 -132 82 -169 153 -10 19 -9 22 7 22 11 0 37 -13 58
-28z m-165 -142 c51 -28 -2 -98 -112 -150 -91 -42 -155 -49 -192 -20 -22 17
-27 29 -25 54 l3 31 72 0 c59 0 77 4 102 23 102 75 116 81 152 62z"/>
</g>
</svg>
