<?xml version="1.0" standalone="no"?>
<!DOCTYPE svg PUBLIC "-//W3C//DTD SVG 20010904//EN"
 "http://www.w3.org/TR/2001/REC-SVG-20010904/DTD/svg10.dtd">
<svg version="1.0" xmlns="http://www.w3.org/2000/svg"
 width="1280.000000pt" height="1280.000000pt" viewBox="0 0 1280.000000 1280.000000"
 preserveAspectRatio="xMidYMid meet">
<metadata>
Created by potrace 1.15, written by Peter Selinger 2001-2017
</metadata>
<g transform="translate(0.000000,1280.000000) scale(0.100000,-0.100000)"
fill="#000000" stroke="none">
<path d="M4837 12593 c-22 -3 -40 -23 -87 -94 -33 -49 -62 -89 -65 -89 -2 0
-23 41 -46 91 l-43 91 -45 -7 c-519 -73 -981 -307 -1272 -642 -86 -98 -163
-208 -199 -281 -14 -28 -27 -51 -30 -51 -3 0 -21 32 -40 72 -110 224 -340 451
-589 581 -108 56 -256 115 -295 118 -11 1 -52 -18 -90 -41 -37 -23 -70 -40
-73 -37 -3 2 -17 46 -32 97 -31 108 -20 102 -200 118 -505 46 -953 -42 -1266
-248 -73 -48 -215 -178 -215 -197 0 -7 25 -4 73 7 181 46 480 67 643 46 l61
-8 77 57 c42 31 79 54 81 52 3 -2 10 -38 16 -79 l11 -75 116 -13 c619 -66
1154 -322 1403 -673 21 -29 22 -31 3 -24 -183 75 -319 105 -521 113 l-152 6
-51 -47 c-29 -25 -56 -46 -60 -46 -5 0 -29 23 -54 51 l-47 52 -77 -2 c-245 -6
-529 -84 -745 -205 -229 -128 -477 -398 -573 -623 l-28 -66 64 -57 63 -57 -83
-39 -83 -38 6 -121 c11 -218 65 -431 155 -610 42 -85 113 -198 129 -208 5 -3
8 79 8 181 0 154 4 207 23 299 49 243 151 473 293 658 l38 51 3 112 3 112 88
-64 88 -64 97 43 c161 71 315 112 522 140 124 17 448 20 588 5 116 -13 324
-49 335 -60 4 -4 -25 -10 -65 -13 -302 -27 -644 -172 -838 -354 l-64 -60 32
-83 c18 -46 31 -85 28 -87 -2 -2 -47 -11 -100 -20 -68 -11 -100 -21 -106 -33
-17 -31 -90 -316 -119 -465 -80 -403 -82 -815 -7 -1106 28 -106 86 -252 117
-289 l20 -25 -7 47 c-15 113 36 383 111 578 79 209 234 492 387 711 l75 106
-63 84 c-35 46 -64 87 -64 90 0 3 46 4 103 2 l102 -5 63 86 c67 91 257 311
312 361 26 24 34 27 38 15 2 -8 23 -33 46 -55 63 -61 149 -81 222 -50 27 11
36 11 39 2 23 -72 115 -514 159 -762 131 -732 184 -1300 193 -2032 8 -692 -21
-1137 -113 -1706 -14 -87 -24 -160 -22 -162 13 -13 209 -56 295 -65 146 -15
313 8 407 57 l29 15 -7 156 c-64 1492 -282 3045 -617 4387 -33 132 -62 247
-64 255 -3 10 6 20 27 28 42 15 40 17 326 -267 l233 -231 95 16 c52 9 97 14
99 12 3 -2 -4 -33 -15 -68 -11 -35 -18 -65 -17 -66 1 0 70 -36 154 -78 403
-205 731 -482 935 -786 39 -58 71 -106 73 -108 4 -5 -5 84 -21 203 -40 291
-143 573 -284 774 l-50 70 -75 3 -75 3 41 68 40 68 -39 47 c-225 268 -676 516
-1257 692 -93 28 -177 55 -185 58 -26 12 121 13 226 3 247 -25 516 -109 707
-220 l67 -40 44 65 44 65 51 -84 50 -84 109 5 c124 5 420 -12 597 -34 174 -22
492 -88 668 -138 152 -44 387 -125 440 -153 16 -8 31 -13 33 -11 8 9 -161 214
-271 327 -180 186 -374 338 -582 459 l-71 42 -101 -59 c-55 -33 -102 -57 -105
-53 -2 4 -10 49 -17 101 -7 52 -19 99 -25 106 -12 12 -201 52 -376 80 -289 45
-714 58 -980 30 -166 -17 -353 -54 -470 -92 -48 -16 -84 -25 -82 -21 2 3 68
45 147 92 391 234 811 373 1230 408 121 10 147 15 147 27 0 9 -7 56 -16 105
-8 48 -13 90 -11 92 2 3 71 -24 153 -60 l149 -64 35 22 c297 180 626 297 1040
369 l135 24 -140 70 c-267 134 -529 226 -785 277 -185 37 -396 53 -493 39z"/>
<path d="M10940 12523 c-148 -11 -379 -61 -449 -98 -22 -11 -32 -28 -50 -91
l-22 -77 -55 54 -55 54 -67 -35 c-96 -49 -254 -157 -342 -233 -167 -144 -308
-343 -385 -545 l-28 -73 -36 69 c-78 146 -194 283 -323 378 -102 75 -111 78
-170 58 -34 -11 -53 -13 -60 -6 -6 6 -13 40 -16 77 l-5 67 -46 20 c-126 54
-347 109 -515 129 -118 14 -559 -2 -726 -27 -326 -47 -597 -168 -774 -346 -38
-38 -67 -71 -64 -73 3 -3 43 3 89 14 46 11 120 25 164 33 86 13 423 18 466 6
21 -6 38 2 100 47 41 30 77 55 80 55 4 0 10 -32 14 -70 4 -39 11 -72 15 -75 5
-3 64 -12 132 -21 68 -8 176 -25 240 -38 125 -25 368 -95 368 -105 0 -4 -39
-14 -86 -24 -198 -41 -449 -141 -604 -242 -41 -27 -122 -96 -180 -154 -83 -83
-115 -123 -147 -186 -34 -66 -55 -91 -114 -140 -129 -107 -294 -329 -345 -462
l-17 -44 57 -58 57 -58 -77 -37 -77 -36 6 -123 c11 -209 62 -408 148 -579 40
-79 110 -191 126 -201 5 -3 7 67 5 155 -3 185 17 332 68 488 35 109 137 323
149 316 5 -3 11 -18 14 -33 3 -16 13 -46 23 -68 l17 -40 14 70 c27 134 119
369 153 390 5 3 25 -6 44 -20 l34 -26 59 29 c105 53 297 113 438 137 l40 7
-86 -89 c-100 -102 -156 -183 -211 -300 -45 -96 -88 -254 -88 -323 l0 -48 55
-23 55 -23 -49 -50 -50 -51 35 -85 c35 -85 35 -85 24 -170 -13 -106 -13 -197
0 -275 5 -33 11 -157 14 -275 4 -227 23 -371 66 -515 22 -72 99 -245 109 -245
3 0 6 53 7 118 1 133 19 234 71 390 73 221 197 464 369 719 l102 152 -59 78
c-32 43 -59 82 -59 86 0 5 42 6 93 2 l94 -7 34 43 34 43 17 -160 c49 -447 180
-798 373 -997 46 -49 66 -57 46 -19 -21 40 -51 188 -57 287 -12 185 35 511
106 735 16 52 30 95 30 96 0 0 -29 21 -65 45 -36 24 -65 46 -65 49 0 4 31 14
69 24 60 16 71 22 79 46 9 25 15 27 78 33 38 3 70 4 71 3 1 0 22 -100 48 -220
137 -653 220 -1275 256 -1933 15 -286 7 -1095 -15 -1343 -19 -222 -59 -545
-90 -728 l-22 -133 65 -20 c206 -63 427 -64 586 -1 l50 20 -3 118 c-11 431
-67 1134 -138 1734 -89 753 -243 1633 -408 2325 -35 149 -63 271 -61 273 2 2
25 -35 51 -81 53 -93 59 -97 162 -97 l43 0 -27 -50 -27 -49 34 -28 c66 -53
252 -239 309 -308 125 -152 240 -353 295 -514 l22 -66 14 75 c9 47 13 143 13
255 0 171 -5 216 -40 349 l-7 29 59 -33 c109 -60 308 -199 409 -283 167 -140
316 -307 410 -462 l37 -60 -6 94 c-18 277 -127 611 -272 828 l-55 83 -75 0
c-41 0 -74 2 -74 5 0 2 18 34 39 69 l40 64 -64 75 c-36 41 -72 78 -81 81 -9 4
-15 9 -12 12 9 8 203 -81 340 -157 129 -71 283 -168 351 -221 23 -18 37 -25
37 -16 0 7 -22 59 -50 116 -27 56 -45 102 -40 102 4 0 10 -6 13 -12 2 -7 7
-10 11 -7 9 9 -97 219 -154 303 -27 41 -72 102 -100 135 -60 72 -67 69 118 46
292 -36 624 -114 892 -208 85 -30 172 -62 194 -71 l38 -17 -23 33 c-137 196
-385 443 -606 601 -73 53 -245 157 -259 157 -6 0 -54 -25 -105 -55 l-94 -55
-16 100 c-8 55 -20 104 -25 109 -10 9 -258 61 -293 61 -12 0 -21 4 -21 8 0 14
235 52 378 62 79 5 185 5 273 0 190 -13 174 -13 158 7 -13 15 -8 16 59 10 39
-3 72 -4 72 -3 0 6 -165 113 -231 149 -36 20 -110 56 -165 81 -54 24 -126 60
-159 80 -97 60 -252 131 -362 166 -82 26 -103 36 -103 51 0 11 2 19 4 19 3 0
68 -27 146 -60 l142 -59 104 60 c240 140 592 258 945 316 121 20 123 17 -66
108 -336 161 -642 251 -954 280 l-74 7 84 49 c46 27 105 60 131 72 26 12 47
25 48 28 0 7 -143 27 -280 39 -101 9 -254 10 -350 3z m-2423 -889 l62 -27 -27
-33 c-15 -19 -29 -34 -32 -34 -3 0 -14 15 -26 33 -11 17 -29 44 -38 60 -23 34
-17 34 61 1z"/>
<path d="M2529 5415 c-190 -30 -386 -94 -592 -193 -81 -39 -132 -69 -125 -72
7 -4 47 -12 88 -19 241 -38 546 -144 701 -243 l56 -36 106 46 c59 25 110 43
113 40 3 -3 -1 -35 -7 -72 -7 -36 -10 -69 -7 -72 4 -3 55 -10 114 -15 291 -25
604 -130 880 -295 52 -31 94 -58 92 -59 -2 -2 -40 7 -86 21 -309 89 -723 93
-1150 9 -69 -14 -129 -30 -133 -37 -4 -7 -11 -41 -15 -75 -3 -35 -9 -65 -13
-67 -3 -2 -35 13 -71 35 -36 21 -70 39 -76 39 -5 0 -41 -19 -80 -42 -180 -108
-386 -290 -517 -457 -37 -47 -65 -86 -64 -88 2 -1 37 11 78 28 40 17 133 48
204 70 292 87 538 127 838 136 l208 6 32 53 c17 30 35 54 38 54 3 0 18 -18 33
-40 14 -22 28 -40 30 -40 3 0 37 18 78 39 92 49 252 105 360 126 89 17 297 32
287 21 -4 -4 -64 -24 -135 -46 -249 -75 -519 -196 -686 -306 -73 -49 -221
-182 -239 -216 -7 -13 -3 -28 16 -58 14 -22 25 -44 25 -50 0 -5 -24 -10 -54
-10 l-53 0 -36 -53 c-78 -119 -134 -253 -172 -412 -22 -92 -48 -275 -40 -283
2 -2 11 11 21 30 31 60 123 175 212 263 139 139 304 256 500 354 56 28 102 52
102 54 0 1 -7 24 -15 51 l-15 48 33 -6 c17 -3 50 -8 72 -11 l40 -6 184 180
c256 251 260 250 185 -54 -167 -674 -317 -1577 -380 -2290 -4 -44 -9 -74 -11
-67 -3 6 -9 12 -14 12 -5 0 -9 -51 -9 -112 l0 -113 -74 -26 c-66 -24 -74 -25
-85 -10 -11 14 -11 14 -7 -2 4 -14 -7 -23 -49 -42 l-55 -24 0 -360 0 -361
3215 0 3215 0 0 415 0 415 -37 0 c-36 0 -137 -21 -175 -35 -14 -5 -18 2 -24
42 -12 86 -21 94 -29 26 -4 -34 -4 -66 -1 -72 4 -5 2 -12 -4 -16 -6 -3 -10 4
-10 17 0 13 -9 120 -20 238 -75 829 -202 1607 -376 2319 -66 272 -67 280 -24
281 8 0 96 -81 195 -181 l180 -180 50 6 c28 3 61 9 74 12 22 5 24 4 18 -23 -4
-16 -9 -39 -13 -51 -5 -19 7 -28 106 -78 278 -143 531 -354 668 -560 l52 -77
0 44 c0 174 -94 470 -201 633 l-43 65 -58 0 c-32 0 -58 2 -58 5 0 2 13 25 30
51 l29 47 -19 27 c-36 50 -153 153 -244 213 -165 108 -447 232 -686 302 -138
40 -142 47 -20 41 193 -10 370 -57 537 -142 l88 -45 15 22 c27 41 51 64 56 54
2 -5 17 -31 33 -56 l29 -46 209 -6 c361 -10 720 -81 1028 -202 49 -19 91 -35
93 -35 2 0 -25 37 -60 82 -82 106 -222 247 -330 331 -92 72 -254 177 -272 177
-6 0 -42 -18 -80 -40 -38 -22 -70 -39 -71 -38 -1 2 -7 36 -13 76 -6 41 -13 76
-15 78 -8 9 -256 54 -383 70 -158 20 -490 23 -624 5 -111 -15 -247 -44 -309
-66 -24 -8 -46 -13 -48 -11 -8 7 166 107 290 166 215 103 457 170 675 189 63
5 116 11 118 14 3 3 0 35 -7 71 -6 37 -9 70 -5 73 3 3 52 -14 110 -39 l104
-45 48 30 c150 93 419 191 643 233 75 15 144 29 155 33 27 10 -233 132 -397
186 -186 61 -317 86 -479 92 l-136 6 -44 -66 c-23 -37 -45 -67 -48 -67 -3 0
-20 29 -37 64 l-32 63 -78 -12 c-256 -42 -492 -139 -677 -278 -125 -95 -261
-246 -323 -359 -15 -27 -29 -48 -33 -48 -3 0 -16 21 -29 48 -98 202 -323 393
-563 477 l-77 27 -51 -31 c-28 -17 -55 -29 -59 -27 -4 3 -13 30 -21 60 -7 30
-16 60 -20 66 -21 34 -422 41 -602 10 -136 -23 -282 -73 -384 -131 -71 -41
-214 -161 -204 -172 3 -3 48 4 100 15 73 16 139 21 281 22 l187 2 51 37 c56
41 56 41 66 -35 6 -47 7 -48 42 -48 54 0 227 -29 335 -56 235 -59 433 -156
588 -288 54 -46 140 -144 140 -159 0 -4 -14 0 -31 9 -60 31 -221 64 -339 71
l-117 6 -41 -37 -40 -37 -40 43 -40 42 -114 -12 c-249 -26 -430 -98 -611 -241
-91 -72 -194 -200 -250 -308 l-42 -82 44 -45 44 -45 -58 -28 -58 -28 7 -105
c10 -182 64 -356 154 -500 l47 -75 6 155 c10 260 65 430 203 635 39 56 41 65
46 148 l5 88 64 -47 c62 -45 66 -46 95 -34 99 41 264 92 346 107 134 25 465
24 604 -1 119 -22 158 -34 108 -35 -122 -3 -355 -77 -485 -155 -67 -40 -165
-117 -179 -140 -3 -6 4 -37 17 -68 13 -32 20 -59 17 -62 -4 -2 -29 -7 -57 -10
-97 -14 -89 -2 -137 -190 -41 -163 -65 -308 -79 -471 -20 -240 17 -496 93
-652 l33 -68 6 105 c14 238 127 516 336 824 l73 109 -38 51 c-63 84 -64 80 16
73 l72 -6 77 97 c42 53 108 130 146 169 l70 73 34 -35 c43 -44 101 -62 155
-48 45 12 40 18 63 -82 117 -509 194 -1051 225 -1580 18 -305 10 -975 -12
-975 -4 0 -8 13 -8 29 0 40 -11 91 -20 91 -4 0 -10 -75 -14 -167 -8 -191 -17
-261 -37 -274 -21 -13 -29 -11 -36 9 -17 46 -84 185 -87 181 -3 -2 9 -49 25
-103 16 -54 29 -102 29 -106 0 -5 -32 -14 -71 -20 -141 -24 -260 7 -488 127
-164 86 -236 113 -299 113 -27 0 -106 -21 -206 -54 -198 -67 -275 -80 -486
-80 -209 0 -325 23 -650 129 -382 125 -405 130 -615 130 -250 0 -278 -7 -679
-167 -136 -54 -278 -106 -314 -114 -113 -26 -162 -10 -429 142 -215 122 -310
158 -462 173 -57 6 -109 11 -116 11 -7 0 -16 19 -20 43 l-9 42 -5 -45 c-5 -39
-9 -45 -32 -48 -26 -3 -26 -2 -32 74 -11 119 -8 721 3 899 29 453 85 877 175
1312 63 311 67 324 84 318 67 -27 135 -11 181 42 l32 36 40 -39 c47 -46 180
-202 222 -261 l29 -42 76 6 76 6 -26 -34 c-14 -19 -36 -48 -48 -65 l-22 -31
86 -129 c47 -71 119 -195 159 -275 112 -224 164 -399 166 -564 l2 -70 34 70
c62 128 85 245 91 456 4 115 1 225 -7 290 -23 198 -98 522 -127 546 -8 6 -41
14 -74 18 -32 4 -61 10 -63 14 -2 3 6 32 19 63 l23 57 -46 43 c-138 129 -379
233 -588 254 -83 9 -69 17 71 40 151 26 470 26 605 1 87 -16 213 -55 331 -102
l46 -18 62 47 61 47 0 -80 c0 -80 0 -81 46 -143 138 -188 220 -460 212 -701
-2 -54 -1 -97 2 -97 9 0 67 93 98 155 61 123 112 337 112 470 l0 51 -56 28
-57 27 42 43 43 44 -21 47 c-12 27 -46 85 -75 129 -176 263 -454 421 -804 458
l-113 12 -41 -41 -41 -42 -44 36 -44 36 -112 -6 c-117 -7 -236 -31 -326 -67
l-53 -20 23 32 c38 55 155 164 229 213 203 135 453 220 756 258 108 14 111 16
113 95 1 17 3 32 6 32 3 0 28 -17 55 -37 l49 -37 188 -1 c149 -2 207 -7 283
-23 52 -12 96 -19 98 -17 9 9 -101 107 -167 150 -131 85 -300 142 -487 166
-114 14 -489 8 -520 -9 -14 -7 -25 -29 -33 -64 -18 -83 -20 -84 -81 -48 l-53
31 -76 -26 c-242 -86 -432 -243 -556 -460 l-42 -74 -20 42 c-34 70 -135 198
-222 280 -200 190 -496 329 -799 374 -71 11 -69 12 -102 -64 -12 -29 -25 -53
-29 -53 -3 0 -25 30 -49 65 l-42 65 -108 -1 c-59 -1 -146 -7 -193 -14z"/>
</g>
</svg>
