<?xml version="1.0" standalone="no"?>
<!DOCTYPE svg PUBLIC "-//W3C//DTD SVG 20010904//EN"
 "http://www.w3.org/TR/2001/REC-SVG-20010904/DTD/svg10.dtd">
<svg version="1.0" xmlns="http://www.w3.org/2000/svg"
 width="1042.000000pt" height="1280.000000pt" viewBox="0 0 1042.000000 1280.000000"
 preserveAspectRatio="xMidYMid meet">
<metadata>
Created by potrace 1.15, written by Peter Selinger 2001-2017
</metadata>
<g transform="translate(0.000000,1280.000000) scale(0.100000,-0.100000)"
fill="#000000" stroke="none">
<path d="M7171 12648 c-77 -277 -207 -579 -327 -760 -35 -53 -68 -99 -73 -102
-4 -3 -16 36 -26 86 -20 102 -57 225 -86 278 -27 51 -50 76 -88 95 -32 16 -33
18 -26 61 3 24 3 49 -1 56 -12 18 -22 -20 -23 -82 -2 -82 -4 -84 -98 -69 -44
6 -97 9 -119 5 -129 -24 -314 -409 -339 -706 l-7 -75 54 55 c29 30 102 113
161 183 60 71 110 127 112 125 3 -2 -3 -26 -12 -53 -24 -76 -21 -288 5 -386
23 -86 81 -229 93 -229 4 0 13 17 19 38 15 44 35 70 27 32 -3 -14 -9 -47 -12
-75 -4 -27 -18 -106 -31 -175 -65 -345 -79 -501 -78 -890 0 -248 4 -356 17
-455 21 -156 45 -314 56 -372 4 -24 5 -43 2 -43 -3 0 -39 22 -80 48 l-74 48
-2 100 c-1 87 -4 107 -27 154 -15 30 -50 82 -78 115 -27 32 -50 62 -50 65 0 3
13 26 28 51 60 95 75 146 80 269 3 81 -1 141 -12 202 -9 48 -17 104 -18 123
-2 48 -11 44 -27 -11 -8 -25 -64 -147 -126 -271 l-113 -225 -16 55 c-9 30 -16
59 -16 63 0 4 -23 69 -51 143 -56 149 -58 177 -24 295 14 49 15 68 5 124 -30
173 -159 350 -338 466 -72 47 -161 90 -169 82 -2 -2 30 -109 71 -237 42 -128
74 -234 72 -236 -2 -2 -30 4 -62 13 -77 22 -306 30 -405 15 -104 -16 -209 -49
-209 -65 0 -14 421 -263 562 -332 l76 -38 -33 -40 c-126 -156 -228 -415 -265
-672 -20 -140 -23 -141 141 10 l145 134 1 -197 c0 -218 20 -387 69 -574 21
-82 24 -85 41 -46 32 77 284 840 299 909 l17 75 14 -45 c17 -57 18 -85 4 -135
-6 -22 -12 -92 -12 -156 -1 -143 17 -223 77 -339 50 -95 119 -196 127 -183 10
17 39 147 45 205 l7 60 50 -69 c66 -90 206 -231 275 -277 l56 -36 23 -218 c13
-119 27 -273 32 -342 12 -174 11 -479 -1 -580 -10 -78 -53 -311 -66 -352 -9
-29 -600 -515 -649 -534 l-44 -16 -58 45 c-138 106 -306 303 -604 707 -245
331 -254 346 -278 445 -37 158 -69 372 -91 605 -6 63 -18 176 -25 250 -13 123
-24 273 -41 575 l-6 110 41 -55 c23 -30 56 -81 74 -112 17 -32 35 -58 38 -58
4 0 12 36 18 79 21 141 -22 349 -88 431 -27 34 -29 40 -15 51 9 7 25 31 37 53
30 56 31 201 3 264 -18 40 -20 41 -37 26 -15 -14 -19 -14 -22 -3 -3 8 -11 41
-20 74 -19 73 -80 245 -87 245 -3 0 -14 -24 -24 -52 l-18 -53 -28 80 c-15 44
-91 238 -170 430 -78 193 -144 355 -146 360 -3 6 27 26 66 45 125 60 202 198
236 420 22 146 18 360 -7 360 -17 0 -142 -139 -205 -226 -155 -218 -203 -326
-204 -458 l0 -79 42 -40 42 -40 53 -246 c29 -135 60 -277 68 -316 20 -93 20
-94 -14 -47 -48 66 -169 139 -278 167 -76 20 -83 19 -83 -10 0 -25 134 -232
190 -293 28 -32 29 -34 14 -58 -9 -13 -20 -24 -25 -24 -4 0 -34 16 -65 35 -32
19 -110 50 -173 70 -64 20 -140 45 -170 56 -30 11 -56 17 -58 15 -9 -8 19 -80
59 -155 64 -122 138 -209 230 -272 31 -21 61 -39 65 -39 5 0 14 -21 21 -47 10
-38 26 -61 77 -109 53 -50 65 -67 65 -92 0 -29 -3 -31 -45 -38 -27 -4 -45 -11
-45 -20 0 -7 27 -34 60 -59 43 -33 68 -62 85 -97 23 -48 24 -55 13 -119 -10
-66 0 -251 20 -373 l7 -40 36 32 c19 17 62 67 95 112 l59 81 7 -158 c3 -87 7
-180 8 -208 2 -47 -5 -90 -51 -300 -21 -98 -57 -198 -69 -193 -4 2 -53 71
-107 153 -55 83 -133 197 -174 255 -41 58 -107 158 -147 222 -40 65 -103 155
-140 202 -127 161 -486 570 -624 712 -124 127 -136 143 -121 155 30 25 53 91
53 154 0 33 -14 131 -30 219 -17 87 -30 169 -30 182 0 38 -12 28 -52 -39 -70
-120 -97 -184 -127 -294 l-16 -62 -142 120 -141 119 29 59 c56 112 56 180 0
356 -17 52 -31 105 -31 118 -1 17 -2 19 -9 7 -5 -8 -13 -78 -19 -155 -8 -112
-15 -154 -36 -205 -14 -35 -26 -69 -26 -77 0 -7 -5 -13 -11 -13 -19 0 -61 54
-123 160 -49 82 -69 107 -92 115 -16 6 -43 20 -59 31 -75 54 -239 113 -313
114 -25 0 -276 165 -305 200 -10 12 -23 34 -30 48 -6 15 -22 44 -35 65 -20 34
-23 53 -26 160 -3 144 -13 176 -103 317 -34 53 -68 116 -76 140 l-15 45 -7
-40 c-7 -41 -82 -326 -87 -330 -8 -7 -306 24 -331 34 -25 10 -20 2 27 -46 30
-31 54 -58 53 -59 -2 -2 -34 12 -72 30 -119 56 -301 106 -390 106 -41 0 -43
-9 -11 -47 l24 -29 -54 -28 c-30 -16 -80 -56 -112 -91 -100 -108 -160 -229
-193 -389 -17 -83 -26 -266 -14 -266 3 0 66 54 139 120 73 66 142 120 152 120
56 -1 61 -7 74 -103 13 -97 49 -227 81 -289 11 -21 19 -40 19 -43 0 -4 -30 -4
-67 -1 l-68 6 78 -21 c68 -19 80 -26 94 -53 23 -45 73 -116 81 -116 5 0 14 27
21 60 8 33 19 60 26 60 18 0 207 -29 210 -32 1 -2 8 -64 14 -138 7 -74 14
-136 15 -138 6 -5 130 159 160 209 l26 46 88 -4 c48 -3 173 -8 277 -12 l190
-7 -50 -22 c-174 -78 -280 -132 -283 -144 -4 -19 150 -92 253 -119 58 -15 112
-21 197 -22 l116 0 6 -42 c4 -22 15 -70 26 -106 17 -53 20 -94 20 -241 0 -108
4 -178 10 -178 11 0 62 42 139 114 56 54 133 162 165 234 l19 42 105 0 105 0
-21 -23 c-24 -25 -52 -97 -52 -133 0 -20 6 -23 56 -30 75 -9 149 1 191 26 19
11 36 20 38 20 23 0 481 -561 737 -903 149 -200 435 -624 608 -902 139 -225
199 -318 360 -560 191 -288 191 -288 205 -354 7 -31 79 -317 159 -635 81 -319
145 -585 144 -592 -4 -16 -577 268 -888 440 -280 155 -370 210 -635 387 -121
81 -248 162 -282 180 -54 30 -64 40 -83 86 -29 71 -133 180 -233 247 -73 48
-107 66 -184 97 l-22 8 19 43 c22 49 26 119 8 169 -23 69 -178 299 -201 299
-10 0 -3 -397 8 -441 6 -24 5 -25 -23 -21 -27 4 -30 8 -46 83 -24 110 -83 223
-161 305 l-64 69 -1 -150 c0 -135 9 -234 25 -285 5 -15 -19 -8 -122 36 -70 31
-210 82 -310 116 l-181 60 10 31 c12 37 22 455 11 444 -4 -4 -15 -32 -24 -62
-17 -55 -155 -315 -168 -315 -25 1 -29 25 -33 195 -4 160 -6 185 -25 221 -27
51 -73 92 -183 162 -47 30 -97 66 -112 80 -29 27 -35 20 -19 -21 29 -75 100
-481 87 -494 -2 -2 -20 19 -40 47 -91 127 -305 232 -530 260 -137 18 -386 -5
-386 -35 0 -6 40 -40 89 -76 50 -35 90 -67 90 -71 1 -5 -11 -8 -25 -8 -28 0
-263 -76 -277 -89 -4 -4 23 -22 60 -38 37 -17 165 -76 283 -130 118 -55 222
-103 232 -106 32 -11 -3 -70 -94 -158 -111 -108 -125 -151 -93 -286 15 -66 73
-203 85 -203 4 0 11 15 17 33 8 25 9 16 5 -43 -5 -89 12 -165 63 -283 36 -82
104 -197 118 -197 4 0 7 15 7 33 0 18 11 87 26 152 14 66 29 143 35 170 17 89
59 207 95 262 43 67 161 148 139 96 -32 -78 -49 -141 -58 -220 -11 -88 -13
-93 -35 -93 -27 0 -25 -17 14 -90 13 -25 30 -65 38 -90 8 -25 14 -37 15 -27 1
9 5 17 9 17 4 0 40 -39 79 -87 78 -97 175 -193 194 -193 8 0 9 -3 4 -9 -6 -5
-44 -14 -85 -20 -41 -6 -120 -17 -174 -26 -122 -18 -126 -18 -126 -1 0 26 -30
46 -71 46 -42 0 -160 -48 -194 -80 -22 -20 -135 -45 -164 -35 -10 3 -45 -1
-77 -10 -32 -8 -83 -16 -114 -17 -44 -1 -47 -2 -15 -5 22 -2 50 -6 63 -9 l23
-5 -25 -30 c-14 -17 -29 -42 -32 -55 -18 -72 144 -584 181 -571 6 3 17 -9 25
-26 7 -17 15 -27 17 -22 1 6 18 67 37 136 29 105 132 366 142 357 1 -2 -4 -30
-12 -63 -7 -33 -14 -82 -14 -110 0 -46 22 -150 34 -162 2 -3 10 15 15 38 11
43 62 153 137 291 29 55 36 80 39 140 l4 73 78 2 c230 6 583 42 760 78 40 8
74 15 76 15 2 0 -4 -24 -14 -52 -10 -29 -24 -86 -31 -127 -11 -65 -18 -80 -56
-122 -48 -54 -48 -56 3 -35 26 11 35 12 35 3 1 -97 45 -306 85 -404 l24 -58
90 188 c50 104 112 234 137 290 26 56 50 106 54 111 5 4 25 -4 44 -19 20 -15
38 -26 39 -24 14 19 28 69 33 115 l7 54 33 -6 c40 -7 42 1 19 90 -12 44 -13
67 -5 90 10 30 18 34 138 73 70 23 128 40 130 38 2 -1 -18 -16 -43 -31 -25
-16 -45 -34 -45 -41 0 -12 58 -33 91 -33 14 0 13 -12 -7 -100 -12 -56 -26
-152 -30 -214 -7 -127 3 -309 17 -304 8 3 82 99 381 497 l32 44 23 -199 c12
-109 22 -228 22 -263 l1 -65 29 29 c84 80 149 276 188 569 l8 58 90 -68 c50
-37 128 -100 175 -141 95 -81 338 -273 655 -515 391 -300 531 -428 651 -594
140 -193 213 -411 284 -844 26 -155 43 -482 43 -810 1 -334 -7 -465 -38 -715
-75 -589 -267 -1126 -528 -1478 -58 -79 -115 -124 -242 -192 -95 -50 -138 -78
-168 -108 -10 -10 -25 -16 -33 -13 -15 6 -204 -57 -297 -98 -120 -53 -226
-138 -253 -202 -18 -43 -18 -108 1 -143 41 -79 192 -178 370 -240 50 -18 97
-36 105 -40 10 -6 26 -1 45 11 17 11 1 -6 -35 -38 -36 -32 -93 -87 -128 -123
l-63 -66 39 -3 c49 -4 251 36 443 88 112 31 153 38 175 31 27 -8 179 -30 249
-36 16 -1 95 -7 175 -14 80 -6 164 -13 187 -16 23 -4 189 -6 370 -6 312 0 550
11 711 32 40 5 90 9 112 9 21 0 42 4 45 10 3 5 1 10 -6 10 -7 0 -10 2 -7 5 7
8 137 -39 197 -71 36 -20 55 -25 58 -17 2 7 11 9 19 6 11 -4 14 7 14 57 0 53
2 61 18 59 22 -3 88 8 182 33 41 10 82 20 90 22 8 2 67 21 130 42 89 30 109
40 90 44 -14 3 57 6 158 5 100 -1 182 3 182 7 0 4 -5 8 -11 8 -17 0 -99 42
-99 51 0 4 -12 22 -27 41 -22 27 -22 29 -3 11 l23 -22 34 32 c42 39 83 116 83
154 -1 46 -34 105 -85 151 -57 51 -102 78 -209 127 -58 26 -76 31 -65 18 9
-12 5 -11 -11 4 -14 12 -39 25 -56 30 -17 4 -78 30 -136 57 l-106 49 -61 102
c-34 57 -81 149 -106 206 -25 56 -61 131 -81 166 -81 146 -139 365 -183 698
-28 207 -39 383 -61 940 -6 154 -17 397 -25 540 -15 267 -13 357 17 775 6 91
13 224 14 295 1 93 7 155 23 218 24 99 39 133 122 269 l60 96 92 40 c51 22
121 50 157 61 129 41 544 132 854 186 108 20 122 15 111 -35 -34 -161 -26
-242 39 -385 l22 -50 48 49 c28 29 62 81 83 126 l37 77 55 -17 c31 -10 71 -21
90 -25 l34 -7 -6 62 c-6 69 -45 158 -101 231 l-34 45 132 22 c72 13 154 27
181 32 28 5 100 19 160 30 61 11 137 25 170 31 33 6 83 15 110 20 28 5 127 23
220 40 312 55 397 76 600 144 231 77 424 173 623 308 102 69 217 165 208 174
-5 6 -70 -27 -314 -160 -112 -60 -251 -129 -308 -153 -301 -124 -738 -227
-1249 -293 -193 -25 -532 -51 -670 -51 -104 -1 -406 -21 -505 -35 -190 -26
-424 -74 -535 -110 -30 -10 242 254 412 400 318 274 452 372 681 499 112 62
151 78 138 57 -12 -19 16 -120 57 -206 96 -198 213 -356 295 -399 l33 -17 -6
24 c-4 14 1 76 10 138 20 134 16 168 -29 257 l-34 67 152 1 c102 1 169 6 206
17 30 8 57 14 61 11 3 -2 55 -80 114 -174 89 -141 110 -168 118 -154 14 25 1
257 -18 324 -8 30 -22 98 -30 151 -8 53 -18 104 -21 114 -7 16 -3 17 47 11 53
-7 469 -56 477 -56 15 0 -13 36 -68 84 -117 104 -276 183 -418 208 l-70 12 70
79 c82 93 124 176 134 266 l7 63 -114 -89 -114 -90 -6 72 c-4 39 -12 88 -19
109 -6 21 -10 40 -7 43 3 3 63 19 134 37 76 19 128 37 128 44 0 18 -145 79
-250 107 -161 42 -326 42 -445 1 l-41 -14 8 47 c16 92 8 270 -16 356 -21 74
-108 265 -122 265 -7 0 -155 -468 -170 -539 -6 -30 -9 -93 -7 -140 5 -95 28
-153 73 -189 l26 -20 -29 -21 c-16 -11 -35 -35 -42 -53 -8 -18 -70 -91 -139
-163 -182 -188 -351 -394 -466 -567 -33 -51 -50 -64 -133 -109 -211 -114 -406
-243 -662 -437 -80 -60 -146 -109 -148 -107 -2 2 5 20 16 42 34 68 89 215 122
327 49 170 118 293 391 702 402 603 545 837 655 1077 155 337 347 624 631 944
84 95 121 129 167 153 32 17 60 29 62 28 1 -2 10 -46 19 -98 9 -52 34 -147 56
-210 l39 -115 -3 61 -2 61 120 207 120 207 8 -133 c4 -73 11 -164 15 -202 l7
-68 51 73 c96 138 153 277 174 427 8 56 17 82 26 82 7 0 73 -9 146 -19 73 -11
162 -22 198 -26 36 -3 77 -8 93 -11 38 -8 34 6 -19 64 -87 98 -237 201 -355
246 l-63 23 102 66 c55 36 157 100 227 142 69 43 124 79 122 82 -11 10 -369
-138 -537 -222 -75 -38 -100 -43 -100 -21 0 7 -9 25 -21 40 -15 20 -29 26 -57
26 -38 0 -126 -43 -151 -74 -13 -15 -17 -13 -42 16 -15 18 -29 31 -31 28 -166
-204 -348 -444 -348 -458 0 -13 -32 -46 -87 -93 -49 -40 -174 -158 -280 -263
-188 -188 -192 -191 -197 -161 -3 16 -19 149 -36 295 -16 146 -34 299 -40 340
-22 172 -23 225 -5 279 9 28 20 53 24 56 4 2 37 -11 73 -30 61 -33 224 -71
264 -63 11 2 -6 33 -61 112 -42 60 -103 157 -136 215 -33 58 -64 110 -69 115
-12 12 54 150 154 320 47 81 86 151 86 155 0 5 -17 5 -37 1 -21 -4 -59 -11
-85 -15 l-48 -6 65 86 c70 93 112 168 140 254 19 58 35 171 25 171 -4 0 -15
-10 -26 -21 -38 -43 -319 -218 -330 -206 -3 2 43 324 50 352 5 18 14 20 83 21
43 1 107 9 143 19 87 22 218 84 293 139 129 91 331 326 304 352 -11 12 -646
-101 -712 -126 -18 -7 -25 -6 -25 3 0 6 16 85 36 175 50 226 40 231 -60 27
-37 -75 -72 -148 -78 -163 -6 -15 -12 -22 -15 -15 -3 9 -12 9 -29 2 -14 -5
-61 -9 -104 -9 -75 0 -80 -1 -131 -40 -57 -43 -225 -220 -282 -297 -19 -26
-74 -122 -122 -213 -48 -91 -97 -178 -109 -195 -39 -52 -40 -56 -13 -50 l24 6
7 -153 c11 -243 41 -372 110 -469 20 -27 36 -51 36 -53 0 -3 -15 0 -32 5 -18
5 -50 9 -70 9 -32 0 -39 -4 -44 -25 -35 -140 143 -307 326 -306 l68 0 6 -77
c4 -43 5 -84 2 -92 -8 -23 -34 -549 -46 -910 -6 -179 -15 -382 -20 -451 l-10
-127 -203 -303 c-201 -303 -267 -398 -277 -399 -3 0 -13 51 -23 113 -34 212
-117 603 -186 882 -39 153 -69 281 -67 283 3 2 22 -13 44 -32 22 -20 42 -36
44 -36 3 0 -1 24 -8 53 -7 28 -22 133 -34 231 -24 205 -33 250 -68 324 l-24
54 30 31 c68 70 101 190 117 422 5 76 3 122 -10 193 l-17 94 -31 -54 c-17 -29
-67 -105 -111 -168 l-81 -114 -8 234 c-6 183 -4 280 9 435 8 110 18 240 21
289 5 87 6 92 47 145 215 284 399 630 517 970 73 211 157 571 133 571 -5 0
-24 -55 -43 -122z m-536 -962 l29 -53 -52 -71 c-29 -38 -59 -75 -67 -82 -24
-20 -19 20 15 127 17 51 30 102 30 113 0 33 14 23 45 -34z m-5785 -188 c0 -20
-44 -128 -52 -128 -5 0 -8 13 -8 29 0 41 -25 106 -57 147 l-27 36 72 -36 c40
-20 72 -42 72 -48z m6775 -286 c-16 -76 -44 -254 -72 -459 l-17 -122 -36 72
c-43 88 -130 227 -176 284 l-34 42 172 129 c95 71 174 128 175 127 2 -1 -4
-34 -12 -73z m-7221 24 c-3 -9 -13 -16 -22 -16 -13 0 -12 3 3 20 20 23 29 21
19 -4z m6852 -56 l-21 -80 -57 57 c-32 31 -55 59 -52 62 7 8 114 39 135 40 13
1 13 -9 -5 -79z m-5681 -147 c84 -67 180 -152 214 -190 58 -65 60 -68 38 -76
-12 -5 -63 -11 -112 -14 -115 -7 -168 7 -335 92 -175 89 -162 74 -150 173 8
75 13 88 44 122 19 21 39 48 46 59 11 21 11 21 57 -11 25 -18 114 -88 198
-155z m-744 -8 l36 -5 7 -93 c4 -50 10 -116 13 -146 l6 -53 -99 7 c-54 4 -100
9 -102 10 -2 2 11 69 29 149 30 135 34 145 53 141 12 -2 37 -6 57 -10z m458
-277 c24 -18 23 -18 -58 -18 -78 0 -81 1 -71 19 5 11 15 32 20 46 l10 27 38
-28 c20 -15 48 -36 61 -46z m1064 -485 c-9 -7 -20 -13 -25 -13 -9 0 -11 32 -2
54 5 13 9 12 25 -7 17 -20 17 -23 2 -34z m2045 -423 c1 -37 -1 -41 -8 -22 -6
12 -18 22 -30 22 -26 0 -25 16 3 57 21 32 22 32 29 10 3 -12 6 -42 6 -67z m-2
-127 c-11 -11 -19 6 -11 24 8 17 8 17 12 0 3 -10 2 -21 -1 -24z m4284 -2060
c0 -5 -16 -55 -36 -113 -29 -84 -36 -120 -36 -180 -1 -83 24 -150 63 -170 11
-7 19 -13 17 -16 -5 -4 -240 -54 -256 -54 -5 0 -3 30 4 68 7 37 15 106 19 155
6 75 10 87 26 87 10 0 30 4 44 10 l26 10 -23 41 c-12 22 -44 67 -70 100 l-48
59 58 -6 c31 -3 82 -1 112 4 71 13 100 14 100 5z m-6978 -163 c45 -22 90 -44
98 -49 8 -6 51 -27 95 -47 l80 -38 -138 -8 c-117 -6 -285 -29 -412 -55 l-30
-6 25 29 c14 16 60 66 103 111 42 46 77 87 77 93 0 16 13 12 102 -30z m6396
-410 c6 -24 9 -46 7 -49 -6 -5 -319 -111 -321 -108 -2 3 90 166 130 229 20 31
65 91 99 133 l62 77 6 -118 c4 -66 11 -139 17 -164z m-6915 43 c4 -65 10 -134
13 -152 7 -31 5 -34 -12 -26 -10 4 -45 17 -76 29 -31 12 -60 24 -63 28 -8 8
117 248 126 242 3 -2 9 -56 12 -121z m1236 -9 c36 -20 68 -38 70 -40 3 -3 -13
-23 -35 -45 l-39 -42 105 7 c92 5 108 3 128 -12 29 -22 26 -26 -83 -80 -80
-41 -256 -115 -260 -110 -1 2 6 66 16 143 10 77 18 157 19 178 0 20 3 37 7 37
3 0 36 -16 72 -36z m-314 -6 c-3 -13 -9 -105 -12 -206 -6 -181 -6 -184 -27
-178 -11 3 -24 6 -27 6 -4 0 -9 21 -13 46 -3 25 -14 65 -24 87 -27 60 -103
156 -156 197 -25 19 -45 38 -46 41 0 3 51 7 113 8 61 1 128 6 147 11 52 12 53
12 45 -12z m6579 -40 c-5 -47 2 -98 23 -156 5 -13 1 -12 -18 4 -42 38 -102 64
-146 64 -47 0 -47 0 -29 49 10 29 21 37 86 61 41 16 78 29 83 29 4 1 4 -23 1
-51z m-7247 -124 c149 -170 193 -211 286 -268 63 -37 64 -36 -28 -55 -126 -25
-118 -27 -138 28 -22 63 -120 156 -239 226 l-85 51 14 49 c16 57 45 137 48
133 1 -2 65 -75 142 -164z m2633 -5809 c-14 -8 -29 -14 -35 -14 -5 0 1 6 15
14 14 8 30 14 35 14 6 0 -1 -6 -15 -14z m-432 -372 c-10 -2 -28 -2 -40 0 -13
2 -5 4 17 4 22 1 32 -1 23 -4z"/>
<path d="M986 6656 c-15 -61 60 -115 145 -103 49 6 53 10 45 35 -7 20 -136 92
-166 92 -11 0 -20 -10 -24 -24z"/>
</g>
</svg>
