<?xml version="1.0" standalone="no"?>
<!DOCTYPE svg PUBLIC "-//W3C//DTD SVG 20010904//EN"
 "http://www.w3.org/TR/2001/REC-SVG-20010904/DTD/svg10.dtd">
<svg version="1.0" xmlns="http://www.w3.org/2000/svg"
 width="120.000000pt" height="220.000000pt" viewBox="0 0 905.000000 1280.000000"
 preserveAspectRatio="xMidYMid meet">
<metadata>
Created by potrace 1.15, written by Peter Selinger 2001-2017
</metadata>
<g transform="translate(0.000000,1280.000000) scale(0.100000,-0.100000)"
fill="green" stroke="none">
<path d="M4063 9773 c-7 -2 -13 -11 -13 -19 0 -8 -6 -11 -15 -8 -8 4 -15 1
-15 -5 0 -18 35 -13 53 7 26 28 21 38 -10 25z"/>
<path d="M4120 9695 c0 -8 6 -15 14 -15 8 0 16 7 20 15 4 10 -1 15 -14 15 -11
0 -20 -7 -20 -15z"/>
<path d="M4036 9685 c-3 -8 -12 -12 -20 -9 -30 12 -39 -9 -10 -22 19 -8 23
-13 12 -13 -19 -1 -25 -21 -7 -21 8 0 8 -4 0 -14 -6 -8 -11 -18 -9 -22 1 -5
-6 -22 -17 -38 -14 -21 -16 -31 -7 -34 6 -2 12 -8 12 -14 0 -6 -11 -3 -25 6
-31 21 -55 20 -55 0 0 -11 6 -15 20 -11 13 3 20 0 20 -8 0 -7 5 -15 12 -17 18
-6 -1 -28 -25 -28 -17 0 -19 2 -7 10 17 10 15 13 -24 25 -16 6 -28 15 -25 20
2 6 7 9 12 8 4 -2 7 4 7 12 0 8 -6 15 -14 15 -7 0 -19 -7 -26 -15 -19 -22 -32
-18 -20 6 13 24 4 41 -10 19 -8 -13 -11 -12 -23 4 -8 11 -19 16 -25 12 -16 -9
-15 -49 0 -64 9 -9 7 -12 -10 -12 -14 0 -22 -6 -22 -17 0 -36 -32 13 -33 51
-1 27 -5 35 -15 31 -7 -3 -18 -5 -23 -5 -6 0 -7 -5 -3 -11 3 -6 0 -15 -7 -20
-11 -7 -10 -9 4 -9 20 0 21 -4 7 -31 -15 -27 -40 -25 -32 3 4 16 2 19 -8 13
-10 -6 -11 -2 -6 18 3 14 2 29 -4 32 -6 3 -10 -5 -10 -19 0 -14 -4 -28 -10
-31 -6 -3 -10 5 -10 18 0 20 -4 24 -19 20 -16 -4 -17 -10 -9 -45 10 -44 4 -58
-14 -40 -7 7 -11 29 -10 50 2 32 1 34 -9 18 -7 -11 -13 -37 -14 -58 -2 -33 0
-38 16 -33 20 7 50 -30 42 -51 -6 -16 13 -19 22 -4 10 17 22 11 28 -12 8 -28
2 -34 -18 -18 -12 10 -15 10 -15 -4 0 -9 -9 -25 -19 -35 -16 -16 -20 -17 -25
-5 -9 22 -28 17 -21 -6 4 -11 2 -20 -4 -20 -6 0 -11 5 -11 10 0 6 -7 10 -16
10 -13 0 -14 -3 -5 -13 12 -15 5 -27 -16 -27 -7 0 -13 11 -13 25 0 18 -5 25
-20 25 -31 0 -35 -3 -32 -28 2 -15 -1 -21 -7 -17 -6 3 -11 14 -11 25 0 10 -6
20 -12 23 -17 6 -77 -3 -83 -13 -8 -13 6 -39 23 -42 13 -2 11 -8 -11 -30 -35
-35 -45 -75 -20 -81 10 -2 5 -3 -11 -1 -21 3 -27 0 -23 -10 3 -8 1 -16 -6 -19
-16 -5 43 -56 66 -57 23 0 22 -20 -1 -20 -10 0 -29 11 -42 25 -29 31 -56 35
-40 6 12 -24 13 -34 1 -26 -5 3 -12 2 -14 -2 -6 -9 -72 -8 -103 2 -17 5 -22 0
-30 -32 l-10 -38 -15 30 c-8 17 -21 29 -27 28 -7 -2 -12 5 -12 16 0 19 -26 48
-36 39 -12 -12 10 -60 32 -70 25 -12 41 -41 25 -46 -6 -2 -11 -10 -11 -18 0
-8 -4 -14 -10 -14 -5 0 -10 9 -10 20 0 27 -26 25 -36 -2 -6 -19 -8 -16 -11 20
-5 46 -7 49 -29 28 -9 -9 -10 -17 -4 -21 20 -12 10 -35 -15 -35 -25 0 -35 23
-15 35 17 10 11 34 -11 45 -26 14 -34 8 -21 -17 11 -21 3 -48 -15 -49 -32 -2
-34 -5 -27 -26 6 -22 6 -22 -13 -6 -19 17 -19 17 -19 -20 1 -21 9 -50 19 -65
9 -14 17 -31 17 -37 0 -19 -37 -10 -53 13 -15 21 -16 21 -34 4 -17 -18 -17
-19 0 -30 46 -29 49 -34 42 -56 l-7 -22 -23 25 c-26 28 -55 34 -55 12 0 -8 -7
-17 -16 -20 -10 -4 -13 -13 -9 -27 6 -18 4 -20 -15 -14 -15 5 -25 2 -31 -6 -4
-7 -11 -10 -15 -6 -4 4 0 15 9 25 16 18 16 20 -4 38 -21 19 -22 19 -15 -4 5
-15 2 -28 -10 -39 -11 -11 -13 -18 -5 -21 6 -2 11 -8 11 -13 0 -5 -11 -2 -25
7 -23 15 -25 15 -31 0 -3 -9 -1 -23 6 -31 10 -13 9 -15 -11 -15 -14 0 -19 3
-12 8 8 5 8 12 -3 26 -12 17 -14 18 -14 3 0 -9 -4 -17 -10 -17 -5 0 -10 9 -10
20 0 11 -4 20 -9 20 -17 0 -23 -20 -12 -34 9 -10 8 -15 -4 -20 -26 -10 -17
-27 13 -21 l27 6 -22 -17 c-13 -9 -23 -21 -23 -26 0 -7 5 -6 13 1 17 13 27 5
27 -22 0 -19 1 -19 19 -3 12 11 21 14 26 7 3 -6 1 -11 -4 -11 -6 0 -11 -10
-11 -21 0 -18 2 -19 15 -9 8 7 15 8 15 3 0 -5 15 -9 33 -8 25 0 32 4 30 18 0
12 4 16 13 13 8 -3 14 -1 14 5 0 6 5 7 12 3 8 -5 6 -11 -5 -19 -18 -13 -24
-71 -7 -60 6 3 10 17 10 31 0 34 36 33 42 -1 3 -14 1 -25 -3 -25 -18 0 -24 -2
-36 -12 -9 -7 -17 -7 -27 1 -10 9 -16 9 -21 1 -4 -6 -13 -9 -21 -6 -8 3 -14
-1 -15 -12 -1 -9 -6 -2 -11 16 -9 25 -17 32 -36 32 -19 0 -23 -4 -19 -20 4
-16 2 -18 -13 -10 -29 15 -56 12 -81 -10 l-24 -20 30 -25 c36 -30 45 -31 45
-6 0 24 58 35 78 15 11 -12 11 -14 -5 -16 -10 0 -26 0 -37 1 -14 1 -17 -4 -13
-18 4 -15 0 -19 -17 -18 -11 0 -23 5 -26 9 -4 4 -20 11 -38 14 -26 5 -31 4
-27 -9 4 -8 -3 -24 -15 -35 -14 -12 -19 -25 -14 -33 5 -9 2 -10 -11 -5 -22 8
-65 -18 -65 -40 0 -12 7 -14 30 -9 19 4 30 3 30 -4 0 -6 7 -11 15 -11 18 0 20
16 3 23 -7 3 1 6 19 6 38 1 52 -15 28 -33 -26 -19 -3 -60 29 -52 34 8 37 -1
13 -42 -15 -25 -17 -37 -9 -40 8 -2 9 -9 2 -22 -7 -13 -5 -24 9 -42 17 -20 22
-21 41 -10 17 10 21 10 26 -2 3 -8 3 -20 -1 -26 -3 -6 3 -10 14 -10 18 0 19
-3 9 -25 -11 -25 -28 -34 -28 -15 0 18 -29 11 -42 -10 -17 -27 -48 -26 -48 0
0 18 -3 19 -22 9 -18 -10 -24 -8 -41 12 -15 19 -20 20 -28 8 -5 -7 -9 -20 -9
-26 0 -7 -5 -13 -11 -13 -8 0 -10 16 -6 51 6 45 4 50 -11 44 -9 -4 -27 -10
-40 -13 -13 -2 -21 -10 -18 -17 2 -7 -1 -18 -7 -24 -8 -8 -4 -11 16 -11 38 0
34 -18 -5 -22 -29 -3 -33 -6 -32 -33 0 -16 -6 -34 -14 -38 -9 -6 -12 -18 -8
-33 6 -21 3 -24 -19 -24 -17 0 -29 -9 -40 -31 -19 -36 -15 -45 13 -30 20 11
72 15 72 7 0 -3 -4 -16 -10 -30 -9 -24 -7 -26 17 -26 l27 0 -22 -16 c-12 -8
-22 -26 -22 -40 0 -28 0 -28 -47 -9 -41 17 -58 11 -29 -11 11 -7 17 -16 14
-19 -2 -3 -18 6 -34 20 -16 14 -32 25 -36 25 -12 0 -9 -15 5 -29 10 -10 8 -12
-7 -9 -15 2 -20 -4 -23 -29 -2 -19 0 -33 7 -33 6 0 8 -10 4 -25 -4 -15 -2 -25
5 -25 16 0 14 -17 -3 -23 -10 -4 -13 -1 -10 7 3 7 -2 16 -11 20 -11 4 -14 12
-10 26 9 27 -3 25 -31 -6 l-24 -25 0 27 c0 22 -2 25 -15 14 -12 -10 -13 -16
-4 -26 9 -11 7 -14 -10 -14 -28 0 -27 -20 2 -21 20 -1 20 -2 2 -6 -28 -7 -43
-23 -22 -23 9 0 17 -4 17 -10 0 -5 -6 -7 -14 -4 -8 3 -20 -2 -27 -11 -8 -9
-22 -25 -31 -35 -16 -18 -16 -19 3 -25 10 -4 19 -10 19 -15 0 -5 -8 -6 -17 -3
-15 6 -16 4 -5 -9 10 -13 10 -17 -3 -22 -13 -5 -14 -10 -4 -27 8 -16 8 -23 0
-29 -7 -3 -9 -14 -5 -23 5 -13 2 -16 -10 -11 -19 7 -19 9 -6 35 9 15 7 19 -5
19 -10 0 -25 -20 -38 -51 -23 -50 -23 -50 -42 -30 -20 23 -14 41 9 22 11 -9
16 -6 25 20 13 38 10 44 -18 29 -24 -12 -26 -8 -10 21 7 14 16 18 30 14 20 -7
24 2 10 23 -5 8 -21 12 -37 10 -23 -2 -29 -8 -28 -25 1 -27 -4 -28 -33 -8 -30
21 -41 0 -14 -29 12 -12 21 -25 21 -29 0 -14 -28 -7 -34 8 -6 16 -56 21 -56 6
0 -5 9 -13 20 -16 25 -8 25 -17 0 -40 -27 -24 -25 -31 8 -38 31 -6 59 -48 47
-68 -6 -9 -10 -7 -16 9 -13 34 -43 45 -64 22 -16 -18 -16 -19 19 -26 20 -3 43
-16 51 -28 9 -11 21 -21 27 -21 6 0 13 -6 16 -14 3 -10 0 -12 -12 -8 -12 5
-19 -1 -26 -19 -18 -45 -13 -50 43 -50 48 0 52 -2 50 -22 -2 -14 3 -22 12 -22
8 0 15 -4 15 -8 0 -14 -35 -42 -53 -42 -20 0 -23 16 -5 22 10 4 10 11 2 29
l-11 24 -17 -33 c-13 -26 -15 -37 -6 -47 9 -11 8 -18 -5 -31 -16 -16 -16 -18
3 -33 14 -11 19 -25 17 -45 -5 -37 -11 -42 -30 -22 -21 21 -28 20 -50 -4 -18
-19 -17 -20 7 -20 13 0 33 -7 44 -15 18 -14 18 -14 -8 -15 -16 0 -28 -4 -28
-8 0 -11 51 -36 68 -33 6 1 12 -3 12 -10 0 -7 -9 -9 -22 -6 -12 4 -41 3 -65 0
-33 -4 -43 -10 -43 -25 0 -15 3 -17 19 -8 21 11 54 3 46 -10 -3 -5 2 -13 12
-18 14 -9 15 -13 4 -26 -19 -22 -34 -20 -26 4 4 14 2 20 -9 20 -8 0 -18 -4
-21 -10 -3 -5 -18 -10 -32 -10 -25 0 -26 0 -8 -20 10 -11 13 -20 7 -20 -21 0
-13 -19 10 -22 12 -2 23 -9 26 -15 2 -9 -5 -11 -26 -7 -31 6 -54 -12 -33 -26
15 -8 -81 -85 -107 -85 -10 0 -16 -7 -16 -17 1 -10 -4 -18 -12 -18 -8 0 -14
-7 -14 -16 0 -28 20 -54 43 -54 13 0 32 -7 43 -15 18 -14 18 -14 -8 -15 -15 0
-29 -4 -32 -9 -9 -13 14 -111 25 -111 5 0 9 -7 9 -15 0 -8 -4 -15 -10 -15 -5
0 -10 7 -10 15 0 8 -7 15 -16 15 -12 0 -14 7 -9 28 4 20 0 36 -13 52 l-19 23
-6 -64 c-3 -35 -1 -68 4 -74 5 -5 9 -17 9 -27 0 -10 6 -18 14 -18 20 0 26 -56
7 -75 -10 -10 -12 -18 -5 -25 7 -7 19 -1 39 19 27 29 27 31 12 54 -9 14 -13
27 -10 31 11 11 43 -26 43 -51 0 -28 11 -29 35 -3 24 26 33 25 41 -5 6 -23 7
-23 30 -8 13 8 31 12 40 9 14 -5 14 -8 -4 -24 -16 -13 -18 -22 -12 -39 11 -26
30 -31 30 -7 0 8 5 12 10 9 6 -4 3 -15 -7 -30 -14 -18 -20 -20 -26 -9 -4 7
-28 27 -52 44 -41 28 -46 30 -52 13 -4 -10 -15 -27 -26 -38 -18 -20 -18 -20
22 -28 36 -7 42 -12 52 -48 7 -21 16 -39 21 -39 4 0 8 -9 8 -19 0 -10 7 -22
16 -25 10 -4 14 -14 11 -25 -2 -10 -1 -25 4 -33 16 -28 -29 -29 -56 -2 -29 29
-46 30 -71 3 -15 -16 -16 -24 -6 -39 20 -33 15 -41 -22 -35 -26 5 -35 3 -40
-10 -9 -25 -1 -32 44 -39 48 -7 44 -26 -5 -26 -47 0 -65 -9 -65 -32 0 -15 4
-18 17 -13 43 17 48 12 45 -43 l-3 -54 23 16 c12 9 30 16 40 16 12 0 5 -14
-29 -50 -25 -27 -52 -50 -59 -50 -18 0 -37 -37 -24 -45 21 -13 9 -24 -20 -18
-42 8 -40 -21 2 -38 l33 -13 -44 -5 c-41 -6 -72 -31 -38 -31 10 0 13 -7 10
-20 -3 -11 0 -20 6 -20 6 0 11 -6 11 -14 0 -11 9 -13 32 -10 21 4 40 0 53 -10
19 -14 18 -15 -17 -9 -36 5 -39 4 -52 -28 -8 -19 -13 -36 -10 -38 2 -2 17 2
34 9 40 16 115 17 135 0 21 -17 19 -37 -5 -50 -34 -18 -25 -40 15 -33 l34 6
-6 -52 -6 -51 37 15 c34 15 40 14 83 -5 38 -17 44 -22 33 -35 -16 -19 6 -53
24 -35 15 15 36 12 30 -4 -3 -9 4 -16 21 -20 22 -6 24 -9 15 -26 -7 -14 -7
-20 0 -20 5 0 10 -9 10 -19 0 -11 5 -23 10 -26 6 -3 10 1 10 10 0 8 8 19 18
22 9 4 20 11 24 17 5 8 10 8 18 0 8 -8 2 -18 -22 -38 -46 -36 -68 -58 -68 -67
0 -13 63 -2 103 17 35 17 38 21 35 54 -3 32 -1 35 26 38 l29 4 -7 -51 -7 -51
34 16 c32 15 38 15 81 -1 49 -19 53 -24 34 -43 -17 -17 5 -37 29 -27 10 5 26
7 36 6 10 -1 42 16 71 38 56 44 72 50 62 26 -7 -18 7 -19 51 -3 42 15 49 7 29
-33 -26 -52 -21 -55 42 -32 8 4 12 -5 12 -25 0 -53 -59 -51 -94 3 -17 26 -40
33 -51 14 -4 -5 0 -18 9 -28 21 -23 20 -28 -4 -34 -21 -5 -28 -41 -10 -52 5
-3 28 3 52 15 51 25 51 25 38 1 -15 -28 -14 -49 2 -33 17 17 21 16 61 -17 35
-27 35 -29 15 -38 -19 -8 -19 -10 16 -36 43 -33 45 -44 11 -59 -29 -13 -32
-23 -10 -32 19 -7 65 13 65 29 0 7 9 15 20 18 26 7 25 -7 -1 -44 -11 -16 -17
-33 -14 -39 10 -16 34 -11 47 10 14 23 43 28 35 6 -9 -23 17 -50 42 -43 20 5
21 3 15 -29 -4 -24 -2 -34 6 -34 7 0 10 -7 7 -15 -8 -18 11 -31 25 -17 19 19
68 -24 68 -59 0 -34 3 -35 40 -9 29 21 40 18 40 -12 0 -10 5 -18 10 -18 6 0
10 14 10 30 0 17 -4 30 -10 30 -5 0 -10 7 -10 15 0 23 16 18 38 -12 19 -25 21
-26 28 -10 3 10 2 23 -5 30 -6 6 -11 14 -11 18 0 12 64 16 82 5 26 -16 53 4
53 40 0 34 -24 43 -49 18 -9 -9 -20 -14 -23 -10 -4 3 -1 12 5 18 19 19 14 30
-10 26 -13 -2 -24 -11 -26 -23 -6 -29 -22 -45 -45 -45 -19 0 -19 1 -4 18 24
26 21 33 -8 26 -24 -6 -25 -4 -18 26 5 29 4 32 -15 26 -11 -4 -23 -2 -27 4
-10 16 12 37 47 44 24 5 36 1 51 -14 14 -16 22 -18 32 -10 9 8 14 7 18 -4 3
-8 15 -20 27 -26 17 -9 25 -6 51 20 35 35 63 41 31 7 -28 -29 -28 -37 -1 -34
12 1 24 -3 26 -9 2 -7 -6 -10 -23 -6 -21 4 -25 1 -22 -14 4 -22 52 -31 73 -14
9 8 20 8 31 2 16 -9 15 -10 -4 -16 -12 -4 -22 -11 -22 -16 0 -4 -9 -10 -20
-13 -14 -4 -18 -10 -14 -22 6 -14 15 -16 45 -11 44 7 50 -4 17 -27 l-23 -15
28 -11 c37 -14 34 -29 -8 -37 -41 -7 -44 -18 -10 -40 29 -19 55 -12 62 16 4
16 8 18 19 9 8 -6 14 -17 14 -24 0 -19 24 -35 39 -26 11 7 11 15 2 41 -17 51
-15 63 9 48 11 -7 20 -20 20 -29 0 -18 30 -49 48 -49 6 0 16 9 22 20 13 25 30
26 30 1 0 -30 25 -44 68 -36 l38 6 -37 40 c-21 23 -35 47 -33 57 6 24 -9 43
-35 45 -30 2 -50 37 -22 37 11 0 23 -4 26 -10 3 -5 17 -10 31 -10 14 0 24 -6
24 -15 0 -24 29 -6 37 23 3 14 1 33 -6 44 -8 13 -8 24 -2 36 10 16 10 16 11 0
0 -10 4 -18 9 -18 5 0 14 -13 19 -30 14 -38 42 -31 42 10 0 16 4 32 10 35 6 4
10 -5 10 -20 0 -28 21 -42 42 -29 30 19 71 -2 80 -40 3 -13 7 -14 28 -3 22 11
32 10 83 -13 64 -29 78 -45 137 -161 l38 -75 16 -220 c9 -128 16 -357 17 -549
0 -181 4 -357 9 -390 5 -36 2 -168 -6 -325 -8 -146 -15 -294 -16 -330 l-3 -65
-50 -12 c-27 -6 -83 -19 -124 -28 -86 -19 -144 -45 -186 -85 -89 -84 -116
-113 -111 -118 3 -3 14 2 24 11 10 10 60 35 111 57 78 34 102 40 162 40 38 0
69 -4 69 -8 0 -5 -19 -22 -42 -39 -30 -21 -55 -53 -80 -102 -40 -75 -44 -86
-28 -76 7 4 7 -3 0 -20 -18 -48 -12 -63 13 -30 53 72 97 111 219 190 117 78
158 99 144 77 -3 -5 -1 -22 3 -38 11 -41 -10 -89 -91 -210 -71 -107 -85 -143
-70 -183 l9 -25 19 32 c12 21 26 32 41 32 13 0 27 9 34 22 18 34 98 116 136
139 27 17 47 46 87 129 l53 107 44 -22 c24 -13 71 -28 103 -35 49 -10 73 -23
140 -77 44 -35 93 -71 109 -80 59 -30 187 -26 187 7 0 5 -15 10 -33 10 -18 0
-37 4 -42 9 -6 5 -26 11 -45 13 -29 2 -36 8 -39 28 -3 25 -121 150 -141 150
-5 0 -10 4 -10 8 0 17 107 -5 152 -31 41 -24 57 -27 138 -27 68 0 97 4 116 17
35 22 15 33 -63 33 -51 0 -74 6 -130 35 -37 19 -86 40 -108 45 -22 6 -75 27
-117 47 -68 32 -78 40 -78 63 0 14 -16 91 -36 171 -111 452 -157 825 -170
1380 l-7 286 60 65 c33 36 68 77 78 92 10 15 50 49 89 75 94 63 90 61 106 51
11 -7 10 -11 -3 -25 -24 -24 -21 -52 8 -71 30 -20 41 -14 26 14 -9 18 -7 22
20 31 27 9 30 14 25 36 -5 20 -3 25 14 25 11 0 20 -4 20 -10 0 -17 26 -11 44
9 10 11 17 28 15 38 -3 24 11 54 22 47 5 -3 9 -26 9 -51 0 -40 2 -45 19 -40
12 3 28 -4 42 -19 26 -28 35 -30 43 -8 9 23 -11 44 -41 44 -21 0 -24 4 -21 28
3 26 23 35 23 10 0 -8 17 -14 41 -16 32 -2 43 -8 47 -23 3 -10 12 -19 20 -19
8 0 17 -9 20 -21 7 -26 31 -20 35 9 3 19 6 20 30 10 48 -21 56 -34 17 -30 -19
2 -35 0 -35 -4 0 -5 14 -29 30 -53 23 -34 31 -40 36 -27 4 9 21 23 39 30 21 9
39 27 50 51 10 19 23 34 29 32 12 -4 9 -56 -4 -72 -10 -12 28 -105 42 -105 4
0 11 13 14 29 6 29 7 29 61 25 48 -4 54 -2 51 13 -3 24 9 43 29 43 14 0 14 -2
-1 -19 -20 -22 -16 -26 37 -35 33 -6 38 -4 46 16 5 13 6 28 4 34 -7 18 23 24
57 12 41 -14 46 -6 17 28 -21 24 -27 26 -41 15 -18 -15 -21 -8 -6 20 7 13 7
19 0 19 -5 0 -10 4 -10 10 0 5 6 9 13 7 8 -1 11 8 10 27 -2 28 -1 28 37 22 23
-3 40 -2 40 3 0 5 3 16 6 24 4 11 -1 13 -20 10 -16 -3 -26 -1 -26 6 0 6 8 11
19 11 11 0 21 9 24 22 6 20 8 21 24 6 10 -8 24 -13 31 -11 7 3 20 -1 28 -8 13
-10 17 -10 24 0 10 17 22 -2 14 -22 -3 -8 -1 -18 5 -21 6 -4 12 13 16 41 10
78 11 81 18 63 3 -8 8 -27 11 -42 7 -31 26 -38 26 -10 0 26 11 34 26 21 19
-16 28 10 15 44 -9 23 -8 27 8 27 23 0 37 -56 20 -76 -9 -11 -8 -14 5 -14 26
0 56 19 56 34 0 10 7 12 22 8 19 -4 20 -2 14 19 -15 45 -17 74 -7 89 9 13 12
12 24 -4 11 -15 17 -17 36 -7 12 7 21 17 20 24 -4 34 4 46 46 61 25 10 45 22
45 27 0 5 5 9 11 9 5 0 8 -4 5 -9 -3 -5 0 -14 8 -20 10 -8 16 -8 25 3 6 8 20
12 30 9 12 -3 42 14 85 48 53 43 63 55 50 62 -23 13 -63 0 -95 -33 l-29 -28
-35 18 -35 18 27 17 c16 11 28 14 30 8 3 -7 23 -4 56 9 29 10 58 21 66 24 11
4 10 7 -4 18 -11 8 -16 20 -12 30 9 22 -35 22 -68 0 l-25 -16 11 31 c8 23 17
31 34 31 42 0 56 10 44 31 -13 25 -34 24 -53 -3 -9 -12 -24 -23 -36 -25 -17
-2 -19 2 -16 30 2 17 0 37 -6 44 -6 8 -5 20 3 35 13 23 13 22 22 -14 11 -45
24 -49 33 -10 10 41 13 43 39 16 29 -29 45 -31 45 -4 0 13 5 18 15 14 11 -5
15 2 15 26 0 31 1 32 18 17 9 -8 30 -19 46 -23 25 -6 28 -5 22 14 -5 14 -1 24
11 31 17 10 17 12 1 21 -22 13 -24 32 -4 24 8 -3 22 -2 31 3 14 8 11 14 -19
41 -20 17 -36 34 -36 36 0 12 64 -23 73 -40 14 -25 27 -34 56 -34 18 0 22 4
18 20 -3 10 0 21 6 23 6 2 7 9 2 17 -13 21 -12 60 1 60 7 0 15 -6 17 -12 3 -7
6 -3 6 10 1 16 -3 21 -11 16 -7 -5 3 9 22 29 22 24 41 36 52 33 10 -2 21 0 24
5 3 6 11 5 20 -2 11 -9 11 -15 3 -25 -9 -11 -8 -14 4 -14 8 0 17 -3 20 -7 2
-5 2 -2 1 5 -2 6 1 12 7 12 6 0 9 6 6 14 -3 7 -2 17 3 22 4 5 4 18 -1 29 -8
19 -8 19 -15 -2 -9 -33 -24 -28 -24 7 0 17 -4 30 -10 30 -5 0 -10 9 -10 20 0
11 -4 20 -10 20 -5 0 -10 4 -10 10 0 5 13 7 29 5 20 -2 31 2 35 12 5 13 0 15
-29 10 -39 -6 -40 -5 -24 25 9 17 13 18 20 7 7 -12 9 -12 9 0 0 10 9 12 34 7
30 -6 34 -4 29 12 -3 14 8 30 41 58 27 23 41 41 35 45 -6 3 -12 18 -12 33 -1
16 -8 26 -17 26 -18 1 -50 24 -50 36 0 4 5 3 12 -4 18 -18 45 -14 51 8 5 20
-13 26 -65 21 -31 -4 -19 19 13 26 20 4 28 10 25 19 -3 8 -1 14 5 14 6 0 6 8
-2 21 -9 18 -6 25 23 49 30 26 64 32 39 7 -13 -13 -15 -47 -3 -47 4 0 14 16
21 35 12 34 14 35 49 30 l37 -6 -32 17 c-18 9 -30 21 -27 26 15 24 15 68 0 74
-9 3 -16 12 -16 20 0 8 -4 14 -10 14 -5 0 -10 -6 -10 -14 0 -8 -3 -22 -6 -30
-4 -12 -2 -15 9 -10 8 3 18 1 21 -4 3 -5 -6 -9 -19 -9 -24 0 -29 7 -26 34 1 6
-9 19 -21 27 -23 16 -22 17 29 20 12 0 25 5 30 10 5 5 1 7 -9 3 -10 -4 -18 -2
-18 4 0 6 -8 8 -18 5 -12 -4 -23 2 -34 22 -15 26 -15 28 8 45 13 10 24 22 24
27 0 16 -32 11 -52 -7 -24 -21 -25 3 -1 29 12 14 14 21 5 30 -8 8 -3 15 20 27
43 22 51 46 12 37 -16 -4 -35 -8 -42 -9 -7 -1 -19 13 -27 31 -15 34 -8 40 27
21 18 -10 19 -8 13 13 -12 37 -25 48 -51 42 -17 -4 -24 -2 -24 9 0 28 36 29
102 2 13 -5 15 -2 11 15 -7 24 -38 44 -62 37 -12 -3 -17 2 -17 17 1 12 -5 21
-14 21 -9 0 -14 -8 -12 -20 2 -16 -3 -20 -26 -19 -16 0 -35 5 -43 10 -10 6 -5
10 21 14 43 6 48 33 7 38 -23 3 -26 7 -21 28 5 18 1 29 -12 38 -15 12 -16 16
-5 30 7 9 9 16 4 16 -5 0 -24 -21 -41 -46 -26 -36 -36 -43 -47 -34 -15 12 -31
-3 -20 -20 3 -5 1 -10 -4 -10 -6 0 -11 8 -11 18 0 10 -7 27 -15 38 -19 25 -19
35 0 28 10 -4 15 0 15 11 0 10 5 13 12 9 8 -5 9 -2 5 9 -3 10 -2 17 2 17 5 0
16 3 25 6 10 4 16 1 16 -9 0 -13 6 -14 32 -6 37 10 82 49 58 49 -13 0 -13 2
-1 9 11 7 5 14 -27 28 -23 10 -42 24 -42 32 0 8 -7 11 -20 8 -11 -3 -20 -1
-20 3 0 5 -14 11 -30 15 -17 4 -28 11 -24 16 3 5 14 7 25 4 14 -5 17 -3 13 9
-4 9 -1 23 6 31 10 12 9 16 -4 21 -12 5 -14 10 -5 20 7 9 7 18 0 31 -6 10 -11
13 -11 7 0 -5 -6 -19 -14 -30 -13 -18 -14 -17 -13 16 2 28 -2 35 -15 34 -25
-2 -22 11 5 23 19 9 25 8 33 -5 7 -10 17 -13 30 -8 17 7 15 9 -13 21 -20 9
-35 23 -39 39 -3 14 -10 24 -14 21 -5 -3 -11 -1 -15 5 -4 6 -11 8 -16 5 -14
-9 -11 9 6 31 14 19 15 19 21 -3 7 -24 24 -32 24 -12 0 8 5 8 15 -1 12 -10 15
-10 15 0 0 7 -6 18 -14 24 -7 6 -16 30 -19 53 -5 40 -4 42 14 32 15 -8 19 -6
19 6 0 9 -7 18 -15 21 -8 4 -15 15 -15 25 0 13 -5 17 -16 12 -14 -5 -15 -3 -4
16 11 21 13 21 35 7 32 -21 35 -20 35 9 0 14 5 25 11 25 7 0 9 11 5 30 -3 19
-2 29 4 25 6 -3 10 -18 11 -33 l1 -27 10 30 c6 17 19 42 29 57 21 30 23 38 9
38 -5 0 -10 -6 -10 -14 0 -8 -7 -16 -15 -20 -8 -3 -15 0 -15 6 0 17 40 47 56
41 8 -3 17 5 24 22 14 37 13 40 -14 55 -23 12 -26 40 -4 40 6 0 8 -6 5 -14 -4
-9 3 -16 16 -20 25 -6 26 -5 32 24 6 31 -10 49 -37 42 -14 -3 -19 -1 -14 6 3
6 2 14 -4 17 -6 4 -9 19 -8 33 2 21 -1 27 -17 27 -35 0 -64 23 -58 45 6 21
-11 27 -36 11 -17 -11 -6 -29 27 -44 l27 -11 -35 -4 c-19 -2 -39 -8 -44 -13
-32 -31 -29 36 5 124 10 26 14 47 9 47 -15 0 -50 -38 -50 -55 0 -20 -32 -36
-50 -25 -12 7 -12 12 -2 22 6 6 12 9 12 5 0 -4 15 10 34 31 32 35 33 37 15 44
-11 4 -17 12 -14 18 3 5 1 10 -5 10 -6 0 -9 4 -6 9 8 13 -21 34 -38 28 -8 -3
-16 -16 -18 -28 -2 -12 -9 -25 -17 -27 -11 -4 -13 2 -8 25 3 16 1 35 -4 43 -8
13 -12 11 -28 -9 l-18 -23 -1 29 c0 27 2 29 29 25 30 -4 41 14 14 24 -8 4 -12
10 -9 16 3 5 13 6 23 3 30 -13 57 -12 69 2 15 16 19 14 -50 17 -45 2 -61 -1
-74 -15 -12 -13 -25 -16 -45 -12 -17 3 -35 0 -44 -7 -16 -14 -20 -3 -6 19 6
10 20 12 45 8 31 -5 36 -3 36 13 0 23 20 37 29 21 7 -11 107 -18 117 -8 7 7 8
42 1 80 -5 31 8 37 16 7 3 -12 14 -20 27 -20 11 0 18 5 15 10 -3 6 -13 10 -21
10 -8 0 -14 7 -14 15 0 8 -4 15 -9 15 -5 0 -11 9 -14 20 -3 11 -1 20 4 20 5 0
2 11 -7 25 -9 14 -21 22 -26 19 -6 -4 -6 -10 1 -17 17 -17 13 -31 -4 -17 -8 7
-15 19 -15 27 0 13 -3 13 -15 3 -10 -9 -15 -9 -15 -1 0 6 -4 11 -10 11 -5 0
-7 -7 -4 -15 5 -11 2 -13 -12 -8 -11 4 -15 3 -11 -4 4 -6 0 -13 -8 -17 -8 -3
-15 -10 -15 -15 0 -6 7 -8 15 -5 8 4 15 1 15 -6 0 -6 5 -8 11 -4 7 4 10 1 7
-7 -6 -17 -33 -23 -56 -13 -9 4 -21 6 -27 5 -5 -1 -3 5 6 12 15 11 15 15 3 31
-16 23 -10 36 17 36 14 0 19 7 19 26 0 14 -4 23 -10 19 -5 -3 -7 -12 -4 -19 7
-19 -36 -13 -47 7 -7 11 -4 19 8 26 23 12 14 22 -14 15 -15 -4 -20 -11 -16
-22 5 -12 2 -14 -11 -9 -10 4 -22 7 -27 7 -6 0 -32 21 -60 47 -47 44 -50 45
-56 24 -4 -14 -11 -20 -20 -17 -8 4 -20 3 -26 -1 -12 -8 -18 -9 -38 -12 -11
-1 -8 -26 7 -65 4 -12 0 -16 -15 -16 -14 0 -21 6 -21 20 0 10 -5 31 -12 45
-10 22 -18 26 -45 23 -18 -1 -38 3 -45 10 -10 10 -6 11 19 8 24 -2 39 4 62 25
32 29 42 55 17 46 -10 -4 -18 4 -25 24 -5 16 -15 29 -20 29 -6 0 -11 5 -11 11
0 16 45 6 46 -11 1 -8 2 -20 3 -26 0 -6 15 -11 31 -12 37 -1 39 19 6 53 -14
13 -26 37 -28 52 -3 26 -1 28 30 25 23 -1 32 2 32 13 0 17 -46 39 -61 29 -13
-7 -51 5 -44 15 2 5 23 11 45 15 32 5 41 10 38 24 -2 11 -14 17 -33 18 -47 2
-50 3 -37 16 19 19 14 46 -13 64 -32 21 -40 14 -28 -23 10 -32 6 -73 -8 -73
-5 0 -8 3 -7 8 1 4 -3 17 -10 30 -15 26 -36 19 -29 -10 3 -10 -1 -31 -10 -46
-14 -25 -14 -23 -8 42 l7 70 -24 -16 c-12 -8 -27 -32 -32 -52 -5 -20 -15 -36
-23 -36 -19 0 -16 20 12 69 31 53 31 54 1 49 -23 -5 -24 -3 -19 29 5 29 3 35
-16 40 -12 3 -21 13 -21 24 0 19 1 19 31 3 31 -16 32 -15 26 5 -3 12 -1 24 4
27 19 11 8 24 -21 24 -21 0 -28 4 -24 14 3 8 0 17 -7 22 -8 4 -15 2 -17 -5 -2
-7 -15 -16 -28 -21 -13 -5 -24 -18 -24 -28 0 -30 13 -35 27 -10 8 14 12 17 12
8 1 -20 -10 -35 -31 -43 -14 -5 -19 1 -24 29 -4 22 -2 40 5 47 17 17 13 29 -6
23 -10 -3 -24 -1 -32 3 -12 8 -13 12 -2 25 10 12 17 13 26 6 10 -8 18 -4 34
16 l21 26 -38 34 c-20 18 -43 34 -49 34 -7 0 -13 10 -13 22 0 20 -1 20 -18 5
-25 -23 -35 -10 -15 19 9 14 14 27 11 29 -4 4 -109 -17 -156 -31 -8 -2 -16
-13 -19 -24 -9 -34 -24 -22 -21 17 3 35 1 38 -32 49 -23 8 -34 17 -32 28 3 19
-5 21 -22 3 -11 -10 -8 -19 15 -47 38 -45 39 -64 2 -45 -16 8 -35 12 -44 10
-13 -4 -16 1 -14 27 2 18 4 34 5 36 3 3 7 18 9 33 1 8 17 10 47 6 l46 -5 -5
43 c-4 26 -2 47 6 55 10 10 6 11 -20 7 -41 -8 -43 1 -3 14 33 12 38 30 15 49
-13 11 -22 10 -50 -3 -40 -19 -53 -50 -31 -73 9 -9 13 -20 10 -26 -4 -6 -9 -5
-15 3 -8 14 -11 13 -25 -12 -6 -11 -16 -13 -34 -8 l-25 7 23 7 c30 10 28 25
-3 25 -14 0 -25 5 -25 10 0 6 -7 10 -16 10 -11 0 -14 6 -9 20 4 12 2 20 -5 20
-12 0 -11 16 5 68 6 18 4 21 -9 16 -9 -3 -16 -2 -16 3 0 5 -13 23 -28 41 l-28
31 -29 -19 c-17 -11 -38 -17 -47 -14 -12 3 -18 0 -18 -9 0 -8 -7 -18 -16 -21
-12 -5 -14 -1 -9 15 7 20 4 21 -21 16 -19 -3 -35 0 -47 11 -16 14 -19 14 -27
2 -7 -11 -5 -16 5 -18 17 -4 20 -18 6 -27 -6 -3 -15 3 -21 14 -8 17 -6 25 11
42 20 20 21 22 3 17 -22 -6 -43 11 -36 30 2 6 -1 12 -7 12 -6 0 -11 9 -11 20
0 11 -5 20 -11 20 -6 0 -9 -6 -6 -14 3 -8 -1 -20 -10 -28 -15 -12 -16 -10 -9
15 5 23 3 29 -19 37 -34 13 -38 13 -32 -4 3 -8 -5 -18 -19 -25 -13 -6 -24 -15
-24 -21 0 -5 -4 -10 -10 -10 -5 0 -10 6 -10 13 0 7 -7 22 -16 33 -13 16 -15
16 -10 2 3 -10 1 -18 -4 -18 -6 0 -10 7 -10 16 0 14 -3 14 -15 4 -13 -11 -14
-10 -9 4 3 9 1 16 -5 16 -6 0 -11 7 -11 15 0 8 -6 12 -14 9 -8 -3 -17 0 -21 6
-11 18 -13 94 -3 113 8 15 6 18 -9 15 -13 -2 -18 -12 -18 -33 0 -17 -4 -30
-10 -30 -5 0 -9 6 -9 13 1 6 -2 12 -7 12 -5 0 -9 -5 -9 -11 0 -8 -5 -8 -15 1
-13 11 -16 8 -21 -19 -5 -25 -9 -29 -20 -20 -11 9 -16 5 -25 -15 -13 -27 -33
-37 -23 -11 8 20 -6 19 -23 -2 -8 -10 -12 -12 -8 -5 10 19 -13 14 -25 -5 -9
-15 -10 -14 -4 5 5 21 3 23 -15 17 -17 -5 -20 -3 -15 12 6 15 5 15 -9 -2 -14
-19 -16 -19 -22 -3 -4 10 -11 15 -16 12 -5 -3 -9 0 -9 7 0 6 -8 9 -20 6 -12
-3 -18 -1 -14 5 4 6 -2 8 -16 3 -19 -6 -21 -4 -15 14 7 22 -9 29 -21 10 -4 -8
-9 -7 -15 2 -4 7 -11 10 -15 6 -4 -3 -2 -12 4 -19 5 -7 10 -25 9 -40 -2 -23
-6 -27 -27 -23 -13 2 -27 1 -30 -3 -3 -4 -14 -15 -25 -24 -20 -17 -20 -16 -17
24 3 25 1 38 -5 35 -6 -4 -9 -18 -7 -33 2 -18 -2 -24 -11 -20 -10 3 -13 -4
-10 -30 3 -39 -9 -52 -31 -33 -14 12 -14 14 2 26 17 12 16 13 -4 13 -12 0 -22
-4 -22 -10 0 -5 -4 -10 -10 -10 -5 0 -2 16 7 35 9 19 20 35 23 35 3 0 15 7 26
15 18 14 16 15 -21 11 -30 -3 -39 -7 -37 -20 2 -9 -4 -16 -12 -16 -10 0 -13
-6 -9 -16 5 -14 3 -14 -18 -2 -33 18 -39 29 -28 49 12 24 11 29 -6 29 -17 0
-21 45 -5 55 17 11 11 25 -11 25 -17 0 -19 4 -13 22 6 20 5 21 -10 9 -9 -7
-16 -20 -16 -27 0 -8 -5 -14 -10 -14 -6 0 -8 11 -4 25 7 27 -10 35 -20 10z
m11 -87 c-3 -7 -5 -2 -5 12 0 14 2 19 5 13 2 -7 2 -19 0 -25z m53 -38 c0 -11
-4 -20 -9 -20 -11 0 -22 26 -14 34 12 12 23 5 23 -14z m-83 -25 c-7 -13 -14
-20 -15 -14 -2 5 2 16 8 24 18 21 20 18 7 -10z m98 -25 c3 -5 2 -10 -4 -10 -5
0 -13 5 -16 10 -3 6 -2 10 4 10 5 0 13 -4 16 -10z m10 -30 c3 -5 1 -10 -4 -10
-6 0 -11 5 -11 10 0 6 2 10 4 10 3 0 8 -4 11 -10z m692 -16 c-9 -9 -28 6 -21
18 4 6 10 6 17 -1 6 -6 8 -13 4 -17z m-153 0 c9 -24 7 -27 -9 -10 -17 17 -19
26 -6 26 5 0 12 -7 15 -16z m-70 -13 c4 -5 -3 -7 -14 -4 -23 6 -26 13 -6 13 8
0 17 -4 20 -9z m-298 -36 c-7 -26 -21 -31 -46 -15 -12 8 -10 10 10 8 19 -2 26
2 28 20 2 13 6 21 9 18 3 -3 3 -17 -1 -31z m455 8 c-8 -15 -10 -15 -11 -2 0
17 10 32 18 25 2 -3 -1 -13 -7 -23z m-1071 -55 c12 -5 12 -7 -3 -13 -21 -9
-22 -8 -31 25 -6 22 -5 23 6 9 7 -9 20 -18 28 -21z m1260 24 c0 -5 -7 -9 -15
-9 -8 0 -15 4 -15 9 0 4 7 8 15 8 8 0 15 -4 15 -8z m30 -52 c0 -4 -7 -11 -16
-14 -18 -7 -44 10 -44 28 0 6 5 3 11 -6 15 -26 32 -22 23 4 -6 20 -5 21 10 9
9 -7 16 -17 16 -21z m-1090 -7 c0 -20 -3 -24 -11 -16 -7 7 -9 19 -6 27 10 24
17 19 17 -11z m-105 8 c-7 -13 26 -30 44 -23 8 3 11 0 7 -7 -4 -6 -21 -11 -38
-11 -26 0 -29 -2 -18 -15 7 -8 8 -15 2 -15 -5 0 -15 7 -22 15 -10 12 -10 19
-2 27 17 17 15 26 -5 31 -11 3 -7 5 10 6 16 0 26 -3 22 -8z m-85 -31 c0 -16
-5 -30 -10 -30 -6 0 -10 -6 -9 -12 3 -24 -1 -38 -11 -38 -5 0 -10 12 -10 26 0
22 -3 24 -14 15 -11 -9 -16 -9 -22 0 -4 7 6 23 27 40 43 36 49 36 49 -1z m180
-24 c0 -2 -9 -6 -20 -9 -11 -3 -20 -1 -20 4 0 5 9 9 20 9 11 0 20 -2 20 -4z
m1460 -10 c0 -3 -15 -19 -32 -37 -26 -25 -34 -29 -36 -16 -5 27 17 57 43 57
14 0 25 -2 25 -4z m-1710 -56 c0 -5 -4 -10 -10 -10 -5 0 -10 5 -10 10 0 6 5
10 10 10 6 0 10 -4 10 -10z m790 6 c0 -3 -4 -8 -10 -11 -5 -3 -10 -1 -10 4 0
6 5 11 10 11 6 0 10 -2 10 -4z m-1048 -58 c-7 -7 -12 -8 -12 -2 0 14 12 26 19
19 2 -3 -1 -11 -7 -17z m2068 -53 c-7 -8 -17 -12 -22 -9 -6 4 -5 10 3 15 22
14 33 10 19 -6z m-585 -5 c3 -5 1 -10 -4 -10 -6 0 -11 5 -11 10 0 6 2 10 4 10
3 0 8 -4 11 -10z m-1598 -157 c-3 -3 -10 -2 -16 2 -7 4 -7 10 2 20 10 11 13
11 15 -2 2 -8 1 -17 -1 -20z m63 18 c0 -12 -20 -25 -27 -18 -7 7 6 27 18 27 5
0 9 -4 9 -9z m60 -25 c0 -3 -4 -8 -10 -11 -5 -3 -10 -1 -10 4 0 6 5 11 10 11
6 0 10 -2 10 -4z m2410 -20 c0 -8 -7 -16 -15 -20 -15 -5 -21 14 -8 27 11 12
23 8 23 -7z m-525 -26 c3 -5 2 -10 -4 -10 -5 0 -13 5 -16 10 -3 6 -2 10 4 10
5 0 13 -4 16 -10z m648 -37 c-7 -2 -19 -2 -25 0 -7 3 -2 5 12 5 14 0 19 -2 13
-5z m21 -222 c-7 -8 -33 33 -27 43 3 5 12 -2 19 -15 7 -13 10 -26 8 -28z m71
-24 c-8 -4 -15 -19 -15 -32 0 -28 -12 -32 -30 -10 -10 12 -16 13 -27 3 -13
-10 -15 -9 -11 7 3 14 11 19 26 18 14 -2 28 6 38 23 13 19 19 22 25 12 5 -8 2
-16 -6 -21z m-3235 -16 c0 -11 -4 -23 -10 -26 -6 -4 -10 5 -10 19 0 14 5 26
10 26 6 0 10 -9 10 -19z m3060 -5 c0 -2 -7 -7 -16 -10 -8 -3 -12 -2 -9 4 6 10
25 14 25 6z m-3000 -10 c0 -3 -4 -8 -10 -11 -5 -3 -10 -1 -10 4 0 6 5 11 10
11 6 0 10 -2 10 -4z m2952 -8 c7 -18 -2 -39 -13 -32 -12 7 -12 44 0 44 5 0 11
-6 13 -12z m-3076 -35 c-4 -4 -11 -1 -16 7 -16 25 -11 35 7 17 9 -9 13 -20 9
-24z m3164 2 c-7 -8 -18 -15 -24 -15 -6 0 -2 7 8 15 25 19 32 19 16 0z m-70
-19 c0 -11 -19 -15 -25 -6 -3 5 1 10 9 10 9 0 16 -2 16 -4z m105 -55 c-3 -6
-11 -11 -17 -11 -6 0 -6 6 2 15 14 17 26 13 15 -4z m133 -14 c2 -11 -2 -14
-17 -10 -12 3 -17 11 -14 19 7 18 27 13 31 -9z m-3213 3 c-3 -5 -11 -10 -16
-10 -6 0 -7 5 -4 10 3 6 11 10 16 10 6 0 7 -4 4 -10z m22 -36 c-3 -3 -12 -4
-19 -1 -8 3 -5 6 6 6 11 1 17 -2 13 -5z m-417 -108 c0 -3 -4 -8 -10 -11 -5 -3
-10 -1 -10 4 0 6 5 11 10 11 6 0 10 -2 10 -4z m4003 -225 c23 -15 25 -20 13
-24 -9 -4 -16 -2 -16 3 0 5 -9 12 -20 15 -11 3 -20 11 -20 16 0 14 12 11 43
-10z m-191 -10 c14 -7 29 -22 32 -33 4 -19 1 -20 -41 -14 -25 3 -54 6 -64 6
-31 0 -22 20 12 27 21 4 28 10 25 20 -4 8 -3 13 1 11 5 -2 20 -10 35 -17z m16
-91 c27 -37 27 -37 -3 -37 -14 0 -25 3 -25 8 0 5 -12 9 -27 9 l-26 0 23 25
c13 14 26 25 30 25 3 0 16 -13 28 -30z m-2388 -31 c0 -11 -27 -12 -34 0 -3 4
-3 11 0 14 8 8 34 -3 34 -14z m2797 -11 c-3 -8 -6 -5 -6 6 -1 11 2 17 5 13 3
-3 4 -12 1 -19z m23 -28 c0 -5 -2 -10 -4 -10 -3 0 -8 5 -11 10 -3 6 -1 10 4
10 6 0 11 -4 11 -10z m-4127 -24 c9 -7 17 -19 17 -27 -1 -9 -8 -5 -20 9 -14
17 -25 22 -40 17 -11 -4 -20 -2 -20 4 0 15 41 13 63 -3z m3690 -7 c-8 -8 -16
-8 -30 1 -16 10 -16 11 5 7 12 -3 22 0 22 6 0 6 3 7 7 4 4 -4 2 -12 -4 -18z
m-3963 -9 c0 -5 -7 -10 -15 -10 -8 0 -15 5 -15 10 0 6 7 10 15 10 8 0 15 -4
15 -10z m185 0 c3 -5 1 -10 -4 -10 -6 0 -11 5 -11 10 0 6 2 10 4 10 3 0 8 -4
11 -10z m1795 -26 c0 -8 -5 -12 -10 -9 -6 4 -8 11 -5 16 9 14 15 11 15 -7z
m2090 -24 c0 -5 -7 -10 -16 -10 -8 0 -12 5 -9 10 3 6 10 10 16 10 5 0 9 -4 9
-10z m-3800 -15 c0 -9 -9 -15 -22 -15 -22 1 -23 1 -4 15 25 19 26 19 26 0z
m-65 -15 c-3 -5 -14 -10 -23 -10 -15 0 -15 2 -2 10 20 13 33 13 25 0z m3795
-10 c0 -5 -9 -14 -20 -20 -16 -8 -20 -8 -20 4 0 8 8 17 18 19 9 3 18 5 20 6 1
0 2 -3 2 -9z m-4176 -219 c6 -10 -24 -25 -32 -16 -3 3 0 5 7 5 7 0 9 5 6 10
-3 6 -2 10 4 10 5 0 12 -4 15 -9z m4394 -63 c-2 -6 -10 -14 -16 -16 -7 -2 -10
2 -6 12 7 18 28 22 22 4z m-4478 -28 c0 -13 -6 -20 -17 -19 -11 0 -13 3 -5 6
6 2 12 11 12 19 0 8 2 14 5 14 3 0 5 -9 5 -20z m4820 6 c0 -3 -4 -8 -10 -11
-5 -3 -10 -1 -10 4 0 6 5 11 10 11 6 0 10 -2 10 -4z m-4840 -86 c0 -5 -7 -10
-15 -10 -8 0 -15 5 -15 10 0 6 7 10 15 10 8 0 15 -4 15 -10z m-70 -20 c-24
-24 -30 -25 -30 -6 0 14 14 24 38 25 7 1 3 -8 -8 -19z m326 -1 c3 -6 1 -16 -5
-22 -9 -9 -14 -8 -21 3 -9 15 -4 30 10 30 5 0 12 -5 16 -11z m-308 -29 c-7
-10 -14 -18 -15 -16 -6 6 9 36 18 36 5 0 4 -9 -3 -20z m-34 -45 c-4 -8 -11
-15 -16 -15 -6 0 -5 6 2 15 7 8 14 15 16 15 2 0 1 -7 -2 -15z m5026 6 c0 -12
-20 -25 -27 -18 -7 7 6 27 18 27 5 0 9 -4 9 -9z m-4877 -46 c-7 -21 -13 -19
-13 6 0 11 4 18 10 14 5 -3 7 -12 3 -20z m4778 5 c-28 -24 -38 -25 -38 -6 0 8
6 12 13 9 6 -2 15 0 19 6 3 6 12 11 18 11 7 -1 1 -10 -12 -20z m-51 -9 c0 -11
-31 -24 -39 -16 -3 3 1 10 9 15 19 12 30 12 30 1z m-4875 -31 c-3 -5 -12 -10
-18 -10 -7 0 -6 4 3 10 19 12 23 12 15 0z m115 -20 c0 -5 -7 -10 -16 -10 -8 0
-12 5 -9 10 3 6 10 10 16 10 5 0 9 -4 9 -10z m4745 -27 c-1 -15 3 -23 13 -23
11 0 12 -3 3 -14 -6 -7 -22 -11 -36 -8 -27 5 -33 17 -12 25 8 3 4 11 -12 25
l-23 21 35 -1 c30 -1 35 -4 32 -25z m-5000 -111 c-12 -13 -24 22 -12 37 10 12
13 11 15 -8 2 -13 1 -26 -3 -29z m525 -12 c0 -5 -5 -10 -11 -10 -5 0 -7 5 -4
10 3 6 8 10 11 10 2 0 4 -4 4 -10z m-410 -9 c0 -6 -4 -13 -10 -16 -5 -3 -10 1
-10 9 0 9 5 16 10 16 6 0 10 -4 10 -9z m390 -72 c0 -5 -7 -9 -15 -9 -9 0 -15
9 -15 21 0 18 2 19 15 9 8 -7 15 -16 15 -21z m-440 -23 c0 -31 16 -42 28 -20
5 9 17 14 26 13 17 -4 23 -18 9 -20 -5 -1 -19 -5 -32 -10 -15 -6 -28 -6 -37 2
-16 13 -19 59 -4 59 6 0 10 -11 10 -24z m1770 19 c0 -2 -10 -9 -22 -15 -22
-11 -22 -10 -4 4 21 17 26 19 26 11z m-56 -14 c6 -10 -18 -23 -46 -26 -25 -3
-22 8 5 21 29 15 35 16 41 5z m2196 -11 c0 -5 -2 -10 -4 -10 -3 0 -8 5 -11 10
-3 6 -1 10 4 10 6 0 11 -4 11 -10z m-2280 -31 c0 -5 -4 -9 -10 -9 -5 0 -10 7
-10 16 0 8 5 12 10 9 6 -3 10 -10 10 -16z m-1200 2 c0 -5 -7 -14 -15 -21 -16
-13 -35 -6 -34 13 0 9 2 9 6 0 7 -18 23 -16 23 2 0 8 5 15 10 15 6 0 10 -4 10
-9z m1330 -32 c0 -5 -7 -9 -15 -9 -8 0 -15 -4 -15 -10 0 -5 -9 -10 -20 -10
-11 0 -20 5 -20 10 0 6 6 10 14 10 7 0 19 7 26 15 12 15 30 12 30 -6z m128
-59 c-15 -24 -22 -19 -13 9 3 12 11 19 16 16 5 -4 3 -14 -3 -25z m3027 -70 c3
-5 2 -10 -4 -10 -5 0 -13 5 -16 10 -3 6 -2 10 4 10 5 0 13 -4 16 -10z m-4945
-14 c0 -3 -4 -8 -10 -11 -5 -3 -10 -1 -10 4 0 6 5 11 10 11 6 0 10 -2 10 -4z
m4924 -92 c23 -9 20 -23 -4 -17 -11 3 -20 9 -20 14 0 11 3 11 24 3z m-34 -28
c0 -2 -7 -6 -15 -10 -8 -3 -15 -1 -15 4 0 6 7 10 15 10 8 0 15 -2 15 -4z m80
-34 c0 -4 -9 -8 -20 -8 -11 0 -20 4 -20 8 0 4 9 8 20 8 11 0 20 -4 20 -8z
m-5018 -122 c-3 -20 0 -30 9 -30 7 0 10 -3 7 -6 -3 -3 -15 0 -26 7 -18 12 -19
14 -5 36 20 29 20 29 15 -7z m773 20 c3 -6 -5 -10 -19 -10 -14 0 -28 5 -31 10
-3 6 5 10 19 10 14 0 28 -4 31 -10z m-844 -63 c-13 -13 -15 21 -3 50 6 15 8
13 10 -11 2 -16 -1 -33 -7 -39z m809 -27 c0 -5 -8 -10 -17 -10 -10 0 -28 -3
-40 -6 -13 -4 -23 -2 -23 4 0 9 17 14 68 21 6 0 12 -3 12 -9z m115 -68 c9 -24
-2 -26 -29 -4 l-26 20 25 0 c13 0 26 -7 30 -16z m-1015 -11 c-15 -28 -13 -32
13 -26 27 7 77 -10 77 -25 0 -7 -6 -8 -17 -2 -10 5 -37 12 -61 15 -39 5 -44 3
-52 -19 -13 -33 -18 -30 -16 9 1 22 9 37 26 49 33 23 43 23 30 -1z m593 12
c-7 -2 -19 -2 -25 0 -7 3 -2 5 12 5 14 0 19 -2 13 -5z m148 -70 c12 -15 12
-16 -3 -10 -10 3 -20 2 -23 -4 -4 -5 -10 -7 -15 -4 -5 3 -11 1 -15 -5 -4 -6
-11 -7 -17 -4 -6 4 -18 -2 -26 -12 -11 -14 -13 -15 -9 -3 3 9 0 22 -6 29 -10
10 -8 12 6 7 11 -4 25 -1 33 8 20 20 58 19 75 -2z m-490 -26 c-8 -8 -11 -7
-11 4 0 20 13 34 18 19 3 -7 -1 -17 -7 -23z m529 18 c0 -8 -4 -15 -10 -15 -5
0 -10 7 -10 15 0 8 5 15 10 15 6 0 10 -7 10 -15z m-780 -15 c0 -11 -4 -20 -9
-20 -5 0 -7 9 -4 20 3 11 7 20 9 20 2 0 4 -9 4 -20z m1820 6 c0 -2 -7 -6 -15
-10 -8 -3 -15 -1 -15 4 0 6 7 10 15 10 8 0 15 -2 15 -4z m-1590 -51 c0 -8 -4
-15 -10 -15 -5 0 -10 7 -10 15 0 8 5 15 10 15 6 0 10 -7 10 -15z m-258 -47
c-7 -7 -12 -8 -12 -2 0 14 12 26 19 19 2 -3 -1 -11 -7 -17z m5408 12 c0 -5 -4
-10 -9 -10 -6 0 -13 5 -16 10 -3 6 1 10 9 10 9 0 16 -4 16 -10z m-5170 -9 c0
-5 -11 -16 -25 -25 -14 -9 -25 -23 -25 -32 0 -8 -4 -12 -10 -9 -16 10 -12 24
15 50 24 25 45 32 45 16z m-113 -47 c-9 -9 -28 6 -21 18 4 6 10 6 17 -1 6 -6
8 -13 4 -17z m3233 16 c0 -5 -5 -10 -11 -10 -5 0 -7 5 -4 10 3 6 8 10 11 10 2
0 4 -4 4 -10z m2055 -10 c3 -5 1 -10 -4 -10 -6 0 -11 5 -11 10 0 6 2 10 4 10
3 0 8 -4 11 -10z m-5098 -6 c-3 -3 -12 -4 -19 -1 -8 3 -5 6 6 6 11 1 17 -2 13
-5z m5143 -14 c0 -5 -4 -10 -10 -10 -5 0 -10 5 -10 10 0 6 5 10 10 10 6 0 10
-4 10 -10z m-2430 -21 c0 -6 -4 -7 -10 -4 -5 3 -10 11 -10 16 0 6 5 7 10 4 6
-3 10 -11 10 -16z m622 -9 c-1 -13 2 -26 7 -29 5 -3 -4 -21 -19 -39 l-27 -33
3 37 c3 39 2 39 -63 19 -20 -7 -23 -4 -22 21 1 17 3 22 6 12 5 -21 2 -21 42
-7 17 6 36 20 42 31 14 25 35 17 31 -12z m-592 0 c0 -5 -5 -10 -11 -10 -5 0
-7 5 -4 10 3 6 8 10 11 10 2 0 4 -4 4 -10z m-2858 -26 c7 -6 -21 -64 -31 -64
-4 0 -7 16 -7 35 0 26 4 35 16 35 9 0 19 -3 22 -6z m1285 -40 c-9 -9 -28 6
-21 18 4 6 10 6 17 -1 6 -6 8 -13 4 -17z m2012 -30 c-2 -24 -6 -44 -11 -44 -4
0 -8 5 -8 11 0 5 -4 8 -8 5 -4 -3 -3 15 2 39 13 55 28 48 25 -11z m-3401 27
c3 -8 -1 -12 -9 -9 -7 2 -15 10 -17 17 -3 8 1 12 9 9 7 -2 15 -10 17 -17z
m3572 -16 c0 -9 -6 -12 -16 -8 -13 5 -13 7 -2 14 17 11 18 11 18 -6z m-90 -60
c0 -12 5 -12 41 0 50 18 57 19 41 3 -19 -19 -14 -30 8 -18 26 14 26 -2 0 -25
-11 -10 -17 -23 -13 -29 3 -6 -4 -1 -16 12 -25 25 -37 28 -44 10 -4 -10 -8 -9
-16 2 -10 13 -12 13 -21 0 -5 -8 -10 -10 -10 -4 0 5 5 15 12 22 9 9 9 12 0 12
-6 0 -9 7 -6 15 8 19 24 20 24 0z m-1695 -35 c3 -5 2 -10 -4 -10 -5 0 -13 5
-16 10 -3 6 -2 10 4 10 5 0 13 -4 16 -10z m-75 -20 c0 -5 -4 -10 -10 -10 -5 0
-10 5 -10 10 0 6 5 10 10 10 6 0 10 -4 10 -10z m550 -20 c0 -5 -5 -10 -11 -10
-5 0 -7 5 -4 10 3 6 8 10 11 10 2 0 4 -4 4 -10z m-2220 -69 c0 -5 -9 -7 -20
-4 -11 3 -20 12 -20 20 0 11 4 11 20 3 11 -6 20 -15 20 -19z m5260 -2 c0 -6
-4 -7 -10 -4 -5 3 -10 11 -10 16 0 6 5 7 10 4 6 -3 10 -11 10 -16z m80 -1 c0
6 5 12 12 12 6 0 8 -3 5 -7 -4 -3 -2 -12 4 -19 6 -8 7 -14 0 -18 -13 -8 -52
25 -44 37 3 5 9 3 14 -4 6 -10 9 -11 9 -1z m-1080 -8 c0 -5 -4 -10 -10 -10 -5
0 -10 5 -10 10 0 6 5 10 10 10 6 0 10 -4 10 -10z m-190 -10 c0 -5 -2 -10 -4
-10 -3 0 -8 5 -11 10 -3 6 -1 10 4 10 6 0 11 -4 11 -10z m-2395 -20 c3 -6 -1
-7 -9 -4 -18 7 -21 14 -7 14 6 0 13 -4 16 -10z m55 -4 c0 -3 -4 -8 -10 -11 -5
-3 -10 -1 -10 4 0 6 5 11 10 11 6 0 10 -2 10 -4z m-690 -16 c0 -5 -5 -10 -11
-10 -5 0 -7 5 -4 10 3 6 8 10 11 10 2 0 4 -4 4 -10z m660 -4 c0 -3 -4 -8 -10
-11 -5 -3 -10 -1 -10 4 0 6 5 11 10 11 6 0 10 -2 10 -4z m3621 -23 c-8 -15
-10 -15 -11 -2 0 17 10 32 18 25 2 -3 -1 -13 -7 -23z m-3736 -3 c-20 -22 -31
-20 -22 5 4 8 14 15 23 15 16 0 16 -2 -1 -20z m-1541 -5 c-4 -8 -10 -15 -15
-15 -5 0 -9 7 -9 15 0 8 7 15 15 15 9 0 12 -6 9 -15z m2176 11 c0 -3 -4 -8
-10 -11 -5 -3 -10 -1 -10 4 0 6 5 11 10 11 6 0 10 -2 10 -4z m-490 -31 c-26
-28 -40 -32 -40 -12 0 8 10 19 23 25 36 18 42 14 17 -13z m-220 -6 c0 -6 -4
-7 -10 -4 -5 3 -10 11 -10 16 0 6 5 7 10 4 6 -3 10 -11 10 -16z m2665 11 c-3
-5 -12 -10 -20 -10 -8 0 -17 5 -20 10 -4 6 5 10 20 10 15 0 24 -4 20 -10z
m-45 -20 c0 -5 -4 -10 -9 -10 -6 0 -13 5 -16 10 -3 6 1 10 9 10 9 0 16 -4 16
-10z m-2735 -30 c-3 -5 -11 -10 -16 -10 -6 0 -7 5 -4 10 3 6 11 10 16 10 6 0
7 -4 4 -10z m2495 3 c0 -5 -5 -15 -10 -23 -8 -12 -10 -11 -10 8 0 12 5 22 10
22 6 0 10 -3 10 -7z m-3963 -39 c-9 -9 -27 6 -27 22 0 13 2 13 16 -1 9 -9 14
-18 11 -21z m1604 13 c-10 -9 -11 -8 -5 6 3 10 9 15 12 12 3 -3 0 -11 -7 -18z
m-441 -37 c0 -5 -4 -10 -9 -10 -6 0 -13 5 -16 10 -3 6 1 10 9 10 9 0 16 -4 16
-10z m674 2 c2 -4 -4 -13 -15 -20 -15 -10 -19 -10 -19 1 0 24 23 36 34 19z
m2250 -1 c3 -5 -8 -11 -24 -13 -30 -5 -41 6 -17 15 20 9 35 8 41 -2z m-2109
-31 c-3 -5 -19 -19 -35 -30 -27 -19 -29 -19 -23 -3 3 10 10 24 16 31 11 14 51
17 42 2z m2079 -23 c16 -12 14 -16 -24 -46 -33 -26 -41 -29 -37 -15 4 11 9 31
13 47 7 30 21 34 48 14z m1376 -17 c0 -5 -4 -10 -10 -10 -5 0 -10 5 -10 10 0
6 5 10 10 10 6 0 10 -4 10 -10z m-4305 -20 c3 -5 2 -10 -4 -10 -5 0 -13 5 -16
10 -3 6 -2 10 4 10 5 0 13 -4 16 -10z m2945 -86 c0 -8 -4 -14 -9 -14 -6 0 -9
9 -8 19 1 22 17 18 17 -5z m-3520 -24 c0 -5 10 -10 22 -10 l22 0 -20 -20 c-23
-24 -49 -18 -57 11 -4 13 -11 17 -24 13 -15 -5 -15 -4 -3 5 19 14 60 14 60 1z
m-106 -16 c3 -8 2 -12 -4 -9 -6 3 -10 10 -10 16 0 14 7 11 14 -7z m4721 6 c3
-5 1 -10 -4 -10 -6 0 -11 5 -11 10 0 6 2 10 4 10 3 0 8 -4 11 -10z m-1135 -19
c0 -12 -29 -23 -41 -15 -18 10 -9 24 16 24 14 0 25 -4 25 -9z m-3985 -51 c8 0
17 -5 21 -12 5 -8 2 -9 -10 -5 -14 5 -17 3 -12 -8 6 -17 -9 -21 -19 -5 -12 20
-25 9 -25 -20 0 -16 -4 -30 -10 -30 -5 0 -7 7 -4 15 4 9 0 15 -9 15 -22 0 -37
-23 -30 -49 4 -18 2 -22 -8 -19 -10 3 -13 19 -12 51 3 48 -10 63 -22 27 -8
-25 -25 -26 -25 -2 0 28 12 38 70 59 53 18 55 19 68 1 7 -10 19 -18 27 -18z
m435 -10 c0 -5 -7 -10 -16 -10 -8 0 -12 5 -9 10 3 6 10 10 16 10 5 0 9 -4 9
-10z m3308 -1 c-2 -6 -8 -10 -13 -10 -5 0 -11 4 -13 10 -2 6 4 11 13 11 9 0
15 -5 13 -11z m-3658 -19 c0 -5 -4 -10 -9 -10 -6 0 -13 5 -16 10 -3 6 1 10 9
10 9 0 16 -4 16 -10z m4015 -20 c-3 -5 -10 -10 -16 -10 -5 0 -9 5 -9 10 0 6 7
10 16 10 8 0 12 -4 9 -10z m-3625 -10 c0 -5 -5 -10 -11 -10 -5 0 -7 5 -4 10 3
6 8 10 11 10 2 0 4 -4 4 -10z m2050 -4 c0 -11 -19 -15 -25 -6 -3 5 1 10 9 10
9 0 16 -2 16 -4z m-1140 -96 c0 -5 -2 -10 -4 -10 -3 0 -8 5 -11 10 -3 6 -1 10
4 10 6 0 11 -4 11 -10z m1110 0 c0 -5 -2 -10 -4 -10 -3 0 -8 5 -11 10 -3 6 -1
10 4 10 6 0 11 -4 11 -10z m-2586 -21 c-4 -8 3 -9 25 -4 18 4 31 3 31 -3 0
-15 -49 -21 -60 -7 -5 6 -7 15 -3 18 10 11 15 8 7 -4z m457 -36 c13 -15 12
-15 -8 -4 -24 12 -29 21 -14 21 5 0 15 -7 22 -17z m4575 -55 c-10 -6 -20 -7
-24 -3 -9 8 20 25 31 18 5 -3 2 -10 -7 -15z m-4631 2 c3 -5 2 -10 -4 -10 -5 0
-13 5 -16 10 -3 6 -2 10 4 10 5 0 13 -4 16 -10z m4588 -20 c-3 -11 -10 -23
-16 -27 -7 -4 -8 0 -4 11 4 10 7 22 7 27 0 5 4 9 9 9 5 0 7 -9 4 -20z m-4133
-96 c0 -2 -7 -4 -15 -4 -8 0 -15 4 -15 10 0 5 7 7 15 4 8 -4 15 -8 15 -10z
m-585 -24 c-5 -14 -2 -20 9 -20 9 0 16 -4 16 -10 0 -13 0 -13 -44 10 -39 19
-39 20 -15 29 36 14 41 13 34 -9z m70 10 c-3 -5 -10 -10 -16 -10 -5 0 -9 5 -9
10 0 6 7 10 16 10 8 0 12 -4 9 -10z m4439 -6 c3 -8 2 -13 -3 -10 -4 3 -8 -11
-7 -32 0 -20 6 -39 13 -42 8 -3 9 -10 4 -19 -13 -20 -31 -4 -31 29 0 15 -5 30
-11 32 -7 2 -7 12 0 31 12 30 26 35 35 11z m-4127 -59 c-8 -8 -17 -11 -21 -8
-11 11 -6 31 12 49 16 17 17 17 20 -4 2 -12 -3 -29 -11 -37z m63 35 c0 -5 -5
-10 -11 -10 -5 0 -7 5 -4 10 3 6 8 10 11 10 2 0 4 -4 4 -10z m36 -45 c-4 -51
-16 -56 -16 -7 0 23 4 42 9 42 5 0 8 -16 7 -35z m-171 15 c3 -5 1 -10 -4 -10
-6 0 -11 5 -11 10 0 6 2 10 4 10 3 0 8 -4 11 -10z m235 -30 c0 -5 -7 -10 -15
-10 -8 0 -15 5 -15 10 0 6 7 10 15 10 8 0 15 -4 15 -10z m3035 -10 c-3 -5 -11
-10 -16 -10 -6 0 -7 5 -4 10 3 6 11 10 16 10 6 0 7 -4 4 -10z m-3225 -22 c0
-13 -32 -6 -37 9 -3 7 3 9 16 6 12 -3 21 -10 21 -15z m-95 2 c-3 -5 -10 -10
-16 -10 -5 0 -9 5 -9 10 0 6 7 10 16 10 8 0 12 -4 9 -10z m367 -11 c20 -8 23
-16 20 -44 -3 -26 -8 -33 -23 -32 -16 1 -19 6 -14 29 5 23 3 28 -12 28 -11 0
-24 -5 -29 -10 -8 -8 -15 -6 -24 4 -10 13 -10 17 1 20 8 2 21 7 29 9 23 8 27
8 52 -4z m-546 -36 c-11 -11 -19 6 -11 24 8 17 8 17 12 0 3 -10 2 -21 -1 -24z
m499 -23 c3 -5 2 -10 -4 -10 -5 0 -13 5 -16 10 -3 6 -2 10 4 10 5 0 13 -4 16
-10z m2885 0 c0 -5 -4 -10 -10 -10 -5 0 -10 5 -10 10 0 6 5 10 10 10 6 0 10
-4 10 -10z m-3153 -6 c-3 -3 -12 -4 -19 -1 -8 3 -5 6 6 6 11 1 17 -2 13 -5z
m168 -35 c-42 -38 -47 -41 -63 -26 -9 8 -26 17 -37 19 -17 3 -16 6 12 21 18
10 34 13 38 8 3 -6 19 -4 38 4 55 24 58 17 12 -26z m305 11 c0 -5 -2 -10 -4
-10 -3 0 -8 5 -11 10 -3 6 -1 10 4 10 6 0 11 -4 11 -10z m2608 -10 c-14 -22
-24 -19 -15 5 4 8 11 15 17 15 6 0 6 -7 -2 -20z m136 -12 c-3 -5 -12 -4 -20 3
-19 16 -18 18 6 12 11 -3 17 -9 14 -15z m833 -30 c-3 -7 -5 -2 -5 12 0 14 2
19 5 13 2 -7 2 -19 0 -25z m-3653 -3 c-6 -16 -24 -21 -24 -7 0 11 11 22 21 22
5 0 6 -7 3 -15z m3734 -34 c11 -6 9 -9 -7 -14 -12 -3 -22 1 -25 9 -6 16 12 18
32 5z m-118 -30 c0 -6 -4 -13 -10 -16 -5 -3 -10 1 -10 9 0 9 5 16 10 16 6 0
10 -4 10 -9z m70 -23 c0 -3 -9 -4 -20 -1 -16 4 -18 8 -9 20 10 11 14 11 20 1
5 -7 9 -16 9 -20z m-2696 -64 c10 -25 -1 -29 -14 -5 -6 12 -7 21 -1 21 5 0 12
-7 15 -16z m2567 -53 c-11 -7 -9 -13 8 -30 13 -13 16 -21 8 -21 -19 0 -37 21
-37 42 0 11 7 18 18 18 13 0 14 -2 3 -9z m-2971 -22 c0 -6 -4 -7 -10 -4 -5 3
-10 11 -10 16 0 6 5 7 10 4 6 -3 10 -11 10 -16z m359 -23 c-9 -8 -10 -7 -5 7
3 10 7 24 7 30 1 7 3 4 6 -7 3 -10 -1 -23 -8 -30z m-279 16 c0 -4 -4 -13 -9
-21 -7 -11 -11 -10 -19 6 -9 15 -7 19 9 20 10 1 19 -1 19 -5z m-70 -31 c0 -6
-4 -13 -10 -16 -5 -3 -10 1 -10 9 0 9 5 16 10 16 6 0 10 -4 10 -9z m2270 -1
c0 -5 -4 -10 -10 -10 -5 0 -10 5 -10 10 0 6 5 10 10 10 6 0 10 -4 10 -10z
m-2345 -34 c9 -22 23 -36 37 -39 17 -3 15 -5 -9 -6 -28 -1 -32 3 -38 31 -7 28
-9 30 -20 15 -13 -18 -75 -24 -75 -8 0 5 9 7 19 4 16 -4 19 -1 14 16 -5 18 -1
21 26 21 27 0 34 -5 46 -34z m2790 4 c3 -5 1 -10 -4 -10 -6 0 -11 5 -11 10 0
6 2 10 4 10 3 0 8 -4 11 -10z m-3015 -10 c0 -5 -4 -10 -10 -10 -5 0 -10 5 -10
10 0 6 5 10 10 10 6 0 10 -4 10 -10z m75 1 c3 -5 1 -12 -5 -16 -5 -3 -10 1
-10 9 0 18 6 21 15 7z m245 -1 c-19 -13 -30 -13 -30 0 0 6 10 10 23 10 18 0
19 -2 7 -10z m326 0 c8 0 14 -4 14 -10 0 -16 -36 -11 -51 7 -12 15 -12 16 4
10 10 -4 25 -7 33 -7z m714 -14 c14 -18 14 -19 -8 -7 -12 7 -20 17 -16 22 3 6
7 9 8 7 1 -2 8 -12 16 -22z m-950 -1 c0 -8 -7 -15 -15 -15 -8 0 -15 7 -15 15
0 8 7 15 15 15 8 0 15 -7 15 -15z m1736 -22 c-11 -11 -19 6 -11 24 8 17 8 17
12 0 3 -10 2 -21 -1 -24z m214 -46 c0 -5 6 -7 14 -4 16 6 28 -14 18 -30 -4 -6
-18 -13 -32 -14 -22 -4 -27 1 -37 36 -27 96 -27 93 6 55 17 -19 31 -38 31 -43z
m-97 11 c-10 -18 -20 -6 -15 19 5 24 6 25 12 8 4 -11 6 -23 3 -27z m-2319 -10
c-3 -5 -14 -2 -25 8 -27 25 -23 37 6 18 14 -9 22 -20 19 -26z m2516 32 c0 -5
-5 -10 -11 -10 -5 0 -7 5 -4 10 3 6 8 10 11 10 2 0 4 -4 4 -10z m390 -5 c0 -8
-4 -15 -10 -15 -5 0 -10 7 -10 15 0 8 5 15 10 15 6 0 10 -7 10 -15z m-1160
-45 c0 -19 -7 -33 -20 -40 -16 -9 -18 -15 -10 -30 8 -16 6 -26 -11 -50 l-22
-29 -15 27 c-18 32 -33 147 -18 132 14 -14 36 -12 36 3 0 6 14 13 30 14 27 2
30 -1 30 -27z m278 14 c-10 -10 -21 -13 -29 -8 -12 7 0 14 41 23 2 1 -3 -6
-12 -15z m-82 -49 c-32 -29 -68 -55 -78 -55 -5 0 -8 14 -8 30 0 28 3 30 35 30
32 0 35 2 25 19 -16 30 -12 33 21 16 l31 -16 -26 -24z m-699 -7 c12 -29 19
-55 17 -57 -6 -7 -74 50 -74 62 0 8 3 7 9 -2 5 -7 14 -10 21 -6 8 5 7 12 -4
24 -15 16 -13 31 4 31 4 0 16 -24 27 -52z m-1187 22 c0 -11 -4 -20 -10 -20 -5
0 -10 9 -10 20 0 11 5 20 10 20 6 0 10 -9 10 -20z m1100 10 c0 -5 -4 -10 -10
-10 -5 0 -10 5 -10 10 0 6 5 10 10 10 6 0 10 -4 10 -10z m-560 -15 c-7 -9 -15
-13 -19 -10 -3 3 1 10 9 15 21 14 24 12 10 -5z m107 -42 c-3 -10 -5 -2 -5 17
0 19 2 27 5 18 2 -10 2 -26 0 -35z m-547 0 c0 -13 -3 -13 -15 -3 -8 7 -12 16
-9 21 8 13 24 1 24 -18z m-80 -9 c0 -14 -4 -23 -9 -20 -5 3 -7 15 -4 26 7 28
13 25 13 -6z m490 -39 c19 -36 8 -40 -12 -4 -9 16 -14 29 -9 29 4 0 14 -11 21
-25z m100 -5 c0 -5 -4 -10 -10 -10 -5 0 -10 5 -10 10 0 6 5 10 10 10 6 0 10
-4 10 -10z m-540 -10 c0 -5 -2 -10 -4 -10 -3 0 -8 5 -11 10 -3 6 -1 10 4 10 6
0 11 -4 11 -10z m2590 -20 c0 -5 -4 -10 -10 -10 -5 0 -10 5 -10 10 0 6 5 10
10 10 6 0 10 -4 10 -10z m-2015 -77 c-5 -15 -7 -15 -23 1 -16 16 -16 18 3 32
18 13 20 13 23 -1 2 -9 1 -23 -3 -32z"/>
<path d="M4702 9658 c-7 -7 -12 -18 -12 -25 0 -7 -4 -13 -10 -13 -5 0 -10 -5
-10 -11 0 -23 34 -2 41 25 10 35 7 40 -9 24z"/>
<path d="M4485 9630 c-4 -7 -3 -16 3 -22 12 -12 53 -7 51 7 0 6 -6 9 -11 7 -6
-1 -16 2 -23 8 -10 8 -15 8 -20 0z"/>
<path d="M4137 9623 c-9 -9 -9 -33 1 -33 4 0 13 9 20 20 10 16 10 20 -1 20 -8
0 -17 -3 -20 -7z"/>
<path d="M3550 9589 c0 -11 5 -17 10 -14 6 3 10 13 10 21 0 8 -4 14 -10 14 -5
0 -10 -9 -10 -21z"/>
<path d="M3875 9600 c-3 -5 -12 -7 -20 -3 -8 3 -15 1 -15 -5 0 -16 31 -23 47
-10 11 9 16 9 24 -3 5 -8 9 -10 9 -5 0 5 7 3 15 -4 12 -10 15 -9 15 4 0 24
-62 46 -75 26z"/>
<path d="M4585 9590 c-3 -5 -1 -10 4 -10 6 0 11 5 11 10 0 6 -2 10 -4 10 -3 0
-8 -4 -11 -10z"/>
<path d="M3516 9575 c4 -8 10 -15 15 -15 5 0 9 7 9 15 0 8 -7 15 -15 15 -9 0
-12 -6 -9 -15z"/>
<path d="M5294 9573 c-35 -7 -56 -37 -48 -67 12 -49 89 -80 82 -33 -2 14 -9
21 -21 21 -18 -2 -23 11 -7 21 5 3 19 19 30 35 23 32 20 34 -36 23z"/>
<path d="M4356 9561 c-4 -7 -5 -15 -2 -18 9 -9 19 4 14 18 -4 11 -6 11 -12 0z"/>
<path d="M4825 9550 c-8 -13 4 -32 16 -25 12 8 12 35 0 35 -6 0 -13 -4 -16
-10z"/>
<path d="M4874 9505 c0 -14 3 -25 7 -25 9 0 29 23 29 34 0 5 -3 6 -7 3 -3 -4
-12 -2 -19 3 -9 8 -12 4 -10 -15z"/>
<path d="M5390 9460 c0 -38 2 -40 20 -30 24 13 27 55 4 64 -24 9 -24 9 -24
-34z"/>
<path d="M5456 9441 c-18 -19 -24 -31 -16 -36 14 -9 60 21 60 40 0 26 -17 24
-44 -4z"/>
<path d="M3540 9375 c0 -28 -3 -30 -30 -13 -10 7 -22 9 -26 5 -10 -9 26 -36
48 -37 20 0 42 35 34 56 -9 23 -26 16 -26 -11z"/>
<path d="M3350 9377 c0 -8 7 -21 16 -28 14 -11 15 -10 12 11 -3 26 -28 41 -28
17z"/>
<path d="M3396 9381 c-8 -12 4 -42 14 -36 15 9 19 45 5 45 -8 0 -16 -4 -19 -9z"/>
<path d="M5560 9353 c0 -15 -2 -16 -10 -3 -7 11 -10 11 -10 2 0 -7 -5 -10 -10
-7 -6 4 -17 1 -25 -5 -8 -6 -18 -9 -24 -6 -5 3 -11 0 -14 -8 -4 -10 5 -19 26
-26 19 -7 27 -14 19 -17 -8 -3 -19 0 -25 6 -13 13 -31 15 -23 2 4 -5 -2 -23
-11 -39 -10 -17 -15 -33 -12 -37 11 -10 59 14 59 30 0 9 4 14 9 11 5 -3 12 1
15 10 4 10 13 13 26 9 15 -5 20 -2 20 10 0 11 5 15 15 11 8 -3 15 -3 15 0 0 2
-10 9 -22 14 -23 9 -23 9 2 10 22 1 23 2 9 13 -9 7 -14 18 -12 25 3 6 0 12 -6
12 -6 0 -11 -8 -11 -17z"/>
<path d="M5410 9340 c0 -5 5 -10 11 -10 5 0 7 5 4 10 -3 6 -8 10 -11 10 -2 0
-4 -4 -4 -10z"/>
<path d="M5616 9336 c5 -14 34 -31 34 -20 0 3 -6 12 -14 20 -19 18 -27 18 -20
0z"/>
<path d="M5408 9313 c7 -3 16 -2 19 1 4 3 -2 6 -13 5 -11 0 -14 -3 -6 -6z"/>
<path d="M5592 9268 c2 -6 10 -14 16 -16 7 -2 10 2 6 12 -7 18 -28 22 -22 4z"/>
<path d="M5535 9250 c3 -5 10 -10 16 -10 5 0 9 5 9 10 0 6 -7 10 -16 10 -8 0
-12 -4 -9 -10z"/>
<path d="M3210 9235 c0 -18 25 -26 39 -12 17 17 13 25 -14 25 -14 0 -25 -6
-25 -13z"/>
<path d="M3160 9151 c0 -12 29 -35 36 -28 11 10 -5 37 -21 37 -8 0 -15 -4 -15
-9z"/>
<path d="M5740 9125 c0 -17 58 -95 75 -99 50 -14 67 -1 45 34 -7 12 -11 12
-28 -3 -19 -17 -19 -17 -15 7 6 28 -27 66 -57 66 -11 0 -20 -2 -20 -5z"/>
<path d="M3140 9091 c-25 -36 -26 -51 -2 -50 9 0 12 3 5 5 -18 8 -4 34 14 27
8 -3 19 0 24 8 12 20 11 26 -6 32 -9 4 -22 -5 -35 -22z"/>
<path d="M5910 9101 c-25 -47 4 -72 34 -29 11 16 13 25 4 35 -15 18 -26 16
-38 -6z"/>
<path d="M5968 9054 c-38 -20 -35 -36 5 -32 24 2 33 8 35 26 4 26 -3 27 -40 6z"/>
<path d="M3206 9051 c-4 -7 -5 -15 -2 -18 9 -9 19 4 14 18 -4 11 -6 11 -12 0z"/>
<path d="M2797 9013 c-3 -5 -2 -15 2 -22 5 -7 11 -9 14 -4 3 5 2 15 -2 22 -5
7 -11 9 -14 4z"/>
<path d="M2760 8986 c0 -2 7 -9 15 -16 12 -10 15 -10 15 4 0 9 -7 16 -15 16
-8 0 -15 -2 -15 -4z"/>
<path d="M2556 8821 c-9 -14 4 -40 26 -52 28 -15 35 -3 18 28 -17 29 -35 39
-44 24z"/>
<path d="M2522 8748 c-19 -19 -14 -27 23 -34 43 -8 50 -3 35 25 -12 23 -40 27
-58 9z"/>
<path d="M6116 8734 c-9 -23 -7 -52 4 -59 11 -7 43 52 35 65 -9 15 -32 12 -39
-6z"/>
<path d="M6166 8684 c-22 -22 -21 -53 2 -47 9 2 26 11 36 18 16 12 17 17 6 30
-16 19 -25 19 -44 -1z"/>
<path d="M2402 8598 c-24 -38 -22 -45 7 -26 12 7 21 23 21 35 0 30 -4 29 -28
-9z"/>
<path d="M6340 8550 c0 -35 18 -59 53 -68 17 -6 40 -13 50 -17 13 -5 17 -2 17
14 0 25 -43 55 -68 49 -13 -4 -18 0 -18 16 1 12 -6 22 -16 24 -13 2 -18 -3
-18 -18z"/>
<path d="M2454 8515 c-10 -24 6 -38 22 -18 7 10 14 21 14 26 0 13 -31 7 -36
-8z"/>
<path d="M6318 8350 c-15 -9 -15 -13 -2 -39 20 -41 40 -56 47 -36 4 8 13 12
22 9 19 -8 19 -2 1 41 -15 36 -36 43 -68 25z"/>
<path d="M2370 8209 c0 -5 5 -7 10 -4 6 3 10 8 10 11 0 2 -4 4 -10 4 -5 0 -10
-5 -10 -11z"/>
<path d="M6486 8151 c-4 -7 -5 -15 -2 -18 9 -9 19 4 14 18 -4 11 -6 11 -12 0z"/>
<path d="M2360 8110 c-7 -17 -11 -32 -9 -35 3 -2 25 5 49 16 43 19 44 21 26
35 -31 22 -52 17 -66 -16z"/>
<path d="M6660 8095 c0 -8 5 -15 10 -15 6 0 10 7 10 15 0 8 -4 15 -10 15 -5 0
-10 -7 -10 -15z"/>
<path d="M2143 7970 c4 -17 2 -20 -14 -15 -12 4 -28 -3 -46 -21 -32 -32 -20
-41 32 -24 55 18 89 80 44 80 -17 0 -20 -5 -16 -20z"/>
<path d="M6770 7906 c0 -2 7 -7 16 -10 8 -3 12 -2 9 4 -6 10 -25 14 -25 6z"/>
<path d="M6766 7882 c-3 -6 -1 -14 5 -17 15 -10 25 3 12 16 -7 7 -13 7 -17 1z"/>
<path d="M2099 7869 c-8 -54 -6 -79 6 -79 7 0 20 7 29 15 8 8 19 15 25 15 11
0 26 39 18 47 -9 8 -28 -7 -22 -18 9 -14 -3 -11 -30 7 -14 9 -25 15 -26 13z"/>
<path d="M6832 7768 c-7 -7 -12 -21 -12 -32 0 -18 1 -19 20 -1 20 18 27 45 12
45 -4 0 -13 -5 -20 -12z"/>
<path d="M2130 7715 c-7 -8 -10 -18 -7 -21 11 -11 59 6 54 19 -6 18 -32 20
-47 2z"/>
<path d="M6850 7715 c-7 -8 -10 -18 -8 -21 10 -9 59 8 55 20 -6 18 -33 18 -47
1z"/>
<path d="M2076 7692 c-3 -6 -1 -14 5 -17 15 -10 25 3 12 16 -7 7 -13 7 -17 1z"/>
<path d="M2042 7668 c3 -7 13 -15 24 -17 16 -3 17 -1 5 13 -16 19 -34 21 -29
4z"/>
<path d="M6880 7519 c0 -5 5 -7 10 -4 6 3 10 8 10 11 0 2 -4 4 -10 4 -5 0 -10
-5 -10 -11z"/>
<path d="M1876 7499 c-11 -10 -17 -22 -14 -25 10 -9 48 16 48 31 0 20 -11 18
-34 -6z"/>
<path d="M6957 7513 c-10 -9 -9 -23 2 -23 5 0 11 7 15 15 5 15 -5 20 -17 8z"/>
<path d="M1581 7366 c-10 -12 -5 -17 28 -27 36 -11 43 -10 61 6 23 21 11 47
-12 27 -9 -7 -19 -7 -28 -2 -21 14 -36 12 -49 -4z"/>
<path d="M1549 7220 l-24 -19 48 -1 c45 0 47 1 37 20 -14 25 -31 25 -61 0z"/>
<path d="M6851 7094 c0 -11 3 -14 6 -6 3 7 2 16 -1 19 -3 4 -6 -2 -5 -13z"/>
<path d="M6870 7100 c0 -5 5 -10 10 -10 6 0 10 5 10 10 0 6 -4 10 -10 10 -5 0
-10 -4 -10 -10z"/>
<path d="M6860 6706 c0 -8 -3 -22 -7 -32 -5 -13 -3 -15 7 -9 9 6 21 -1 37 -21
l24 -29 -16 35 c-9 19 -18 43 -22 53 -6 20 -23 23 -23 3z"/>
<path d="M6825 6670 c3 -5 8 -10 11 -10 2 0 4 5 4 10 0 6 -5 10 -11 10 -5 0
-7 -4 -4 -10z"/>
<path d="M1615 6650 c-3 -5 6 -12 20 -16 29 -7 41 -1 30 15 -8 14 -42 14 -50
1z"/>
<path d="M1555 6604 c-20 -20 -19 -35 1 -27 9 3 20 0 25 -8 11 -19 32 2 24 24
-9 23 -32 28 -50 11z"/>
<path d="M6916 6595 c-3 -8 -2 -15 3 -15 5 0 14 7 21 15 10 12 10 15 -3 15 -8
0 -17 -7 -21 -15z"/>
<path d="M6980 6573 c0 -5 5 -15 10 -23 7 -12 9 -10 7 8 -1 19 -17 33 -17 15z"/>
<path d="M1540 6495 c0 -8 -6 -12 -14 -9 -19 7 -56 -13 -56 -30 0 -18 79 -4
91 15 13 21 11 39 -6 39 -8 0 -15 -7 -15 -15z"/>
<path d="M6820 6455 c0 -19 4 -35 8 -35 5 0 9 16 10 35 1 19 -3 35 -8 35 -6 0
-10 -16 -10 -35z"/>
<path d="M7010 6402 c0 -24 25 -46 68 -60 25 -9 32 -8 32 2 0 20 -38 49 -55
42 -11 -4 -15 -1 -13 11 2 10 -5 19 -14 21 -12 2 -18 -3 -18 -16z"/>
<path d="M1400 6262 c0 -5 9 -17 20 -27 20 -18 20 -17 20 8 0 20 -5 27 -20 27
-11 0 -20 -4 -20 -8z"/>
<path d="M1366 6124 c-9 -23 -8 -24 10 -17 9 3 20 0 24 -7 13 -21 32 -2 20 21
-13 23 -45 25 -54 3z"/>
<path d="M1531 5912 c-7 -13 -6 -23 1 -30 19 -19 28 -14 28 18 0 34 -14 39
-29 12z"/>
<path d="M1422 5617 c4 -20 1 -23 -19 -19 -26 5 -58 -18 -66 -49 -6 -22 -4
-23 46 -5 52 18 77 41 77 71 0 19 -5 25 -21 25 -17 0 -20 -5 -17 -23z"/>
<path d="M7117 5584 c-11 -11 -8 -44 3 -44 6 0 10 5 10 10 0 6 7 10 16 10 9 0
14 6 12 13 -5 14 -31 21 -41 11z"/>
<path d="M7160 5525 c-8 -9 -8 -15 -2 -15 18 0 42 12 42 21 0 14 -26 10 -40
-6z"/>
<path d="M7157 5494 c-11 -11 3 -24 24 -24 12 0 19 5 17 13 -5 14 -31 21 -41
11z"/>
<path d="M1420 5398 c-30 -50 -26 -60 18 -42 20 9 43 22 51 29 11 11 9 16 -18
29 -31 16 -31 16 -51 -16z"/>
<path d="M7085 5391 c-6 -11 29 -33 39 -24 7 7 -12 33 -25 33 -4 0 -10 -4 -14
-9z"/>
<path d="M7061 5349 c7 -14 14 -18 21 -11 13 13 2 32 -18 32 -12 0 -13 -4 -3
-21z"/>
<path d="M1380 5266 c0 -9 -7 -12 -18 -9 -18 4 -60 -32 -50 -43 11 -10 86 16
92 32 10 25 7 34 -9 34 -8 0 -15 -6 -15 -14z"/>
<path d="M6955 5270 c3 -5 8 -10 11 -10 2 0 4 5 4 10 0 6 -5 10 -11 10 -5 0
-7 -4 -4 -10z"/>
<path d="M6880 5145 c0 -8 8 -11 20 -8 11 3 20 7 20 8 0 1 -9 5 -20 8 -12 3
-20 0 -20 -8z"/>
<path d="M6940 5120 c0 -5 5 -10 10 -10 6 0 10 5 10 10 0 6 -4 10 -10 10 -5 0
-10 -4 -10 -10z"/>
<path d="M1356 5098 c-23 -33 -20 -38 17 -26 44 15 55 27 37 38 -23 15 -38 12
-54 -12z"/>
<path d="M1510 4950 c-23 -46 -16 -49 43 -19 54 28 54 27 31 44 -32 24 -52 18
-74 -25z"/>
<path d="M6805 4961 c-7 -13 34 -41 50 -35 7 3 15 14 18 25 4 16 0 19 -28 19
-19 0 -36 -4 -40 -9z"/>
<path d="M6799 4892 c19 -35 39 -46 57 -31 14 11 13 15 -8 31 -32 24 -62 24
-49 0z"/>
<path d="M1534 4844 c-8 -20 -13 -38 -11 -41 7 -6 97 38 97 48 0 11 -34 29
-55 29 -9 0 -23 -16 -31 -36z"/>
<path d="M6610 4856 c0 -19 23 -46 39 -46 17 0 37 27 28 36 -8 8 -67 16 -67
10z"/>
<path d="M1697 4803 c-4 -3 -7 -19 -7 -33 l0 -28 42 15 c59 20 63 24 43 40
-20 14 -67 18 -78 6z"/>
<path d="M6572 4728 c-19 -19 -14 -46 13 -64 33 -22 40 -13 21 25 -13 24 -13
29 -2 25 7 -3 16 2 19 10 8 20 -33 22 -51 4z"/>
<path d="M6666 4708 c-20 -28 -7 -35 35 -18 33 14 34 33 2 38 -13 2 -27 -6
-37 -20z"/>
<path d="M1823 4695 l-28 -24 33 -1 c28 0 32 3 32 25 0 31 -2 31 -37 0z"/>
<path d="M6661 4646 c-14 -16 -9 -21 37 -31 31 -6 33 -5 30 17 -4 28 -48 37
-67 14z"/>
<path d="M2126 4584 c-9 -8 -16 -24 -16 -36 0 -17 4 -19 33 -13 17 4 41 12 51
18 19 9 19 10 -3 28 -28 23 -45 24 -65 3z"/>
<path d="M6230 4371 c-14 -27 -13 -41 5 -41 8 0 15 7 15 16 0 13 5 12 30 -6
26 -18 30 -19 30 -5 0 30 -20 55 -45 55 -14 0 -29 -8 -35 -19z"/>
<path d="M2485 4288 c-16 -6 -32 -12 -34 -14 -10 -9 36 -33 61 -34 20 0 28 7
37 30 9 27 8 30 -12 29 -12 0 -35 -5 -52 -11z"/>
<path d="M5890 4251 c0 -6 5 -13 10 -16 6 -3 10 1 10 9 0 9 -4 16 -10 16 -5 0
-10 -4 -10 -9z"/>
<path d="M5972 4148 c-11 -40 -8 -48 19 -41 16 4 19 12 17 36 -4 42 -25 45
-36 5z"/>
<path d="M6030 4170 c0 -6 7 -25 16 -41 12 -25 18 -28 30 -18 19 15 18 21 -6
47 -22 24 -40 29 -40 12z"/>
<path d="M2567 4108 c-32 -16 -37 -21 -27 -33 18 -22 48 -18 75 9 22 22 24 22
28 5 6 -21 15 -23 37 -9 13 9 12 13 -9 30 -28 24 -54 24 -104 -2z"/>
<path d="M3754 4052 c-23 -27 -33 -52 -38 -90 -7 -52 -6 -53 14 -42 33 17 46
55 31 88 -10 22 -10 25 0 15 20 -20 28 -16 44 23 19 45 19 44 -2 43 -10 0 -32
-17 -49 -37z"/>
<path d="M3070 4046 c0 -8 7 -19 15 -26 10 -9 12 -17 5 -30 -12 -22 -1 -92 14
-87 6 2 11 19 11 38 0 36 8 49 42 67 19 10 20 9 16 -8 -6 -21 18 -37 36 -25
17 10 -16 64 -42 69 -67 14 -97 14 -97 2z"/>
<path d="M5034 4052 c-7 -4 -24 -28 -38 -54 l-27 -48 24 0 c33 0 61 33 55 65
-5 24 -4 24 11 10 13 -11 20 -12 29 -3 21 21 13 38 -15 38 -16 0 -33 -4 -39
-8z"/>
<path d="M2844 4019 c3 -17 6 -36 6 -42 0 -5 9 -2 20 8 24 22 25 29 4 49 -25
26 -37 19 -30 -15z"/>
<path d="M2940 3920 c0 -46 8 -49 34 -13 19 25 19 26 1 39 -29 22 -35 17 -35
-26z"/>
<path d="M3376 3837 c-17 -12 -17 -14 -1 -27 15 -12 19 -12 31 5 14 18 14 18
14 -2 0 -29 32 -53 71 -53 l34 0 -47 45 c-49 47 -72 54 -102 32z"/>
</g>
</svg>
