<?xml version="1.0" standalone="no"?>
<!DOCTYPE svg PUBLIC "-//W3C//DTD SVG 20010904//EN"
 "http://www.w3.org/TR/2001/REC-SVG-20010904/DTD/svg10.dtd">
<svg version="1.0" xmlns="http://www.w3.org/2000/svg"
 width="640.000000pt" height="1280.000000pt" viewBox="0 0 640.000000 1280.000000"
 preserveAspectRatio="xMidYMid meet">
<metadata>
Created by potrace 1.15, written by Peter Selinger 2001-2017
</metadata>
<g transform="translate(0.000000,1280.000000) scale(0.100000,-0.100000)"
fill="#000000" stroke="none">
<path d="M3101 12763 c-6 -16 -22 -73 -37 -128 -14 -55 -39 -124 -55 -154 -36
-68 -38 -95 -6 -86 12 4 31 16 41 28 18 21 19 21 12 2 -4 -11 -24 -48 -44 -82
-27 -45 -45 -64 -67 -70 -24 -7 -30 -15 -31 -38 -1 -17 -5 -38 -9 -47 -10 -26
1 -35 35 -30 l31 4 -41 -82 c-23 -45 -39 -84 -36 -87 3 -3 19 -1 35 5 29 10
31 9 31 -13 0 -37 21 -41 47 -9 19 24 25 26 33 14 10 -17 -11 -46 -42 -56 -18
-5 -18 -7 -2 -19 10 -7 26 -10 36 -7 27 7 25 -44 -2 -53 -11 -4 -17 -11 -14
-17 4 -5 1 -21 -7 -34 -16 -31 -7 -39 29 -26 49 17 58 0 25 -49 -25 -38 -44
-51 -170 -111 -78 -37 -152 -68 -165 -69 -18 0 -15 -4 17 -18 22 -10 57 -21
78 -25 l37 -7 -26 -47 c-15 -26 -39 -59 -55 -73 -37 -32 -36 -44 1 -65 l30
-18 -21 -23 c-13 -13 -19 -28 -15 -39 5 -13 2 -15 -14 -11 -12 3 -41 -1 -66
-10 -40 -14 -48 -13 -84 1 -52 21 -50 21 -50 -14 0 -20 -5 -30 -15 -30 -8 0
-15 -4 -15 -10 0 -5 11 -10 23 -10 13 0 31 -8 40 -18 15 -16 15 -19 -1 -29 -9
-6 -25 -25 -35 -42 -18 -31 -18 -31 3 -31 12 0 18 -4 15 -10 -3 -5 6 -27 21
-50 22 -33 25 -47 20 -80 l-6 -40 45 -11 44 -11 -15 -30 c-25 -47 -14 -58 60
-58 64 0 66 -1 82 -32 22 -44 31 -48 81 -41 41 5 43 5 43 -21 0 -30 27 -35 63
-11 21 13 25 12 51 -16 l29 -30 -7 -167 c-3 -92 -9 -216 -13 -275 l-6 -108
-34 -14 c-57 -24 -202 -47 -288 -47 -86 1 -195 20 -296 53 -77 25 -259 109
-259 119 0 4 -11 10 -23 14 -30 7 -187 123 -249 183 l-47 46 -12 -26 c-11 -25
-6 -50 29 -129 2 -5 -6 -8 -17 -8 -12 0 -21 -4 -21 -9 0 -5 -10 -11 -22 -13
-22 -3 -22 -4 10 -36 17 -19 32 -36 32 -39 0 -2 10 -13 21 -22 21 -17 21 -18
-49 -52 -39 -19 -72 -37 -72 -40 0 -4 18 -9 40 -12 23 -3 56 -17 75 -31 18
-14 41 -26 49 -26 9 0 16 -4 16 -10 0 -16 30 -12 36 5 5 12 9 13 20 4 12 -10
12 -15 -6 -31 -27 -26 -25 -40 11 -67 26 -19 29 -27 24 -52 -6 -26 -4 -29 18
-29 13 0 30 7 37 15 7 9 18 14 24 12 6 -2 21 0 34 4 20 8 22 6 22 -31 0 -38 2
-40 31 -40 17 0 28 -4 24 -10 -3 -5 -15 -10 -26 -10 -10 0 -19 -4 -19 -10 0
-16 57 -11 75 6 24 24 60 10 80 -31 15 -34 15 -38 0 -62 l-17 -26 28 7 c16 4
37 17 47 28 15 18 20 19 27 8 5 -8 4 -22 -2 -33 -7 -14 -7 -17 1 -12 18 11 71
-5 71 -21 0 -12 35 -90 45 -102 7 -8 37 16 55 42 20 32 120 73 120 51 0 -7
-11 -20 -25 -29 -31 -20 -35 -66 -7 -66 11 0 27 9 36 19 16 17 20 18 47 4 25
-12 29 -20 29 -53 0 -38 2 -40 43 -51 23 -6 48 -13 55 -15 8 -2 12 -28 12 -84
l0 -80 28 0 c15 0 46 9 70 20 l42 19 0 -105 c0 -58 -4 -114 -10 -124 -23 -43
-69 -57 -225 -68 -323 -24 -356 -25 -430 -7 -145 33 -213 63 -467 202 -103 57
-190 103 -193 103 -8 0 24 -60 53 -99 l25 -34 -26 7 c-22 5 -25 3 -20 -11 12
-32 -19 -1 -33 33 -13 31 -74 76 -74 55 0 -5 20 -39 45 -75 l44 -65 -37 -3
-37 -3 38 -24 c21 -13 36 -28 34 -35 -3 -6 2 -19 11 -28 14 -17 13 -18 -16
-18 -34 0 -41 -7 -44 -44 -2 -20 -10 -28 -38 -37 -19 -6 -39 -15 -43 -19 -11
-10 32 -40 58 -40 11 0 26 -4 33 -9 11 -7 9 -13 -8 -29 -26 -24 -21 -49 13
-57 32 -8 52 -42 36 -61 -17 -21 -4 -41 33 -49 47 -10 51 -15 32 -36 -21 -24
-16 -29 35 -36 35 -5 48 -14 82 -57 42 -53 115 -109 133 -103 6 2 12 14 14 26
2 15 9 21 20 19 14 -3 16 -13 14 -49 l-3 -46 32 5 c28 4 37 0 61 -29 20 -24
28 -28 28 -16 0 9 16 35 36 57 28 30 40 38 49 30 10 -8 24 -7 51 5 20 8 39 13
42 10 3 -3 1 -25 -5 -50 -8 -37 -8 -45 4 -45 14 0 17 6 28 54 6 27 8 28 46 23
46 -6 79 -31 79 -60 0 -19 1 -19 19 -3 11 10 22 30 26 44 l7 27 15 -29 c11
-20 14 -44 10 -78 -6 -45 -5 -48 13 -38 26 14 40 42 40 79 0 36 15 39 61 15
45 -23 55 -13 62 54 3 34 8 65 11 71 11 18 33 1 51 -40 10 -21 22 -39 26 -39
24 0 39 82 19 95 -15 9 7 35 29 35 9 0 27 -8 40 -17 l24 -16 -6 45 c-6 43 1
58 28 58 2 0 2 -21 -1 -47 -3 -27 -1 -147 5 -268 7 -121 14 -277 18 -346 l6
-126 -94 -31 c-151 -49 -299 -84 -326 -77 -14 3 -31 1 -39 -6 -11 -9 -50 -10
-143 -5 -349 18 -703 110 -903 233 -39 24 -72 42 -74 40 -2 -1 17 -29 42 -62
24 -33 44 -64 44 -69 0 -5 10 -29 21 -53 23 -48 19 -64 -12 -45 -13 8 -33 11
-52 6 -30 -6 -31 -7 -9 -15 32 -12 27 -26 -8 -21 -21 3 -30 0 -30 -9 0 -27 40
-79 64 -85 14 -3 32 -17 41 -30 8 -13 22 -24 30 -24 19 0 19 -10 -1 -38 -8
-12 -10 -22 -5 -22 6 0 11 -4 11 -9 0 -5 -74 -11 -164 -13 -90 -1 -168 -6
-172 -11 -21 -21 61 -112 117 -128 31 -10 37 -15 28 -26 -6 -7 -20 -13 -31
-13 -12 0 -18 -5 -14 -12 2 -7 10 -30 17 -50 11 -35 15 -38 51 -38 36 0 37 -1
26 -20 -10 -16 -9 -25 5 -50 11 -18 16 -39 12 -50 -6 -17 -2 -20 30 -20 20 0
68 -7 106 -16 67 -15 83 -15 120 0 10 5 19 -1 27 -19 15 -32 24 -32 77 5 24
17 47 30 51 30 3 0 24 -16 45 -35 22 -19 48 -35 59 -35 23 0 54 31 70 71 13
31 26 37 32 17 5 -13 54 3 122 40 19 9 31 11 33 5 2 -6 10 -18 17 -28 12 -17
16 -17 70 8 68 31 78 22 52 -48 -17 -43 -19 -44 -84 -59 -190 -43 -307 -55
-344 -35 -18 10 -19 8 -13 -12 l7 -22 -136 6 c-75 3 -138 1 -141 -3 -3 -5 14
-22 37 -38 24 -17 59 -46 77 -66 19 -20 43 -36 53 -36 23 0 23 -13 -2 -35 -22
-20 -18 -33 14 -45 19 -7 17 -9 -22 -25 -34 -14 -40 -20 -31 -31 14 -17 102
-44 145 -44 42 0 60 -21 36 -42 -9 -9 -27 -19 -40 -22 -12 -4 -27 -16 -32 -27
-12 -21 -16 -19 115 -65 142 -50 203 -50 264 2 35 29 47 26 56 -15 l6 -29 36
14 c19 8 55 14 80 12 l46 -3 -46 -56 c-57 -70 -96 -89 -257 -129 -253 -61
-322 -65 -522 -30 -37 7 -73 10 -79 8 -8 -3 4 -21 29 -46 37 -37 39 -42 21
-47 -16 -5 -69 -63 -69 -76 0 -2 25 -2 55 -1 43 3 55 1 55 -11 0 -16 -35 -64
-65 -88 -16 -14 -18 -22 -9 -45 10 -31 31 -35 86 -21 23 6 26 4 21 -9 -6 -15
3 -16 90 -9 l97 7 0 -31 c0 -24 6 -34 24 -41 13 -5 32 -7 42 -5 84 17 84 17
84 -17 l0 -31 80 6 c66 5 80 4 80 -8 0 -19 5 -19 91 1 l69 16 44 -26 c29 -17
60 -26 88 -26 52 0 63 -7 72 -42 5 -22 12 -28 34 -28 28 0 131 16 164 26 13 4
16 1 12 -10 -3 -9 -3 -16 1 -16 11 0 67 40 103 74 l32 30 0 -116 0 -115 -55
12 c-67 16 -93 10 -101 -22 -6 -23 -9 -24 -68 -18 -33 3 -155 10 -270 15 -115
6 -212 12 -216 15 -4 2 -72 9 -152 14 -81 6 -170 16 -200 22 -156 31 -364 82
-369 90 -8 14 -192 76 -279 94 -41 9 -109 20 -150 24 -41 4 -83 11 -92 16 -14
5 -18 2 -18 -14 0 -14 -5 -19 -15 -15 -8 4 -15 1 -15 -5 0 -6 7 -11 15 -11 10
0 15 -7 13 -17 -3 -15 8 -19 70 -24 94 -7 111 -21 85 -72 -15 -30 -24 -37 -48
-37 -16 0 -37 -4 -44 -9 -12 -8 -10 -12 10 -19 13 -6 44 -14 69 -19 l45 -9
-42 -28 -43 -28 21 -27 21 -26 -60 -3 c-44 -2 -64 -8 -77 -22 -17 -19 -17 -20
18 -35 20 -8 60 -15 89 -15 l53 -1 -29 -25 c-35 -31 -24 -44 37 -44 39 0 45
-8 25 -28 -16 -16 -6 -15 81 8 77 21 99 20 60 0 -38 -21 -187 -141 -193 -156
-7 -19 28 -19 43 0 24 29 150 108 167 104 37 -7 23 -29 -45 -73 -65 -42 -111
-86 -111 -106 0 -5 14 -9 30 -9 38 0 38 -10 0 -38 -45 -34 -36 -46 13 -17 24
14 55 25 68 25 31 0 111 -24 104 -31 -3 -3 1 -23 8 -44 l13 -38 32 39 c29 35
92 167 92 193 0 17 25 13 53 -10 37 -28 53 -86 37 -133 -7 -21 -10 -39 -8 -41
11 -11 92 42 138 91 50 53 52 54 108 54 31 0 64 -5 72 -10 13 -8 13 -10 -1
-10 -9 0 -24 -9 -34 -20 -11 -12 -31 -20 -50 -20 -37 0 -49 -8 -35 -25 8 -10
-5 -16 -55 -25 -36 -7 -68 -17 -71 -22 -3 -5 -18 -14 -32 -20 -25 -10 -26 -11
-7 -18 11 -5 48 -9 82 -9 34 -1 65 -6 68 -11 4 -7 23 4 47 25 30 28 43 34 53
25 7 -6 11 -20 8 -30 -3 -13 0 -20 8 -20 8 0 -6 -19 -31 -41 l-45 -40 50 6
c82 10 98 13 135 24 19 6 46 11 60 11 33 0 95 33 143 77 37 33 39 34 53 16 13
-17 15 -17 40 11 19 22 28 26 34 16 4 -7 12 -10 17 -7 6 4 24 -7 40 -23 17
-17 42 -36 57 -44 l26 -13 -30 -13 c-16 -7 -30 -19 -30 -26 0 -26 20 -14 78
46 33 33 66 60 75 60 10 0 17 7 17 15 0 8 7 15 15 15 9 0 15 -9 15 -25 l0 -26
38 29 c28 22 52 31 97 36 33 3 70 9 82 12 20 6 21 3 16 -35 -5 -37 -3 -41 15
-41 12 0 28 10 36 22 14 19 16 20 22 4 4 -9 2 -77 -5 -149 -6 -73 -11 -155
-11 -184 0 -40 -3 -51 -14 -47 -10 4 -15 -9 -20 -48 -15 -135 -9 -125 -100
-154 -262 -83 -504 -116 -851 -116 -179 0 -258 5 -420 26 -110 15 -238 35
-284 45 -47 11 -88 18 -91 16 -6 -4 -61 9 -210 50 -114 30 -341 77 -347 71 -2
-2 14 -14 36 -26 21 -13 37 -28 35 -34 -3 -7 7 -18 20 -26 20 -10 24 -18 20
-37 -5 -20 -1 -26 35 -41 22 -9 41 -20 41 -23 0 -6 -53 -34 -83 -43 -16 -5
-15 -8 5 -32 13 -14 24 -31 24 -37 1 -7 2 -17 3 -24 0 -6 12 -25 26 -41 l25
-30 -33 -13 -32 -14 55 -5 55 -5 -50 -23 c-60 -28 -49 -41 35 -43 30 0 48 -3
40 -6 -69 -26 -67 -25 -45 -33 11 -5 40 -9 65 -10 38 0 42 -2 26 -12 -18 -10
-18 -11 5 -24 13 -7 47 -14 74 -14 38 0 46 -3 35 -11 -11 -8 -5 -9 23 -4 41 6
43 2 22 -35 -25 -45 -20 -52 35 -48 28 1 50 0 50 -3 0 -4 -16 -21 -35 -38 -19
-17 -35 -38 -35 -47 0 -15 8 -16 65 -10 69 7 183 -7 222 -27 l24 -13 -23 -21
c-13 -12 -45 -34 -72 -50 -27 -16 -51 -34 -54 -41 -2 -6 10 -26 28 -43 29 -30
34 -31 95 -27 36 2 65 3 65 3 0 -1 -22 -30 -50 -66 -42 -55 -47 -64 -31 -67
10 -2 49 11 87 28 37 16 69 28 72 26 2 -3 -1 -19 -7 -37 -23 -68 -15 -71 77
-34 34 14 64 25 68 25 3 0 4 -25 2 -55 -3 -59 4 -66 36 -36 12 11 30 21 41 23
17 3 19 -2 17 -30 -3 -31 -2 -33 20 -27 49 15 140 69 157 94 10 14 23 40 28
56 10 31 15 32 70 20 28 -7 37 -3 63 25 16 18 30 28 30 23 0 -5 6 -17 13 -27
12 -17 16 -17 43 -3 16 8 35 26 42 39 17 30 67 35 82 8 15 -29 37 -25 55 10
18 35 17 35 55 15 27 -14 33 -14 60 0 18 9 40 13 52 10 26 -9 17 -15 -65 -49
-51 -22 -66 -32 -63 -45 3 -9 8 -29 11 -46 13 -57 16 -65 31 -65 8 0 17 7 20
15 3 8 15 17 27 21 12 4 38 19 57 34 35 27 130 51 130 32 0 -14 -75 -70 -104
-78 -46 -11 -29 -27 24 -22 49 5 50 5 50 -23 0 -16 4 -29 9 -29 6 0 11 -17 13
-37 3 -43 1 -44 68 37 18 21 30 29 30 20 0 -23 -124 -133 -229 -204 -248 -166
-555 -290 -1002 -404 -85 -22 -179 -43 -209 -47 -30 -3 -102 -21 -160 -39 -58
-18 -145 -43 -195 -55 -158 -39 -166 -41 -159 -53 5 -8 64 -9 201 -4 190 7
194 7 184 -12 -8 -14 -26 -22 -66 -27 -30 -3 -59 -4 -65 0 -16 10 -12 -7 10
-43 11 -18 36 -42 55 -53 43 -26 44 -35 5 -57 -35 -20 -37 -32 -10 -57 11 -10
20 -27 20 -38 0 -18 5 -19 60 -14 l60 5 -21 -34 c-24 -39 -21 -51 9 -35 40 21
55 14 48 -23 l-6 -33 47 8 c41 8 344 39 380 39 12 0 6 -37 -9 -57 -13 -16 25
-39 87 -53 103 -22 104 -25 43 -87 -36 -37 -40 -44 -28 -59 12 -13 25 -15 70
-10 48 6 61 3 82 -13 l26 -21 78 32 c83 33 114 54 118 82 1 9 5 16 9 16 4 0
11 0 15 0 5 0 14 -11 20 -25 l11 -25 36 25 c41 27 51 31 118 40 54 7 59 20 26
65 -21 27 -21 30 -5 54 9 14 24 30 33 35 10 5 29 30 43 55 13 25 27 46 30 46
16 0 62 -56 67 -81 11 -56 45 -22 41 41 l-3 43 60 22 c55 21 62 22 83 8 29
-18 34 -13 47 40 8 31 16 42 30 42 19 0 20 -7 20 -100 -1 -55 -3 -147 -5 -205
-3 -66 1 -129 9 -170 11 -53 12 -147 3 -528 -8 -322 -8 -489 -1 -550 9 -76 8
-94 -6 -128 -30 -69 -35 -95 -36 -201 -2 -93 -4 -105 -23 -118 l-20 -15 22 0
c12 0 40 -11 62 -25 22 -14 50 -25 62 -25 13 0 55 -6 94 -14 84 -16 373 -4
439 18 22 8 73 17 114 21 41 4 97 15 124 24 l50 17 -42 13 -42 12 21 26 c35
45 25 68 -29 65 -12 0 -13 39 -8 256 4 174 1 312 -8 427 -11 144 -11 173 1
190 8 11 14 30 14 43 0 13 7 48 15 77 14 46 15 85 6 287 -14 302 -29 577 -37
656 -4 34 -3 62 0 62 13 0 55 -104 59 -145 2 -22 7 -47 10 -55 4 -8 8 -35 9
-60 2 -36 7 -45 23 -48 49 -7 63 -25 101 -121 20 -53 40 -100 44 -104 11 -12
64 17 93 52 23 28 26 29 40 13 8 -9 24 -35 35 -57 24 -47 56 -80 71 -70 6 3
11 32 11 63 0 70 9 85 46 80 26 -3 29 -8 40 -61 6 -32 27 -94 45 -138 38 -88
57 -99 99 -54 26 28 40 32 40 12 0 -8 16 -30 35 -50 l36 -37 9 26 c6 14 14 23
19 20 5 -4 30 -39 56 -79 53 -81 117 -152 156 -172 33 -18 39 -12 39 36 0 38
1 38 27 28 14 -5 44 -26 66 -45 21 -20 42 -33 45 -29 4 4 9 38 12 76 l5 69 49
-40 c36 -30 57 -40 83 -40 l36 0 -7 55 c-3 30 -3 55 0 55 4 0 21 -11 38 -24
39 -30 111 -66 130 -66 22 0 4 44 -44 108 -22 29 -40 55 -40 58 0 11 125 -7
132 -19 6 -9 8 -8 8 1 0 7 11 28 24 45 13 18 27 42 31 55 9 30 38 44 88 41 42
-3 42 -3 40 30 l-1 34 74 -6 c40 -4 94 -4 119 0 l45 6 -69 23 c-38 13 -100 31
-137 40 l-68 17 34 12 c18 6 36 17 38 23 2 7 -19 26 -47 43 l-51 32 28 17 c15
10 40 32 56 51 l28 33 -22 8 -23 8 22 19 c33 29 9 34 -56 12 -102 -34 -288
-71 -358 -71 -87 0 -208 35 -364 107 -24 11 -36 12 -44 4 -15 -15 -40 -14 -34
2 8 20 1 27 -93 92 -214 147 -371 277 -446 366 -41 50 -74 92 -74 95 0 2 22
-7 49 -20 26 -14 57 -23 67 -20 14 3 50 -24 129 -98 184 -172 232 -203 285
-188 29 8 35 6 68 -29 l37 -38 150 -5 c128 -5 159 -3 210 13 66 21 130 25 140
9 13 -22 25 -8 25 29 0 40 16 56 45 45 20 -8 19 15 -1 44 -21 31 -12 38 32 24
31 -9 38 -8 55 9 10 10 19 25 19 33 0 7 10 25 21 40 21 26 21 28 3 41 -11 8
-25 15 -31 15 -25 0 -12 16 48 55 32 22 80 61 105 86 l46 46 -229 -5 c-257 -5
-433 10 -633 55 -221 49 -508 159 -482 185 8 8 18 9 36 0 32 -14 38 -6 21 28
-12 23 -12 30 -1 39 13 11 19 8 111 -42 42 -23 92 -22 107 3 17 27 25 25 33
-7 22 -92 38 -133 51 -133 9 0 14 11 14 30 0 38 10 38 101 -4 98 -45 129 -52
129 -29 0 9 -8 25 -17 36 -15 17 -16 21 -4 25 8 3 25 15 37 28 19 18 25 20 34
9 6 -8 26 -17 43 -21 18 -4 45 -22 63 -42 l30 -35 22 37 c22 37 24 38 67 31
l45 -6 0 36 c0 45 16 52 75 32 40 -14 62 -9 35 8 -5 3 -10 12 -10 19 0 11 9
11 51 -1 28 -8 62 -12 77 -8 l27 7 -30 16 -30 16 65 12 c107 21 120 25 140 54
l19 27 -25 13 c-32 18 -14 30 44 30 45 0 86 15 78 29 -6 9 67 71 83 71 23 0
10 19 -20 29 -20 7 -37 7 -49 1 -19 -10 -77 -3 -85 10 -6 10 79 64 125 79 19
7 64 27 100 46 l65 34 -90 -7 c-49 -4 -211 -7 -360 -6 -220 1 -296 5 -412 22
-246 37 -475 95 -703 178 -145 54 -422 195 -550 282 l-115 78 0 205 c0 242 8
322 33 315 123 -32 134 -39 82 -51 -16 -4 -30 -11 -30 -17 0 -26 134 -270 161
-293 55 -46 103 -45 159 2 31 25 32 26 66 10 40 -19 104 -23 104 -6 0 7 -38
52 -85 100 -91 94 -111 133 -54 103 30 -15 32 -15 25 2 -13 33 -19 84 -10 84
16 0 61 -34 89 -68 15 -18 41 -40 57 -48 25 -13 32 -13 58 0 l29 14 32 -89
c30 -85 33 -89 50 -73 27 24 57 12 138 -56 71 -59 98 -74 88 -46 -28 71 -30
97 -13 132 l16 36 32 -19 c17 -10 61 -60 96 -112 54 -77 67 -90 75 -76 5 9 7
30 5 47 -5 31 -1 32 45 13 14 -6 17 -2 17 19 0 25 2 26 61 26 l62 0 -25 32
c-13 17 -59 52 -101 77 -66 40 -75 48 -61 58 20 15 97 27 124 20 26 -7 26 13
0 46 -11 14 -20 27 -20 29 0 1 48 3 108 3 102 0 188 17 177 34 -2 4 -69 27
-147 51 -79 24 -150 48 -158 55 -8 7 -41 27 -72 45 -32 17 -58 36 -58 41 0 14
13 11 83 -21 48 -22 82 -30 122 -30 59 0 64 4 38 32 -23 26 -6 40 56 46 56 5
62 16 35 57 -22 33 -11 45 41 45 24 0 55 4 69 10 l26 10 -37 35 c-32 29 -35
36 -23 45 8 5 33 10 55 10 53 0 87 10 82 24 -2 6 -31 21 -65 34 -34 13 -62 27
-62 32 0 4 16 11 36 14 45 9 74 38 74 76 0 17 7 47 15 66 l15 36 -51 -7 c-66
-9 -58 5 18 33 32 12 67 28 78 36 18 14 14 15 -57 16 l-76 0 30 31 c23 23 28
33 19 42 -9 9 -16 9 -31 -1 -31 -19 -319 -109 -390 -122 -36 -6 -112 -22 -170
-35 -399 -93 -460 -100 -595 -65 -43 11 -92 20 -110 20 -21 0 -40 9 -59 29
-19 20 -42 31 -73 36 -25 4 -53 11 -62 16 -9 5 -54 18 -101 28 -64 15 -79 21
-62 26 30 10 28 25 -3 25 l-25 0 0 110 0 110 38 1 c20 0 46 4 57 8 23 9 49
-19 60 -62 9 -34 19 -34 62 -1 23 17 38 22 48 16 14 -7 14 -10 -2 -24 -10 -8
-36 -21 -57 -28 -28 -9 -35 -15 -25 -20 18 -10 164 -50 207 -57 22 -4 36 -13
42 -27 4 -12 15 -28 25 -36 14 -12 19 -10 39 15 l24 29 38 -33 c37 -33 38 -34
112 -27 51 4 79 2 89 -6 11 -9 22 -4 52 26 l39 38 47 -36 c50 -39 73 -38 95 4
7 13 21 20 40 20 30 0 60 22 60 45 0 8 31 20 83 32 l82 19 -50 26 -49 26 44 7
c92 15 86 23 -28 40 l-44 7 22 23 c11 12 23 39 27 59 3 20 10 36 16 36 18 0
-17 33 -50 47 -18 7 -65 13 -105 13 -232 0 -473 80 -675 224 -107 76 -252 216
-327 318 l-57 77 -10 138 c-5 76 -14 176 -19 223 -12 104 -12 109 0 90 8 -13
11 -11 16 7 10 36 21 18 28 -46 4 -37 15 -69 28 -86 28 -36 39 -16 27 50 -9
45 -7 52 12 67 11 10 25 15 30 13 5 -3 21 -32 35 -64 26 -57 28 -59 55 -49 37
13 65 -3 84 -47 13 -34 37 -46 50 -25 3 5 19 7 34 4 25 -5 30 -2 40 27 l12 33
18 -30 c22 -37 71 -79 122 -104 48 -25 59 -25 59 -2 0 11 12 35 28 55 21 30
33 37 57 35 40 -2 92 10 137 33 41 21 83 25 93 9 12 -20 85 -50 119 -50 25 0
38 6 46 19 19 37 41 51 81 51 l39 0 -4 48 -4 49 54 -5 c52 -4 54 -4 54 21 0
14 -4 29 -10 32 -5 3 -10 15 -10 26 0 19 5 19 75 13 64 -6 75 -5 75 9 0 22
-46 55 -86 63 -45 8 -43 18 7 34 61 20 89 46 89 81 0 25 -6 33 -35 45 -19 7
-43 14 -54 14 -11 0 -23 9 -26 21 -8 24 18 56 82 100 24 17 48 39 54 51 10 19
9 20 -22 14 -19 -3 -59 -8 -89 -11 l-55 -6 28 21 c55 44 33 49 -80 18 -58 -16
-112 -27 -119 -24 -6 2 -21 -2 -32 -9 -31 -22 -254 -63 -402 -75 -148 -11
-291 -2 -375 25 -27 8 -77 20 -112 25 -35 6 -89 22 -121 36 -76 33 -182 105
-182 124 0 8 -3 26 -7 40 -6 21 -4 23 9 13 12 -11 18 -4 37 43 13 30 26 53 30
51 3 -2 25 -12 48 -23 28 -12 43 -25 43 -38 0 -15 6 -17 32 -14 18 3 60 -3 94
-12 33 -10 94 -23 135 -29 41 -7 87 -15 103 -18 l29 -5 -7 42 -6 41 35 -27 35
-27 41 47 c66 75 98 82 118 25 7 -19 17 -29 30 -29 28 0 26 14 -9 65 -16 24
-30 48 -30 54 0 20 22 11 48 -19 29 -33 57 -40 48 -12 -5 13 3 20 31 29 46 14
53 11 83 -37 13 -22 31 -42 38 -45 18 -6 39 10 47 36 4 13 16 19 35 19 22 0
33 8 49 36 17 28 26 35 43 31 29 -8 52 6 78 48 18 29 26 34 46 29 18 -5 29 0
44 19 13 16 38 29 70 37 41 10 50 16 50 34 0 33 26 64 61 71 35 8 47 28 29 50
-7 8 -9 22 -6 31 5 13 1 14 -26 9 -27 -6 -30 -5 -24 10 4 13 2 16 -9 11 -8 -3
-15 -2 -15 3 0 5 12 12 27 16 49 12 163 59 163 67 0 13 -49 9 -73 -6 -12 -7
-41 -16 -64 -20 -35 -5 -43 -3 -43 9 0 12 -4 14 -19 5 -23 -12 -71 -13 -89 -1
-9 5 2 13 35 26 146 55 293 150 201 130 -18 -4 -138 -43 -268 -85 -269 -90
-384 -117 -548 -130 -65 -5 -156 -14 -204 -20 -93 -12 -147 -7 -348 30 -153
28 -201 44 -242 84 l-35 34 -6 128 c-12 232 -9 413 9 489 16 70 18 71 67 98
55 29 70 25 81 -18 5 -21 13 -25 42 -25 27 0 42 8 64 31 22 25 34 30 53 25 30
-7 43 6 52 57 7 36 8 37 51 37 35 0 47 5 60 25 8 13 13 29 9 35 -6 10 0 14 48
24 20 5 27 3 27 -9 0 -19 14 -19 30 0 7 8 30 20 51 26 39 12 74 38 81 60 3 8
9 9 23 2 26 -14 165 -23 165 -11 0 5 -7 11 -15 14 -30 12 -14 39 38 65 29 14
80 41 115 59 59 32 62 36 57 62 -5 22 -3 28 9 28 15 0 15 2 0 25 -18 27 -12
45 16 45 10 0 23 6 27 13 4 7 29 28 56 46 68 46 63 62 -18 54 -37 -3 -65 -2
-65 3 0 22 32 51 69 64 22 7 61 30 86 51 26 22 51 39 56 39 5 0 9 5 9 10 0 7
-6 7 -17 1 -32 -16 -176 -62 -262 -82 -133 -32 -284 -49 -442 -49 -142 0 -150
1 -241 34 -52 19 -123 39 -159 46 -35 6 -74 13 -85 16 -36 7 -144 94 -144 115
0 36 -39 98 -61 99 -3 0 -10 -24 -16 -52 -7 -43 -10 -4 -17 204 -5 176 -4 262
3 275 10 17 10 17 11 0 0 -10 5 -15 10 -12 6 3 10 22 10 41 0 24 5 34 15 34
10 0 15 -10 15 -28 0 -16 8 -51 17 -78 15 -44 17 -46 23 -24 10 41 51 34 73
-12 23 -51 37 -48 37 8 0 41 2 45 23 42 16 -2 29 -19 48 -58 l26 -55 22 43
c12 23 25 42 29 42 4 0 20 -13 35 -30 16 -16 35 -30 43 -30 18 0 17 30 -1 54
-8 11 -15 33 -15 49 0 29 1 29 18 14 26 -24 42 -21 42 7 0 68 25 72 68 11 31
-44 75 -75 88 -62 4 4 -1 33 -10 65 -20 73 -21 68 12 67 36 0 41 34 12 75 -12
16 -17 30 -11 30 12 0 41 -28 41 -40 0 -12 40 -33 47 -26 4 3 9 23 12 43 5 28
12 38 24 37 21 -2 23 29 2 46 -8 7 -15 22 -15 33 0 16 3 18 12 9 21 -21 47
-13 63 17 8 17 23 36 33 43 32 23 35 38 10 58 -13 11 -39 23 -58 27 l-35 7 40
6 c31 4 41 10 49 31 13 37 0 79 -24 79 -11 0 -20 -5 -20 -11 0 -8 -5 -8 -15 1
-8 7 -21 10 -29 7 -10 -4 -9 4 5 33 11 22 19 48 19 60 0 11 5 20 10 20 6 0 10
8 10 17 0 13 -6 11 -28 -10 -16 -15 -39 -27 -54 -27 -15 0 -64 -9 -110 -20
-116 -28 -122 -27 -114 12 8 39 23 58 47 58 24 0 24 5 -2 42 l-22 30 23 49
c13 27 24 61 25 76 2 16 6 38 10 50 12 38 -18 37 -107 -3 -66 -30 -100 -39
-168 -44 -47 -4 -98 -12 -114 -19 -20 -8 -38 -8 -65 -1 -20 6 -60 15 -90 20
-30 5 -57 13 -60 17 -3 5 -26 15 -50 23 -46 15 -72 43 -30 33 18 -5 20 -3 15
15 -5 15 1 32 21 56 25 32 30 34 48 22 11 -7 40 -24 65 -39 l45 -26 47 29 c25
16 61 33 80 39 21 6 26 10 13 10 -30 2 -188 50 -198 60 -15 15 16 39 53 43 28
2 34 8 37 31 3 24 0 28 -28 34 -28 5 -30 8 -15 18 14 11 9 13 -31 19 -33 4
-62 17 -92 41 -39 31 -94 55 -128 55 -7 0 -13 9 -13 19 0 16 10 20 60 25 33 3
87 9 120 12 66 7 78 16 87 67 4 26 -2 50 -22 94 -46 99 -115 256 -115 262 0 3
20 -28 44 -69 24 -41 53 -83 64 -93 20 -19 21 -18 27 20 8 51 11 65 20 86 6
14 -6 31 -51 72 l-59 55 48 -16 c46 -15 97 -13 97 5 0 18 -98 158 -122 173
-15 10 -47 22 -72 29 l-45 11 -77 144 c-42 79 -80 144 -84 144 -4 0 -13 -12
-19 -27z m-63 -1410 c-3 -14 -15 -18 -62 -20 -36 -2 -66 -9 -76 -18 -12 -11
-19 -12 -28 -3 -36 36 1 57 96 58 65 0 73 -2 70 -17z m59 -8 c-4 -8 -14 -15
-23 -15 -16 0 -16 2 1 20 20 22 31 20 22 -5z m-111 -131 l25 -17 -41 -18 c-45
-20 -53 -39 -15 -39 15 0 24 -5 23 -12 -2 -9 9 -12 37 -10 l40 2 -45 -24 c-70
-39 -177 -31 -124 9 32 23 11 25 -36 4 -50 -23 -62 -20 -122 29 l-37 29 62 16
c42 10 68 12 80 5 24 -13 72 -6 72 10 0 14 23 32 43 32 7 0 24 -7 38 -16z
m114 -9 c0 -15 -6 -25 -14 -25 -22 0 -30 19 -16 35 18 22 30 18 30 -10z m0
-100 c0 -18 -5 -25 -20 -25 -20 0 -20 1 -4 25 9 14 18 25 20 25 2 0 4 -11 4
-25z m410 -455 c0 -6 -31 -10 -75 -10 l-75 0 0 88 1 87 74 -77 c41 -43 75 -82
75 -88z m-410 30 c0 -5 -2 -10 -4 -10 -3 0 -8 5 -11 10 -3 6 -1 10 4 10 6 0
11 -4 11 -10z m-1234 -1622 c40 -29 55 -48 37 -48 -11 1 -100 79 -90 80 5 0
29 -14 53 -32z m178 -73 c-7 -16 -49 -21 -59 -6 -3 5 7 12 22 14 16 2 31 5 35
6 4 0 5 -6 2 -14z m-184 -364 c0 -12 -20 -25 -27 -18 -7 7 6 27 18 27 5 0 9
-4 9 -9z m3080 -731 c-24 -15 -37 -11 -16 5 11 8 22 12 25 9 3 -3 -1 -9 -9
-14z m-3270 -162 c0 -13 -23 -5 -28 10 -2 7 2 10 12 6 9 -3 16 -11 16 -16z
m934 -1220 c-13 -23 -37 -48 -46 -48 -18 0 -7 41 15 50 31 12 39 12 31 -2z
m1039 -818 l32 -1 -33 -29 c-44 -41 -62 -39 -62 6 0 29 3 35 16 30 9 -3 30 -6
47 -6z m-1117 -782 c-10 -6 -20 -7 -24 -3 -9 8 20 25 31 18 5 -3 2 -10 -7 -15z
m2899 -1468 c-3 -5 -10 -10 -16 -10 -5 0 -9 5 -9 10 0 6 7 10 16 10 8 0 12 -4
9 -10z m-1798 -3142 c-3 -7 -5 -2 -5 12 0 14 2 19 5 13 2 -7 2 -19 0 -25z"/>
<path d="M2377 9532 c-15 -15 -27 -32 -27 -36 0 -12 63 5 83 22 17 16 17 17 1
29 -24 18 -26 17 -57 -15z"/>
</g>
</svg>
