<?xml version="1.0" standalone="no"?>
<!DOCTYPE svg PUBLIC "-//W3C//DTD SVG 20010904//EN"
 "http://www.w3.org/TR/2001/REC-SVG-20010904/DTD/svg10.dtd">
<svg version="1.0" xmlns="http://www.w3.org/2000/svg"
 width="1280.000000pt" height="640.000000pt" viewBox="0 0 1280.000000 640.000000"
 preserveAspectRatio="xMidYMid meet">
<metadata>
Created by potrace 1.15, written by Peter Selinger 2001-2017
</metadata>
<g transform="translate(0.000000,640.000000) scale(0.100000,-0.100000)"
fill="#000000" stroke="none">
<path d="M2242 6254 c2 -51 7 -79 16 -82 8 -2 12 7 12 27 0 16 4 32 8 35 12 7
311 -165 972 -561 535 -320 770 -457 1014 -589 85 -47 91 -51 107 -98 13 -39
23 -52 50 -63 61 -26 207 -61 304 -74 52 -6 95 -12 95 -14 0 -1 -5 -16 -11
-34 -13 -36 -62 -68 -153 -100 -32 -11 -68 -28 -79 -38 -15 -13 -21 -15 -24
-5 -3 7 -24 12 -58 12 l-54 0 -103 -103 c-65 -64 -145 -131 -216 -179 -106
-71 -112 -77 -92 -88 21 -11 20 -14 -36 -63 -62 -55 -213 -193 -510 -467 -396
-365 -649 -567 -912 -724 l-62 -38 -31 26 c-18 15 -43 26 -60 26 -36 0 -37 10
-3 39 33 29 27 43 -27 56 -51 13 -78 27 -131 65 l-38 28 73 34 c39 19 131 71
202 115 72 44 146 88 165 98 34 18 35 18 20 -1 -27 -33 -53 -53 -145 -106
-129 -75 -203 -148 -149 -148 8 0 42 -25 74 -56 62 -59 132 -94 138 -69 6 26
-17 52 -76 83 -63 34 -76 45 -86 77 -5 17 11 29 112 84 269 148 476 282 572
370 l45 41 -77 -45 c-96 -55 -158 -87 -158 -81 0 10 136 115 225 173 50 33
155 97 235 143 263 150 450 265 450 277 0 7 -248 -124 -410 -217 -80 -46 -312
-186 -516 -311 -204 -125 -435 -265 -513 -310 l-142 -82 -39 38 c-28 27 -48
38 -70 38 -34 0 -34 1 -19 28 16 30 2 56 -47 89 -47 33 -54 53 -28 81 15 17
13 18 -23 24 -63 11 -112 25 -117 34 -3 4 8 20 24 35 32 28 40 66 15 66 -8 0
-15 -4 -15 -8 0 -11 -46 -32 -69 -32 -10 0 -24 6 -30 13 -14 18 48 93 84 99
60 12 134 -66 239 -248 50 -87 135 -187 143 -167 7 19 -42 108 -108 195 -62
84 -87 131 -96 187 -5 30 -13 36 -72 63 -84 37 -125 69 -141 107 -10 25 -19
31 -44 32 -17 0 -55 8 -84 17 l-52 17 20 41 c12 23 50 76 86 118 l65 76 -46 0
c-26 0 -71 -11 -105 -25 -33 -14 -62 -25 -65 -25 -11 0 -4 62 10 97 23 55 20
73 -14 73 -40 0 -78 -34 -108 -97 -32 -67 -64 -93 -115 -93 -33 0 -41 4 -56
32 -26 47 -49 68 -77 68 -36 0 -32 -24 16 -99 22 -35 42 -76 45 -91 6 -27 5
-27 -73 -39 -146 -24 -288 -107 -382 -225 -45 -56 -56 -64 -138 -95 -48 -19
-134 -55 -190 -81 l-101 -48 18 -71 c34 -128 60 -157 147 -168 l52 -6 -19 -48
c-19 -47 -19 -48 1 -73 26 -33 64 -34 129 -1 56 28 88 32 96 10 3 -8 -16 -61
-43 -117 -57 -122 -63 -179 -23 -242 36 -60 88 -77 255 -88 144 -8 197 -19
228 -46 25 -22 30 -9 13 32 -16 39 -43 55 -137 80 -30 9 -64 25 -74 36 -17 19
-19 19 -31 2 -9 -13 -27 -17 -68 -17 -54 0 -68 6 -45 21 18 11 40 74 34 95 -9
28 -34 23 -71 -12 -18 -17 -37 -28 -43 -25 -25 16 -3 158 30 201 22 27 39 33
39 12 0 -18 34 -47 106 -90 33 -20 69 -46 79 -57 19 -21 19 -23 2 -52 -17 -30
-17 -30 5 -23 58 17 66 17 72 -2 11 -34 59 -89 138 -157 47 -41 84 -82 97
-109 31 -63 26 -76 -14 -37 -25 24 -38 31 -46 23 -7 -7 8 -36 51 -99 34 -49
71 -99 82 -111 l20 -22 -54 -53 c-30 -29 -67 -72 -82 -95 -23 -34 -35 -43 -69
-48 -23 -4 -91 -18 -151 -32 -134 -30 -229 -33 -276 -10 -18 10 -34 16 -35 15
0 -2 -6 -15 -13 -31 -14 -33 -47 -47 -111 -47 -61 0 -83 -20 -55 -51 40 -44
155 -87 334 -125 253 -53 234 -50 221 -26 -16 30 -26 34 -108 42 -119 12 -104
25 25 22 236 -5 351 -28 391 -76 12 -14 9 -16 -20 -16 -19 0 -52 5 -73 11 -35
10 -42 9 -53 -8 -13 -17 -10 -19 39 -26 129 -18 192 -72 224 -190 25 -93 26
-91 -82 -126 -53 -17 -172 -67 -264 -111 -171 -81 -282 -122 -379 -140 -30 -6
-55 -11 -57 -13 -1 -1 -50 -92 -109 -202 -117 -218 -212 -369 -272 -435 l-38
-43 -160 9 c-242 13 -302 12 -322 -8 -32 -33 22 -42 225 -40 170 2 262 -7 262
-26 0 -5 -43 -48 -95 -96 -89 -82 -135 -144 -135 -181 0 -13 18 -15 114 -15
l114 0 35 63 c48 84 118 151 202 193 99 49 192 65 367 66 l148 0 57 -49 c127
-109 181 -136 290 -148 59 -7 62 -6 79 20 17 26 17 28 -10 81 -43 85 -48 83
230 89 l241 5 44 -72 c56 -93 116 -128 215 -128 54 0 75 -6 141 -39 102 -51
191 -74 270 -69 78 5 89 14 73 62 -31 94 -104 138 -237 144 -75 4 -95 8 -110
24 -14 16 -15 24 -5 50 15 42 9 49 -42 42 -102 -14 -230 59 -330 189 -31 40
-56 78 -56 84 0 21 118 119 186 155 38 20 137 64 219 96 246 98 302 128 377
199 l36 35 99 -4 c81 -4 112 -11 180 -38 l83 -33 42 19 c26 12 61 42 95 83 52
64 54 65 97 62 24 -1 92 9 151 23 171 42 176 41 281 -55 49 -45 112 -97 140
-116 60 -40 175 -82 224 -83 72 -1 77 -5 89 -86 6 -41 11 -110 11 -153 l0 -78
-117 -71 c-136 -81 -200 -134 -240 -198 l-28 -46 -110 6 c-364 21 -478 26
-640 26 -99 0 -243 -5 -320 -11 -135 -10 -323 -34 -331 -42 -2 -2 85 -7 193
-10 510 -18 737 -19 946 -8 121 7 221 11 223 8 2 -2 -19 -32 -46 -68 -49 -62
-76 -123 -82 -184 l-3 -30 75 2 c49 1 95 9 132 23 l58 21 -6 58 c-5 44 -2 67
11 95 31 65 54 71 275 71 182 0 198 1 237 22 l43 23 79 -74 c114 -107 163
-127 212 -87 21 16 21 21 10 49 -20 49 -11 75 29 84 52 11 147 -8 215 -42 34
-17 101 -67 155 -116 96 -88 177 -136 252 -149 34 -6 38 -5 44 19 3 14 1 40
-5 57 -6 18 -11 45 -11 60 0 24 -7 31 -44 48 -211 93 -296 406 -200 738 13 46
22 89 18 94 -14 24 -97 52 -227 78 -78 15 -161 38 -184 49 -37 20 -89 70 -80
79 11 11 261 2 324 -11 143 -31 199 -55 526 -231 l87 -47 0 28 c0 18 -11 36
-36 58 -86 75 -94 84 -94 115 0 16 4 32 10 36 5 3 50 -10 100 -30 49 -19 131
-51 182 -71 109 -43 205 -53 286 -31 l52 14 0 -81 c0 -180 39 -373 108 -539
l40 -96 -56 -7 c-32 -4 -201 -2 -377 4 -309 10 -536 4 -572 -17 -47 -26 733
-44 927 -21 123 14 128 14 144 -18 21 -41 75 -91 126 -117 57 -29 112 -46 285
-90 143 -37 238 -75 288 -117 l28 -23 -1928 1 c-1432 0 -2140 5 -2753 17 -454
9 -1233 20 -1732 24 l-908 6 0 -77 0 -77 258 8 c415 13 2618 9 3782 -7 1361
-19 4057 -20 4640 -2 228 7 591 20 805 28 215 8 728 18 1140 21 856 6 1416 -6
1663 -38 84 -10 172 -16 195 -13 84 13 115 59 58 88 -23 13 -128 16 -642 20
-592 6 -992 18 -1149 36 -51 6 -8 7 136 4 138 -4 238 -2 292 6 116 17 108 28
-33 46 -27 3 -123 -2 -211 -11 -125 -13 -175 -14 -219 -6 -32 6 -59 12 -61 14
-1 1 39 52 89 112 51 61 99 120 107 133 l15 23 155 -11 c85 -6 405 -13 710
-16 305 -3 602 -6 660 -7 120 -2 160 12 160 58 0 21 -4 24 -22 20 -117 -27
-530 -32 -1023 -11 -181 8 -377 12 -435 9 -83 -4 -113 -2 -144 11 -23 9 -36
21 -33 28 40 99 76 201 82 234 6 40 8 42 50 48 85 13 131 62 184 194 17 42 43
101 59 130 l27 54 122 5 c81 3 135 1 159 -7 32 -11 35 -15 29 -39 -4 -14 -9
-134 -12 -267 l-5 -241 37 6 c21 3 81 3 134 0 250 -17 300 -9 342 58 l20 32
-25 7 c-13 3 -85 1 -158 -4 -174 -14 -262 1 -254 42 3 11 10 91 17 176 9 122
9 173 0 241 l-13 87 -156 3 c-137 4 -162 7 -192 25 -32 19 -35 24 -33 65 1 24
5 155 9 291 l7 247 31 7 c54 13 129 6 213 -20 119 -36 166 -41 183 -22 13 17
8 36 -22 78 -21 30 -3 29 63 -2 72 -34 106 -37 150 -14 24 12 30 21 27 42 -3
23 -11 30 -57 44 -97 31 -101 48 -38 158 68 120 119 184 310 394 l79 85 -23
33 c-13 18 -83 95 -157 171 -73 76 -140 154 -148 172 -8 19 -14 55 -14 80 0
26 -17 99 -39 168 -59 182 -58 181 -19 216 29 26 38 29 78 24 28 -3 59 -16 83
-35 76 -59 129 -56 174 10 56 82 61 71 -84 161 -29 18 -55 41 -58 52 -15 48
116 205 242 289 40 27 128 77 197 112 l126 63 0 50 c0 57 28 123 88 212 56 83
82 137 88 187 11 80 2 83 -71 25 -118 -92 -159 -165 -154 -273 l3 -54 -136
-70 c-183 -94 -234 -112 -317 -112 -68 0 -147 23 -137 39 3 5 51 21 106 36
l100 27 0 40 c0 22 -11 61 -26 90 -17 33 -24 60 -21 77 13 63 13 64 -16 72
-32 9 -57 27 -57 41 0 5 20 31 45 57 44 47 51 64 39 95 -5 13 -12 12 -50 -10
-45 -26 -45 -26 -197 -19 -148 6 -153 6 -197 -17 -38 -21 -46 -30 -48 -59 -2
-19 1 -58 8 -87 6 -30 9 -56 6 -59 -3 -3 -29 -10 -57 -14 -59 -9 -79 -23 -79
-54 0 -46 57 -63 138 -42 l53 14 23 -28 c61 -72 36 -183 -60 -268 -26 -22 -50
-41 -54 -41 -4 0 -15 10 -26 21 -10 12 -62 52 -116 90 -114 82 -173 146 -193
213 -17 57 -19 185 -5 331 6 55 7 126 4 158 l-7 58 -336 -7 c-185 -4 -358 -4
-384 0 l-47 7 0 83 0 82 -47 23 c-154 74 -288 196 -294 266 -5 61 1 77 46 117
25 23 45 44 45 48 0 5 -11 11 -24 14 -36 9 -87 55 -102 93 -8 18 -14 67 -14
112 l0 79 -51 12 c-53 13 -227 9 -263 -5 -17 -8 -18 -16 -13 -99 4 -50 9 -100
12 -112 5 -17 -1 -24 -35 -39 -42 -19 -80 -57 -80 -80 0 -7 13 -18 29 -25 32
-13 51 -52 51 -104 0 -50 19 -104 43 -121 12 -8 17 -15 11 -15 -31 0 -112 -72
-181 -161 l-76 -99 -31 23 c-102 78 -127 212 -86 452 11 64 20 118 20 120 0 2
-24 1 -53 -2 -64 -7 -103 8 -184 71 -90 71 -147 74 -218 13 -46 -39 -75 -49
-101 -34 -14 8 -12 1 9 -26 85 -111 118 -260 82 -367 -22 -67 -82 -128 -153
-157 -49 -21 -53 -21 -58 -5 -20 62 -57 109 -134 165 -30 22 -72 56 -92 75
-37 35 -37 35 -20 65 23 39 59 56 138 66 80 9 98 23 56 45 -16 8 -44 27 -61
42 l-32 26 49 49 c27 26 60 70 75 97 l27 50 -78 50 c-83 55 -120 72 -156 72
-24 0 -76 -45 -122 -106 -15 -20 -43 -46 -62 -59 l-34 -23 -35 24 c-41 27 -65
30 -82 10 -9 -11 -5 -15 24 -20 22 -4 41 -17 52 -32 15 -24 15 -27 -4 -52 -11
-15 -38 -33 -60 -41 l-41 -15 -4 -100 c-9 -171 -73 -286 -189 -335 -44 -19
-52 -20 -70 -7 -27 18 -66 76 -74 109 -7 25 -6 25 69 29 86 4 129 27 134 72 4
28 -13 56 -92 151 -79 96 -98 165 -52 186 18 9 46 7 115 -5 51 -10 102 -14
114 -10 20 6 18 9 -20 25 -36 15 -168 50 -286 76 -35 7 -40 13 -66 75 -16 36
-31 78 -35 92 -6 23 -12 26 -46 26 -55 0 -129 -30 -220 -90 l-79 -52 40 -81
c46 -96 50 -139 14 -191 -14 -20 -25 -39 -25 -42 0 -2 25 -1 55 2 38 5 59 3
70 -6 14 -11 11 -15 -23 -30 -50 -23 -82 -62 -138 -171 -44 -86 -92 -149 -111
-149 -6 0 -15 11 -21 25 -23 49 -106 126 -226 208 -66 45 -125 85 -130 89 -6
4 -4 21 7 45 9 21 24 74 33 118 9 44 22 92 30 106 12 25 12 26 -32 37 -30 8
-64 30 -104 67 -67 62 -93 75 -149 75 -30 0 -40 -5 -52 -26 -7 -15 -54 -61
-104 -102 -88 -74 -114 -100 -115 -114 0 -3 15 -11 34 -18 71 -23 149 -116
169 -201 6 -23 1 -30 -34 -55 -92 -63 -200 -213 -249 -345 l-22 -59 -52 43
c-148 122 -187 184 -194 309 l-5 78 28 0 c23 0 49 14 104 56 2 2 -2 16 -8 32
-8 19 -27 36 -53 48 -64 29 -65 32 -54 117 14 117 -7 137 -151 137 -77 0 -130
-20 -138 -52 -3 -13 -6 -54 -7 -93 l-3 -70 -45 -5 c-72 -9 -74 -14 -37 -78 31
-55 32 -62 36 -185 3 -144 6 -148 86 -163 22 -3 48 -11 58 -16 18 -9 18 -10 1
-29 -31 -35 -135 -99 -160 -99 -16 0 -56 34 -138 118 -109 110 -116 120 -116
157 0 41 -26 93 -95 188 -34 48 -52 104 -42 131 4 9 24 24 46 36 45 22 76 62
68 85 -11 28 -56 29 -121 2 -70 -29 -73 -28 -115 47 -17 28 -41 62 -55 75
l-25 23 -78 -26 c-84 -28 -144 -70 -168 -116 -14 -26 -13 -33 10 -82 31 -66
33 -133 5 -168 -26 -33 -25 -40 8 -40 65 -1 134 -53 186 -141 19 -32 19 -32 0
-24 -10 4 -44 10 -75 13 -53 4 -63 1 -144 -43 -71 -39 -96 -48 -141 -49 -48
-1 -54 -3 -54 -22 0 -25 37 -44 86 -44 19 0 44 -5 56 -11 20 -11 20 -11 -2
-31 -12 -11 -19 -26 -16 -33 3 -8 8 -29 11 -48 6 -33 5 -35 -37 -56 -60 -29
-88 -27 -218 14 -115 36 -169 42 -215 25 -23 -9 -41 1 -179 94 -197 132 -384
245 -841 503 -468 265 -599 346 -755 462 -121 91 -250 163 -318 176 l-33 7 3
-78z m4216 -1296 c-5 -32 -48 -33 -48 -1 0 18 5 23 26 23 20 0 25 -4 22 -22z
m382 -4 c0 -3 -15 -11 -32 -18 -25 -10 -49 -11 -96 -5 -35 5 -68 6 -73 3 -5
-3 -9 -1 -9 5 0 5 6 12 13 14 17 7 197 8 197 1z m190 -3 c0 -6 -4 -13 -10 -16
-14 -9 -110 6 -104 16 7 12 114 11 114 0z m230 5 c0 -9 -111 -27 -130 -21 -39
12 -8 25 61 25 38 0 69 -2 69 -4z m195 -13 c-60 -14 -111 -11 -100 7 3 6 41
10 83 9 l77 -1 -60 -15z m160 1 c-22 -17 -46 -15 -53 4 -2 8 8 12 35 12 36 -1
37 -1 18 -16z m905 -4 c37 0 37 -23 1 -28 -40 -6 -71 7 -71 29 0 16 3 18 19 9
11 -5 34 -10 51 -10z m-450 -9 c60 -6 62 -8 30 -14 -19 -5 -87 -7 -150 -5 -97
3 -111 5 -90 15 27 13 109 14 210 4z m1158 -13 c5 -26 -28 -37 -101 -31 -63 5
-67 7 -67 30 0 23 1 24 82 21 68 -2 83 -6 86 -20z m139 16 c11 -3 23 -14 26
-25 4 -16 0 -19 -34 -19 -31 0 -39 4 -39 18 0 31 10 36 47 26z m553 -5 c0 -17
-78 -41 -153 -46 -123 -8 -341 25 -267 41 14 3 34 7 45 10 30 7 375 2 375 -5z
m1214 1 c-15 -15 -242 -39 -439 -46 -101 -3 -280 -1 -410 5 -229 12 -282 18
-270 30 4 3 257 9 563 12 306 3 559 6 562 7 2 1 0 -2 -6 -8z m-6471 -427 c21
-21 -112 -170 -309 -348 -100 -90 -198 -184 -219 -209 l-38 -46 17 -44 c63
-164 203 -259 423 -286 87 -11 127 -30 178 -85 13 -14 51 -29 110 -43 160 -39
330 -136 480 -274 51 -47 85 -69 125 -82 76 -25 128 -53 255 -137 61 -39 129
-81 153 -91 23 -10 42 -26 42 -34 0 -8 -7 -128 -16 -267 -13 -203 -14 -273 -4
-361 6 -60 12 -113 13 -119 1 -6 -14 -14 -33 -19 -44 -11 -264 -11 -309 0 -30
6 -35 13 -45 53 -26 100 -81 165 -222 260 -44 29 -103 75 -132 103 -50 47 -56
50 -115 53 -87 4 -152 25 -302 95 -167 78 -247 105 -353 119 -131 17 -373 6
-622 -29 -118 -17 -252 -34 -297 -38 l-81 -7 -35 38 c-34 37 -36 37 -93 33
-46 -3 -69 -11 -105 -37 l-47 -33 -51 26 c-28 14 -95 57 -149 95 -53 38 -109
75 -124 82 -16 7 -28 18 -28 25 0 30 75 115 161 182 250 195 320 254 534 453
232 216 505 482 505 493 0 19 -269 -205 -414 -344 -72 -69 -97 -88 -91 -70 13
45 46 84 123 145 85 68 378 333 462 419 30 31 62 56 72 56 26 0 22 -17 -7 -36
-14 -9 -24 -19 -21 -21 12 -12 82 41 190 146 168 163 217 190 342 191 39 0 74
-3 77 -7z m1769 -245 c5 -70 0 -87 -28 -94 -37 -9 -44 3 -44 77 l0 69 34 0
c34 0 34 0 38 -52z m5011 -25 c46 -43 91 -83 101 -88 17 -9 13 -19 -43 -102
-59 -89 -119 -151 -171 -178 l-25 -13 -2 229 -3 229 30 0 c23 0 48 -17 113
-77z m-232 -233 c15 -63 18 -239 6 -353 -14 -128 -28 -78 -25 91 3 172 -1 190
-53 221 l-30 18 36 27 c24 19 35 35 35 54 1 37 14 12 31 -58z m-141 -20 c-19
-13 -30 -13 -30 0 0 6 10 10 23 10 18 0 19 -2 7 -10z m-3394 -217 c-3 -76 -13
-343 -21 -593 -9 -250 -18 -461 -20 -469 -8 -20 -86 -9 -123 18 -35 25 -112
152 -112 185 0 25 20 46 63 64 32 14 32 12 -31 94 -24 31 -47 69 -51 85 -7 28
-8 28 -99 30 -50 1 -101 7 -111 13 -25 13 -34 -2 -50 -81 -8 -36 -21 -65 -36
-79 l-25 -23 38 -32 c34 -31 37 -36 35 -84 -3 -67 -15 -86 -71 -115 -27 -14
-54 -32 -62 -41 -11 -14 -16 -10 -41 32 -16 26 -37 57 -46 68 -15 16 -195 180
-213 193 -12 9 44 41 92 52 114 26 121 53 57 216 -22 57 -45 134 -50 171 -5
37 -11 68 -13 70 -2 2 -37 -4 -77 -13 -97 -22 -152 -28 -194 -20 l-35 7 0 150
c0 106 4 159 14 184 l14 33 479 2 c263 1 519 5 568 9 50 4 99 9 109 10 18 1
19 -5 12 -136z m3434 10 c0 -71 -5 -145 -11 -166 -9 -34 -13 -38 -32 -32 -53
17 -88 16 -142 -4 -66 -25 -81 -26 -119 -6 -62 33 -75 -7 -21 -66 19 -22 35
-48 35 -59 0 -18 -7 -20 -61 -20 -54 0 -60 -2 -54 -17 4 -10 12 -35 17 -55 20
-73 -45 -148 -157 -180 -58 -17 -68 -39 -35 -81 27 -34 103 -57 192 -57 l69 0
-17 -31 c-26 -50 -101 -116 -169 -149 -34 -16 -65 -30 -68 -30 -2 0 -7 31 -9
69 -3 37 -8 73 -12 80 -11 17 -118 14 -142 -4 -19 -15 -19 -15 5 -35 13 -11
29 -20 36 -20 8 0 25 -4 40 -10 22 -8 24 -13 15 -30 -6 -12 -13 -44 -15 -73
l-3 -52 -80 -3 -79 -3 -5 93 c-5 99 -23 149 -58 168 -11 6 -18 14 -16 19 15
24 27 265 27 528 l-1 301 58 6 c31 3 172 13 312 21 237 14 312 18 448 23 l52
2 0 -127z m-9260 98 c0 -17 -31 -41 -51 -41 -32 0 -19 34 16 41 17 4 31 7 33
8 1 0 2 -3 2 -8z m8154 -1 l111 0 0 -343 c-1 -290 -3 -350 -17 -396 -20 -65
-29 -75 -58 -66 -63 20 -65 202 -3 276 l25 29 -24 20 c-14 10 -42 46 -63 78
-43 69 -77 92 -133 92 -44 0 -77 -29 -89 -79 -10 -45 -42 -100 -64 -112 -12
-6 -39 -9 -60 -6 -33 4 -39 2 -39 -13 0 -25 16 -35 83 -54 49 -14 57 -20 51
-34 -11 -22 -11 -126 -1 -174 8 -37 7 -38 -21 -38 -41 0 -107 -25 -164 -61
-39 -25 -48 -37 -48 -59 0 -16 -9 -50 -21 -76 -11 -27 -21 -61 -22 -76 -1 -15
-5 -28 -8 -28 -4 0 -38 33 -77 74 -90 95 -163 153 -213 167 -21 7 -39 17 -39
24 0 29 44 136 66 160 l24 26 -27 23 c-16 13 -50 64 -77 112 -27 49 -62 103
-77 119 l-29 31 -2 159 c-3 179 2 199 54 211 72 16 267 22 552 18 165 -2 349
-4 410 -4z m-1211 -17 l67 -6 -6 -35 c-4 -20 -7 -122 -8 -228 -1 -219 -5 -231
-84 -269 -47 -23 -47 -24 -1 -124 30 -66 39 -144 19 -181 -5 -10 -41 -39 -80
-64 -51 -34 -76 -58 -91 -89 -80 -156 -152 -183 -243 -88 l-28 29 25 38 c13
22 55 77 92 124 81 101 132 203 141 283 7 56 6 57 -19 57 -58 0 -94 -37 -111
-116 -5 -23 -22 -40 -72 -73 -35 -23 -74 -56 -86 -71 -25 -34 -32 -32 -59 22
-33 65 -24 134 35 254 44 91 46 99 30 111 -24 18 -25 17 -73 -17 -53 -39 -101
-50 -101 -25 0 21 -28 55 -45 55 -6 0 -35 -15 -64 -34 l-54 -33 2 -89 c1 -48
-6 -141 -15 -206 l-18 -118 -35 0 c-31 0 -102 28 -123 49 -3 3 5 191 18 416
13 226 23 419 24 429 0 19 11 19 448 12 246 -3 477 -9 515 -13z m-2396 -40
c-3 -10 -5 -4 -5 12 0 17 2 24 5 18 2 -7 2 -21 0 -30z m-3587 -249 c-60 -44
-85 -50 -64 -16 11 19 90 62 112 62 8 0 -14 -21 -48 -46z m495 -59 c-11 -22
-50 -57 -106 -95 -56 -38 -122 -98 -186 -166 -98 -106 -156 -154 -210 -175
-25 -9 -22 -4 22 42 28 28 140 129 250 224 110 95 209 182 219 194 27 30 34
17 11 -24z m7914 -49 c12 -15 12 -156 0 -156 -3 0 -16 12 -30 26 -24 26 -32
87 -17 127 9 21 31 22 47 3z m-9862 -148 c17 -46 49 -126 71 -178 40 -99 77
-224 85 -297 4 -33 2 -43 -9 -43 -32 0 -92 42 -142 99 -29 34 -60 61 -68 61
-8 0 -14 1 -14 3 0 1 19 50 43 108 l43 105 -91 -1 c-52 0 -106 6 -129 14 -75
26 -155 123 -156 189 0 22 0 22 168 22 l167 0 32 -82z m10148 -140 c7 -18 23
-71 36 -117 13 -46 38 -109 57 -140 29 -49 33 -61 27 -101 -12 -86 -68 -227
-173 -435 l-106 -210 -15 35 c-22 51 -26 230 -11 500 13 225 7 397 -16 478 -6
22 -5 22 90 22 l97 0 14 -32z m-10259 -73 c31 -13 34 -17 24 -35 -13 -25 -42
-26 -81 -3 -63 37 -16 69 57 38z m10669 -257 c39 -37 42 -52 20 -126 -18 -61
-56 -108 -114 -140 l-41 -23 0 23 c0 13 16 68 35 123 19 55 35 114 35 131 0
54 15 57 65 12z m-2848 -250 c-16 -39 -57 -53 -57 -19 0 25 26 51 51 51 18 0
18 -2 6 -32z m683 21 c0 -6 -19 -19 -42 -29 -72 -33 -207 -23 -258 18 -20 16
-14 17 140 19 100 1 160 -2 160 -8z m873 -8 c6 -24 0 -31 -25 -31 -13 0 -18 7
-18 25 0 31 35 35 43 6z m252 5 c18 -13 18 -14 -4 -25 -23 -13 -171 -12 -171
1 0 31 139 51 175 24z m340 -2 c-11 -8 -26 -12 -33 -9 -8 3 -27 5 -43 5 -16 0
-29 5 -29 10 0 6 27 10 63 10 57 -1 60 -2 42 -16z m-3484 -22 c1 -4 -11 -14
-27 -22 -66 -33 -570 -4 -548 32 7 11 573 2 575 -10z m217 -4 c-3 -21 -9 -23
-70 -26 -67 -3 -68 -3 -68 23 0 24 2 25 71 25 67 0 70 -1 67 -22z m192 11 c0
-15 -71 -39 -119 -39 -52 0 -65 12 -39 38 13 13 158 14 158 1z m148 -16 c3
-19 -1 -23 -22 -23 -28 0 -76 19 -76 31 0 12 22 18 60 16 28 -2 36 -7 38 -24z
m432 15 c0 -34 -13 -38 -116 -38 -57 0 -104 4 -104 9 0 5 7 17 16 26 13 13 34
15 110 13 52 -2 94 -6 94 -10z m-7130 -63 c0 -20 -5 -25 -25 -25 -20 0 -25 5
-25 25 0 20 5 25 25 25 20 0 25 -5 25 -25z m3486 -269 c86 -201 83 -186 37
-186 -51 1 -115 31 -140 66 -11 16 -27 49 -35 74 -17 51 -32 176 -22 191 3 5
26 9 51 7 l44 -3 65 -149z m-3568 -76 c39 -18 72 -36 72 -40 0 -24 -84 -26
-195 -4 -44 8 -97 13 -118 9 l-38 -5 16 24 c43 65 140 71 263 16z m3652 -203
c0 -24 -5 -48 -12 -55 -20 -20 -62 -13 -111 18 -78 49 -57 79 56 80 l67 0 0
-43z m699 -21 l24 -13 -26 -18 c-36 -23 -90 -34 -168 -35 -94 0 -169 29 -169
67 0 19 304 18 339 -1z m4481 -32 c154 -31 240 -72 320 -153 92 -92 170 -252
212 -435 29 -124 32 -396 5 -504 -41 -171 -95 -267 -199 -354 -197 -166 -444
-258 -692 -258 -340 1 -546 166 -660 528 -117 372 -48 793 165 1002 164 162
534 238 849 174z m-5172 -87 c54 -42 -80 -89 -165 -56 -26 10 -42 25 -43 40 0
11 32 21 90 28 61 7 98 3 118 -12z m644 -18 c20 -5 45 -17 54 -26 15 -16 15
-18 -9 -39 -48 -41 -162 -40 -289 2 -27 9 -48 20 -48 25 0 16 53 43 99 50 52
8 137 3 193 -12z m1862 -154 c146 -30 295 -111 377 -203 58 -66 69 -92 80
-188 9 -84 30 -154 46 -154 4 0 14 -4 21 -9 10 -6 9 -16 -8 -45 -17 -28 -24
-63 -31 -154 -12 -140 -20 -175 -66 -267 -48 -95 -163 -210 -259 -258 -133
-67 -262 -87 -405 -62 -258 44 -445 216 -515 475 -25 89 -25 307 -1 405 35
140 97 236 165 254 33 10 63 4 35 -6 -17 -6 -16 -33 2 -57 8 -11 15 -32 15
-48 0 -23 -4 -28 -24 -28 -13 0 -35 -6 -49 -13 -24 -13 -20 -15 76 -36 149
-34 197 -63 197 -120 0 -26 -28 -28 -71 -6 -16 9 -34 13 -40 9 -18 -11 27 -34
93 -47 l63 -13 -30 -20 c-27 -17 -46 -19 -205 -17 -167 1 -173 1 -140 -15 26
-12 82 -17 222 -21 102 -3 189 -9 193 -12 3 -4 -7 -17 -22 -29 -25 -20 -36
-22 -103 -17 -41 3 -112 11 -156 18 -65 10 -90 10 -123 0 -104 -31 -5 -56 187
-46 118 5 142 4 142 -7 0 -23 -54 -100 -124 -179 -71 -77 -126 -151 -126 -167
0 -16 40 -23 167 -29 86 -4 137 -2 169 7 44 13 48 12 65 -8 9 -12 20 -49 24
-84 9 -78 20 -108 39 -108 25 0 36 35 36 113 0 89 -5 86 150 88 58 1 119 4
135 8 l30 7 -39 13 c-28 10 -69 12 -138 8 -148 -8 -138 -18 -138 134 0 148 -2
146 87 104 32 -14 89 -59 143 -109 78 -75 164 -135 176 -124 2 2 -6 23 -18 47
-13 27 -51 67 -105 112 -89 75 -109 100 -115 139 -3 23 0 25 37 23 144 -9 275
-7 286 4 23 23 -38 33 -200 33 -177 0 -211 9 -171 45 24 21 46 22 287 14 116
-5 144 6 97 38 -25 16 -52 18 -212 19 -100 1 -185 4 -188 7 -15 15 70 40 181
52 68 7 134 19 147 27 22 12 21 13 -24 16 -26 2 -93 -4 -149 -12 -57 -9 -105
-14 -107 -11 -13 13 39 69 86 92 46 22 68 26 148 27 89 1 95 2 92 21 -3 17
-12 20 -60 23 -48 2 -58 6 -58 21 0 10 11 28 25 41 31 29 33 60 5 60 -22 0
-63 -35 -72 -61 -4 -12 -7 -12 -21 -1 -15 13 -15 18 -2 49 22 53 19 68 -24
102 -98 78 -237 110 -326 77 -44 -17 -46 -17 -71 3 -40 32 -79 26 -194 -29
-58 -27 -118 -50 -134 -50 l-29 0 22 24 c40 43 177 105 261 119 61 10 217 6
284 -8z m-2566 -45 c68 -16 133 -30 145 -30 22 -1 22 -1 2 -12 -28 -17 -278
-23 -348 -8 -60 12 -70 26 -39 52 41 36 86 36 240 -2z m745 -83 c15 0 27 -4
27 -8 0 -13 -43 -38 -76 -45 -38 -7 -81 24 -70 51 5 15 13 16 49 10 23 -4 54
-7 70 -8z m2934 -224 c-4 -32 -9 -119 -13 -193 l-7 -135 -241 0 -241 0 -9 56
c-17 109 16 180 99 213 64 26 62 24 43 43 -12 11 -41 17 -95 21 -79 5 -103 13
-103 38 0 12 50 14 286 14 l287 0 -6 -57z m-2233 2 c3 -16 10 -69 16 -116 5
-47 20 -126 33 -175 l22 -89 58 -3 c31 -2 57 1 57 5 0 4 -25 31 -56 58 -52 47
-57 54 -62 103 l-5 52 85 0 85 0 6 -162 c5 -157 16 -225 62 -365 7 -23 7 -23
-102 -23 l-110 0 -45 93 c-49 99 -88 210 -114 322 -18 78 -54 317 -49 325 2 3
28 5 59 5 55 0 56 -1 60 -30z m261 23 c32 -14 32 -41 0 -66 -72 -56 -226 -28
-237 43 -3 18 4 21 57 26 105 10 153 9 180 -3z m2335 2 l25 0 0 -190 0 -190
-107 0 -108 0 0 179 c0 130 3 182 12 187 21 13 82 23 118 18 19 -2 46 -4 60
-4z m-1655 -64 c-8 -37 -40 -96 -54 -96 -4 0 -43 25 -86 56 -56 41 -74 59 -66
67 7 7 53 16 104 22 104 12 112 8 102 -49z m210 41 c21 -8 41 -19 43 -26 2 -6
-14 -29 -36 -51 -33 -33 -46 -40 -79 -40 -39 0 -40 1 -56 51 -28 87 -26 93 36
86 29 -4 71 -13 92 -20z m-5691 -14 c50 -15 93 -28 95 -30 8 -6 -110 -121
-162 -160 -27 -20 -74 -46 -105 -59 -55 -22 -57 -25 -54 -56 9 -92 79 -183
211 -276 l72 -50 -53 -12 c-140 -30 -439 -22 -566 15 -45 14 -54 21 -80 69
-36 64 -67 95 -194 204 -78 65 -98 78 -98 62 0 -45 32 -90 125 -175 70 -64
105 -104 121 -140 33 -69 31 -79 -7 -59 -54 27 -117 94 -186 193 -36 53 -84
115 -106 138 l-40 42 27 41 c57 87 154 125 431 170 99 17 197 35 218 40 20 6
42 8 47 5 6 -4 23 -35 39 -70 30 -66 52 -85 95 -85 40 0 32 29 -19 78 -37 34
-45 49 -45 77 0 19 1 35 3 35 1 0 20 7 42 15 57 20 86 18 189 -12z m9206 -8
c0 -2 -27 -60 -60 -129 -43 -90 -69 -132 -93 -150 -67 -51 -85 -25 -72 103 11
102 11 121 2 154 l-7 27 115 0 c63 0 115 -2 115 -5z m-4410 -83 c0 -15 -24
-32 -47 -32 -25 0 -29 10 -11 28 13 13 58 16 58 4z m-1902 -18 c88 -18 190
-58 268 -106 l54 -32 0 -61 c-1 -33 -9 -135 -18 -226 l-17 -165 -35 9 c-34 9
-121 5 -187 -9 -29 -6 -34 -3 -43 22 -16 42 -37 61 -111 105 -37 21 -79 53
-93 70 l-26 31 0 -32 c0 -37 45 -86 125 -135 61 -38 84 -69 88 -120 2 -37 0
-40 -26 -43 -31 -4 -75 36 -115 105 -17 27 -35 44 -60 52 -82 29 -131 77 -152
152 -8 27 -7 28 78 59 95 34 157 67 185 97 17 19 16 23 -27 99 -25 44 -56 92
-69 106 -22 23 -23 28 -9 31 37 10 117 6 190 -9z m3990 -201 c-10 -21 -20 -27
-38 -25 -14 1 -28 6 -33 11 -13 13 15 52 48 66 27 12 30 12 33 -6 2 -10 -3
-31 -10 -46z m-7914 -63 c58 -53 115 -137 166 -241 16 -35 30 -64 30 -66 0 -1
-12 2 -27 8 -15 6 -96 13 -180 16 l-153 6 0 26 c1 115 62 301 99 301 5 0 34
-23 65 -50z m7726 0 c112 -15 111 -14 94 -55 -23 -55 -35 -200 -24 -300 5 -49
10 -96 10 -102 0 -24 36 -13 104 32 39 25 80 45 95 45 19 -1 55 -27 127 -93
55 -51 121 -102 146 -115 59 -29 151 -46 210 -38 39 6 48 4 48 -9 0 -8 20 -24
45 -36 35 -16 45 -27 45 -45 l0 -24 -481 0 c-466 0 -482 1 -506 20 -33 26 -86
26 -182 -1 -87 -25 -213 -31 -232 -11 -10 10 5 12 77 12 74 1 86 3 69 13 -14
9 -86 12 -260 10 -226 -1 -239 0 -219 15 11 9 67 52 123 95 69 53 118 100 149
143 45 62 48 65 82 59 109 -17 276 -24 335 -15 116 19 150 42 88 59 -53 15
-147 13 -288 -4 -65 -8 -132 -15 -148 -15 -29 0 -29 1 -23 39 3 21 22 79 41
129 19 50 35 109 35 131 0 22 5 43 10 46 35 22 305 31 430 15z m473 -55 c3
-29 24 -98 46 -154 23 -56 41 -113 41 -127 0 -25 0 -25 -81 -22 l-80 3 -56
123 c-38 86 -57 141 -60 180 l-5 57 94 -3 95 -3 6 -54z m-256 -17 c23 -25 47
-89 58 -153 4 -22 16 -55 27 -74 10 -18 16 -36 13 -40 -4 -3 -35 -6 -69 -6
l-63 0 -1 57 c0 31 -6 84 -12 118 -12 67 -6 120 14 120 7 0 22 -10 33 -22z
m-1410 -101 c-3 -56 -10 -114 -16 -130 l-11 -27 -141 0 -142 0 20 23 c11 12
39 51 63 87 24 36 52 76 64 89 28 31 93 61 135 61 l34 0 -6 -103z m-2967 -48
c14 -24 36 -48 48 -54 28 -13 28 -21 -3 -41 -38 -25 -325 -26 -325 -1 0 28 59
79 135 116 94 45 109 43 145 -20z m-3033 -130 c47 -23 83 -65 83 -97 0 -54
-70 -38 -156 35 -61 52 -65 57 -48 70 26 19 71 16 121 -8z m5382 -41 c40 -31
139 -164 129 -174 -8 -7 -175 52 -220 79 -25 15 -53 42 -66 66 l-23 41 60 0
c34 0 61 4 61 10 0 17 15 11 59 -22z m2432 -25 c3 -17 20 -49 36 -70 17 -21
36 -49 43 -62 l12 -24 -50 6 c-61 7 -99 25 -141 68 -28 27 -71 97 -71 114 0 3
37 5 82 3 l82 -3 7 -32z"/>
<path d="M5095 3081 c-128 -33 -206 -71 -345 -167 l-75 -52 -76 18 c-162 38
-308 54 -509 54 -218 0 -333 -16 -485 -65 -80 -26 -172 -67 -153 -69 4 0 71
15 150 34 406 98 612 106 882 36 205 -54 286 -40 409 69 96 85 122 94 267 96
69 1 134 4 145 8 17 7 25 -2 53 -56 31 -60 66 -105 202 -258 47 -54 51 -62 30
-56 -80 19 -192 27 -232 16 -41 -11 -109 -67 -120 -98 -3 -12 -10 -10 -35 8
-30 22 -87 27 -81 6 5 -15 128 -55 170 -55 37 0 38 1 53 55 10 33 23 56 34 60
9 3 44 -4 77 -15 32 -11 92 -23 133 -27 l74 -6 -6 46 c-10 71 -41 121 -110
177 -134 109 -150 125 -173 174 -13 28 -24 59 -24 69 0 15 -11 17 -92 16 -54
0 -123 -8 -163 -18z"/>
<path d="M3099 2949 c-20 -4 -71 -22 -113 -39 -42 -16 -96 -30 -119 -30 -41
-1 -42 -1 -17 -15 41 -24 110 -18 173 13 l56 28 21 -29 c25 -33 88 -62 154
-72 61 -10 58 6 -5 28 -40 15 -53 25 -64 51 -8 18 -11 43 -8 54 6 25 -12 27
-78 11z"/>
<path d="M4858 2734 c-23 -12 -58 -59 -58 -78 0 -3 16 6 36 19 43 29 54 30
140 9 36 -9 67 -14 71 -11 18 19 -83 77 -133 77 -16 -1 -41 -7 -56 -16z"/>
<path d="M11390 4222 c0 -12 19 -26 26 -19 2 2 -2 10 -11 17 -9 8 -15 8 -15 2z"/>
<path d="M9958 1890 c-106 -18 -230 -72 -370 -162 -59 -38 -78 -55 -78 -72 0
-20 27 -67 75 -133 26 -34 1 -35 -45 -2 -53 39 -120 51 -120 23 0 -11 -12 -37
-25 -59 -33 -53 -31 -70 6 -86 25 -10 46 -10 101 -1 95 17 122 15 143 -8 17
-19 17 -20 -16 -34 -19 -8 -74 -24 -123 -35 -102 -24 -150 -50 -171 -92 -14
-27 -14 -29 2 -29 73 -1 499 -63 511 -75 2 -1 -12 -8 -31 -14 -23 -8 -102 -11
-229 -9 -156 2 -199 0 -222 -12 -16 -8 -31 -21 -34 -28 -3 -10 49 -12 250 -10
231 3 257 1 296 -16 23 -10 42 -24 42 -31 0 -38 -99 -135 -240 -235 -118 -84
-246 -217 -227 -236 8 -8 72 22 123 57 26 17 86 68 133 113 47 45 106 98 131
117 48 39 149 94 157 85 3 -2 7 -51 10 -108 4 -83 1 -115 -14 -163 l-19 -60
-124 3 c-122 3 -256 -10 -274 -28 -17 -17 67 -23 225 -16 87 4 168 5 179 1 18
-6 20 -15 20 -96 0 -102 10 -129 45 -129 25 0 25 1 25 95 0 52 5 106 12 120
11 24 13 25 117 25 146 0 224 -14 303 -54 63 -32 66 -32 51 -10 -21 33 -11 50
34 57 37 6 83 31 83 46 0 4 -24 7 -53 8 -126 3 -187 42 -278 176 -34 50 -71
101 -81 113 -19 21 -19 21 24 26 24 3 117 3 207 -1 183 -8 260 -2 315 24 48
23 35 32 -73 46 -63 9 -118 7 -258 -5 -199 -18 -323 -21 -323 -7 0 18 61 61
103 72 29 8 77 9 157 3 201 -15 340 -12 388 10 24 11 39 23 35 27 -15 14 -110
15 -285 3 -171 -12 -297 -7 -334 14 -36 20 48 51 221 81 158 28 278 86 217
105 -11 4 -58 13 -105 20 -80 13 -137 37 -137 57 0 5 71 9 159 9 156 0 226 11
218 34 -2 6 -17 49 -32 95 -32 96 -60 131 -104 131 -27 0 -38 -10 -86 -80 -60
-84 -97 -120 -125 -120 -45 0 -32 26 59 125 37 40 75 89 85 110 18 37 18 37
-8 64 -68 71 -215 134 -365 156 -136 21 -125 26 -117 -55 9 -96 2 -120 -34
-120 -35 0 -42 19 -40 103 3 77 2 87 -7 86 -5 -1 -29 -5 -55 -9z m346 -495
c-24 -78 -126 -165 -194 -165 -24 0 -47 88 -30 119 6 12 12 21 13 21 1 0 27
-7 57 -15 30 -8 68 -15 83 -15 43 0 28 23 -21 33 -39 8 -52 23 -35 41 4 4 36
6 70 4 57 -3 62 -5 57 -23z m-278 -49 c13 -55 -36 -103 -115 -112 -32 -4 -38
-1 -56 28 -11 18 -31 38 -45 45 -14 7 -24 19 -22 25 7 30 37 38 134 38 95 0
98 -1 104 -24z m-276 -58 c19 -13 40 -38 47 -55 l13 -33 -57 0 c-49 0 -222 19
-231 26 -12 8 27 49 61 65 58 26 126 25 167 -3z m695 -7 c17 -3 30 -11 29 -16
-1 -21 -91 -54 -161 -61 -70 -6 -73 -6 -73 15 0 12 11 33 25 46 21 22 33 25
87 24 35 -1 77 -4 93 -8z m-275 -420 c23 -12 52 -44 87 -97 29 -43 68 -93 87
-111 56 -52 22 -62 -189 -55 l-80 2 -2 146 -1 145 31 -6 c18 -4 48 -15 67 -24z"/>
<path d="M9372 949 c10 -5 56 -15 103 -21 92 -12 277 1 312 21 13 7 -44 10
-207 10 -155 0 -220 -3 -208 -10z"/>
<path d="M7055 1173 c-43 -6 -56 -23 -18 -23 37 0 63 9 63 21 0 5 -3 8 -7 8
-5 -1 -21 -4 -38 -6z"/>
<path d="M2243 6124 c-3 -8 -1 -20 6 -27 8 -8 11 -4 11 16 0 30 -7 35 -17 11z"/>
<path d="M7252 6002 c-24 -73 -28 -127 -12 -137 6 -4 10 7 10 25 0 63 60 121
155 150 72 22 62 30 -36 30 l-95 0 -22 -68z"/>
<path d="M8185 6005 c-49 -17 -105 -76 -105 -109 0 -36 17 -40 24 -6 3 19 17
37 38 51 29 18 45 20 136 16 101 -4 102 -4 85 16 -40 45 -108 57 -178 32z"/>
<path d="M9035 6009 c-53 -17 -95 -65 -95 -108 l0 -25 28 27 c63 60 155 74
216 32 20 -14 39 -25 41 -25 2 0 -1 14 -7 30 -20 59 -111 93 -183 69z"/>
<path d="M9562 5895 c-58 -29 -104 -45 -128 -45 l-37 0 20 -22 c32 -36 44 -65
37 -93 -6 -24 -5 -24 26 -13 29 9 40 7 100 -22 43 -21 75 -30 86 -26 15 6 8
13 -34 37 -50 28 -92 77 -92 107 0 17 91 59 158 73 28 6 52 13 52 15 0 7 -66
34 -83 34 -7 0 -55 -20 -105 -45z"/>
<path d="M10537 5855 c-55 -21 -95 -52 -115 -91 l-18 -35 -26 20 c-69 55 -62
-19 9 -91 l46 -47 -21 -18 c-21 -18 -145 -193 -140 -198 2 -1 41 4 88 12 111
17 219 18 267 3 89 -30 120 -62 220 -235 23 -38 53 -81 67 -94 l26 -24 -24 69
c-31 92 -45 119 -127 241 -40 61 -64 105 -58 109 6 3 39 3 74 -1 57 -6 65 -4
74 14 6 11 11 22 11 24 0 5 -76 29 -265 86 -131 40 -145 50 -145 106 0 35 6
52 29 77 29 32 31 33 113 33 69 0 92 -5 136 -26 60 -30 67 -20 18 25 -56 54
-157 71 -239 41z m76 -311 c31 -16 57 -32 57 -36 0 -4 -9 -17 -20 -28 -22 -22
-44 -24 -163 -14 l-77 7 0 33 c0 21 8 42 21 55 18 18 30 21 73 16 28 -3 77
-18 109 -33z"/>
<path d="M7150 5790 c0 -5 13 -10 28 -10 35 0 55 -21 72 -75 27 -87 48 -86 52
3 3 63 4 67 28 70 14 2 29 8 35 13 5 5 -35 9 -103 9 -68 0 -112 -4 -112 -10z"/>
<path d="M10781 5685 c-13 -45 -10 -75 8 -75 13 0 33 64 29 92 -5 38 -23 30
-37 -17z"/>
<path d="M7256 5559 c-37 -24 -46 -33 -35 -40 21 -13 23 -12 58 31 17 22 31
40 29 40 -2 0 -25 -14 -52 -31z"/>
<path d="M6407 5500 c-52 -147 -58 -191 -25 -214 21 -15 23 -15 30 5 5 12 13
51 19 88 9 54 8 72 -4 101 -10 24 -16 30 -20 20z"/>
<path d="M8855 5478 c-67 -41 -125 -88 -125 -99 0 -13 138 58 166 86 23 24 31
45 17 45 -5 0 -30 -14 -58 -32z"/>
<path d="M3385 3907 c-69 -37 -157 -98 -151 -105 8 -7 185 90 208 115 29 31
14 29 -57 -10z"/>
<path d="M1348 1943 c-10 -2 -18 -9 -18 -15 0 -5 7 -7 16 -4 9 3 22 6 30 6 8
0 14 5 14 10 0 10 -12 11 -42 3z"/>
<path d="M1475 1731 c-27 -10 -92 -36 -142 -59 -51 -23 -122 -47 -158 -54 -51
-9 -74 -19 -100 -44 -20 -19 -65 -43 -112 -59 -187 -67 -232 -87 -269 -121
-26 -23 -35 -37 -26 -41 7 -3 24 -23 38 -44 13 -21 29 -39 34 -39 5 0 18 31
30 68 19 64 43 102 66 102 18 0 229 71 313 106 91 38 315 148 371 182 42 26
24 27 -45 3z"/>
<path d="M3830 1398 c-74 -65 -211 -152 -277 -177 -48 -18 -64 -29 -71 -50
-14 -41 -59 -89 -137 -146 -89 -67 -134 -111 -152 -154 -16 -37 -16 -37 39
-66 73 -40 143 -3 286 151 7 8 16 14 20 15 4 0 37 8 73 17 58 15 71 22 100 61
19 25 74 79 123 120 91 78 115 109 116 149 0 20 -4 22 -22 17 -45 -14 -95 -51
-188 -140 -113 -108 -172 -150 -243 -174 -48 -16 -53 -22 -69 -66 -21 -60 -51
-92 -100 -107 -45 -13 -52 -9 -39 25 15 39 77 103 162 168 41 31 83 68 91 81
9 13 63 53 122 88 113 68 176 122 201 171 28 53 14 60 -35 17z"/>
<path d="M2322 1019 c2 -7 34 -29 70 -49 78 -42 98 -58 108 -84 6 -18 17 -21
82 -22 94 -2 145 -24 173 -76 11 -20 17 -39 14 -42 -11 -11 -141 25 -260 73
-118 47 -225 79 -235 69 -8 -9 252 -126 337 -152 46 -14 117 -30 157 -34 l72
-8 0 24 c0 58 -25 108 -82 165 -62 60 -84 67 -128 42 -43 -25 -73 -19 -90 18
-19 41 -85 74 -164 83 -47 6 -58 4 -54 -7z"/>
<path d="M11400 270 c0 -13 11 -13 30 0 12 8 11 10 -7 10 -13 0 -23 -4 -23
-10z"/>
</g>
</svg>
