<?xml version="1.0" standalone="no"?>
<!DOCTYPE svg PUBLIC "-//W3C//DTD SVG 20010904//EN"
 "http://www.w3.org/TR/2001/REC-SVG-20010904/DTD/svg10.dtd">
<svg version="1.0" xmlns="http://www.w3.org/2000/svg"
 width="395.000000pt" height="380.000000pt" viewBox="0 0 595.000000 1280.000000"
 preserveAspectRatio="xMidYMid meet">
<metadata>
Created by potrace 1.15, written by Peter Selinger 2001-2017
</metadata>
<g transform="translate(0.000000,1280.000000) scale(0.100000,-0.100000)"
fill="#ecbcb4" stroke="none">
<path d="M2910 12551 c-93 -38 -164 -72 -305 -145 -75 -39 -160 -115 -177
-156 -19 -46 -6 -167 26 -242 5 -11 1 -23 -14 -35 -30 -25 -51 -68 -43 -90 3
-10 20 -33 36 -50 24 -25 39 -33 66 -33 20 0 41 -4 47 -8 6 -4 14 -35 17 -69
6 -58 5 -63 -13 -63 -10 0 -21 -4 -24 -8 -10 -17 12 -320 27 -348 8 -16 17
-45 21 -65 9 -51 52 -92 88 -85 26 5 28 3 28 -28 0 -34 0 -34 -33 -24 -18 6
-37 20 -43 32 -5 11 -22 27 -38 35 -24 11 -36 11 -80 0 -49 -14 -51 -16 -56
-54 -5 -38 -7 -40 -45 -47 -70 -12 -236 -24 -247 -17 -6 4 -13 30 -16 58 -6
67 -19 76 -85 63 -28 -6 -65 -15 -81 -21 l-28 -11 7 -88 c8 -101 34 -290 69
-494 14 -79 28 -170 31 -203 l7 -60 -69 -30 c-37 -16 -87 -47 -110 -68 -80
-74 -175 -247 -246 -447 -27 -78 -30 -98 -33 -243 -2 -86 -6 -162 -9 -167 -3
-5 -10 -51 -16 -102 -5 -51 -14 -129 -19 -173 -25 -215 -42 -373 -55 -505 -16
-160 -34 -239 -71 -310 -13 -26 -30 -78 -38 -117 -7 -40 -27 -95 -44 -125 -22
-39 -34 -75 -41 -133 -6 -44 -19 -107 -31 -140 -40 -114 -60 -214 -69 -337
-10 -128 -22 -176 -80 -302 -20 -42 -38 -105 -47 -160 -23 -147 -35 -198 -59
-251 -42 -96 -50 -148 -36 -223 37 -196 27 -216 -114 -225 -49 -3 -119 -10
-155 -16 -36 -6 -96 -16 -135 -22 -77 -11 -138 -41 -168 -81 -25 -34 -56 -146
-63 -233 l-7 -71 54 -64 c30 -36 60 -83 68 -105 7 -22 37 -85 67 -140 57 -105
105 -152 144 -142 10 3 24 0 29 -7 13 -16 35 -125 76 -386 46 -293 50 -317 90
-500 61 -282 169 -811 199 -985 9 -49 25 -128 36 -175 34 -144 101 -457 130
-615 33 -173 86 -401 124 -527 49 -168 51 -154 -62 -394 -55 -117 -118 -243
-140 -280 -60 -106 -160 -315 -167 -354 -8 -41 -131 -297 -169 -353 -19 -28
-28 -58 -35 -120 -6 -45 -13 -97 -17 -114 -6 -28 -3 -34 17 -41 13 -5 134 -14
269 -21 161 -7 297 -20 395 -36 95 -16 233 -29 375 -35 124 -6 387 -27 585
-46 918 -87 1142 -105 1455 -119 184 -8 440 -24 569 -35 302 -26 763 -28 833
-4 32 10 48 22 51 37 12 49 19 323 9 348 -6 15 -21 80 -33 145 -18 102 -21
155 -21 374 -1 194 3 272 15 327 13 60 14 98 6 230 -5 87 -14 196 -20 242 -6
46 -9 103 -6 126 9 65 -11 312 -30 385 -25 90 -30 92 -233 88 -91 -1 -315 -2
-499 0 l-334 2 6 78 c6 78 32 243 66 432 43 229 119 720 141 905 5 50 14 185
19 300 10 228 22 326 105 845 19 118 43 268 52 333 l17 117 33 0 c57 0 82 18
103 76 23 59 75 282 91 388 6 38 13 73 16 78 3 5 21 -2 39 -16 89 -68 175 2
175 143 1 74 36 165 67 169 43 6 100 -18 142 -60 37 -38 41 -47 36 -75 -13
-70 -34 -102 -80 -124 -25 -12 -45 -25 -45 -29 0 -4 -27 -13 -61 -20 -80 -17
-103 -36 -101 -85 2 -49 13 -61 77 -80 97 -28 219 -14 338 39 66 29 119 94
140 171 44 156 60 249 50 288 -7 24 -7 69 -2 120 28 283 49 1619 29 1852 -10
120 -34 233 -136 650 -89 362 -136 513 -294 945 -68 186 -186 448 -229 509
-19 27 -20 35 -10 152 5 68 18 201 29 294 31 279 32 291 12 314 -13 16 -31 21
-86 23 -66 3 -70 2 -76 -21 -5 -21 -7 -22 -19 -7 -10 12 -31 16 -85 16 -81 0
-103 -10 -114 -55 l-8 -29 -275 -4 c-332 -4 -551 5 -527 22 33 24 107 155 132
234 40 127 32 230 -21 272 -25 19 -35 20 -80 3 -9 -4 -13 7 -13 34 0 43 30 92
89 148 41 38 61 107 61 210 0 77 -2 84 -39 141 -68 104 -161 186 -301 266
-132 75 -287 108 -500 108 -122 0 -127 -1 -220 -39z m-684 -5276 c-13 -289
-14 -473 -6 -1060 6 -484 12 -720 20 -742 9 -24 21 -35 53 -45 l42 -13 8 -65
c4 -36 21 -152 38 -259 19 -120 34 -263 39 -375 10 -207 22 -295 84 -596 101
-488 118 -612 130 -930 2 -58 9 -150 16 -205 11 -88 10 -105 -4 -139 -9 -21
-16 -46 -16 -55 0 -9 -21 -58 -46 -108 l-47 -93 -61 0 c-74 0 -510 35 -621 50
-44 6 -98 8 -121 4 l-41 -6 -53 -111 -52 -112 -33 130 c-34 136 -43 177 -100
465 -20 96 -47 222 -60 280 -50 208 -83 376 -90 450 -4 41 -17 120 -31 175
-83 349 -132 582 -159 753 -14 86 -29 182 -35 212 -9 49 -22 193 -50 560 -5
63 -7 138 -4 166 6 47 8 52 42 64 21 8 69 15 109 15 67 2 75 5 117 38 57 47
96 124 96 190 0 34 7 58 21 79 19 26 23 28 38 14 15 -14 20 -13 44 3 32 21
127 118 154 158 23 33 59 128 152 398 37 110 101 288 140 395 40 107 87 249
106 315 18 66 49 174 68 240 19 66 39 152 46 190 14 86 60 303 69 330 14 40
12 -420 -2 -760z m1228 -1761 c14 -5 16 -45 16 -346 0 -530 -19 -866 -57 -998
-15 -51 -16 -53 -25 -30 -5 14 -8 115 -7 225 2 254 0 340 -12 445 -21 194 6
631 45 692 12 20 16 21 40 12z"/>
</g>
</svg>
