<?xml version="1.0" standalone="no"?>
<!DOCTYPE svg PUBLIC "-//W3C//DTD SVG 20010904//EN"
 "http://www.w3.org/TR/2001/REC-SVG-20010904/DTD/svg10.dtd">
<svg version="1.0" xmlns="http://www.w3.org/2000/svg"
 width="480.000000pt" height="440.000000pt" viewBox="0 0 1280.000000 640.000000"
 preserveAspectRatio="xMidYMid meet">
<metadata>
Created by potrace 1.15, written by Peter Selinger 2001-2017
</metadata>
<g transform="translate(0.000000,640.000000) scale(0.100000,-0.100000)"
fill="white" stroke="none">
<path d="M11485 5544 c-11 -3 -30 -7 -43 -10 -57 -12 -165 -151 -202 -260 -49
-141 -50 -326 -6 -609 28 -171 32 -309 13 -364 -26 -74 -47 -32 -47 95 0 73
-17 169 -36 205 -23 46 -327 223 -484 282 -63 24 -313 92 -435 119 -95 21
-394 15 -533 -10 -62 -11 -119 -25 -127 -32 -37 -31 -9 -75 88 -140 20 -14 37
-28 37 -32 0 -15 -68 18 -140 69 -147 104 -224 130 -445 153 -126 13 -1110 26
-1152 15 l-28 -7 44 -39 c59 -53 151 -113 238 -155 47 -23 87 -51 114 -82 122
-138 116 -182 -7 -56 -66 68 -98 93 -124 99 -19 4 -68 25 -109 46 -84 44 -89
45 -168 23 -44 -12 -135 -18 -373 -23 -382 -9 -407 -16 -344 -90 24 -29 65
-55 281 -180 93 -53 119 -80 184 -192 88 -150 142 -196 300 -253 26 -9 82 -41
125 -72 142 -99 303 -166 444 -185 100 -14 133 -23 277 -74 258 -93 496 -150
688 -165 67 -5 161 -19 209 -30 154 -36 222 -41 626 -52 618 -16 788 -9 1180
47 91 13 237 31 325 40 233 23 314 50 329 110 7 28 -9 176 -25 240 -44 171
-107 287 -244 450 -80 96 -120 170 -135 253 -24 134 18 134 225 -1 291 -191
532 -278 613 -221 53 37 14 97 -133 199 -134 95 -316 296 -378 420 -14 28 -30
77 -36 108 -28 153 -143 305 -261 346 -36 12 -289 24 -325 15z"/>
<path d="M7663 5386 c9 -7 106 -43 215 -79 147 -50 218 -68 282 -74 103 -10
155 -4 155 17 0 12 -15 15 -70 16 -55 1 -96 10 -190 43 -149 52 -306 91 -365
91 -40 -1 -43 -2 -27 -14z"/>
<path d="M1935 4853 c-109 -25 -152 -76 -162 -194 -3 -38 -11 -73 -17 -78 -6
-5 -76 -11 -156 -14 -122 -4 -158 -9 -225 -31 -59 -20 -95 -26 -140 -24 -57 3
-60 2 -63 -21 -5 -30 21 -98 53 -141 68 -92 171 -120 444 -120 108 0 246 5
306 10 165 16 205 43 205 142 0 38 -6 53 -35 88 -52 63 -45 80 35 80 21 0 41
4 44 8 3 5 -9 28 -25 53 -17 24 -45 74 -64 110 -35 68 -93 129 -123 129 -9 0
-26 2 -37 4 -11 2 -29 2 -40 -1z"/>
<path d="M565 4806 c-16 -7 -46 -31 -65 -53 -26 -29 -47 -42 -75 -47 -22 -4
-69 -16 -103 -28 -74 -24 -111 -20 -207 18 -102 41 -127 24 -108 -71 29 -138
88 -204 256 -290 l118 -60 222 0 c258 0 278 5 318 80 27 52 23 61 -56 106
l-50 29 57 -6 c50 -6 59 -4 65 11 5 13 0 23 -18 34 -44 28 -85 77 -121 147
-67 127 -143 170 -233 130z"/>
<path d="M2220 4775 c0 -10 58 -34 165 -68 118 -38 204 -57 269 -57 37 -1 56
-6 131 -35 18 -7 19 -7 4 9 -39 42 -569 183 -569 151z"/>
<path d="M2570 4492 c41 -16 98 -40 125 -54 72 -37 191 -72 342 -102 72 -14
160 -35 195 -46 81 -25 100 -25 70 0 -34 28 -117 56 -207 70 -104 15 -211 46
-360 104 -78 31 -141 49 -180 52 l-60 5 75 -29z"/>
<path d="M2400 4243 c-87 -32 -110 -64 -110 -156 0 -32 -5 -59 -12 -65 -8 -6
-37 -7 -73 -3 -75 8 -168 -3 -309 -35 -123 -28 -165 -44 -185 -67 -24 -30 -5
-63 64 -106 35 -22 69 -50 75 -62 16 -28 128 -99 257 -162 l107 -52 182 -3
c218 -5 282 5 319 49 49 59 25 139 -66 217 -45 38 -49 52 -16 52 13 0 31 6 41
13 24 18 19 52 -31 195 -40 113 -65 152 -115 178 -27 14 -98 18 -128 7z"/>
<path d="M3465 4130 c-22 -5 -69 -21 -105 -38 -141 -63 -179 -69 -287 -47 -26
6 -33 3 -44 -16 -22 -41 -15 -128 14 -185 56 -111 199 -231 325 -273 58 -20
70 -21 180 -10 181 16 228 41 253 131 15 56 -6 116 -74 216 -31 46 -59 95 -62
110 -19 93 -93 134 -200 112z"/>
<path d="M6550 4011 c-36 -3 -60 -9 -54 -13 7 -5 103 -15 215 -23 112 -8 306
-27 430 -41 235 -26 319 -28 327 -6 7 22 -60 40 -223 56 -143 14 -576 38 -615
34 -8 -1 -44 -4 -80 -7z"/>
<path d="M4242 3858 c5 -14 82 -47 242 -104 55 -20 115 -44 133 -54 45 -26
107 -37 101 -19 -13 38 -185 121 -341 164 -103 28 -141 32 -135 13z"/>
<path d="M4961 3833 c-59 -21 -126 -89 -142 -145 -20 -69 -32 -78 -108 -78
-180 0 -401 -39 -523 -93 -29 -13 -94 -49 -144 -79 -51 -30 -112 -61 -138 -68
-25 -7 -46 -18 -46 -25 0 -22 54 -68 115 -96 102 -47 193 -60 414 -57 143 2
206 -1 235 -11 79 -27 545 4 626 42 19 9 27 24 34 60 8 40 6 56 -13 102 -36
85 -15 113 98 133 73 13 91 25 91 58 0 17 -8 28 -27 35 -63 26 -81 38 -167
118 -50 45 -108 92 -128 102 -45 23 -116 24 -177 2z"/>
<path d="M6900 3671 c58 -48 120 -61 368 -76 131 -8 354 -23 497 -34 143 -11
340 -25 437 -31 210 -13 259 -21 398 -65 131 -42 276 -60 356 -46 109 21 89
31 -78 41 -111 7 -148 13 -223 40 -49 18 -121 43 -160 57 -90 31 -181 38 -782
58 -503 17 -632 26 -728 52 -33 8 -71 17 -85 20 l-25 5 25 -21z"/>
<path d="M12420 3681 c0 -10 106 -58 203 -92 84 -29 114 -57 123 -115 3 -24
12 -48 20 -55 35 -28 49 126 15 160 -21 21 -159 69 -275 95 -78 18 -86 19 -86
7z"/>
<path d="M2898 3496 c4 -30 1 -34 -35 -48 -21 -8 -76 -21 -123 -28 -159 -24
-160 -29 -5 -26 171 3 225 17 225 59 0 20 -45 77 -61 77 -3 0 -3 -15 -1 -34z"/>
<path d="M9668 3491 c-122 -40 -220 -128 -293 -263 -35 -65 -39 -82 -43 -158
-5 -103 7 -155 87 -362 72 -188 89 -263 99 -426 19 -297 -23 -297 -49 0 -19
227 -43 293 -120 342 -63 40 -287 104 -524 150 -284 56 -517 83 -819 95 -223
9 -251 16 -376 83 -100 55 -196 120 -367 249 -146 111 -208 149 -242 149 -55
0 -37 -62 60 -210 l80 -123 -60 7 c-34 3 -88 9 -122 12 l-61 7 7 -59 c12 -94
41 -197 80 -281 69 -147 76 -182 23 -125 -58 62 -126 182 -169 296 -17 46 -28
60 -59 76 -111 57 -465 87 -540 46 -19 -10 -65 -22 -101 -26 -91 -10 -143 -36
-147 -73 -4 -37 40 -173 86 -262 28 -53 64 -97 152 -185 133 -132 256 -224
387 -287 50 -24 96 -50 101 -56 5 -7 12 -41 14 -77 5 -78 43 -161 105 -230 53
-59 102 -82 218 -104 252 -48 271 -55 444 -144 422 -218 429 -221 595 -242 44
-6 230 -22 411 -35 310 -24 429 -30 1013 -55 154 -6 240 -14 255 -22 28 -16
192 -15 297 1 255 41 529 119 674 192 90 45 123 69 148 107 21 31 24 112 6
163 -21 61 -89 152 -192 255 -121 120 -179 158 -252 161 -163 7 -441 201 -592
412 -33 45 -39 61 -23 61 5 0 74 -64 153 -143 290 -291 433 -362 510 -254 45
63 22 113 -136 302 -136 162 -162 233 -176 485 -12 234 -39 308 -157 431 -119
125 -249 165 -385 120z m-2150 -1271 c281 -63 368 -95 607 -225 186 -101 290
-153 470 -236 l50 -23 -32 -4 c-42 -4 -196 59 -452 187 -264 133 -370 174
-580 227 -182 46 -246 70 -277 106 -19 21 -19 21 6 15 14 -3 107 -24 208 -47z
m1404 -531 c75 -21 133 -47 125 -56 -6 -5 -208 45 -287 71 l-45 15 68 -5 c38
-3 100 -15 139 -25z"/>
<path d="M3345 3451 c-57 -23 235 -47 323 -27 41 10 41 22 1 30 -45 9 -300 6
-324 -3z"/>
<path d="M12235 3389 c-77 -4 -336 -13 -575 -19 -427 -10 -490 -14 -490 -30 0
-21 125 -31 400 -32 550 -2 538 -3 650 20 58 12 155 26 215 31 102 9 165 23
165 36 0 7 -193 4 -365 -6z"/>
<path d="M1305 3369 c181 -32 245 -47 374 -91 164 -55 235 -68 371 -67 l95 1
-95 19 c-52 11 -140 36 -195 56 -55 19 -129 43 -163 54 -62 18 -287 40 -387
38 l-50 -1 50 -9z"/>
<path d="M2059 3355 c91 -43 256 -65 488 -65 154 0 209 12 105 24 -31 3 -166
15 -299 26 -133 11 -261 22 -285 25 l-43 5 34 -15z"/>
<path d="M5427 3256 c11 -97 -17 -120 -162 -130 -102 -7 -146 -16 -142 -31 3
-16 275 -13 314 3 65 28 80 120 28 176 -34 37 -43 33 -38 -18z"/>
<path d="M10313 3183 c-7 -2 -13 -8 -13 -13 0 -20 80 -33 285 -46 121 -7 270
-21 330 -30 123 -18 192 -15 375 17 75 14 171 22 277 24 126 2 173 7 213 21
27 10 50 22 50 26 0 17 -333 0 -535 -27 -137 -19 -219 -19 -343 -1 -167 25
-601 45 -639 29z"/>
<path d="M4345 3061 l-40 -7 40 -7 c66 -11 448 -20 491 -12 l39 8 -35 8 c-48
11 -445 19 -495 10z"/>
<path d="M3552 3049 c-68 -4 -127 -11 -130 -14 -10 -11 638 2 678 13 43 12
-364 13 -548 1z"/>
<path d="M11120 1760 c0 -5 33 -36 73 -67 39 -32 96 -81 124 -110 47 -47 54
-50 68 -37 37 38 5 83 -93 133 -34 17 -82 44 -108 61 -51 32 -64 36 -64 20z"/>
<path d="M11044 1675 c16 -123 18 -166 7 -192 -16 -38 -105 -101 -182 -128
-106 -37 -552 -235 -545 -242 7 -7 204 47 302 82 220 80 468 201 519 255 25
26 26 29 12 61 -8 19 -38 72 -67 119 -50 81 -52 83 -46 45z"/>
<path d="M5027 1551 c-185 -14 -157 -22 178 -51 325 -28 414 -41 565 -84 115
-33 206 -44 390 -50 249 -8 392 -28 487 -67 40 -16 56 -4 26 21 -30 24 -175
67 -248 74 -33 3 -89 15 -125 26 -46 15 -110 24 -215 30 -161 9 -272 24 -540
71 -187 33 -345 42 -518 30z"/>
<path d="M7126 1161 c-9 -14 29 -20 239 -36 207 -16 327 -32 455 -61 61 -14
131 -18 365 -19 169 -1 321 -7 365 -14 82 -13 614 -18 668 -7 17 4 32 11 32
16 0 23 -77 30 -314 30 -213 -1 -270 2 -376 21 -103 17 -171 22 -395 24 -192
1 -298 7 -365 18 -182 31 -660 51 -674 28z"/>
<path d="M6393 1010 c-39 -4 -76 -11 -82 -14 -33 -21 2 -26 162 -24 166 1 176
0 277 -29 58 -17 143 -36 190 -42 103 -13 392 -28 675 -36 116 -3 235 -8 265
-11 70 -6 50 8 -51 35 -118 33 -202 41 -523 51 -223 7 -315 14 -356 25 -30 9
-82 23 -115 30 -73 18 -344 27 -442 15z"/>
</g>
</svg>
