<?xml version="1.0" standalone="no"?>
<!DOCTYPE svg PUBLIC "-//W3C//DTD SVG 20010904//EN"
 "http://www.w3.org/TR/2001/REC-SVG-20010904/DTD/svg10.dtd">
<svg version="1.0" xmlns="http://www.w3.org/2000/svg"
 width="1280.000000pt" height="640.000000pt" viewBox="0 0 1280.000000 640.000000"
 preserveAspectRatio="xMidYMid meet">
<metadata>
Created by potrace 1.15, written by Peter Selinger 2001-2017
</metadata>
<g transform="translate(0.000000,640.000000) scale(0.100000,-0.100000)"
fill="#000000" stroke="none">
<path d="M5364 5528 c-9 -18 -65 -80 -123 -138 -160 -158 -322 -245 -540 -292
-127 -27 -363 -21 -484 12 -235 63 -473 221 -600 398 -17 23 -33 42 -36 42 -3
-1 -22 -24 -41 -51 -52 -75 -187 -197 -285 -258 -103 -65 -234 -116 -365 -143
-135 -28 -367 -21 -490 14 -236 69 -443 205 -580 383 -23 30 -45 55 -49 55 -3
-1 -24 -26 -46 -56 -81 -113 -250 -250 -385 -311 -160 -73 -302 -103 -480
-103 -306 0 -561 109 -776 332 -61 63 -85 83 -81 67 3 -13 36 -245 73 -516
l68 -492 56 -41 c134 -100 321 -163 535 -181 416 -34 785 105 993 375 l45 58
25 -33 c45 -61 166 -174 231 -218 368 -250 935 -249 1306 2 75 51 152 123 206
193 l41 54 21 -28 c23 -30 155 -175 215 -235 53 -53 217 -133 337 -163 55 -13
153 -28 220 -33 435 -30 790 110 1005 398 l26 34 53 -66 c115 -146 335 -282
533 -332 182 -45 411 -49 595 -11 247 52 455 181 604 374 l26 34 37 -50 c78
-106 224 -221 361 -282 156 -70 311 -101 505 -101 257 -1 469 55 630 164 68
47 120 91 120 103 0 7 15 23 33 37 17 14 55 54 82 90 28 36 52 66 55 66 3 1
13 -11 22 -26 26 -43 146 -161 214 -209 203 -145 503 -220 777 -195 320 30
582 158 741 362 l53 67 57 -69 c190 -233 499 -363 856 -362 299 2 519 72 700
223 44 37 48 44 54 97 3 32 37 269 74 527 62 427 66 466 48 440 -119 -164
-297 -307 -467 -375 -129 -51 -220 -70 -366 -76 -218 -9 -368 23 -548 115
-149 77 -324 225 -383 324 -20 35 -25 35 -47 1 -112 -173 -361 -345 -595 -409
-129 -35 -353 -44 -484 -20 -156 30 -305 94 -441 191 -72 51 -181 157 -226
220 -18 25 -36 45 -40 45 -5 0 -23 -21 -41 -47 -116 -171 -347 -324 -584 -390
-91 -25 -114 -28 -279 -28 -197 0 -260 10 -405 67 -150 59 -325 183 -417 296
-36 45 -43 49 -43 30 -1 -21 -2 -21 -28 10 l-28 34 -29 -39 c-170 -225 -431
-380 -715 -424 -118 -18 -325 -6 -440 26 -125 34 -274 108 -381 189 -81 61
-183 166 -224 229 -16 26 -18 26 -32 10 -13 -16 -13 -15 -8 15 4 17 4 32 1 32
-3 0 -13 -15 -22 -32z"/>
<path d="M1815 3754 c-53 -75 -163 -178 -252 -237 -211 -140 -477 -206 -722
-179 -266 30 -464 125 -654 312 -53 54 -97 92 -97 86 0 -6 31 -234 69 -506
l70 -495 41 -36 c50 -43 172 -109 255 -137 215 -72 518 -81 749 -22 226 58
425 183 542 342 l42 57 42 -55 c287 -371 890 -493 1376 -278 126 56 281 180
366 294 l27 35 17 -25 c10 -14 53 -61 96 -106 43 -44 78 -85 78 -91 0 -17 113
-98 184 -132 147 -69 282 -100 476 -108 328 -14 626 84 826 270 40 38 89 90
109 118 l37 49 40 -52 c276 -348 794 -479 1271 -321 147 49 261 118 368 223
47 47 96 99 107 115 l21 30 27 -35 c55 -72 184 -187 262 -234 352 -211 840
-222 1199 -27 58 31 164 113 171 132 2 5 28 34 58 65 30 31 67 74 82 96 l26
40 15 -23 c35 -55 172 -185 248 -235 199 -133 429 -193 698 -181 349 15 625
145 816 385 l34 44 54 -66 c108 -134 297 -257 473 -310 154 -46 195 -51 388
-50 150 0 202 4 276 21 171 40 318 109 417 196 l47 42 75 519 c42 285 73 521
71 523 -2 3 -9 -5 -16 -17 -24 -46 -133 -161 -209 -222 -462 -369 -1149 -294
-1520 167 l-58 73 -49 -65 c-62 -82 -146 -160 -249 -228 -436 -291 -1017 -229
-1381 148 -44 45 -91 97 -105 115 l-25 33 -59 -76 c-211 -276 -601 -438 -958
-397 -180 20 -354 81 -487 172 -86 58 -189 150 -225 198 -32 45 -50 54 -40 22
10 -30 -1 -24 -29 16 l-24 35 -45 -58 c-158 -205 -381 -343 -647 -399 -110
-23 -325 -24 -426 -1 -277 62 -504 209 -672 433 -18 25 -23 27 -33 14 -8 -12
-10 -9 -6 13 6 36 -4 34 -28 -5 -10 -18 -54 -69 -97 -114 -415 -432 -1101
-443 -1531 -25 -44 42 -95 97 -114 123 l-35 48 -44 -59 c-59 -79 -172 -183
-256 -238 -395 -256 -895 -238 -1266 44 -75 57 -190 175 -220 225 -9 15 -19
28 -22 28 -3 0 -23 -26 -45 -56z"/>
<path d="M1850 2068 c-93 -116 -209 -207 -355 -278 -289 -140 -590 -155 -879
-44 -152 59 -270 139 -395 268 -40 42 -74 76 -75 76 -2 0 1 -27 6 -59 5 -33
38 -262 72 -510 72 -511 54 -457 178 -532 245 -149 608 -189 941 -105 217 55
441 202 543 355 l27 42 26 -33 c190 -246 473 -386 816 -405 364 -19 713 117
908 355 l61 74 24 -29 c13 -15 49 -54 80 -86 31 -32 61 -68 66 -79 16 -31 139
-113 221 -147 142 -60 316 -91 505 -91 324 0 586 92 754 265 49 50 74 81 144
175 2 3 7 -2 12 -11 25 -45 113 -138 181 -192 129 -104 275 -171 461 -214 105
-24 393 -24 506 1 153 33 301 94 412 169 50 34 172 153 213 207 l27 35 27 -35
c150 -193 360 -319 625 -376 165 -35 441 -28 610 15 229 59 434 189 554 352
l36 49 37 -48 c58 -73 139 -148 220 -204 356 -246 928 -248 1294 -5 76 51 183
152 235 222 l22 30 32 -40 c99 -125 254 -242 402 -304 325 -135 768 -116 1049
45 81 47 177 122 177 139 0 11 132 937 144 1010 l5 30 -27 -35 c-48 -62 -165
-181 -222 -225 -119 -92 -284 -168 -435 -201 -97 -21 -322 -24 -410 -5 -275
57 -521 205 -669 402 l-44 58 -41 -52 c-100 -131 -246 -248 -395 -318 -359
-168 -765 -134 -1092 92 -84 59 -194 163 -244 233 -31 42 -50 57 -50 39 0 -5
-10 -19 -21 -33 l-20 -25 4 33 c5 41 -4 41 -28 0 -32 -55 -173 -194 -251 -248
-211 -146 -478 -218 -701 -190 -262 33 -473 137 -657 324 -76 77 -88 86 -82
61 8 -33 7 -32 -48 37 l-38 47 -42 -57 c-164 -220 -444 -376 -741 -412 -380
-46 -789 137 -1009 451 -8 13 -17 21 -19 18 -124 -175 -273 -299 -456 -380
-236 -104 -487 -122 -730 -53 -221 63 -451 220 -574 392 l-31 43 -21 -28
c-226 -311 -618 -488 -990 -444 -311 36 -567 180 -770 433 l-30 37 -65 -81z"/>
</g>
</svg>
