<?xml version="1.0" standalone="no"?>
<!DOCTYPE svg PUBLIC "-//W3C//DTD SVG 20010904//EN"
 "http://www.w3.org/TR/2001/REC-SVG-20010904/DTD/svg10.dtd">
<svg version="1.0" xmlns="http://www.w3.org/2000/svg"
 width="157.000000pt" height="174.000000pt" viewBox="0 0 157.000000 174.000000"
 preserveAspectRatio="xMidYMid meet">
<metadata>
Created by potrace 1.16, written by Peter Selinger 2001-2019
</metadata>
<g transform="translate(0.000000,174.000000) scale(0.100000,-0.100000)"
fill="#000000" stroke="none">
<path d="M250 1660 c0 -16 -4 -30 -9 -30 -4 0 -6 12 -3 28 2 15 2 25 -1 22 -3
-3 -7 -17 -9 -32 -2 -14 -10 -33 -17 -41 -7 -9 -13 -41 -13 -72 -1 -40 -5 -54
-14 -51 -9 3 -12 -14 -12 -64 0 -49 4 -67 12 -64 8 3 13 -8 14 -31 2 -28 -1
-35 -16 -35 -10 0 -23 -5 -30 -12 -15 -15 -16 -114 -2 -123 6 -4 7 -11 4 -17
-4 -6 0 -6 13 1 11 6 23 7 27 4 3 -3 6 -37 6 -75 0 -58 -3 -68 -17 -69 -15 0
-15 -2 2 -9 16 -6 12 -9 -20 -11 l-40 -4 0 -170 c0 -169 0 -170 23 -173 l22
-3 0 -275 0 -274 -51 0 c-43 0 -50 -3 -47 -17 3 -17 46 -18 706 -21 557 -2
702 -5 696 -15 -4 -6 2 -3 14 7 12 11 22 24 22 29 0 6 -6 2 -14 -9 -14 -19
-14 -19 -13 1 2 17 -6 21 -53 26 l-55 6 50 3 50 3 -42 4 -43 4 0 262 0 262 23
10 c22 10 22 13 22 175 l0 165 -37 3 -38 3 0 82 c0 80 1 82 25 83 16 1 22 -2
18 -10 -4 -6 1 -5 10 3 13 10 17 28 15 75 l-1 61 -7 -65 -7 -65 -2 70 c-2 39
-3 73 -2 77 0 4 -10 3 -24 -2 -24 -9 -25 -8 -25 29 0 22 6 44 15 51 9 7 15 28
14 49 -1 41 -16 94 -20 71 -1 -8 -6 14 -10 50 -11 87 -11 89 -18 88 -23 -2
-31 6 -31 32 0 23 -4 30 -20 30 -15 0 -20 -7 -20 -25 0 -21 -43 -79 -52 -70
-2 2 -1 -21 0 -51 3 -40 0 -58 -13 -70 -14 -14 -15 -30 -9 -102 6 -73 5 -84
-8 -79 -12 4 -15 -8 -17 -65 -2 -57 1 -72 16 -83 15 -12 -48 -14 -404 -14
-382 -1 -458 4 -407 23 12 4 14 19 12 63 -3 49 -6 59 -26 68 -19 8 -22 17 -20
45 2 19 8 34 13 33 12 -2 7 98 -6 112 -5 5 -9 30 -9 56 0 37 -6 55 -27 80 -15
18 -28 37 -29 43 0 6 -2 17 -2 24 -1 6 -9 12 -17 12 -10 0 -15 -10 -15 -30z
m977 -577 c-7 -12 -897 -5 -897 7 0 11 880 19 894 8 4 -3 6 -10 3 -15z m3 -73
c0 -38 -2 -40 -29 -40 -23 0 -30 5 -33 23 -2 16 -10 22 -28 22 -16 0 -28 -8
-35 -22 -5 -13 -14 -23 -20 -23 -6 0 -15 10 -20 23 -7 14 -19 22 -35 22 -18 0
-26 -6 -28 -22 -2 -13 -9 -23 -15 -23 -7 0 -17 10 -22 23 -15 33 -53 35 -65 3
-12 -33 -24 -33 -38 0 -15 31 -52 30 -67 -3 -5 -13 -15 -23 -22 -23 -6 0 -13
10 -15 23 -2 16 -10 22 -28 22 -16 0 -28 -8 -35 -22 -5 -13 -14 -23 -20 -23
-6 0 -15 10 -20 23 -7 14 -19 22 -35 22 -18 0 -26 -6 -28 -22 -2 -13 -9 -23
-15 -23 -7 0 -17 10 -22 23 -15 33 -53 35 -65 3 -12 -33 -24 -33 -38 0 -15 31
-52 30 -67 -3 -6 -14 -18 -23 -32 -23 -20 0 -23 5 -23 40 l0 40 450 0 450 0 0
-40z m-850 -205 l0 -145 -115 0 -115 0 0 145 0 145 115 0 115 0 0 -145z m55
128 c6 -17 8 -17 21 2 15 19 16 19 29 2 13 -18 14 -18 24 0 11 17 12 17 26 -1
13 -17 15 -17 21 -3 8 22 34 22 34 0 1 -17 1 -17 14 0 7 9 18 17 25 17 6 0 11
-8 11 -17 1 -17 1 -17 14 0 7 9 17 17 21 17 4 0 14 -8 21 -17 13 -17 13 -17
14 0 0 9 5 17 11 17 7 0 18 -8 25 -17 13 -17 13 -17 14 0 0 22 26 22 34 0 6
-14 8 -14 21 3 14 18 15 18 26 1 10 -18 11 -18 25 0 14 17 14 17 28 0 14 -18
15 -18 25 0 11 17 12 17 26 -1 13 -17 15 -17 21 -3 8 22 34 22 34 0 1 -17 1
-17 14 0 7 9 18 17 25 17 6 0 11 -8 11 -17 1 -17 1 -17 14 0 16 21 36 22 36 2
0 -8 5 -15 10 -15 6 0 10 7 10 15 0 8 7 15 15 15 13 0 15 -23 15 -145 0 -122
-2 -145 -15 -145 -12 0 -15 16 -15 80 0 73 -3 83 -25 105 -29 30 -36 31 -66 6
-21 -17 -25 -30 -29 -102 -7 -111 -27 -117 -31 -10 -4 72 -7 84 -31 107 -26
26 -27 27 -53 10 -34 -23 -45 -54 -45 -132 l0 -65 -62 3 -63 3 -5 83 c-4 73
-8 86 -29 103 -28 23 -30 23 -61 -1 -22 -17 -26 -28 -30 -101 -3 -53 -9 -84
-17 -87 -10 -3 -13 16 -13 72 0 69 -2 78 -29 108 -28 32 -29 32 -55 14 -35
-23 -46 -53 -46 -132 0 -35 -4 -64 -9 -64 -9 0 -21 265 -13 283 6 13 20 8 27
-10z m973 -125 l-3 -143 -115 0 -115 0 -3 143 -3 142 121 0 121 0 -3 -142z
m-1078 -453 l0 -286 -62 3 -63 3 -3 283 -2 282 65 0 65 0 0 -285z m53 273 c3
-10 8 -10 21 1 15 12 19 13 26 1 7 -11 11 -12 25 0 10 8 19 10 26 3 6 -6 8
-115 7 -284 l-3 -274 -65 0 -65 0 -3 283 c-2 239 0 282 12 282 8 0 16 -6 19
-12z m161 0 c5 -10 7 -10 12 0 3 6 12 12 19 12 7 0 16 -6 19 -12 5 -10 7 -10
12 0 3 6 12 12 19 12 7 0 16 -6 19 -12 5 -10 7 -10 12 0 3 6 12 12 19 12 7 0
16 -6 19 -12 5 -10 7 -10 12 0 3 6 12 12 19 12 7 0 16 -6 19 -12 5 -10 7 -10
12 0 3 6 12 12 19 12 7 0 15 -6 18 -12 3 -10 8 -9 22 2 14 11 19 12 22 3 3 -7
11 -13 18 -13 7 0 16 6 19 13 5 10 7 10 12 0 3 -7 12 -13 19 -13 7 0 15 6 18
13 3 9 8 8 22 -3 14 -11 19 -12 22 -2 3 6 11 12 18 12 7 0 16 -6 19 -12 5 -10
7 -10 12 0 3 6 12 12 20 12 12 0 14 -43 12 -282 -3 -281 -3 -283 -24 -286 -21
-3 -22 0 -26 155 -3 130 -7 165 -23 197 -26 54 -71 96 -138 131 l-58 30 -67
-36 c-73 -39 -124 -95 -142 -157 -5 -20 -10 -101 -10 -179 l0 -143 -25 0 -25
0 0 285 c0 239 2 285 14 285 8 0 17 -6 20 -12z m560 0 c5 -10 7 -10 12 0 3 6
12 12 19 12 7 0 16 -6 19 -12 5 -10 7 -10 12 0 3 6 12 12 20 12 12 0 14 -46
14 -285 l0 -286 -62 3 -63 3 -3 283 c-2 239 0 282 12 282 8 0 17 -6 20 -12z
m251 -273 l0 -280 -65 0 -65 0 -3 270 c-1 148 0 276 3 283 3 9 23 12 67 10
l63 -3 0 -280z m-534 175 c22 -12 37 -25 34 -30 -3 -5 0 -7 7 -5 19 7 72 -50
63 -66 -6 -8 -4 -10 5 -4 10 6 12 4 7 -9 -4 -9 -3 -15 2 -12 17 11 21 -26 21
-175 l0 -149 -185 0 -185 0 0 133 c0 136 8 189 35 222 16 19 16 19 6 -2 -16
-32 -13 -42 3 -13 8 14 12 28 9 33 -7 12 18 39 33 33 6 -2 20 2 31 10 17 14
16 14 -7 4 -24 -11 -24 -10 -5 5 11 8 25 13 33 10 7 -2 10 -1 7 4 -5 9 21 30
38 31 4 0 26 -9 48 -20z"/>
</g>
</svg>
