<svg height="512" viewBox="0 0 60 60" width="512" xmlns="http://www.w3.org/2000/svg"><g id="007---Hyderabad-Charminar" fill="none"><g id="Icons" transform="translate(1 1)"><path id="Rectangle-path" d="m21 32h16v26h-16z" fill="#fec108"/><path id="Rectangle-path" d="m21 37h16v21h-16z" fill="#783e22"/><path id="Rectangle-path" d="m21 28h16v4h-16z" fill="#ff9801"/><path id="Rectangle-path" d="m48 18h8v10h-8z" fill="#f57c00"/><path id="Rectangle-path" d="m48 18h5v10h-5z" fill="#ff9801"/><path id="Rectangle-path" d="m2 18h8v10h-8z" fill="#f57c00"/><path id="Rectangle-path" d="m2 18h5v10h-5z" fill="#ff9801"/><path id="Shape" d="m12 28v30h-12v-29c0-.5522847.44771525-1 1-1z" fill="#f57c00"/><path id="Rectangle-path" d="m12 28h9v30h-9z" fill="#d84315"/><path id="Rectangle-path" d="m12 28h6v30h-6z" fill="#ff5722"/><path id="Rectangle-path" d="m12 32h9v11h-9z" fill="#f57c00"/><path id="Rectangle-path" d="m37 28h9v30h-9z" fill="#d84315"/><path id="Rectangle-path" d="m37 28h6v30h-6z" fill="#ff5722"/><path id="Rectangle-path" d="m37 32h9v11h-9z" fill="#f57c00"/><path id="Rectangle-path" d="m0 32h12v11h-12z" fill="#f57c00"/><path id="Shape" d="m9 28v30h-9v-29c0-.5522847.44771525-1 1-1z" fill="#ff9801"/><path id="Rectangle-path" d="m0 32h9v11h-9z" fill="#ff9801"/><path id="Rectangle-path" d="m0 43h12v4h-12z" fill="#fec108"/><path id="Shape" d="m12 28v4h-12v-3c0-.5522847.44771525-1 1-1z" fill="#fec108"/><path id="Rectangle-path" d="m0 43h9v4h-9z" fill="#ffdc00"/><path id="Shape" d="m9 28v4h-9v-3c0-.5522847.44771525-1 1-1z" fill="#ffdc00"/><path id="Shape" d="m33 47.59v10.41h-8v-10.41c0-2 .6-3.34 2.5-5.17.25-.24.53-.5.83-.76.3806191-.3435185.9593809-.3435185 1.34 0 2.56 2.24 3.33 3.68 3.33 5.93z" fill="#f57c00"/><path id="Shape" d="m30 47.59v10.41h-5v-10.41c0-2 .6-3.34 2.5-5.17 1.9 1.83 2.5 3.18 2.5 5.17z" fill="#ff9801"/><path id="Rectangle-path" d="m10 24h38v4h-38z" fill="#dfc49c"/><path id="Rectangle-path" d="m10 24h35v4h-35z" fill="#ffe0b2"/><path id="Shape" d="m58 29v29h-12v-30h11c.5522847 0 1 .4477153 1 1z" fill="#f57c00"/><path id="Shape" d="m55 29v29h-9v-30h8c.5522847 0 1 .4477153 1 1z" fill="#ff9801"/><path id="Rectangle-path" d="m46 32h12v11h-12z" fill="#f57c00"/><path id="Rectangle-path" d="m46 32h9v11h-9z" fill="#ff9801"/><path id="Rectangle-path" d="m46 43h12v4h-12z" fill="#fec108"/><path id="Shape" d="m58 29v3h-12v-4h11c.5522847 0 1 .4477153 1 1z" fill="#fec108"/><path id="Rectangle-path" d="m46 43h9v4h-9z" fill="#ffdc00"/><path id="Shape" d="m55 29v3h-9v-4h8c.5522847 0 1 .4477153 1 1z" fill="#ffdc00"/><path id="Shape" d="m58 15v2c0 .5522847-.4477153 1-1 1h-10c-.5522847 0-1-.4477153-1-1v-2c0-.5522847.4477153-1 1-1h10c.5522847 0 1 .4477153 1 1z" fill="#fec108"/><path id="Shape" d="m55 15v2c0 .5522847-.4477153 1-1 1h-7c-.5522847 0-1-.4477153-1-1v-2c0-.5522847.4477153-1 1-1h7c.5522847 0 1 .4477153 1 1z" fill="#ffdc00"/><path id="Shape" d="m58 9.47c-.0054996 2.4995684-2.0304316 4.5245004-4.53 4.53h-3c-2.4783871-.0328292-4.4702174-2.0513955-4.47-4.53 0-3.4 2.56-4.49 4-6.79.18-.29.35-.57.5-.85.24-.43.44-.84.62-1.23.1745653-.3234232.5124736-.52502632.88-.52502632s.7054347.20160312.88.52502632c.3257893.72111939.6999764 1.41937937 1.12 2.09 1.44 2.31 4 3.38 4 6.78z" fill="#dfc49c"/><path id="Shape" d="m55 9.47c-.0051603 2.4763948-1.9938941 4.491823-4.47 4.53h-.06c-2.4783871-.0328292-4.4702174-2.0513955-4.47-4.53 0-3.4 2.56-4.49 4-6.79.18-.29.35-.57.5-.85.15.28.32.56.5.86 1.44 2.31 4 3.38 4 6.78z" fill="#ffe0b2"/><path id="Shape" d="m12 15v2c0 .5522847-.4477153 1-1 1h-10c-.55228475 0-1-.4477153-1-1v-2c0-.5522847.44771525-1 1-1h10c.5522847 0 1 .4477153 1 1z" fill="#fec108"/><path id="Shape" d="m9 15v2c0 .5522847-.44771525 1-1 1h-7c-.55228475 0-1-.4477153-1-1v-2c0-.5522847.44771525-1 1-1h7c.55228475 0 1 .4477153 1 1z" fill="#ffdc00"/><path id="Shape" d="m12 9.47c-.0054996 2.4995684-2.03043164 4.5245004-4.53 4.53h-3c-2.47838713-.0328292-4.47021742-2.0513955-4.47-4.53 0-3.4 2.56-4.47 4-6.79.18-.29.35-.57.5-.85.24-.43.44-.84.62-1.23.17456535-.3234232.51247364-.52502632.88-.52502632s.70543465.20160312.88.52502632c.32578927.72111939.69997644 1.41937937 1.12 2.09 1.44 2.31 4 3.38 4 6.78z" fill="#dfc49c"/><path id="Shape" d="m9 9.47c-.00516033 2.4763948-1.99389408 4.491823-4.47 4.53h-.06c-2.47838713-.0328292-4.47021742-2.0513955-4.47-4.53 0-3.4 2.56-4.47 4-6.79.18-.29.35-.57.5-.85.15.28.32.56.5.86 1.44 2.31 4 3.38 4 6.78z" fill="#ffe0b2"/></g><g id="Layer_11" fill="#000"><path id="Shape" d="m5 41c.55228475 0 1-.4477153 1-1v-2c0-.5522847-.44771525-1-1-1s-1 .4477153-1 1v2c0 .5522847.44771525 1 1 1z"/><path id="Shape" d="m9 41c.55228475 0 1-.4477153 1-1v-2c0-.5522847-.44771525-1-1-1s-1 .4477153-1 1v2c0 .5522847.44771525 1 1 1z"/><path id="Shape" d="m18 47c-.5522847 0-1 .4477153-1 1v7c0 .5522847.4477153 1 1 1s1-.4477153 1-1v-7c0-.5522847-.4477153-1-1-1z"/><path id="Shape" d="m42 47c-.5522847 0-1 .4477153-1 1v7c0 .5522847.4477153 1 1 1s1-.4477153 1-1v-7c0-.5522847-.4477153-1-1-1z"/><path id="Shape" d="m18 36c-.5522847 0-1 .4477153-1 1v3c0 .5522847.4477153 1 1 1s1-.4477153 1-1v-3c0-.5522847-.4477153-1-1-1z"/><path id="Shape" d="m42 36c-.5522847 0-1 .4477153-1 1v3c0 .5522847.4477153 1 1 1s1-.4477153 1-1v-3c0-.5522847-.4477153-1-1-1z"/><path id="Shape" d="m51 41c.5522847 0 1-.4477153 1-1v-2c0-.5522847-.4477153-1-1-1s-1 .4477153-1 1v2c0 .5522847.4477153 1 1 1z"/><path id="Shape" d="m55 41c.5522847 0 1-.4477153 1-1v-2c0-.5522847-.4477153-1-1-1s-1 .4477153-1 1v2c0 .5522847.4477153 1 1 1z"/><path id="Shape" d="m57.35 5c-1.1025305-1.07581294-1.9736726-2.36551161-2.56-3.79-.338327-.67882903-1.0315318-1.10786772-1.79-1.10786772s-1.451673.42903869-1.79 1.10786772c-.3081593.68964588-.6622896 1.35781618-1.06 2-1.31 2.04-4.15 3.43-4.15 7.26-.00285 1.341675.488398 2.6374305 1.38 3.64-.8190394.2670427-1.3750535 1.0285402-1.38 1.89v2c0 1.1045695.8954305 2 2 2v4h-36v-4c1.1045695 0 2-.8954305 2-2v-2c.0037017-.8688306-.553961-1.640668-1.38-1.91.8870199-.9974204 1.3779476-2.2852163 1.38-3.62 0-2.69-1.41-4.18-2.65-5.47-1.1047874-1.08166601-1.97606166-2.37836717-2.56-3.81-.33832698-.67882903-1.03153181-1.10786772-1.79-1.10786772s-1.45167302.42903869-1.79 1.10786772c-.30815934.68964588-.6622896 1.35781618-1.06 2-1.31 2.06-4.15 3.45-4.15 7.28-.00284998 1.341675.48839798 2.6374305 1.38 3.64-.81903944.2670427-1.37505348 1.0285402-1.38 1.89v2c0 1.1045695.8954305 2 2 2v8h-1c-.55228475 0-1 .4477153-1 1v30c0 .5522847.44771525 1 1 1h58c.5522847 0 1-.4477153 1-1v-30c0-.5522847-.4477153-1-1-1h-1v-8c1.1045695 0 2-.8954305 2-2v-2c.0037017-.8688306-.553961-1.640668-1.38-1.91.8870199-.9974204 1.3779476-2.2852163 1.38-3.62 0-2.69-1.41-4.18-2.65-5.47zm-4.35-3c.668408 1.62808495 1.6542323 3.10682152 2.9 4.35 1.17 1.24 2.1 2.22 2.1 4.12 0 1.9495652-1.5804348 3.53-3.53 3.53h-2.94c-1.9495652 0-3.53-1.5804348-3.53-3.53 0-3.47 3.27-3.96 5-8.47zm5 28v2h-10v-2zm0 17h-10v-2h10zm-37-17v2h-7v-2zm16 0v2h-14v-2zm9 0v2h-7v-2zm12 13h-10v-9h10zm-46 0h-10v-9h10zm-10 2h10v2h-10zm12-11h7v9h-7zm9 0h14v3h-14zm16 0h7v9h-7zm9-8v2h-36v-2zm-46-8v-2h10v2zm5-16c.66840796 1.62808495 1.65423234 3.10682152 2.9 4.35 1.17 1.24 2.1 2.22 2.1 4.12 0 1.9495652-1.5804348 3.53-3.53 3.53h-2.94c-1.94956517 0-3.53-1.5804348-3.53-3.53 0-3.47 3.27-3.96 5-8.47zm-3 18h6v8h-6zm-2 10h10v2h-10zm0 19h10v9h-10zm12-4h7v13h-7zm9-6h14v19h-2v-9.41c0-2.59-.93-4.28-3.67-6.68-.7581689-.6750844-1.9018311-.6750844-2.66 0-2.74 2.4-3.67 4.09-3.67 6.68v9.41h-2zm4 19v-9.41c0-1.74.45-3 3-5.18 2.54 2.23 3 3.44 3 5.18v9.41zm12-13h7v13h-7zm9 13v-9h10v9zm8-30h-6v-8h6zm-8-10v-2h10v2z"/></g></g></svg>